<svg id="Layer_1" data-name="Layer 1" xmlns="http://www.w3.org/2000/svg" viewBox="0 0 88.7 58.54"><defs><style>.cls-1{fill:#ecf8fb;}.cls-2{fill:#fff;}.cls-3{fill:#abdff5;}.cls-4{fill:#637aaa;}.cls-5{fill:#d5f2f8;}</style></defs><title>Artboard 4</title><path class="cls-1" d="M22.6,57.55c-1.86-.3-24.15-3-22.51-22.78S3.79,9,12.46,6.84,42.2-5.64,58.74,4.16,93.12,22.75,86,38.39,77.8,59.26,59.32,58.46,31.42,59,22.6,57.55Z"/><g id="_Group_" data-name="&lt;Group&gt;"><path class="cls-2" d="M80.27,45.66v-42a1.39,1.39,0,0,0-1.38-1.38H9.75A1.39,1.39,0,0,0,8.37,3.67v42Z"/></g><g id="_Group_2" data-name="&lt;Group&gt;"><path class="cls-3" d="M81.16,46.54v-42a1.39,1.39,0,0,0-1.38-1.38H10.63A1.39,1.39,0,0,0,9.25,4.55v42Z"/></g><g id="_Group_3" data-name="&lt;Group&gt;"><path class="cls-4" d="M80.27,45.85H8.37a.19.19,0,0,1-.19-.19v-42A1.57,1.57,0,0,1,9.75,2.1H78.89a1.57,1.57,0,0,1,1.57,1.57v42A.19.19,0,0,1,80.27,45.85ZM8.56,45.47H80.08V3.67a1.19,1.19,0,0,0-1.19-1.19H9.75A1.19,1.19,0,0,0,8.56,3.67Z"/></g><g id="_Group_4" data-name="&lt;Group&gt;"><path class="cls-2" d="M83.88,50.09H4.75A3.93,3.93,0,0,1,.82,46.16v-.24a.23.23,0,0,1,.23-.23H87.59a.23.23,0,0,1,.23.23v.23A3.94,3.94,0,0,1,83.88,50.09Z"/></g><g id="_Group_5" data-name="&lt;Group&gt;"><path class="cls-3" d="M84.77,51H5.63A3.93,3.93,0,0,1,1.71,47V46.8a.23.23,0,0,1,.23-.23H88.47a.23.23,0,0,1,.23.23V47A3.94,3.94,0,0,1,84.77,51Z"/></g><g id="_Group_6" data-name="&lt;Group&gt;"><path class="cls-4" d="M83.88,50.28H4.75A4.12,4.12,0,0,1,.63,46.16v-.24a.42.42,0,0,1,.42-.42H87.59a.42.42,0,0,1,.42.42v.23A4.13,4.13,0,0,1,83.88,50.28ZM1.05,45.88a0,0,0,0,0,0,0v.24A3.74,3.74,0,0,0,4.75,49.9H83.88a3.75,3.75,0,0,0,3.74-3.74v-.23a0,0,0,0,0,0,0Z"/></g><g id="_Group_7" data-name="&lt;Group&gt;"><path class="cls-2" d="M34.32,45.69a1.4,1.4,0,0,0,1.38,1.17H52.94a1.4,1.4,0,0,0,1.38-1.17Z"/><path class="cls-4" d="M52.94,47.05H35.7a1.59,1.59,0,0,1-1.57-1.33.19.19,0,0,1,.19-.22h20a.19.19,0,0,1,.19.22A1.59,1.59,0,0,1,52.94,47.05ZM34.57,45.88a1.21,1.21,0,0,0,1.14.79H52.94a1.21,1.21,0,0,0,1.14-.79Z"/></g><g id="_Group_8" data-name="&lt;Group&gt;"><rect class="cls-2" x="12.32" y="5.63" width="64.01" height="38.04"/></g><g id="_Group_9" data-name="&lt;Group&gt;"><rect class="cls-2" x="12.32" y="5.63" width="64.01" height="38.04"/><path class="cls-4" d="M76.32,43.86h-64a.19.19,0,0,1-.19-.19v-38a.19.19,0,0,1,.19-.19h64a.19.19,0,0,1,.19.19v38A.19.19,0,0,1,76.32,43.86Zm-63.82-.38H76.13V5.82H12.51Z"/></g><g id="_Group_10" data-name="&lt;Group&gt;"><path class="cls-4" d="M76.32,43.86h-64a.19.19,0,0,1-.19-.19v-38a.19.19,0,0,1,.19-.19h64a.19.19,0,0,1,.19.19v38A.19.19,0,0,1,76.32,43.86Zm-63.82-.38H76.13V5.82H12.51Z"/></g><rect class="cls-5" x="13.05" y="6.22" width="63.1" height="3.73"/><path class="cls-4" d="M76.28,9.53h-64a.19.19,0,0,1-.19-.19V5.61a.19.19,0,0,1,.19-.19h64a.19.19,0,0,1,.19.19V9.34A.19.19,0,0,1,76.28,9.53ZM12.51,9.15H76.09V5.8H12.51Z"/><circle class="cls-2" cx="15.77" cy="7.91" r="0.86"/><circle class="cls-2" cx="18.37" cy="7.91" r="0.86"/><circle class="cls-2" cx="20.96" cy="7.91" r="0.86"/><path class="cls-4" d="M15.34,8.53a1.05,1.05,0,1,1,1.05-1.05A1.06,1.06,0,0,1,15.34,8.53Zm0-1.73a.67.67,0,1,0,.67.67A.68.68,0,0,0,15.34,6.8Z"/><path class="cls-4" d="M17.93,8.53A1.05,1.05,0,1,1,19,7.47,1.06,1.06,0,0,1,17.93,8.53Zm0-1.73a.67.67,0,1,0,.67.67A.68.68,0,0,0,17.93,6.8Z"/><path class="cls-4" d="M20.53,8.53a1.05,1.05,0,1,1,1.05-1.05A1.06,1.06,0,0,1,20.53,8.53Zm0-1.73a.67.67,0,1,0,.67.67A.68.68,0,0,0,20.53,6.8Z"/><rect class="cls-1" x="31.3" y="40.59" width="26.83" height="1.94"/><path class="cls-4" d="M39,41.57H50.28c.1,0,.28-.15.1-.15H39.06c-.1,0-.28.15-.1.15Z"/><path class="cls-4" d="M28.35,39.86H59.63a8.6,8.6,0,0,0,1.27,0H61c.15,0,.2-.2,0-.2H29.7a8.6,8.6,0,0,0-1.27,0h-.06c-.15,0-.2.2,0,.2Z"/><polygon class="cls-1" points="72.09 12.39 54.56 12.39 54.56 20.94 72.31 20.94 72.31 12.39 72.09 12.39"/><path class="cls-4" d="M70.11,18.54H56.82c-.05,0-.3.1-.17.1H69.93c.05,0,.3-.1.17-.1Z"/><path class="cls-4" d="M70.07,16.6H64.48c-.09,0-.28.13-.11.13H70c.09,0,.28-.13.11-.13Z"/><path class="cls-4" d="M62.29,16.58h-5.5c-.11,0-.27.17-.1.17h5.5c.11,0,.27-.17.1-.17Z"/><path class="cls-4" d="M62.36,14.67H56.77c-.09,0-.28.14-.1.14h5.59c.09,0,.28-.14.1-.14Z"/><polygon class="cls-1" points="72.27 25.65 54.74 25.65 54.74 34.21 72.49 34.21 72.49 25.65 72.27 25.65"/><path class="cls-4" d="M56.81,28.06H70.09c.05,0,.3-.1.17-.1H57c-.05,0-.3.1-.17.1Z"/><path class="cls-4" d="M56.84,30h5.59c.09,0,.28-.13.11-.13H57c-.09,0-.28.13-.11.13Z"/><path class="cls-4" d="M64.63,30h5.5c.11,0,.27-.17.1-.17h-5.5c-.11,0-.27.17-.1.17Z"/><path class="cls-4" d="M64.56,31.93h5.59c.09,0,.28-.14.1-.14H64.66c-.09,0-.28.14-.1.14Z"/><rect class="cls-1" x="16.7" y="12.47" width="9.91" height="8.55"/><path class="cls-4" d="M18.77,14.91h5.57c.12,0,.27-.17.1-.17H18.87c-.12,0-.27.17-.1.17Z"/><path class="cls-4" d="M18.8,16.67h5.5c.06,0,.3-.11.17-.11H19c-.06,0-.3.11-.17.11Z"/><path class="cls-4" d="M18.73,18.59h5.59c.05,0,.3-.1.17-.1H18.9c-.05,0-.3.1-.17.1Z"/><rect class="cls-1" x="16.7" y="25.24" width="9.91" height="8.55"/><path class="cls-4" d="M18.77,27.68h5.57c.12,0,.27-.17.1-.17H18.87c-.12,0-.27.17-.1.17Z"/><path class="cls-4" d="M18.8,29.45h5.5c.06,0,.3-.11.17-.11H19c-.06,0-.3.11-.17.11Z"/><path class="cls-4" d="M18.73,31.37h5.59c.05,0,.3-.1.17-.1H18.9c-.05,0-.3.1-.17.1Z"/><path class="cls-3" d="M71.89,38,56.74,29.2l.34-.76a14.75,14.75,0,1,0-1.73,3.36l15.06,8.72A1.47,1.47,0,1,0,71.89,38ZM32.1,26.43A11.53,11.53,0,1,1,46.21,34.6,11.55,11.55,0,0,1,32.1,26.43Z"/><path class="cls-4" d="M71.89,38.76,60.28,32,57.6,30.49l-.71-.41s-.13-.05-.14-.08a2.84,2.84,0,0,1,.23-.53,13.75,13.75,0,0,0,.83-7.31,14.75,14.75,0,0,0-2.45-6.26,14.9,14.9,0,0,0-9.71-6.17,15.08,15.08,0,0,0-11.19,2.59,14.74,14.74,0,0,0-2.92,21.26A14.92,14.92,0,0,0,41.83,39a14.88,14.88,0,0,0,13.53-6.4l-.25.07,6.51,3.77,8.2,4.75a2,2,0,0,0,1.42.38,1.54,1.54,0,0,0,.64-2.82c-.06,0-.29.07-.25.09a1.47,1.47,0,0,1,.61,1.82,1.31,1.31,0,0,1-1.86.63c-.22-.12-.44-.25-.66-.38L66.37,39,57.5,33.84l-2.15-1.25a.25.25,0,0,0-.25.07,14.41,14.41,0,0,1-16.25,5.62A14.69,14.69,0,0,1,35.12,12a14.62,14.62,0,0,1,16.21.21A14.79,14.79,0,0,1,57,28.91c-.13.4-.3.77-.47,1.15a0,0,0,0,0,0,0l5.11,3,8.15,4.72,1.89,1.09C71.71,38.89,71.93,38.78,71.89,38.76Z"/><path class="cls-4" d="M32.11,27.23A11.63,11.63,0,0,1,36.44,15a11.42,11.42,0,0,1,13.39.09A11.43,11.43,0,1,1,32.68,28.87a12,12,0,0,1-.57-1.64c0-.06-.28,0-.26.07a11.7,11.7,0,0,0,10.39,8.55,11.84,11.84,0,0,0,11.41-6.61,11.64,11.64,0,0,0-2.49-13.38,11.7,11.7,0,0,0-19.66,9.54,12,12,0,0,0,.34,1.89C31.86,27.36,32.12,27.29,32.11,27.23Z"/><path class="cls-5" d="M48.08,22.52a.29.29,0,0,1-.29-.29h0c0-3-1.9-5.38-4.32-5.38s-4.32,2.36-4.32,5.38h0a.29.29,0,0,1-.29.29h-.2a.29.29,0,0,0-.29.29v7.36a.29.29,0,0,0,.29.29h9.62a.29.29,0,0,0,.29-.29V22.81a.29.29,0,0,0-.29-.29Zm-3.79,5.7H42.64a.19.19,0,0,1-.18-.24l.46-1.8a.19.19,0,0,0-.08-.21.86.86,0,0,1-.43-.72,1.08,1.08,0,0,1,2.14,0,.86.86,0,0,1-.43.72.19.19,0,0,0-.08.21l.46,1.8A.19.19,0,0,1,44.29,28.23Zm2-5.72H40.69a.27.27,0,0,1-.27-.26h0c0-2.26,1.4-4.17,3-4.17s3,1.91,3,4.17h0A.27.27,0,0,1,46.25,22.51Z"/><path class="cls-4" d="M47.75,30.13H38.14a.48.48,0,0,1-.48-.48V22.29a.48.48,0,0,1,.48-.48h.2a.09.09,0,0,0,.07,0,.1.1,0,0,0,0-.07c0-3.13,2-5.57,4.51-5.57s4.51,2.45,4.51,5.57a.1.1,0,0,0,0,.08.09.09,0,0,0,.07,0h.2a.48.48,0,0,1,.48.48v7.36A.48.48,0,0,1,47.75,30.13Zm-9.62-7.94a.1.1,0,0,0-.1.1v7.36a.1.1,0,0,0,.1.1h9.62a.1.1,0,0,0,.1-.1V22.29a.1.1,0,0,0-.1-.1h-.2a.47.47,0,0,1-.34-.14.48.48,0,0,1-.14-.34c0-2.91-1.82-5.19-4.13-5.19s-4.13,2.28-4.13,5.19a.48.48,0,0,1-.14.34.47.47,0,0,1-.34.14Zm5.63,5.7H42.12a.38.38,0,0,1-.37-.47l.46-1.8a1.05,1.05,0,0,1-.52-.88,1.27,1.27,0,0,1,2.52,0,1.05,1.05,0,0,1-.52.88l.46,1.8a.38.38,0,0,1-.37.47ZM42.94,24a.81.81,0,0,0-.88.71.67.67,0,0,0,.34.56.38.38,0,0,1,.17.42l-.46,1.8h1.65l-.46-1.8a.38.38,0,0,1,.17-.42.67.67,0,0,0,.34-.56A.81.81,0,0,0,42.94,24Zm2.78-1.85H40.16a.46.46,0,0,1-.46-.45c0-2.37,1.48-4.36,3.24-4.36s3.24,2,3.24,4.36A.46.46,0,0,1,45.72,22.18Zm-2.78-4.44c-1.55,0-2.86,1.82-2.86,4a.08.08,0,0,0,.08.08h5.56a.08.08,0,0,0,.08-.07C45.8,19.56,44.49,17.74,42.94,17.74Z"/></svg>