<svg id="Layer_1" data-name="Layer 1" xmlns="http://www.w3.org/2000/svg" viewBox="0 0 55.33 74.06"><defs><style>.cls-1{fill:#637aaa;}.cls-2{fill:#fff;}.cls-3{fill:#abdff5;}</style></defs><title>Artboard 20</title><path class="cls-1" d="M21.19,41.22h4.63a1.69,1.69,0,0,1,1.06.28.93.93,0,0,1,.36.77,1,1,0,0,1-.29.74,1.16,1.16,0,0,1-.87.3H19.55a1.41,1.41,0,0,1-1-.37,1.18,1.18,0,0,1-.37-.86,2.2,2.2,0,0,1,.24-.85,3,3,0,0,1,.52-.83q1.18-1.22,2.13-2.1a14,14,0,0,1,1.36-1.15,7.83,7.83,0,0,0,1.21-1,4.11,4.11,0,0,0,.74-1.06A2.53,2.53,0,0,0,24.58,34a1.93,1.93,0,0,0-.27-1,1.88,1.88,0,0,0-.74-.7,2.13,2.13,0,0,0-1-.25,2.07,2.07,0,0,0-1.83,1,4.42,4.42,0,0,0-.3.73,3,3,0,0,1-.47.91.93.93,0,0,1-.77.32,1,1,0,0,1-.74-.29,1.08,1.08,0,0,1-.29-.8,3.34,3.34,0,0,1,.27-1.28,3.66,3.66,0,0,1,.82-1.21,4.06,4.06,0,0,1,1.38-.87,5.31,5.31,0,0,1,2-.33,5.68,5.68,0,0,1,2.31.43,3.49,3.49,0,0,1,1.09.78,3.66,3.66,0,0,1,1,2.5,3.78,3.78,0,0,1-.55,2,6.22,6.22,0,0,1-1.11,1.41q-.57.51-1.9,1.6a14.24,14.24,0,0,0-1.83,1.69A5,5,0,0,0,21.19,41.22Z"/><path class="cls-1" d="M34.29,42.19V40.54H29.84a1.83,1.83,0,0,1-1.26-.38,1.33,1.33,0,0,1-.42-1,1,1,0,0,1,.06-.34,1.76,1.76,0,0,1,.19-.36l.26-.37.33-.43,4.7-6.29a7.16,7.16,0,0,1,.76-.9,1,1,0,0,1,.71-.28q1.35,0,1.35,1.54v6.86h.38a2.69,2.69,0,0,1,1.1.19.8.8,0,0,1,.41.82.85.85,0,0,1-.34.75,1.77,1.77,0,0,1-1,.24H36.5v1.65a1.47,1.47,0,0,1-.3,1,1.13,1.13,0,0,1-1.61,0A1.46,1.46,0,0,1,34.29,42.19Zm-3.81-3.64h3.81V33.4Z"/><path class="cls-2" d="M27.93,8.45H28V.15L42.08,12.71,28,26.79V18.67h-.08a17,17,0,1,0,7.82,1.9l7.44-7.44A27.25,27.25,0,1,1,27.93,8.45Z"/><path class="cls-3" d="M27.25,9.21h.08V.91L41.4,13.47,27.32,27.55V19.43h-.08a17,17,0,1,0,7.82,1.9l7.44-7.44A27.25,27.25,0,1,1,27.25,9.21Z"/><path class="cls-1" d="M27.93,63.1a27.4,27.4,0,0,1-.07-54.8V.15A.15.15,0,0,1,28.11,0L42.18,12.6a.15.15,0,0,1,0,.22L28.11,26.9a.15.15,0,0,1-.26-.11v-8a16.87,16.87,0,1,0,7.82,1.88.15.15,0,0,1,0-.24L43.08,13a.15.15,0,0,1,.19,0A27.39,27.39,0,0,1,27.93,63.1Zm0-54.49a27.09,27.09,0,1,0,15.28,4.72L36,20.53A17.18,17.18,0,0,1,45.11,35.7,17.18,17.18,0,1,1,27.93,18.52H28a.15.15,0,0,1,.15.15v7.75l13.7-13.7L28.16.49v8a.15.15,0,0,1,0,.11.14.14,0,0,1-.11,0Z"/><path class="cls-1" d="M5.08,25.2H5a.15.15,0,0,1-.07-.2,25.39,25.39,0,0,1,1.74-3.12.15.15,0,0,1,.25.17,25.09,25.09,0,0,0-1.72,3.09A.15.15,0,0,1,5.08,25.2Z"/><path class="cls-1" d="M4.45,26.68H4.39a.15.15,0,0,1-.09-.2c.1-.27.22-.54.33-.8a.15.15,0,0,1,.28.12c-.11.26-.22.53-.33.79A.15.15,0,0,1,4.45,26.68Z"/><path class="cls-1" d="M3.49,29.65h0a.15.15,0,0,1-.11-.18c.18-.69.38-1.39.62-2.07a.15.15,0,0,1,.29.1c-.23.67-.44,1.36-.61,2A.15.15,0,0,1,3.49,29.65Z"/><path class="cls-1" d="M2.73,35.23h0a.15.15,0,0,1-.15-.15,25.5,25.5,0,0,1,.54-4.66.15.15,0,1,1,.3.06,25.19,25.19,0,0,0-.54,4.6A.15.15,0,0,1,2.73,35.23Z"/><path class="cls-1" d="M2.79,37.63a.15.15,0,0,1-.15-.14c0-.39,0-.78-.06-1.18a.15.15,0,0,1,.3,0c0,.39,0,.78.05,1.16a.15.15,0,0,1-.14.16Z"/><path class="cls-1" d="M19.36,59.56h-.05l-.48-.18-.53-.21a.15.15,0,1,1,.11-.28l.52.21.47.18a.15.15,0,0,1-.05.29Z"/><path class="cls-1" d="M23.61,60.69h0l-1.06-.21-.7-.16c-.66-.16-1.32-.35-2-.57a.15.15,0,1,1,.1-.29c.63.21,1.28.4,1.93.56l.69.16,1,.2a.15.15,0,0,1,0,.3Z"/><path class="cls-1" d="M26.49,61h0c-.72,0-1.44-.11-2.14-.21a.15.15,0,1,1,0-.3c.7.1,1.41.17,2.12.21a.15.15,0,0,1,0,.3Z"/><path class="cls-1" d="M47.21,37.63h0a.15.15,0,0,1-.14-.16c.05-.58.08-1.18.08-1.77a.15.15,0,0,1,.3,0c0,.6,0,1.2-.08,1.8A.15.15,0,0,1,47.21,37.63Z"/><path class="cls-1" d="M46.87,39.85h0a.15.15,0,0,1-.12-.18c.08-.37.15-.75.2-1.13a.15.15,0,0,1,.3,0c-.06.38-.13.77-.21,1.15A.15.15,0,0,1,46.87,39.85Z"/><path class="cls-1" d="M45.38,44.24h-.07a.15.15,0,0,1-.07-.2c.14-.29.27-.59.4-.88s.17-.42.25-.63a19.15,19.15,0,0,0,.59-1.84.15.15,0,0,1,.29.08,19.46,19.46,0,0,1-.6,1.87c-.08.21-.17.43-.26.64s-.26.6-.4.89A.15.15,0,0,1,45.38,44.24Z"/><path class="cls-1" d="M44.13,46.46l-.08,0a.15.15,0,0,1,0-.21l.27-.42c.19-.31.38-.64.56-1a.15.15,0,1,1,.27.14c-.18.33-.37.65-.56,1l-.27.43A.15.15,0,0,1,44.13,46.46Z"/><path class="cls-1" d="M43.18,47.77a.15.15,0,0,1-.12-.24l.36-.48a.15.15,0,1,1,.24.18l-.37.48A.15.15,0,0,1,43.18,47.77Z"/><path class="cls-1" d="M28,1.55H25a.15.15,0,0,1,0-.3h3a.15.15,0,0,1,0,.3Z"/><path class="cls-1" d="M28,22.47H25a.15.15,0,0,1,0-.3h3a.15.15,0,0,1,0,.3Z"/><path class="cls-1" d="M28,2.82H26.49a.15.15,0,1,1,0-.3H28a.15.15,0,0,1,0,.3Z"/><path class="cls-1" d="M28,23.7H26.49a.15.15,0,1,1,0-.3H28a.15.15,0,0,1,0,.3Z"/><path class="cls-1" d="M27.93.3H26.41a.15.15,0,0,1,0-.3h1.51a.15.15,0,1,1,0,.3Z"/><g id="_Group_" data-name="&lt;Group&gt;"><path class="cls-1" d="M31.34,15.05a.53.53,0,0,1-.69.5A2.39,2.39,0,0,1,30.71,11a.53.53,0,0,1,.68.52Z"/></g><path class="cls-1" d="M34.91,17.07a.15.15,0,0,1-.14-.1l-.48-1.22-.43,1.09a.15.15,0,1,1-.28-.11l.57-1.44a.15.15,0,0,1,.14-.1h0a.15.15,0,0,1,.14.1l.62,1.57a.15.15,0,0,1-.08.2Z"/><path class="cls-1" d="M34.29,11.34a.15.15,0,0,1-.14-.1L33.58,9.8a.15.15,0,1,1,.28-.11l.43,1.09.48-1.22a.15.15,0,1,1,.28.11l-.62,1.57A.15.15,0,0,1,34.29,11.34Z"/><path class="cls-3" d="M2,72.36c-.78-.31-1.07-.67-.7-1.1,2.56-3,14.2-2.86,19.85-2.85,7.1,0,14.49-.06,20.9.67,2.68.3,8.75.59,9.8,1.59C54.61,73.31,35.27,74,32.13,74,26.91,74.1,6.47,74.12,2,72.36Z"/></svg>