<svg id="Layer_1" data-name="Layer 1" xmlns="http://www.w3.org/2000/svg" viewBox="0 0 79.69 62.98"><defs><style>.cls-1{fill:#ecf8fb;}.cls-2{fill:#abdff5;}.cls-3{fill:#e5e5e5;}.cls-4{fill:#f8f8f8;}.cls-5{fill:#637aaa;}.cls-6{fill:#d1d1d1;}</style></defs><title>Artboard 15</title><path class="cls-1" d="M20.55,62.08c-1.69-.27-22-2.71-20.47-20.71S3.44,18,11.33,16s27-11.35,42.08-2.44,31.26,16.9,24.82,31.13-7.49,19-24.29,18.25S28.58,63.36,20.55,62.08Z"/><path class="cls-2" d="M22.54,58.11c-.62-.22-.86-.47-.58-.78,1.91-2.14,11-2.14,15.47-2.17,5.57,0,11.36-.14,16.4.34,2.11.2,6.88.37,7.73,1.08,2.24,1.87-12.9,2.5-15.36,2.55C42.11,59.2,26.08,59.34,22.54,58.11Z"/><path class="cls-3" d="M49.56,51.6l5-3.92a1.14,1.14,0,0,1,1.78.51l2.74,7.52a1.14,1.14,0,0,1-1.55,1.42l-7.73-3.61A1.14,1.14,0,0,1,49.56,51.6Z"/><path class="cls-4" d="M50.58,51l4.19-3.36a1,1,0,0,1,1.51.46l2.4,6.59a1,1,0,0,1-1.3,1.23l-6.59-3.23A1,1,0,0,1,50.58,51Z"/><path class="cls-3" d="M34.45,51.6l-5-3.92a1.14,1.14,0,0,0-1.78.51l-2.74,7.52a1.14,1.14,0,0,0,1.55,1.42l7.73-3.61A1.14,1.14,0,0,0,34.45,51.6Z"/><path class="cls-4" d="M33.43,51,29.24,47.6a1,1,0,0,0-1.53.5L25.21,55a1,1,0,0,0,1.3,1.26L33.2,52.8A1.08,1.08,0,0,0,33.43,51Z"/><path class="cls-5" d="M49.75,51.64l4.37-3.42c.2-.16.4-.35.62-.48a.94.94,0,0,1,1.39.59c.28.72.53,1.46.79,2.18.64,1.75,1.36,3.49,1.91,5.26.24.75-.32,1.59-1.16,1.24-.22-.09-.43-.2-.65-.3l-2.84-1.33-3.38-1.58c-.26-.12-.53-.24-.79-.37a1.07,1.07,0,0,1-.27-1.8c.2-.18-.26-.18-.38-.08a1.25,1.25,0,0,0-.1,1.87,2.52,2.52,0,0,0,.67.38l3,1.39,3.44,1.6c.72.33,1.45.81,2.25.41a1.29,1.29,0,0,0,.68-1.58c-.08-.26-.19-.52-.28-.78l-1.28-3.51-1.08-3a1.55,1.55,0,0,0-.58-.86,1.52,1.52,0,0,0-1.72.14c-1.7,1.24-3.33,2.61-5,3.91C49.16,51.72,49.63,51.73,49.75,51.64Z"/><path class="cls-5" d="M34.66,51.51,29.9,47.77a1.74,1.74,0,0,0-1-.47,1.49,1.49,0,0,0-1.49.92c-.3.73-.55,1.5-.82,2.25l-1.36,3.74c-.23.63-.8,1.62-.57,2.31a1.34,1.34,0,0,0,1.71.79A5.37,5.37,0,0,0,27,57l3.1-1.45,3.63-1.69a5.9,5.9,0,0,0,.76-.37,1.25,1.25,0,0,0,.14-2c-.13-.11-.56.07-.43.18a1.06,1.06,0,0,1-.12,1.75c-.2.11-.42.2-.63.29l-2.87,1.34-3.07,1.43c-.66.31-1.54,1-2.17.26s0-1.54.2-2.19l1.18-3.24,1-2.79a2,2,0,0,1,.36-.73c.45-.46.95-.17,1.35.14l4.76,3.73C34.36,51.79,34.79,51.61,34.66,51.51Z"/><circle class="cls-3" cx="42" cy="30.68" r="23.98"/><path class="cls-4" d="M66,30.68C66,17.44,55.24,7.14,42,6.94c-12.89-.2-22.21,10.5-22.21,23.74S32.39,53.48,42,53.48C55.24,53.48,66,43.92,66,30.68Z"/><path class="cls-5" d="M66.21,30.66A24.08,24.08,0,0,0,50.33,8a24.32,24.32,0,0,0-27,7.32,24.08,24.08,0,0,0,8.71,37.4,24.33,24.33,0,0,0,27.34-5.3,24.19,24.19,0,0,0,6.51-13,24.6,24.6,0,0,0,.29-3.76c0-.22-.47-.13-.47,0A23.68,23.68,0,0,1,35.5,53.58a23.79,23.79,0,1,1,30-26.6,24.38,24.38,0,0,1,.29,3.72C65.74,30.92,66.21,30.84,66.21,30.66Z"/><circle class="cls-6" cx="42" cy="30.68" r="15.98"/><path class="cls-3" d="M43.33,45.62A14.79,14.79,0,0,0,58,30.68c0-8.25-6.55-15.27-14.63-15.53-9.29-.3-15.45,7.28-15.45,15.53S35.26,45.62,43.33,45.62Z"/><path class="cls-5" d="M50.81,46.4l1.93,3.35c.07.12.51-.06.47-.13l-1.93-3.35c-.07-.12-.51.06-.47.13Z"/><path class="cls-5" d="M30.8,11.74l1.78,3.08c.07.12.51-.06.47-.13l-1.78-3.08c-.07-.12-.51.06-.47.13Z"/><path class="cls-5" d="M57.68,39.94l3.11,1.8c.12.07.5-.12.44-.16l-3.11-1.8c-.12-.07-.5.12-.44.16Z"/><path class="cls-5" d="M22.78,19.79l2.82,1.63c.12.07.5-.12.44-.16l-2.82-1.63c-.12-.07-.5.12-.44.16Z"/><path class="cls-5" d="M58.38,21.34l2.81-1.62c.2-.11-.27-.07-.36,0L58,21.32c-.2.11.27.07.36,0Z"/><path class="cls-5" d="M23.18,41.66l2.58-1.49c.2-.11-.27-.07-.36,0l-2.58,1.49c-.2.11.27.07.36,0Z"/><path class="cls-5" d="M51.52,14.55l1.68-2.92c0-.06-.39,0-.46.08l-1.68,2.92c0,.06.39,0,.46-.08Z"/><path class="cls-5" d="M31.26,49.65l1.73-3c0-.06-.39,0-.46.08l-1.73,3c0,.06.39,0,.46-.08Z"/><path class="cls-5" d="M41.77,48.86v3.59c0,.08.47,0,.47-.13V48.74c0-.08-.47,0-.47.13Z"/><path class="cls-5" d="M41.77,8.57V12.2c0,.08.47,0,.47-.13V8.44c0-.08-.47,0-.47.13Z"/><path class="cls-5" d="M23.22,30.58h-3c-.1,0-.53.19-.3.19h3c.1,0,.53-.19.3-.19Z"/><path class="cls-5" d="M64.1,30.58H60.82c-.1,0-.53.19-.3.19H63.8c.1,0,.53-.19.3-.19Z"/><path class="cls-2" d="M19.8,18.22a32.3,32.3,0,0,1,5-6.11,41.9,41.9,0,0,1,6.29-4.18A7.64,7.64,0,0,0,19.8,18.22Z"/><path class="cls-1" d="M19.52,15.38a.63.63,0,0,0,1.05.14,35.89,35.89,0,0,1,3.78-4.41A34.49,34.49,0,0,1,29,8.18a1.13,1.13,0,0,0-.06-2c-2.54-1.3-6.35-.85-8.08.73C18.25,9.3,18,12.25,19.52,15.38Z"/><path class="cls-5" d="M20,18.18a31.79,31.79,0,0,1,3.33-4.44A25.56,25.56,0,0,1,29.4,9c.6-.36,1.2-.71,1.81-1,0,0,.13-.07.08-.12a8,8,0,0,0-8.65-2,7.84,7.84,0,0,0-5.08,7.38,7.74,7.74,0,0,0,2,5.05c.08.09.52-.08.44-.16a7.69,7.69,0,0,1-1.28-8.33,7.32,7.32,0,0,1,7.76-4.18A7.66,7.66,0,0,1,30.86,8l.08-.12a45.76,45.76,0,0,0-4.57,2.83,24.16,24.16,0,0,0-5.55,5.7c-.44.6-.87,1.22-1.26,1.85C19.53,18.32,20,18.3,20,18.18Z"/><path class="cls-2" d="M64.34,18.22a32.3,32.3,0,0,0-5-6.11,41.9,41.9,0,0,0-6.29-4.18,7.64,7.64,0,0,1,11.28,10.3Z"/><path class="cls-1" d="M64.62,15.38a.63.63,0,0,1-1.05.14,35.89,35.89,0,0,0-3.78-4.41,34.49,34.49,0,0,0-4.61-2.93,1.13,1.13,0,0,1,.06-2c2.54-1.3,6.35-.85,8.08.73C65.89,9.3,66.11,12.25,64.62,15.38Z"/><path class="cls-5" d="M64.57,18.16a31.43,31.43,0,0,0-3.73-4.88,27.58,27.58,0,0,0-6.45-4.8l-.94-.54s-.17-.07-.17-.09A5.77,5.77,0,0,1,54,7.23a7.12,7.12,0,0,1,4.14-1.68,7.6,7.6,0,0,1,7.09,4,7.68,7.68,0,0,1-1.09,8.68c-.1.11.35.06.43,0a7.76,7.76,0,0,0,1-9,7.84,7.84,0,0,0-8.13-3.73,8.16,8.16,0,0,0-4.57,2.48s0,0,0,.07a45.61,45.61,0,0,1,4.47,2.76,24.06,24.06,0,0,1,5.61,5.77c.41.57.82,1.15,1.19,1.75C64.18,18.4,64.61,18.23,64.57,18.16Z"/><path class="cls-5" d="M24,3.56a6.08,6.08,0,0,0-6.19,1A8.45,8.45,0,0,0,15,11c0,.12.47,0,.47-.13A8.56,8.56,0,0,1,17.62,5a5.34,5.34,0,0,1,5.95-1.28c.12.06.55-.13.38-.21Z"/><path class="cls-5" d="M24.43,1a9.31,9.31,0,0,0-7.11.24,9.6,9.6,0,0,0-5.09,5.21,11.72,11.72,0,0,0-.85,4.27c0,.08.47,0,.47-.13a10.51,10.51,0,0,1,3.53-8A8.67,8.67,0,0,1,24,1.16c.11,0,.53-.13.38-.19Z"/><path class="cls-5" d="M61.14,3.33a5.41,5.41,0,0,1,5.92,1.33,8.49,8.49,0,0,1,2.23,5.89c0,.12.47,0,.47-.13A8.27,8.27,0,0,0,67,4a5.88,5.88,0,0,0-6-.83c-.3.14,0,.25.18.16Z"/><path class="cls-5" d="M60.66.75a8.76,8.76,0,0,1,8.6,1.52,10.41,10.41,0,0,1,3.55,7.93c0,.09.47,0,.47-.13a10.76,10.76,0,0,0-2.54-7A9.4,9.4,0,0,0,64.37,0a8.62,8.62,0,0,0-3.87.6c-.31.13,0,.19.17.12Z"/><path class="cls-5" d="M27.63,21.94,32.44,25l7.67,5,1.77,1.15c.11.07.51-.12.44-.16l-4.81-3.11-7.67-5-1.77-1.15c-.11-.07-.51.12-.44.16Z"/><path class="cls-5" d="M53.84,21.45,43.67,29.82,42.25,31c-.1.08.33,0,.42,0l10.18-8.37,1.42-1.17c.1-.08-.33,0-.42,0Z"/><circle class="cls-2" cx="42" cy="30.68" r="1.9"/><circle class="cls-1" cx="42" cy="30.68" r="1.09"/></svg>