<svg id="Layer_1" data-name="Layer 1" xmlns="http://www.w3.org/2000/svg" viewBox="0 0 86.88 59.07"><defs><style>.cls-1{fill:#ecf8fb;}.cls-2{fill:#abdff5;}.cls-3{fill:#e5e5e5;}.cls-4{fill:#fff;}.cls-5{fill:#6dcae3;}.cls-6{fill:#637aaa;}.cls-7{fill:#ffefa6;}.cls-8{opacity:0.5;}</style></defs><title>Artboard 6</title><path class="cls-1" d="M24.59,58.12C22.81,57.83,1.45,55.26,3,36.3S6.57,11.64,14.87,9.56,43.36-2.4,59.2,7s32.93,17.8,26.15,32.79S77.46,59.76,59.76,59,33,59.48,24.59,58.12Z"/><path class="cls-2" d="M36,44.77c-3,0-5.9,0-8.82-.13-1.16-.06-4.51-.46-4-2.32.31-1.19,2.67-1.93,3.7-2.16a47.47,47.47,0,0,1,6.64-.57c6.76-.49,13.56-.73,20.35-.73,3,0,6.2,0,9.28.14,2.8.11,6.53,0,8.74,1.2l.23.13c.44.27.74.65.63,1a1.74,1.74,0,0,1-.85.82c-2.58,1.51-5.89,1.82-9.27,2-6,.37-12,.45-18,.47C41.82,44.68,38.93,44.75,36,44.77Z"/><path class="cls-3" d="M3.57,44.94a15.93,15.93,0,0,1-2.71-.19c-1.28-.22-.8-1.68-.61-2.54.35-1.64.92-1.55,2.51-1.83A30.7,30.7,0,0,1,9,39.92a25.7,25.7,0,0,1,2.86.2c1.39.2,2.75.32,4.14.49a4.05,4.05,0,0,1-1.09,1.78C12.3,45.13,9.75,45,6.23,44.93,5.35,44.91,4.46,44.94,3.57,44.94Z"/><path class="cls-2" d="M83.57,37.32c-.4.25-.81.49-1.22.72a16.09,16.09,0,0,1-6.4,2.3,5.25,5.25,0,0,0-1.36.09,15.64,15.64,0,0,0-1.42.78,11.06,11.06,0,0,1-2.94,1.09c-.34.07-.63.19-.71-.21a.9.9,0,0,1,.27-.69,4.06,4.06,0,0,1,1.4-.85c1.09-.52,2.06-1,2.49-2a8.93,8.93,0,0,1,3-3.94,17.63,17.63,0,0,1,4.86-2.3,7.81,7.81,0,0,1,3.27-.55c1.75.17,2.4,1.45,1.93,2.36A8.65,8.65,0,0,1,83.57,37.32Z"/><path class="cls-3" d="M34.92,24.4a14.49,14.49,0,0,0-1.27,3.68c-.58,2.94.09,5.91.68,8.79a14.13,14.13,0,0,1,.39,1.73c0,.29,0,.27-.33.35l-.83.2q-.88.2-1.76.37c-1,.2-2.1.37-3.17.47a10.11,10.11,0,0,0-2.85.36,1.42,1.42,0,0,0-.71.53c-.52.85.89,1.63,1.51,1.86a13.22,13.22,0,0,0,4.57.42c2.18,0,4.37-.16,6.55-.16a7.45,7.45,0,0,0,4.21-1.1,5.55,5.55,0,0,0,1.85-3.4c.36-1.53,1.13-3.09,1.16-4.68s-.83-3.17-1.53-4.68a31.4,31.4,0,0,1-1.78-5.06c-.43-1.61-.5-3.58-1.14-5.1-.39-.92-.78-.35-1.43.2a16.43,16.43,0,0,0-4.13,5.22Z"/><path class="cls-4" d="M34.92,24.4a14.49,14.49,0,0,0-1.27,3.68c-.58,2.94.09,5.91.68,8.79a14.13,14.13,0,0,1,.39,1.73c0,.29,0,.27-.33.35l-.83.2q-.88.2-1.76.37c-1,.2-2.1.37-3.17.47a10.11,10.11,0,0,0-2.85.36,1.42,1.42,0,0,0-.71.53c-.73,1.19,1.35,1.15,2,1.22,1.24.14,12.18.27,14.21-1,.93-.56,1.22-1.77,1.6-2.78q.45-1.19.95-2.37a22.12,22.12,0,0,0,1.08-2.36,4.11,4.11,0,0,0-.44-2.21c-.3-.78-.69-1.53-1-2.29a31.4,31.4,0,0,1-1.78-5.06c-.43-1.61-.5-3.58-1.14-5.1-.39-.92-.78-.35-1.43.2a16.43,16.43,0,0,0-4.13,5.22Z"/><path class="cls-3" d="M42.8,33.44a10.24,10.24,0,0,1-.38,3,14.46,14.46,0,0,1-1,2.93,16.32,16.32,0,0,1-1.62,2.41,2.13,2.13,0,0,1-1.55,1q-2.07.17-4.14.24c.07,0,.3-.33.34-.38a4.69,4.69,0,0,1,.41-.45c.16-.14.29-.09.51-.09,1.13,0,2.75,0,3.56-.85A15.78,15.78,0,0,0,41,38.42a16.93,16.93,0,0,0,1.36-3.49C42.39,34.72,42.63,33.44,42.8,33.44Z"/><path class="cls-5" d="M34.38,37.07a.75.75,0,0,1,.25,0,17,17,0,0,1,6.72,1.88c.28.13.59.19.88.3l1,.36a.31.31,0,0,0,.18,0c.13,0,.16-.36.19-.46s.11-.42.16-.64c.22-.93.56-1.81.82-2.73.07-.25.62-1.56.63-1.73s-.35-1.12-.4-1.38a8,8,0,0,0-.39-1.28c-.3-.76-.68-1.49-1-2.24a31.41,31.41,0,0,1-1.78-5.06c-.43-1.61-.5-3.58-1.14-5.1-.39-.92-.78-.35-1.43.2a16.43,16.43,0,0,0-4.13,5.22,14.49,14.49,0,0,0-1.27,3.68c-.58,2.94.09,5.91.68,8.79Z"/><path class="cls-2" d="M34.38,37.07a.75.75,0,0,1,.25,0,17.43,17.43,0,0,1,6.91,2,4.34,4.34,0,0,0,1,.21c.09-.24.25-.62.34-.85q.45-1.19.95-2.37a22.12,22.12,0,0,0,1.08-2.36,4.11,4.11,0,0,0-.44-2.21c-.3-.78-.69-1.53-1-2.29a31.41,31.41,0,0,1-1.78-5.06c-.43-1.61-.5-3.58-1.14-5.1-.39-.92-.78-.35-1.43.2a16.43,16.43,0,0,0-4.13,5.22,14.49,14.49,0,0,0-1.27,3.68c-.58,2.94.09,5.91.68,8.79Z"/><path class="cls-5" d="M41.56,39a14.48,14.48,0,0,0,.85-2.52,10.24,10.24,0,0,0,.38-3c-.16,0-.4,1.28-.46,1.48A16.93,16.93,0,0,1,41,38.42l-.17.29C41.05,38.81,41.31,38.89,41.56,39Z"/><path class="cls-6" d="M34.4,37.16a5.21,5.21,0,0,1,1.89.18,14.34,14.34,0,0,1,1.74.45c1.13.36,2.19.87,3.29,1.31a.56.56,0,0,0,.43-.09c.06,0,.1-.12.16-.17l-.5.11c.25.12.45.31.71.41a5.23,5.23,0,0,0,1.12.36c.13,0,.62-.19.35-.24a4.36,4.36,0,0,1-1.07-.37c-.21-.1-.39-.26-.6-.36a.53.53,0,0,0-.5.11s-.05.08-.08.11l.43-.09a36.07,36.07,0,0,0-4-1.51A7.52,7.52,0,0,0,34.35,37c-.32.08-.27.27.05.19Z"/><path class="cls-6" d="M42.53,33.38a13.24,13.24,0,0,1-1.94,6.91c-.3.46-.64.9-1,1.34a2.08,2.08,0,0,1-1.6,1c-1.3.13-2.61.24-3.92.29-.29,0-.43.36-.06.34.76,0,1.53-.08,2.29-.15a19.48,19.48,0,0,0,2.09-.2c1.07-.21,1.63-1.14,2.23-2a13.45,13.45,0,0,0,2.43-7.64c0-.25-.54-.15-.54.06Z"/><path class="cls-6" d="M38.68,31.69a6.37,6.37,0,0,0,2.7-3c.11-.25-.43-.2-.51,0a6,6,0,0,1-2.53,2.8c-.32.18.15.29.34.18Z"/><path class="cls-6" d="M40,18.37a1.87,1.87,0,0,0-.82.49c-.41.36-.83.71-1.22,1.09a16.76,16.76,0,0,0-2,2.27,15.3,15.3,0,0,0-2.55,5.69,17.47,17.47,0,0,0,.19,6.8c.2,1.11.45,2.2.71,3.29a1.79,1.79,0,0,1,.12.67c-.05.25.08,0-.09.16a1.77,1.77,0,0,1-.41.1q-.9.21-1.81.4a33.27,33.27,0,0,1-3.36.52,12.7,12.7,0,0,0-2.88.33c-.51.17-1.22.52-1.2,1.16s.67,1,1.13,1.28c1.6.88,3.58.7,5.34.69,1.16,0,2.33,0,3.49-.09s2.26,0,3.39-.1c1.88-.12,3.88-.5,5-2.17a9.92,9.92,0,0,0,1.15-3c.33-1.18.46-2.57,1.31-3.5.14-.16-.39-.12-.5,0a5.09,5.09,0,0,0-1,2.3c-.25,1-.49,2-.81,2.9a4.47,4.47,0,0,1-1.61,2.3,5.75,5.75,0,0,1-2.76.84c-1,.1-2,.07-3,.11s-2.11.08-3.16.11-2,0-3,0a8.21,8.21,0,0,1-3-.43c-.52-.21-1.28-.58-1.48-1.15-.41-1.17,1.69-1.24,2.38-1.27a31.77,31.77,0,0,0,5.54-.82c.45-.1.91-.19,1.35-.32a.62.62,0,0,0,.42-.26c.12-.25,0-.68-.1-.93-.12-.49-.25-1-.36-1.48a28.74,28.74,0,0,1-.81-6.22,13.79,13.79,0,0,1,1.93-6.62,16.39,16.39,0,0,1,1.87-2.6,16,16,0,0,1,1.23-1.25l.61-.54c.2-.17.43-.47.69-.53s.26-.32-.07-.24Z"/><path class="cls-3" d="M40.1,18.13a47.41,47.41,0,0,1,13.27-3.3,20.38,20.38,0,0,1,7.29.34c2.61.71,4.08,2.68,5.6,4.82a.62.62,0,0,1,.16.42c0,.12-.11.2-.17.3a32.76,32.76,0,0,1-4.63,6.51,22.65,22.65,0,0,1-8.61,6,29.84,29.84,0,0,1-7.36,1.55,37.14,37.14,0,0,1-3.28-7.27C41.6,25.1,40.1,18.13,40.1,18.13Z"/><path class="cls-4" d="M63.09,21.44a5.92,5.92,0,0,0,.8.11,7.86,7.86,0,0,0,.83,0,2.74,2.74,0,0,0,.6-.05c0,.05-.11.14-.15.18s-.2.27-.31.4l-.41.53q-.41.53-.84,1t-.88,1q-.45.5-.91,1t-1,.93q-.49.46-1,.89l-.62.5a26.78,26.78,0,0,1-8.54,4.47c-1.85.57-3.76.92-5.66,1.32,0,0-.11-.19-.35-.66-.32-.64-.62-1.29-.91-1.94a38,38,0,0,1-1.4-3.63c-.78-2.44-2.27-9.4-2.27-9.4a47.41,47.41,0,0,1,13.27-3.3,21.87,21.87,0,0,1,6.54.16.76.76,0,0,0-.16.28,3.88,3.88,0,0,0-.14.72,4.33,4.33,0,0,0,0,1.47,3.37,3.37,0,0,1,.09.37,1.27,1.27,0,0,0,.06.36c.12.3.23.59.35.89a3.91,3.91,0,0,0,1,1.39A4.19,4.19,0,0,0,63.09,21.44Z"/><path class="cls-3" d="M73.15,5.07c-2.1-1.59-6.07.13-8.87,3.83l-.5.66a27.92,27.92,0,0,0-2,2.91c-.22.39-.43.78-.62,1.19-.08.18-.15.36-.22.53a1.17,1.17,0,0,1-.69.56.8.8,0,0,0-.52.52,3.88,3.88,0,0,0-.14.72,4.33,4.33,0,0,0,0,1.47,4.64,4.64,0,0,0,.36,1,6,6,0,0,0,.85,1.25,4.12,4.12,0,0,0,2,1.24,4.2,4.2,0,0,0,2.33-.16,5.85,5.85,0,0,0,1.65-.91c.45-.32.9-.63,1.32-1a18.69,18.69,0,0,0,2.27-2.37q.49-.59.95-1.2l.5-.66C74.67,10.95,75.24,6.66,73.15,5.07Z"/><path class="cls-4" d="M73.15,5.07l0,0a3,3,0,0,0-1-.46,4.48,4.48,0,0,0-2.41.14,11.26,11.26,0,0,0-5.25,3.93l-.19.24-.5.66a27.92,27.92,0,0,0-2,2.91c-.22.39-.43.78-.62,1.19-.08.18-.15.36-.22.53a1.17,1.17,0,0,1-.69.56.8.8,0,0,0-.52.52,3.88,3.88,0,0,0-.14.72,4.33,4.33,0,0,0,0,1.47,4.64,4.64,0,0,0,.36,1,6,6,0,0,0,.85,1.25,4.12,4.12,0,0,0,2,1.24,2.42,2.42,0,0,0,1.22-.11,3.58,3.58,0,0,0,1.24-.52c2.74-1.82,4.76-4.83,6.37-7.65a14.49,14.49,0,0,0,.94-1.94,18.81,18.81,0,0,0,.85-2.84,15,15,0,0,0,.18-1.5A1.16,1.16,0,0,0,73.15,5.07Z"/><path class="cls-6" d="M67.13,19.76a15.49,15.49,0,0,0,3.41-3.32,19.75,19.75,0,0,0,3.06-4.72c1-2.28,1.55-6.49-1.75-7.15a6,6,0,0,0-3.79.74A12.67,12.67,0,0,0,64,8.76a27.24,27.24,0,0,0-3.09,4.62c-.26.5-.36,1.14-1,1.29A6.21,6.21,0,0,1,58,14.58a24.07,24.07,0,0,0-3.22,0A47.48,47.48,0,0,0,40,18c-.05,0-.19.08-.17.16a69.33,69.33,0,0,0,3.4,12.38,25.28,25.28,0,0,0,2.17,4.32c0,.05.16,0,.21,0a32,32,0,0,0,5.57-1,25.05,25.05,0,0,0,4.93-2,25.21,25.21,0,0,0,7.81-7.21q.9-1.2,1.69-2.48a9.6,9.6,0,0,0,1.14-2.09c.06-.18-.43,0-.48,0a4.17,4.17,0,0,1-5.13-.59,4.37,4.37,0,0,1-1.08-4.53c.05-.14-.48-.08-.54.08a4.49,4.49,0,0,0,1.85,5.22,5,5,0,0,0,5.32-.14l-.48,0a7.9,7.9,0,0,1-.87,1.62Q64.68,23,63.9,24.12A34.36,34.36,0,0,1,60.7,28a21.18,21.18,0,0,1-4.14,3.43,22.06,22.06,0,0,1-4.75,2.12,30.32,30.32,0,0,1-6.1,1.16l.21,0a23.85,23.85,0,0,1-2-3.89,34.21,34.21,0,0,1-1.4-3.72c-.69-2.31-1.2-4.68-1.72-7q-.22-1-.44-2l-.17.16A46.92,46.92,0,0,1,52.92,15a31.57,31.57,0,0,1,3.55-.2c1,0,2,.25,3,.17.48,0,1.21-.14,1.46-.6.51-.94.92-1.91,1.51-2.82,1.77-2.73,4.21-6.08,7.64-6.72a3,3,0,0,1,3.33,1.41,5.92,5.92,0,0,1,.11,4.34,15.64,15.64,0,0,1-2.88,5.15,16.87,16.87,0,0,1-3.92,4c-.24.15.3.13.42.05Z"/><path class="cls-6" d="M64.57,16.65a1.19,1.19,0,0,1-.15-.65.52.52,0,0,1,.12-.33c.15-.12.46,0,.6.12a.84.84,0,0,1,.31.68c.05.37.26.52.47.81.07.1.48,0,.39-.16s-.39-.4-.44-.7a1.94,1.94,0,0,0-.1-.49,1.06,1.06,0,0,0-1-.5c-.74,0-.94.76-.62,1.35.07.13.47,0,.42-.11Z"/><path class="cls-6" d="M63.68,16.6c1,.69,3.61,1.6,4-.23.06-.26-.5-.19-.55,0-.29,1.34-2.4.34-3-.12-.19-.13-.67.13-.42.3Z"/><path class="cls-6" d="M64.7,16.07a2.21,2.21,0,0,0,.18.58c0,.1.36,0,.32-.09A2.21,2.21,0,0,1,65,16c0-.09-.34,0-.32.09Z"/><path class="cls-6" d="M61.2,27.63c.69,3.58,1.63,7.1,4.23,9.79a18.36,18.36,0,0,0,2.9,2.51,2.14,2.14,0,0,0,2.5.29c.23-.17-.31-.13-.42,0-.44.33-1.21-.2-1.58-.44a11.3,11.3,0,0,1-1.19-.93,20.81,20.81,0,0,1-2.58-2.55c-2-2.5-2.75-5.68-3.34-8.76,0-.14-.57,0-.54.14Z"/><path class="cls-7" d="M67.6,29.92a.31.31,0,0,0,0,.17c.15,1,.9.46,1.4.16l2.17-1.34,2.16-1.33,1.08-.67c.23-.14.27-.12.24-.38a2.67,2.67,0,0,0-.16-.6,22.19,22.19,0,0,0-4.06,2.19C69.92,28.48,67.67,29.75,67.6,29.92Z"/><path class="cls-7" d="M76.45,28.1l-1.05.37a.27.27,0,0,0-.17.43,1.59,1.59,0,0,0,.41.41c1.4,1.06,4.76-1,7.48-4.62s3.8-7.4,2.4-8.46c-.19-.14-.72-.48-.91-.22s.08,1,.08,1.28a9.93,9.93,0,0,1-.31,2.42C84,21.31,80.82,26.59,76.45,28.1Z"/><path class="cls-6" d="M67.29,30c.14,1.47,1.54.51,2.26.06l5.37-3.31c.23-.14-.31-.09-.42,0l-3.83,2.36-1.81,1.12a1.8,1.8,0,0,1-.62.34c-.34,0-.39-.42-.41-.69,0-.11-.55,0-.54.14Z"/><path class="cls-6" d="M74.83,28.49c.82,2.92,4.65.22,5.87-.84a19.91,19.91,0,0,0,3.69-4.39,12.74,12.74,0,0,0,2-4.68c.19-1.21,0-2.6-1.44-2.81-.26,0-.55.34-.19.39,1.58.24,1.17,2.38.86,3.44a16.29,16.29,0,0,1-2.92,5.33,15.09,15.09,0,0,1-4.06,3.77c-1,.61-2.76,1.28-3.21-.36-.07-.25-.61-.1-.54.14Z"/><path class="cls-6" d="M77,27.65c-.69-.57-.48-1.69-.28-2.44a12,12,0,0,1,1.9-3.76A13.83,13.83,0,0,1,81.5,18.4c.65-.49,1.87-1.37,2.7-.8.14.1.62-.12.5-.2a2.52,2.52,0,0,0-2.48.21,11.14,11.14,0,0,0-3.39,2.89,13.75,13.75,0,0,0-2.58,4.44c-.28.86-.62,2.24.2,2.92.13.11.63-.1.5-.2Z"/><path class="cls-4" d="M67.72,29.83,74,25.95l-.06.32a2.33,2.33,0,0,0,.57,2.26c1.4,1.06,4.76-1,7.48-4.62s3.8-7.4,2.4-8.46-4.76,1-7.48,4.62a17.31,17.31,0,0,0-2.59,4.7l-6.26,3.86a1.85,1.85,0,0,0-.7.92C67.27,29.89,67.43,30,67.72,29.83Zm15.61-13c1.1.83.26,3.8-1.88,6.63s-4.77,4.45-5.86,3.62-.26-3.8,1.88-6.63S82.23,16,83.33,16.86Z"/><path class="cls-6" d="M67.93,29.84,74.22,26l-.47,0c-.26,1.32,0,3,1.63,2.92a7.19,7.19,0,0,0,4.07-2,19.4,19.4,0,0,0,4.47-5.59c.76-1.42,1.78-3.51,1.24-5.17-.38-1.2-1.67-1.18-2.68-.86a11.13,11.13,0,0,0-4.44,3.18,18.28,18.28,0,0,0-3.92,6.14c-.08.21,0,.13-.15.26a3,3,0,0,1-.44.27L72.06,26l-3.63,2.24a4.79,4.79,0,0,0-.83.56c-.19.19-.76.86-.47,1.13s.56,0,.75-.09-.18-.14-.31-.08c.09,0,.11-.42.17-.54a1.72,1.72,0,0,1,.53-.61l.12-.07c.28-.18.56-.35.84-.52l2.83-1.74,2.29-1.41c.31-.19.33-.44.47-.79a16.56,16.56,0,0,1,1.4-2.69,18.44,18.44,0,0,1,4.23-4.76c.86-.66,2.58-2,3.7-1.11s.55,2.6.22,3.6a17.12,17.12,0,0,1-3.1,5.41,12.44,12.44,0,0,1-4.75,3.93,1.75,1.75,0,0,1-1.78-.1,2.61,2.61,0,0,1-.44-2.49c0-.16-.42,0-.47,0l-6.29,3.88C67.29,30,67.83,29.9,67.93,29.84Z"/><path class="cls-6" d="M83.08,17a1.93,1.93,0,0,1,.42,1.83,8.6,8.6,0,0,1-.92,2.56,14,14,0,0,1-4.41,5.16c-.58.39-1.48,1-2.2.6a1.48,1.48,0,0,1-.6-1.44c.08-2.06,1.46-4.14,2.71-5.67a12.48,12.48,0,0,1,2.66-2.52c.63-.42,1.6-1,2.33-.52.13.09.59-.13.51-.19-1.32-.92-3.38.68-4.31,1.5A13.49,13.49,0,0,0,75,24.88,2.55,2.55,0,0,0,75.16,27a1.62,1.62,0,0,0,1.69.32c2.14-.54,3.9-2.53,5.12-4.24a11.69,11.69,0,0,0,2-4c.18-.75.31-1.78-.36-2.33C83.47,16.68,83,16.89,83.08,17Z"/><g class="cls-8"><ellipse class="cls-4" cx="79.46" cy="21.99" rx="6.42" ry="2.5" transform="translate(14.02 72.13) rotate(-52.93)"/></g><path class="cls-6" d="M83.08,17c1.19,1,0,3.36-.5,4.38a13.9,13.9,0,0,1-4.41,5.15c-.56.37-1.46.94-2.16.62a1.44,1.44,0,0,1-.63-1.46c.08-2.06,1.46-4.13,2.71-5.66a12.42,12.42,0,0,1,2.66-2.51c.61-.41,1.61-1,2.33-.52.14.09.61-.12.51-.2-1.37-.95-3.46.73-4.41,1.58A13.51,13.51,0,0,0,75,24.87,2.57,2.57,0,0,0,75.16,27a1.63,1.63,0,0,0,1.69.33c2.18-.55,4-2.63,5.22-4.39a11.6,11.6,0,0,0,1.88-3.87c.18-.75.31-1.79-.36-2.34C83.46,16.66,83,16.87,83.08,17Z"/><path class="cls-6" d="M54.61,21.72A11.05,11.05,0,0,0,56.74,27,10.24,10.24,0,0,0,66,30.66a8.83,8.83,0,0,0,2.81-.75c.64-.32,2.11-1.68,2.66-.64.1.2.63,0,.54-.14-.79-1.54-2.76.26-3.68.64a9.52,9.52,0,0,1-6.23.25,10,10,0,0,1-4.62-3,10.71,10.71,0,0,1-2.31-5.47c0-.21-.57-.08-.54.14Z"/><path class="cls-3" d="M63.83,8.14c-.18.64.49,1.16,1,1.43a11.9,11.9,0,0,0,4.34,1.14,32.74,32.74,0,0,0,4.68.39l.07.06a4.56,4.56,0,0,0-2-6.12,4.55,4.55,0,0,0-6,2.35h0a3.49,3.49,0,0,0-1.14,0A1.13,1.13,0,0,0,63.83,8.14Z"/><path class="cls-5" d="M63.76,7.36c-.18.64.49,1.16,1,1.43a11.9,11.9,0,0,0,4.34,1.14,32.74,32.74,0,0,0,4.68.39l.07.06a4.56,4.56,0,0,0-2-6.12,4.55,4.55,0,0,0-6,2.35h0a3.49,3.49,0,0,0-1.14,0A1.13,1.13,0,0,0,63.76,7.36Z"/><path class="cls-2" d="M63.76,7.36c-.18.64.48,1.17,1,1.43a10.33,10.33,0,0,0,4.13.71c1.28.07,2.37.09,3.94.11,0,0,1.24-4.33-1-5.36a4.55,4.55,0,0,0-6,2.35h0a3.49,3.49,0,0,0-1.14,0A1.13,1.13,0,0,0,63.76,7.36Z"/><path class="cls-6" d="M66.11,6.6a4.18,4.18,0,0,1,5.89-2,4.58,4.58,0,0,1,1.54,5.82l.52-.14A20.45,20.45,0,0,0,66,6.5c-.16,0-.63.21-.33.28a20,20,0,0,1,7.88,3.7.41.41,0,0,0,.52-.14A4.65,4.65,0,0,0,71.61,4a5.06,5.06,0,0,0-6,2.72C65.5,6.82,66,6.77,66.11,6.6Z"/><path class="cls-6" d="M73.92,10.21a39.41,39.41,0,0,1-6.51-.67,6.79,6.79,0,0,1-2.67-1,1.48,1.48,0,0,1-.74-1c-.08-.91,1-.93,1.66-.87.12,0,.62-.19.35-.22-.75-.08-2-.06-2.44.72-.58,1,1,1.81,1.73,2.09a17.27,17.27,0,0,0,3.74.77,34.39,34.39,0,0,0,4.53.36c.12,0,.61-.22.35-.22Z"/><path class="cls-6" d="M71.36,4.45a3.34,3.34,0,0,0,.35-1.26c0-.22-.53-.11-.54.07a3.14,3.14,0,0,1-.31,1.18c-.11.23.42.17.5,0Z"/><path class="cls-6" d="M73.83,3.86a5.41,5.41,0,0,1-3.76-2.47c-.1-.16-.62,0-.5.21A5.66,5.66,0,0,0,73.5,4.16c.18,0,.63-.25.33-.3Z"/><path class="cls-6" d="M73.88,1.93a6.71,6.71,0,0,1-4.76,1.13c-.14,0-.63.21-.34.25A7.88,7.88,0,0,0,74.3,2c.23-.16-.31-.12-.42,0Z"/><path class="cls-6" d="M75.55,3.28a1.18,1.18,0,0,0-.36-1.72c-.15-.09-.62.13-.5.2a1.06,1.06,0,0,1,.37,1.53c-.12.18.41.12.5,0Z"/><path class="cls-6" d="M70.7.73a1.82,1.82,0,0,0-2.29.62c0,.06.45,0,.53-.1a1.05,1.05,0,0,1,.44-.42,1,1,0,0,1,.82.08c.14.07.57-.15.51-.18Z"/><path class="cls-6" d="M69.14,0a1.75,1.75,0,0,0-1.92,1.82c0,.18.56.07.54-.14A1.19,1.19,0,0,1,68.93.32c.21,0,.57-.3.21-.32Z"/><path class="cls-6" d="M76,4.26a1.71,1.71,0,0,0,.64-2c-.07-.19-.61,0-.54.14a1.46,1.46,0,0,1-.44,1.69c-.29.22.16.29.34.17Z"/><path class="cls-4" d="M11.76,31c1.63,2.51,3.58,5.24,6.52,5.77a19,19,0,0,1-16.8,7c.48.06.89-4,1.16-4.46.62-1.09,1.94-1.2,3-1.74A12.51,12.51,0,0,0,11.76,31Z"/><path class="cls-6" d="M11.51,31.06c1.6,2.47,3.52,5.21,6.6,5.81L18,36.73A18.54,18.54,0,0,1,1.65,43.64l-.27.29c.68,0,.77-.91.88-1.43.2-.94.31-1.9.54-2.83.32-1.31,1.94-1.47,3-2a12.78,12.78,0,0,0,3.54-2.57A12.51,12.51,0,0,0,12,30.92c.06-.17-.47-.1-.54.07a12.17,12.17,0,0,1-3.23,4.64A12.48,12.48,0,0,1,6,37.28c-.75.41-1.58.61-2.34,1a2.53,2.53,0,0,0-1.27,1.16,6.12,6.12,0,0,0-.28,1.28c-.11.6-.21,1.21-.34,1.81-.05.25-.11.51-.19.75a1.74,1.74,0,0,0-.1.28c0,.21-.27.1.14.08-.12,0-.58.26-.27.29a19.47,19.47,0,0,0,17.21-7.19c.06-.07,0-.13-.08-.15-3-.59-4.88-3.34-6.43-5.73C11.92,30.71,11.39,30.88,11.51,31.06Z"/><path class="cls-6" d="M11.08,34.4a4.85,4.85,0,0,1,.68,1.45,7.33,7.33,0,0,0,.64,1.25,4.53,4.53,0,0,0,2.19,1.73c.14.05.63-.16.44-.23a4.42,4.42,0,0,1-2.29-2,13.08,13.08,0,0,0-1.14-2.41c-.1-.12-.62.07-.51.2Z"/><path class="cls-6" d="M9.85,36.68A4.61,4.61,0,0,0,11.12,40c.17.18.68,0,.49-.24a4.34,4.34,0,0,1-1.22-3.1c0-.28-.54-.21-.55,0Z"/><path class="cls-6" d="M8.95,38a6.07,6.07,0,0,0,.8,3.13c.1.17.62,0,.5-.22a5.79,5.79,0,0,1-.75-3c0-.25-.54-.14-.54.06Z"/><path class="cls-6" d="M6.93,37.85c-.22,1.36-.23,3.2.89,4.19.18.16.65-.11.42-.31-1-.91-1-2.7-.76-3.92,0-.27-.51-.2-.55,0Z"/></svg>