<svg id="Layer_1" data-name="Layer 1" xmlns="http://www.w3.org/2000/svg" viewBox="0 0 77.31 58.03"><defs><style>.cls-1{fill:#ecf8fb;}.cls-2{fill:#abdff5;}.cls-3{fill:#e3e3e3;}.cls-4{fill:#f8f8f8;}.cls-5{fill:#637aaa;}.cls-6{fill:#fff;}.cls-7{fill:#cfcfcf;}.cls-8{fill:#ffcac1;}.cls-9{fill:#ff8f7f;}.cls-10{fill:#ffac98;}</style></defs><title>Artboard 7</title><path class="cls-1" d="M19.94,57.15C18.3,56.89-1.37,54.52.08,37.06S3.34,14.34,11,12.42s26.24-11,40.83-2.37,30.33,16.4,24.08,30.2S68.63,58.66,52.33,58,27.72,58.4,19.94,57.15Z"/><path class="cls-2" d="M64.2,48.91c3.67,1.32-5.4,3.12-6.67,3.24a188.3,188.3,0,0,1-42.23-1,5.27,5.27,0,0,1-1.6-.38c-3.37-1.65,7.45-2.77,8.45-2.85,3.73-.32,7.52-.53,11.29-.56C38.77,47.27,59.65,47.27,64.2,48.91Z"/><path id="_Path_" data-name="&lt;Path&gt;" class="cls-3" d="M68.77,36.67V3.89A3.54,3.54,0,0,0,65.26.32H12.07A3.54,3.54,0,0,0,8.56,3.89V36.67a3.54,3.54,0,0,0,3.51,3.56H65.26A3.54,3.54,0,0,0,68.77,36.67Z"/><path class="cls-3" d="M46.35,46.74,44.66,39.3H34.54l-1.69,7.44c-2.12.29-5.57,1.72-5.57,3.42H51.92C51.92,48.46,48.47,47,46.35,46.74Z"/><path class="cls-4" d="M46.36,46.82l-1.48-6.68H36.47a.91.91,0,0,0-.89.72l-1.42,6.52c-2,.27-5.19,1.21-5.19,2.78h23C51.92,48.59,48.33,47.09,46.36,46.82Z"/><path class="cls-5" d="M34.11,40.36l-1.45,6.4.21-.15a11.19,11.19,0,0,0-3.82,1.28c-.82.46-2,1.22-2,2.29a.12.12,0,0,0,.12.11H51.85c.08,0,.26,0,.26-.15,0-1.07-1.12-1.82-1.94-2.28a11.11,11.11,0,0,0-3.75-1.26l.12.08L45.1,40.17c0-.16-.42-.07-.38.1l1.44,6.52c0,.05.08.07.12.08A10.73,10.73,0,0,1,49.78,48c.78.42,1.95,1.14,1.95,2.16L52,50H27.35l.12.11c0-1,1.14-1.73,1.93-2.15a10.7,10.7,0,0,1,3.43-1.13c.09,0,.19-.05.21-.15l1.45-6.4c0-.17-.35-.12-.39,0Z"/><path class="cls-3" d="M43.54,46.72H34.22a.9.9,0,0,0-.76.32c-.13.23.11.36.32.36,2.71-.05,5.43,0,8.15,0H43.1a.89.89,0,0,0,.76-.32c.13-.23-.11-.36-.32-.36Z"/><rect id="_Path_2" data-name="&lt;Path&gt;" class="cls-4" x="9.63" y="0.14" width="59.94" height="39.16" rx="3.5" ry="3.5"/><g id="_Group_" data-name="&lt;Group&gt;"><path class="cls-5" d="M69.76,35.79V6.06c0-.79,0-1.57,0-2.36A3.67,3.67,0,0,0,66.08,0H13.83a5,5,0,0,0-2.38.41,3.69,3.69,0,0,0-2,3.23c0,.16,0,.32,0,.48V35a4.53,4.53,0,0,0,.83,3.16,4,4,0,0,0,3.24,1.3H66a3.75,3.75,0,0,0,3.79-3.64c0-.19-.38-.13-.39,0a3.35,3.35,0,0,1-2.84,3.32,5.23,5.23,0,0,1-.66,0H13.16a3.4,3.4,0,0,1-3-2,6,6,0,0,1-.32-2.6V4c0-.19,0-.38,0-.56A3.33,3.33,0,0,1,12.78.28c.42,0,.86,0,1.29,0H66A3.4,3.4,0,0,1,69.1,2.32a3.91,3.91,0,0,1,.27,1.55V35.82C69.38,36,69.76,35.95,69.76,35.79Z"/></g><g id="_Group_2" data-name="&lt;Group&gt;"><path class="cls-6" d="M65.52,3.18H13.68a1.26,1.26,0,0,0-1.26,1.26V32.59a1.26,1.26,0,0,0,1.26,1.26h49.8a3.3,3.3,0,0,0,3.3-3.3V4.44A1.26,1.26,0,0,0,65.52,3.18Z"/><path class="cls-5" d="M65.6,3.07H13.76a1.49,1.49,0,0,0-1.53,1.42c0,.19,0,.38,0,.57V32.25c0,.17,0,.34,0,.5A1.38,1.38,0,0,0,13.65,34H63.31a3.59,3.59,0,0,0,3.6-2.78,10.61,10.61,0,0,0,.06-2v-24c0-.22,0-.45,0-.67a1.38,1.38,0,0,0-1.38-1.4c-.15,0-.41.21-.15.22,1.28.05,1.14,1.35,1.14,2.23V29.39a6.79,6.79,0,0,1-.19,2.3,3.09,3.09,0,0,1-2.85,2.05h-46c-1.26,0-2.53,0-3.79,0a1.2,1.2,0,0,1-1.17-1.21c0-.2,0-.41,0-.61v-27c0-.73.11-1.56,1.06-1.6,1.33,0,2.68,0,4,0H65.45C65.6,3.29,65.85,3.07,65.6,3.07Z"/></g><path class="cls-7" d="M18.86,18.2h-.48a.16.16,0,0,1,0-.32h.48a.16.16,0,1,1,0,.32Z"/><path class="cls-7" d="M30.26,18.2h-1a.16.16,0,0,1,0-.32h1a.16.16,0,0,1,0,.32Zm-1.9,0h-1a.16.16,0,0,1,0-.32h1a.16.16,0,0,1,0,.32Zm-1.9,0h-1a.16.16,0,1,1,0-.32h1a.16.16,0,1,1,0,.32Zm-1.9,0h-1a.16.16,0,0,1,0-.32h1a.16.16,0,1,1,0,.32Zm-1.9,0h-1a.16.16,0,0,1,0-.32h1a.16.16,0,0,1,0,.32Zm-1.9,0h-1a.16.16,0,0,1,0-.32h1a.16.16,0,1,1,0,.32Z"/><path class="cls-7" d="M31.68,18.67a.16.16,0,0,1-.16-.16V18.2h-.32a.16.16,0,0,1,0-.32h.48a.16.16,0,0,1,.16.16v.48A.16.16,0,0,1,31.68,18.67Z"/><path class="cls-7" d="M31.68,29.68a.16.16,0,0,1-.16-.16V28.6a.16.16,0,1,1,.32,0v.92A.16.16,0,0,1,31.68,29.68Zm0-1.83a.16.16,0,0,1-.16-.16v-.92a.16.16,0,1,1,.32,0v.92A.16.16,0,0,1,31.68,27.84Zm0-1.83a.16.16,0,0,1-.16-.16v-.92a.16.16,0,1,1,.32,0v.92A.16.16,0,0,1,31.68,26Zm0-1.83a.16.16,0,0,1-.16-.16V23.1a.16.16,0,1,1,.32,0V24A.16.16,0,0,1,31.68,24.18Zm0-1.83a.16.16,0,0,1-.16-.16v-.92a.16.16,0,1,1,.32,0v.92A.16.16,0,0,1,31.68,22.34Zm0-1.83a.16.16,0,0,1-.16-.16v-.92a.16.16,0,1,1,.32,0v.92A.16.16,0,0,1,31.68,20.51Z"/><path class="cls-7" d="M31.68,31.07a.16.16,0,0,1-.16-.16v-.48a.16.16,0,1,1,.32,0v.48A.16.16,0,0,1,31.68,31.07Z"/><path class="cls-7" d="M19.33,23.58h-.48a.16.16,0,0,1,0-.32h.48a.16.16,0,1,1,0,.32Z"/><path class="cls-7" d="M49.63,23.58h-.95a.16.16,0,1,1,0-.32h.95a.16.16,0,1,1,0,.32Zm-1.89,0h-.95a.16.16,0,0,1,0-.32h.95a.16.16,0,0,1,0,.32Zm-1.89,0H44.9a.16.16,0,0,1,0-.32h.95a.16.16,0,1,1,0,.32Zm-1.89,0H43a.16.16,0,1,1,0-.32H44a.16.16,0,1,1,0,.32Zm-1.89,0h-.95a.16.16,0,1,1,0-.32h.95a.16.16,0,1,1,0,.32Zm-1.89,0h-.95a.16.16,0,0,1,0-.32h.95a.16.16,0,0,1,0,.32Zm-1.89,0h-.95a.16.16,0,0,1,0-.32h.95a.16.16,0,0,1,0,.32Zm-1.89,0h-.95a.16.16,0,0,1,0-.32h.95a.16.16,0,0,1,0,.32Zm-1.89,0h-.95a.16.16,0,0,1,0-.32h.95a.16.16,0,0,1,0,.32Zm-1.89,0h-.95a.16.16,0,1,1,0-.32h.95a.16.16,0,0,1,0,.32Zm-1.89,0h-.95a.16.16,0,0,1,0-.32h.95a.16.16,0,0,1,0,.32Zm-1.89,0h-.95a.16.16,0,0,1,0-.32h.95a.16.16,0,1,1,0,.32Zm-1.89,0H26a.16.16,0,0,1,0-.32h.95a.16.16,0,1,1,0,.32Zm-1.89,0h-.95a.16.16,0,0,1,0-.32H25a.16.16,0,0,1,0,.32Zm-1.89,0h-.95a.16.16,0,0,1,0-.32h.95a.16.16,0,1,1,0,.32Zm-1.89,0h-.95a.16.16,0,1,1,0-.32h.95a.16.16,0,1,1,0,.32Z"/><path class="cls-7" d="M51.06,24.05a.16.16,0,0,1-.16-.16v-.32h-.32a.16.16,0,0,1,0-.32h.48a.16.16,0,0,1,.16.16v.48A.16.16,0,0,1,51.06,24.05Z"/><path class="cls-7" d="M51.06,29.17A.16.16,0,0,1,50.9,29v-.85a.16.16,0,1,1,.32,0V29A.16.16,0,0,1,51.06,29.17Zm0-1.71a.16.16,0,0,1-.16-.16v-.85a.16.16,0,1,1,.32,0v.85A.16.16,0,0,1,51.06,27.47Zm0-1.71a.16.16,0,0,1-.16-.16v-.85a.16.16,0,1,1,.32,0v.85A.16.16,0,0,1,51.06,25.76Z"/><path class="cls-7" d="M51.06,30.5a.16.16,0,0,1-.16-.16v-.48a.16.16,0,0,1,.32,0v.48A.16.16,0,0,1,51.06,30.5Z"/><path class="cls-7" d="M18.86,12.88h-.48a.16.16,0,0,1,0-.32h.48a.16.16,0,1,1,0,.32Z"/><path class="cls-7" d="M39.16,12.88h-.92a.16.16,0,0,1,0-.32h.92a.16.16,0,0,1,0,.32Zm-1.85,0H36.4a.16.16,0,0,1,0-.32h.92a.16.16,0,0,1,0,.32Zm-1.85,0h-.92a.16.16,0,1,1,0-.32h.92a.16.16,0,1,1,0,.32Zm-1.85,0H32.7a.16.16,0,1,1,0-.32h.92a.16.16,0,1,1,0,.32Zm-1.85,0h-.92a.16.16,0,1,1,0-.32h.92a.16.16,0,0,1,0,.32Zm-1.85,0H29a.16.16,0,1,1,0-.32h.92a.16.16,0,1,1,0,.32Zm-1.85,0h-.92a.16.16,0,1,1,0-.32h.92a.16.16,0,0,1,0,.32Zm-1.85,0h-.92a.16.16,0,1,1,0-.32h.92a.16.16,0,0,1,0,.32Zm-1.85,0h-.92a.16.16,0,1,1,0-.32h.92a.16.16,0,0,1,0,.32Zm-1.85,0h-.92a.16.16,0,1,1,0-.32h.92a.16.16,0,1,1,0,.32Zm-1.85,0h-.92a.16.16,0,1,1,0-.32h.92a.16.16,0,1,1,0,.32Z"/><path class="cls-7" d="M40.56,13.35a.16.16,0,0,1-.16-.16v-.32h-.32a.16.16,0,0,1,0-.32h.48a.16.16,0,0,1,.16.16v.48A.16.16,0,0,1,40.56,13.35Z"/><path class="cls-7" d="M40.56,29a.16.16,0,0,1-.16-.16v-1a.16.16,0,1,1,.32,0v1A.16.16,0,0,1,40.56,29Zm0-2a.16.16,0,0,1-.16-.16v-1a.16.16,0,0,1,.32,0v1A.16.16,0,0,1,40.56,27.08Zm0-2A.16.16,0,0,1,40.4,25V24a.16.16,0,0,1,.32,0v1A.16.16,0,0,1,40.56,25.12Zm0-2A.16.16,0,0,1,40.4,23V22a.16.16,0,0,1,.32,0v1A.16.16,0,0,1,40.56,23.16Zm0-2A.16.16,0,0,1,40.4,21v-1a.16.16,0,0,1,.32,0v1A.16.16,0,0,1,40.56,21.2Zm0-2a.16.16,0,0,1-.16-.16v-1a.16.16,0,1,1,.32,0v1A.16.16,0,0,1,40.56,19.24Zm0-2a.16.16,0,0,1-.16-.16v-1a.16.16,0,1,1,.32,0v1A.16.16,0,0,1,40.56,17.28Zm0-2a.16.16,0,0,1-.16-.16v-1a.16.16,0,0,1,.32,0v1A.16.16,0,0,1,40.56,15.31Z"/><path class="cls-7" d="M40.56,30.5a.16.16,0,0,1-.16-.16v-.48a.16.16,0,1,1,.32,0v.48A.16.16,0,0,1,40.56,30.5Z"/><path class="cls-5" d="M60.12,31H18a2.86,2.86,0,0,0-.58,0h-.07l.12.05V5.78c0-.11-.38,0-.38.1v25.3s.09.05.12.05H54.72c1.72,0,3.45.06,5.17,0H60c.14,0,.41-.2.15-.2Z"/><path class="cls-5" d="M16.46,6.69l1-1-.36.07,1,1c.08.08.44-.06.36-.14l-1-1c-.08-.08-.29,0-.36.07l-1,1c-.1.1.27.07.35,0Z"/><path class="cls-5" d="M59.13,30.23l1,1,0-.11-1,1c-.16.16.22.16.31.06l1-1s.06-.07,0-.11l-1-1c-.1-.1-.46,0-.36.15Z"/><path class="cls-5" d="M16.62,31.21h.54a.5.5,0,0,0,.27-.07c.05,0,.06-.08,0-.08h-.54a.5.5,0,0,0-.27.07c-.05,0-.06.08,0,.08Z"/><path class="cls-5" d="M16.67,27.65h.54a.33.33,0,0,0,.25-.1c0-.07,0-.1-.1-.1h-.54a.33.33,0,0,0-.25.1c0,.07,0,.1.1.1Z"/><path class="cls-5" d="M16.67,24.06h.54a.35.35,0,0,0,.25-.1c0-.07,0-.08-.1-.08h-.54a.35.35,0,0,0-.25.1c0,.07,0,.08.1.08Z"/><path class="cls-5" d="M16.73,20.53h.54a.21.21,0,0,0,.21-.16c0-.1-.1-.13-.18-.13h-.54a.21.21,0,0,0-.21.16c0,.1.1.13.18.13Z"/><path class="cls-5" d="M16.68,16.92h.54a.27.27,0,0,0,.25-.11c0-.08,0-.14-.11-.14h-.54a.27.27,0,0,0-.25.11c0,.08,0,.14.11.14Z"/><path class="cls-5" d="M16.62,13.29h.54a.47.47,0,0,0,.27-.07c.05,0,.06-.09,0-.09h-.54a.47.47,0,0,0-.27.07c-.05,0-.06.09,0,.09Z"/><path class="cls-5" d="M16.67,9.72h.54a.34.34,0,0,0,.25-.1c0-.07,0-.09-.1-.09h-.54a.34.34,0,0,0-.25.1c0,.07,0,.09.1.09Z"/><path class="cls-5" d="M17.28,31.88a.16.16,0,0,1-.16-.16v-.54a.16.16,0,0,1,.32,0v.54A.16.16,0,0,1,17.28,31.88Z"/><path class="cls-5" d="M20.87,31.88a.16.16,0,0,1-.16-.16v-.54a.16.16,0,1,1,.32,0v.54A.16.16,0,0,1,20.87,31.88Z"/><path class="cls-5" d="M24.45,31.88a.16.16,0,0,1-.16-.16v-.54a.16.16,0,0,1,.32,0v.54A.16.16,0,0,1,24.45,31.88Z"/><path class="cls-5" d="M28,31.88a.16.16,0,0,1-.16-.16v-.54a.16.16,0,0,1,.32,0v.54A.16.16,0,0,1,28,31.88Z"/><path class="cls-5" d="M31.62,31.88a.16.16,0,0,1-.16-.16v-.54a.16.16,0,0,1,.32,0v.54A.16.16,0,0,1,31.62,31.88Z"/><path class="cls-5" d="M35.21,31.88a.16.16,0,0,1-.16-.16v-.54a.16.16,0,0,1,.32,0v.54A.16.16,0,0,1,35.21,31.88Z"/><path class="cls-5" d="M38.79,31.88a.16.16,0,0,1-.16-.16v-.54a.16.16,0,0,1,.32,0v.54A.16.16,0,0,1,38.79,31.88Z"/><path class="cls-5" d="M42.38,31.88a.16.16,0,0,1-.16-.16v-.54a.16.16,0,1,1,.32,0v.54A.16.16,0,0,1,42.38,31.88Z"/><path class="cls-5" d="M46,31.88a.16.16,0,0,1-.16-.16v-.54a.16.16,0,0,1,.32,0v.54A.16.16,0,0,1,46,31.88Z"/><path class="cls-5" d="M49.55,31.88a.16.16,0,0,1-.16-.16v-.54a.16.16,0,1,1,.32,0v.54A.16.16,0,0,1,49.55,31.88Z"/><path class="cls-8" d="M61.48,27.52l-9.05,2.27a.41.41,0,0,1-.45-.61l1.93-3.23a.24.24,0,0,0-.08-.33L40.27,17.49a.24.24,0,0,0-.33.08l-3.45,5.76a.24.24,0,0,1-.33.08l-3.93-2.35h0L18.28,12.71a.24.24,0,0,1-.08-.33l2.23-3.72a.24.24,0,0,1,.33-.08L34.5,16.8a.24.24,0,0,0,.33-.08L38.28,11a.24.24,0,0,1,.33-.08l17.7,10.6a.24.24,0,0,0,.33-.08l1.89-3.15a.5.5,0,0,1,.92.14l2.22,8.84A.24.24,0,0,1,61.48,27.52Z"/><path class="cls-9" d="M61.33,27.56l-9,2.25a.39.39,0,0,1-.42-.57l1.89-3.16a.39.39,0,0,0-.13-.53l-13.32-8a.39.39,0,0,0-.53.13l-3.3,5.51a.39.39,0,0,1-.53.13l-3.8-2.28h0L18.4,12.78a.39.39,0,0,1-.13-.53L20,9.32a.39.39,0,0,1,.53-.13l14,8.46a.44.44,0,0,0,.6-.15L38.46,12a.44.44,0,0,1,.6-.15L56.18,22.14a.39.39,0,0,0,.53-.14l1.77-3.05a.39.39,0,0,1,.7.08l2.41,8A.39.39,0,0,1,61.33,27.56Z"/><path class="cls-10" d="M61.44,27.51l-8.52,1.76a.26.26,0,0,1-.27-.38l1.83-3a.5.5,0,0,0-.17-.69l-14-8.38a.56.56,0,0,0-.77.2l-3.28,5.39a.26.26,0,0,1-.35.09l-17.3-10.3a.26.26,0,0,1-.09-.35l1.58-2.68a.26.26,0,0,1,.35-.09l14.23,8.6a.31.31,0,0,0,.42-.1l3.29-5.47a.59.59,0,0,1,.8-.2l17,10.2a.39.39,0,0,0,.53-.14l1.77-3a.39.39,0,0,1,.71.08l2.45,8.15A.26.26,0,0,1,61.44,27.51Z"/><path class="cls-5" d="M61.45,27.39l-8.59,2.15a2.06,2.06,0,0,1-.43.11c-.5,0-.26-.47-.13-.7l1.39-2.31c.19-.32.69-.85.25-1.16-.27-.19-.58-.34-.86-.51l-9.15-5.48-3.29-2c-.3-.18-.63-.32-.89,0s-.56.94-.84,1.4L37.39,21.5l-.64,1.07a3.4,3.4,0,0,1-.39.66c-.1.1-.07.06-.22,0l-.91-.54-2.37-1.42L32.37,21l0,.13h0a.09.09,0,0,0,0-.13L26,17.14l-7.43-4.45c-.34-.2-.11-.45.05-.72L20,9.75l.54-.9c.05-.09.07-.15.14-.16s.21.12.26.15l.5.3,8.55,5.12,3.68,2.21c.23.14.46.3.7.42.45.22.67-.15.87-.48l2.55-4.26.51-.85s.14-.31.2-.33.37.23.43.26l7.43,4.45,8.53,5.11,1,.62c.22.13.42.29.69.19s.31-.3.42-.48l.61-1L58.3,19a4,4,0,0,1,.4-.66c.5-.54.66.56.73.84L60,21.28l1.27,5.05c0,.12.36,1,.17,1.07s0,.3.17.21c.46-.22.22-.69.13-1.07l-.55-2.18-1.29-5.16a3,3,0,0,0-.33-1.09.75.75,0,0,0-1.1,0,3.59,3.59,0,0,0-.34.55l-1.35,2.26c0,.07-.2.42-.27.43s-.13-.08-.15-.09l-7-4.18-9-5.36L39.18,11a3.42,3.42,0,0,0-.46-.27c-.54-.21-.79.46-1,.81l-1.33,2.22L35,16a2.35,2.35,0,0,1-.36.6c-.09.07,0,0-.09,0s-.24-.14-.32-.19l-.55-.33-1.71-1L22.74,9.57l-1.4-.84c-.2-.12-.46-.33-.71-.32s-.38.2-.5.41l-.54.9L18.24,12c-.19.31-.43.62,0,.88s.61.36.91.55l4,2.38,8.46,5.07.53.32L32,21h0a.09.09,0,0,0,0,.13l3.8,2.27a.56.56,0,0,0,.7,0,1.6,1.6,0,0,0,.26-.39L38.09,21l1.47-2.45c.09-.15.43-.91.58-.92s.22.13.28.17l.56.34,1.74,1,9.52,5.7,1.24.74a.9.9,0,0,1,.21.13c.16.19-.1.47-.2.63l-1.43,2.39a1.75,1.75,0,0,0-.32.63c0,.43.39.62.75.55,1.32-.27,2.63-.66,3.94-1l4.8-1.2.29-.07C61.75,27.58,61.69,27.33,61.45,27.39Z"/></svg>