<svg id="Layer_1" data-name="Layer 1" xmlns="http://www.w3.org/2000/svg" xmlns:xlink="http://www.w3.org/1999/xlink" viewBox="0 0 118.94 59.51"><defs><style>.cls-1{fill:none;}.cls-2{fill:#fff;}.cls-3{fill:#ecf8fb;}.cls-4{fill:#abdff5;}.cls-5{fill:#637aaa;}.cls-6{fill:#f1f1f1;}.cls-7{clip-path:url(#clip-path);}.cls-8{fill:#92d2e9;}.cls-9{clip-path:url(#clip-path-2);}.cls-10{fill:#d5f2f8;}.cls-11{opacity:0.5;}</style><clipPath id="clip-path"><rect class="cls-1" x="34.92" y="10.9" width="55.31" height="32.73"/></clipPath><clipPath id="clip-path-2"><path class="cls-2" d="M41.7,35.63C42.41,29.4,43,17.1,36.84,18.37c-4,.81-7.81,7.55-10.57,14.8,0,0,5.95,1.74,8.09,2.06C36.18,35.49,41.7,35.63,41.7,35.63Z"/></clipPath></defs><title>Artboard 10</title><path class="cls-3" d="M41.51,58.61c-1.69-.27-22-2.71-20.47-20.71S24.4,14.49,32.29,12.51s27-11.35,42.08-2.44S105.63,27,99.2,41.19s-7.49,19-24.29,18.25S49.53,59.9,41.51,58.61Z"/><path class="cls-4" d="M43.18,49.29c.4.24.58.53.47.88-.81,2.43-6.25,2.52-8.88,2.59a54.21,54.21,0,0,1-9.82-.24c-1.29-.21-4.15-.35-4.77-1.14-1.62-2.09,7.3-2.94,8.76-3C31.36,48.25,40.88,47.94,43.18,49.29Z"/><path class="cls-4" d="M26.65,49.76c-1.2-.25-1.64-.54-1.07-.89,4-2.45,22-2.44,30.75-2.47,11,0,22.42-.14,32.31.41,4.14.23,13.52.42,15.13,1.24,4.21,2.14-25.73,2.85-30.57,2.9C65.13,51,33.51,51.17,26.65,49.76Z"/><g id="_Group_" data-name="&lt;Group&gt;"><path class="cls-2" d="M96.74,49.15H28.66a3.38,3.38,0,0,1-3.38-3.38v-.2a.2.2,0,0,1,.2-.2H99.92a.2.2,0,0,1,.2.2v.2A3.39,3.39,0,0,1,96.74,49.15Z"/><path class="cls-5" d="M96.8,49.08H29.2a6,6,0,0,1-1,0,3.37,3.37,0,0,1-2.67-2.59c0-.22-.22-.9,0-1a2.63,2.63,0,0,1,.86,0H99a3,3,0,0,1,.83,0c.34.12.13.88.07,1.13a3.24,3.24,0,0,1-3.08,2.5c-.09,0-.33.15-.13.14A3.73,3.73,0,0,0,99.41,48a3.44,3.44,0,0,0,.77-1.48c.06-.25.26-1,0-1.19a1.48,1.48,0,0,0-.62,0h-73c-.29,0-.58,0-.87,0a.52.52,0,0,0-.44.17c-.2.32,0,1.07.13,1.39a3.43,3.43,0,0,0,.88,1.4c1.1,1.05,2.46,1,3.83,1H96.67C96.77,49.22,97,49.08,96.8,49.08Z"/></g><path id="_Path_" data-name="&lt;Path&gt;" class="cls-6" d="M93.63,45.35V9.22A1.19,1.19,0,0,0,92.44,8H33a1.19,1.19,0,0,0-1.19,1.19V45.35Z"/><g id="_Group_2" data-name="&lt;Group&gt;"><path class="cls-5" d="M33,8a1.38,1.38,0,0,0-1.4,1.3c0,.12,0,.24,0,.35v35a1.71,1.71,0,0,0,0,.53.21.21,0,0,1,0,.07c0,.06.3,0,.3-.08V13.3c0-1.36-.07-2.74,0-4.1a1.06,1.06,0,0,1,1-1.1C33,8.1,33.22,8,33,8Z"/></g><g id="_Group_3" data-name="&lt;Group&gt;"><path class="cls-2" d="M94.67,45.35V9.22A1.19,1.19,0,0,0,93.48,8H34a1.19,1.19,0,0,0-1.19,1.19V45.35Z"/><path class="cls-5" d="M94.82,45.3V10c0-.28,0-.56,0-.83A1.29,1.29,0,0,0,93.37,8H35.23c-1,0-2.49-.14-2.57,1.29-.06,1.07,0,2.16,0,3.24V45.39s0,0,.05,0H87c2.5,0,5,.09,7.51,0h.1c.06,0,.34-.12.2-.12H33.19s-.24,0-.28,0,.05-.38.05-.44v-35c0-.76,0-1.67,1.05-1.73.57,0,1.15,0,1.72,0H91.85c.49,0,1,0,1.49,0,1.17,0,1.18,1,1.18,1.89V45.39S94.82,45.39,94.82,45.3Z"/></g><g id="_Group_4" data-name="&lt;Group&gt;"><path class="cls-2" d="M97.78,49.15H29.7a3.38,3.38,0,0,1-3.38-3.38v-.2a.2.2,0,0,1,.2-.2H101a.2.2,0,0,1,.2.2v.2A3.39,3.39,0,0,1,97.78,49.15Z"/><path class="cls-5" d="M97.84,49.07H30.24a6.14,6.14,0,0,1-1,0,3.35,3.35,0,0,1-2.67-2.58c0-.21-.22-.9,0-1a2.74,2.74,0,0,1,.86,0H100a3,3,0,0,1,.83,0c.33.12.13.85.07,1.12a3.24,3.24,0,0,1-3.08,2.5c-.11,0-.32.17-.12.17A3.7,3.7,0,0,0,100.45,48a3.47,3.47,0,0,0,.77-1.48c.06-.24.26-1,0-1.21s-.46,0-.62,0h-73c-.29,0-.58,0-.87,0a.5.5,0,0,0-.44.18c-.2.33,0,1.08.13,1.4a3.44,3.44,0,0,0,.88,1.4c1.1,1.06,2.45,1,3.84,1H97.72C97.83,49.24,98,49.07,97.84,49.07Z"/></g><g id="_Group_5" data-name="&lt;Group&gt;"><path class="cls-5" d="M55,45.41c.26,1.15,1.31,1.08,2.22,1.08H70c1,0,2.24.15,2.53-1.13,0-.08-.09-.1-.14-.1H55.15c-.17,0-.23.22,0,.22h17.2l-.14-.1c-.25,1.1-1.44.89-2.29.89h-12c-.93,0-2.33.27-2.61-.94C55.26,45.19,55,45.27,55,45.41Z"/></g><rect id="_Rectangle_" data-name="&lt;Rectangle&gt;" class="cls-3" x="35.16" y="10.9" width="56.11" height="32.73"/><g class="cls-7"><polygon class="cls-2" points="8.31 44.3 0 40.45 87.3 0 95.6 3.85 8.31 44.3"/><polygon class="cls-2" points="18.93 48.93 14.78 47 102.07 6.55 106.23 8.48 18.93 48.93"/><polygon class="cls-2" points="31.64 54.82 24.64 51.57 111.94 11.13 118.94 14.37 31.64 54.82"/></g><rect id="_Path_2" data-name="&lt;Path&gt;" class="cls-6" x="90.23" y="10.9" width="1.04" height="32.73"/><g id="_Group_6" data-name="&lt;Group&gt;"><path class="cls-5" d="M90.08,11.24v32.1c0,.13.3.07.3,0V11.2c0-.13-.3-.07-.3,0Z"/></g><g id="_Group_7" data-name="&lt;Group&gt;"><path class="cls-5" d="M91.33,10.82H37.51c-.72,0-1.46,0-2.18,0h-.1s-.21,0-.21.1V43.65c0,.05,0,.07.09.07H88.93c.72,0,1.46,0,2.18,0h.1s.21,0,.21-.1V10.89c0-.13-.3-.06-.3,0V43.65l.21-.1H36.08a3,3,0,0,0-.76,0h-.1l.09.07V10.89l-.21.1H88.93c.72,0,1.46,0,2.18,0h.1C91.33,11,91.54,10.82,91.33,10.82Z"/></g><path class="cls-4" d="M26.35,33a84.13,84.13,0,0,0-3.74,17.61s6-11,10.53-10.52,6.7,11.1,6.7,11.1,1.45-9.69,1.79-12.94c.1-.92.11-1.49.15-3.7,0,0-5.45.21-7.26,0C32.38,34.35,26.35,33,26.35,33Z"/><path class="cls-8" d="M29.2,36.1a3.82,3.82,0,0,1-1.79,1.61.58.58,0,0,1-.64-.15c-.13-.14-.18-.39,0-.49a3.25,3.25,0,0,0,1.53-1.35c.23-.39,1.08,0,.86.38Z"/><path class="cls-5" d="M28.39,35.56A3.4,3.4,0,0,1,26.79,37c-.18.08.1.08.18,0a3.66,3.66,0,0,0,1.72-1.53s-.25,0-.3.05Z"/><path class="cls-8" d="M39.27,37a2.38,2.38,0,0,0,.82,1.58c.14.12.18.34,0,.44a.63.63,0,0,1-.63-.16,3.14,3.14,0,0,1-1.07-2.08c0-.42.85-.16.89.22Z"/><path class="cls-5" d="M38.88,36.89a2.81,2.81,0,0,0,1,1.85c.09.08.37,0,.28-.12a2.73,2.73,0,0,1-.94-1.81c0-.11-.32,0-.3.08Z"/><path class="cls-5" d="M26.2,33a76.53,76.53,0,0,0-3.6,16.37c0,.42-.1.83-.13,1.25,0,.11.27,0,.3,0,.63-1.15,1.33-2.26,2.07-3.35a26,26,0,0,1,4.71-5.55,6.11,6.11,0,0,1,2.81-1.5A3.34,3.34,0,0,1,35,41c1.7,1.42,2.67,3.69,3.41,5.72a31,31,0,0,1,1.29,4.45c0,.08.29,0,.3-.06.62-4.17,1.27-8.34,1.75-12.53.16-1.37.17-2.75.2-4.12,0,0-.07,0-.09,0-2,.08-4,.13-6,.09a37.34,37.34,0,0,1-7-1.12l-2.37-.52c-.08,0-.35.11-.24.13,1.94.45,3.89.87,5.85,1.23a21.53,21.53,0,0,0,3.1.41c1.28,0,2.56,0,3.83,0l1.73,0c.13,0,.85-.12.94,0s-.06.73-.07.89c0,.38,0,.76,0,1.15s0,1-.1,1.53c-.25,2.42-.61,4.82-1,7.23q-.41,2.9-.85,5.8l.3-.06A31,31,0,0,0,38.84,47c-.75-2.14-1.72-4.52-3.47-6-3.81-3.33-8.15,2.46-10.13,5.22a43.09,43.09,0,0,0-2.78,4.38l.3,0a77.69,77.69,0,0,1,2.08-12c.47-1.89,1-3.75,1.65-5.59C26.52,32.87,26.23,32.9,26.2,33Z"/><path class="cls-2" d="M41.7,35.63C42.41,29.4,43,17.1,36.84,18.37c-4,.81-7.81,7.55-10.57,14.8,0,0,5.95,1.74,8.09,2.06C36.18,35.49,41.7,35.63,41.7,35.63Z"/><g class="cls-9"><path class="cls-10" d="M44.38,24.29h-.06a.21.21,0,0,1-.14-.26l.28-1a.21.21,0,1,1,.4.11l-.28,1A.21.21,0,0,1,44.38,24.29Z"/><path class="cls-10" d="M43.38,24h-.06a.21.21,0,0,1-.14-.26l.28-1a.21.21,0,1,1,.4.11l-.28,1A.21.21,0,0,1,43.38,24Z"/><path class="cls-10" d="M42.38,23.72h-.06a.21.21,0,0,1-.14-.26l.28-1a.21.21,0,1,1,.4.11l-.28,1A.21.21,0,0,1,42.38,23.72Z"/><path class="cls-10" d="M41.37,23.44h-.06a.21.21,0,0,1-.14-.26l.28-1a.21.21,0,0,1,.4.11l-.28,1A.21.21,0,0,1,41.37,23.44Z"/><path class="cls-10" d="M40.37,23.16h-.06a.21.21,0,0,1-.14-.26l.28-1a.21.21,0,0,1,.4.11l-.28,1A.21.21,0,0,1,40.37,23.16Z"/><path class="cls-10" d="M39.37,22.87h-.06a.21.21,0,0,1-.14-.26l.28-1a.21.21,0,0,1,.4.11l-.28,1A.21.21,0,0,1,39.37,22.87Z"/><path class="cls-10" d="M38.36,22.59h-.06a.21.21,0,0,1-.14-.26l.28-1a.21.21,0,1,1,.4.11l-.28,1A.21.21,0,0,1,38.36,22.59Z"/><path class="cls-10" d="M37.36,22.3H37.3a.21.21,0,0,1-.14-.26l.28-1a.21.21,0,0,1,.4.11l-.28,1A.21.21,0,0,1,37.36,22.3Z"/><path class="cls-10" d="M36.36,22H36.3a.21.21,0,0,1-.14-.26l.28-1a.21.21,0,0,1,.4.11l-.28,1A.21.21,0,0,1,36.36,22Z"/><path class="cls-10" d="M35.35,21.73H35.3a.21.21,0,0,1-.14-.26l.28-1a.21.21,0,1,1,.4.11l-.28,1A.21.21,0,0,1,35.35,21.73Z"/><path class="cls-10" d="M34.35,21.45h-.06a.21.21,0,0,1-.14-.26l.28-1a.21.21,0,0,1,.4.11l-.28,1A.21.21,0,0,1,34.35,21.45Z"/><path class="cls-10" d="M33.35,21.16h-.06a.21.21,0,0,1-.14-.26l.28-1a.21.21,0,1,1,.4.11l-.28,1A.21.21,0,0,1,33.35,21.16Z"/><path class="cls-10" d="M32.34,20.88h-.06a.21.21,0,0,1-.14-.26l.28-1a.21.21,0,0,1,.4.11l-.28,1A.21.21,0,0,1,32.34,20.88Z"/><path class="cls-10" d="M31.34,20.59h-.06a.21.21,0,0,1-.14-.26l.28-1a.21.21,0,1,1,.4.11l-.28,1A.21.21,0,0,1,31.34,20.59Z"/><path class="cls-10" d="M30.34,20.31h-.06a.21.21,0,0,1-.14-.26l.28-1a.21.21,0,0,1,.4.11l-.28,1A.21.21,0,0,1,30.34,20.31Z"/><path class="cls-10" d="M29.33,20h-.06a.21.21,0,0,1-.14-.26l.28-1a.21.21,0,0,1,.4.11l-.28,1A.21.21,0,0,1,29.33,20Z"/><path class="cls-10" d="M44.31,26.44h-.06a.21.21,0,0,1-.14-.26l.28-1a.21.21,0,0,1,.4.11l-.28,1A.21.21,0,0,1,44.31,26.44Z"/><path class="cls-10" d="M43.31,26.16h-.06a.21.21,0,0,1-.14-.26l.28-1a.21.21,0,1,1,.4.11l-.28,1A.21.21,0,0,1,43.31,26.16Z"/><path class="cls-10" d="M42.31,25.87h-.06a.21.21,0,0,1-.14-.26l.28-1a.21.21,0,0,1,.4.11l-.28,1A.21.21,0,0,1,42.31,25.87Z"/><path class="cls-10" d="M41.3,25.59h-.06a.21.21,0,0,1-.14-.26l.28-1a.21.21,0,1,1,.4.11l-.28,1A.21.21,0,0,1,41.3,25.59Z"/><path class="cls-10" d="M40.3,25.3h-.06A.21.21,0,0,1,40.1,25l.28-1a.21.21,0,0,1,.4.11l-.28,1A.21.21,0,0,1,40.3,25.3Z"/><path class="cls-10" d="M39.3,25h-.06a.21.21,0,0,1-.14-.26l.28-1a.21.21,0,0,1,.4.11l-.28,1A.21.21,0,0,1,39.3,25Z"/><path class="cls-10" d="M38.29,24.73h-.06a.21.21,0,0,1-.14-.26l.28-1a.21.21,0,1,1,.4.11l-.28,1A.21.21,0,0,1,38.29,24.73Z"/><path class="cls-10" d="M37.29,24.45h-.06a.21.21,0,0,1-.14-.26l.28-1a.21.21,0,1,1,.4.11l-.28,1A.21.21,0,0,1,37.29,24.45Z"/><path class="cls-10" d="M36.29,24.17h-.06a.21.21,0,0,1-.14-.26l.28-1a.21.21,0,1,1,.4.11l-.28,1A.21.21,0,0,1,36.29,24.17Z"/><path class="cls-10" d="M35.28,23.88h-.06a.21.21,0,0,1-.14-.26l.28-1a.21.21,0,0,1,.4.11l-.28,1A.21.21,0,0,1,35.28,23.88Z"/><path class="cls-10" d="M34.28,23.6h-.06a.21.21,0,0,1-.14-.26l.28-1a.21.21,0,1,1,.4.11l-.28,1A.21.21,0,0,1,34.28,23.6Z"/><path class="cls-10" d="M33.28,23.31h-.06a.21.21,0,0,1-.14-.26l.28-1a.21.21,0,0,1,.4.11l-.28,1A.21.21,0,0,1,33.28,23.31Z"/><path class="cls-10" d="M32.27,23h-.06a.21.21,0,0,1-.14-.26l.28-1a.21.21,0,1,1,.4.11l-.28,1A.21.21,0,0,1,32.27,23Z"/><path class="cls-10" d="M31.27,22.74h-.06a.21.21,0,0,1-.14-.26l.28-1a.21.21,0,0,1,.4.11l-.28,1A.21.21,0,0,1,31.27,22.74Z"/><path class="cls-10" d="M30.27,22.46h-.06a.21.21,0,0,1-.14-.26l.28-1a.21.21,0,1,1,.4.11l-.28,1A.21.21,0,0,1,30.27,22.46Z"/><path class="cls-10" d="M29.26,22.17h-.06a.21.21,0,0,1-.14-.26l.28-1a.21.21,0,0,1,.4.11l-.28,1A.21.21,0,0,1,29.26,22.17Z"/><path class="cls-10" d="M43.24,28.31h-.06A.21.21,0,0,1,43,28l.28-1a.21.21,0,0,1,.4.11l-.28,1A.21.21,0,0,1,43.24,28.31Z"/><path class="cls-10" d="M42.24,28h-.06a.21.21,0,0,1-.14-.26l.28-1a.21.21,0,1,1,.4.11l-.28,1A.21.21,0,0,1,42.24,28Z"/><path class="cls-10" d="M41.24,27.74h-.06a.21.21,0,0,1-.14-.26l.28-1a.21.21,0,1,1,.4.11l-.28,1A.21.21,0,0,1,41.24,27.74Z"/><path class="cls-10" d="M40.23,27.45h-.06a.21.21,0,0,1-.14-.26l.28-1a.21.21,0,1,1,.4.11l-.28,1A.21.21,0,0,1,40.23,27.45Z"/><path class="cls-10" d="M39.23,27.17h-.06A.21.21,0,0,1,39,26.9l.28-1a.21.21,0,0,1,.4.11l-.28,1A.21.21,0,0,1,39.23,27.17Z"/><path class="cls-10" d="M38.23,26.88h-.06a.21.21,0,0,1-.14-.26l.28-1a.21.21,0,0,1,.4.11l-.28,1A.21.21,0,0,1,38.23,26.88Z"/><path class="cls-10" d="M37.22,26.6h-.06a.21.21,0,0,1-.14-.26l.28-1a.21.21,0,1,1,.4.11l-.28,1A.21.21,0,0,1,37.22,26.6Z"/><path class="cls-10" d="M36.22,26.31h-.06A.21.21,0,0,1,36,26l.28-1a.21.21,0,1,1,.4.11l-.28,1A.21.21,0,0,1,36.22,26.31Z"/><path class="cls-10" d="M35.22,26h-.06a.21.21,0,0,1-.14-.26l.28-1a.21.21,0,0,1,.4.11l-.28,1A.21.21,0,0,1,35.22,26Z"/><path class="cls-10" d="M34.21,25.74h-.06a.21.21,0,0,1-.14-.26l.28-1a.21.21,0,0,1,.4.11l-.28,1A.21.21,0,0,1,34.21,25.74Z"/><path class="cls-10" d="M33.21,25.46h-.06a.21.21,0,0,1-.14-.26l.28-1a.21.21,0,1,1,.4.11l-.28,1A.21.21,0,0,1,33.21,25.46Z"/><path class="cls-10" d="M32.21,25.18h-.06a.21.21,0,0,1-.14-.26l.28-1a.21.21,0,1,1,.4.11l-.28,1A.21.21,0,0,1,32.21,25.18Z"/><path class="cls-10" d="M31.2,24.89h-.06a.21.21,0,0,1-.14-.26l.28-1a.21.21,0,1,1,.4.11l-.28,1A.21.21,0,0,1,31.2,24.89Z"/><path class="cls-10" d="M30.2,24.61h-.06a.21.21,0,0,1-.14-.26l.28-1a.21.21,0,1,1,.4.11l-.28,1A.21.21,0,0,1,30.2,24.61Z"/><path class="cls-10" d="M29.2,24.32h-.06a.21.21,0,0,1-.14-.26l.28-1a.21.21,0,1,1,.4.11l-.28,1A.21.21,0,0,1,29.2,24.32Z"/><path class="cls-10" d="M28.19,24h-.06a.21.21,0,0,1-.14-.26l.28-1a.21.21,0,0,1,.4.11l-.28,1A.21.21,0,0,1,28.19,24Z"/><path class="cls-10" d="M43.18,30.46h-.06a.21.21,0,0,1-.14-.26l.28-1a.21.21,0,1,1,.4.11l-.28,1A.21.21,0,0,1,43.18,30.46Z"/><path class="cls-10" d="M42.17,30.17h-.06a.21.21,0,0,1-.14-.26l.28-1a.21.21,0,0,1,.4.11l-.28,1A.21.21,0,0,1,42.17,30.17Z"/><path class="cls-10" d="M41.17,29.89h-.06a.21.21,0,0,1-.14-.26l.28-1a.21.21,0,1,1,.4.11l-.28,1A.21.21,0,0,1,41.17,29.89Z"/><path class="cls-10" d="M40.17,29.6h-.06a.21.21,0,0,1-.14-.26l.28-1a.21.21,0,1,1,.4.11l-.28,1A.21.21,0,0,1,40.17,29.6Z"/><path class="cls-10" d="M39.16,29.32H39.1a.21.21,0,0,1-.14-.26l.28-1a.21.21,0,1,1,.4.11l-.28,1A.21.21,0,0,1,39.16,29.32Z"/><path class="cls-10" d="M38.16,29H38.1a.21.21,0,0,1-.14-.26l.28-1a.21.21,0,0,1,.4.11l-.28,1A.21.21,0,0,1,38.16,29Z"/><path class="cls-10" d="M37.16,28.75H37.1a.21.21,0,0,1-.14-.26l.28-1a.21.21,0,0,1,.4.11l-.28,1A.21.21,0,0,1,37.16,28.75Z"/><path class="cls-10" d="M36.15,28.46h-.06A.21.21,0,0,1,36,28.2l.28-1a.21.21,0,1,1,.4.11l-.28,1A.21.21,0,0,1,36.15,28.46Z"/><path class="cls-10" d="M35.15,28.18h-.06a.21.21,0,0,1-.14-.26l.28-1a.21.21,0,1,1,.4.11l-.28,1A.21.21,0,0,1,35.15,28.18Z"/><path class="cls-10" d="M34.15,27.89h-.06a.21.21,0,0,1-.14-.26l.28-1a.21.21,0,0,1,.4.11l-.28,1A.21.21,0,0,1,34.15,27.89Z"/><path class="cls-10" d="M33.14,27.61h-.06a.21.21,0,0,1-.14-.26l.28-1a.21.21,0,0,1,.4.11l-.28,1A.21.21,0,0,1,33.14,27.61Z"/><path class="cls-10" d="M32.14,27.32h-.06a.21.21,0,0,1-.14-.26l.28-1a.21.21,0,1,1,.4.11l-.28,1A.21.21,0,0,1,32.14,27.32Z"/><path class="cls-10" d="M31.14,27h-.06a.21.21,0,0,1-.14-.26l.28-1a.21.21,0,1,1,.4.11l-.28,1A.21.21,0,0,1,31.14,27Z"/><path class="cls-10" d="M30.13,26.75h-.06a.21.21,0,0,1-.14-.26l.28-1a.21.21,0,1,1,.4.11l-.28,1A.21.21,0,0,1,30.13,26.75Z"/><path class="cls-10" d="M29.13,26.47h-.06a.21.21,0,0,1-.14-.26l.28-1a.21.21,0,0,1,.4.11l-.28,1A.21.21,0,0,1,29.13,26.47Z"/><path class="cls-10" d="M28.13,26.19h-.06a.21.21,0,0,1-.14-.26l.28-1a.21.21,0,1,1,.4.11l-.28,1A.21.21,0,0,1,28.13,26.19Z"/><path class="cls-10" d="M42.1,32.32H42a.21.21,0,0,1-.14-.26l.28-1a.21.21,0,1,1,.4.11l-.28,1A.21.21,0,0,1,42.1,32.32Z"/><path class="cls-10" d="M41.1,32H41a.21.21,0,0,1-.14-.26l.28-1a.21.21,0,0,1,.4.11l-.28,1A.21.21,0,0,1,41.1,32Z"/><path class="cls-10" d="M40.1,31.75H40a.21.21,0,0,1-.14-.26l.28-1a.21.21,0,0,1,.4.11l-.28,1A.21.21,0,0,1,40.1,31.75Z"/><path class="cls-10" d="M39.09,31.47H39a.21.21,0,0,1-.14-.26l.28-1a.21.21,0,0,1,.4.11l-.28,1A.21.21,0,0,1,39.09,31.47Z"/><path class="cls-10" d="M38.09,31.18H38a.21.21,0,0,1-.14-.26l.28-1a.21.21,0,1,1,.4.11l-.28,1A.21.21,0,0,1,38.09,31.18Z"/><path class="cls-10" d="M37.09,30.9H37a.21.21,0,0,1-.14-.26l.28-1a.21.21,0,0,1,.4.11l-.28,1A.21.21,0,0,1,37.09,30.9Z"/><path class="cls-10" d="M36.08,30.61H36a.21.21,0,0,1-.14-.26l.28-1a.21.21,0,1,1,.4.11l-.28,1A.21.21,0,0,1,36.08,30.61Z"/><path class="cls-10" d="M35.08,30.33H35a.21.21,0,0,1-.14-.26l.28-1a.21.21,0,0,1,.4.11l-.28,1A.21.21,0,0,1,35.08,30.33Z"/><path class="cls-10" d="M34.08,30H34a.21.21,0,0,1-.14-.26l.28-1a.21.21,0,1,1,.4.11l-.28,1A.21.21,0,0,1,34.08,30Z"/><path class="cls-10" d="M33.07,29.76H33a.21.21,0,0,1-.14-.26l.28-1a.21.21,0,0,1,.4.11l-.28,1A.21.21,0,0,1,33.07,29.76Z"/><path class="cls-10" d="M32.07,29.47H32a.21.21,0,0,1-.14-.26l.28-1a.21.21,0,0,1,.4.11l-.28,1A.21.21,0,0,1,32.07,29.47Z"/><path class="cls-10" d="M31.07,29.19H31a.21.21,0,0,1-.14-.26l.28-1a.21.21,0,1,1,.4.11l-.28,1A.21.21,0,0,1,31.07,29.19Z"/><path class="cls-10" d="M30.06,28.9H30a.21.21,0,0,1-.14-.26l.28-1a.21.21,0,1,1,.4.11l-.28,1A.21.21,0,0,1,30.06,28.9Z"/><path class="cls-10" d="M29.06,28.62H29a.21.21,0,0,1-.14-.26l.28-1a.21.21,0,1,1,.4.11l-.28,1A.21.21,0,0,1,29.06,28.62Z"/><path class="cls-10" d="M28.06,28.33H28a.21.21,0,0,1-.14-.26l.28-1a.21.21,0,0,1,.4.11l-.28,1A.21.21,0,0,1,28.06,28.33Z"/><path class="cls-10" d="M27.05,28H27a.21.21,0,0,1-.14-.26l.28-1a.21.21,0,1,1,.4.11l-.28,1A.21.21,0,0,1,27.05,28Z"/><path class="cls-10" d="M42,34.47H42a.21.21,0,0,1-.14-.26l.28-1a.21.21,0,0,1,.4.11l-.28,1A.21.21,0,0,1,42,34.47Z"/><path class="cls-10" d="M41,34.18H41a.21.21,0,0,1-.14-.26l.28-1a.21.21,0,1,1,.4.11l-.28,1A.21.21,0,0,1,41,34.18Z"/><path class="cls-10" d="M40,33.9H40a.21.21,0,0,1-.14-.26l.28-1a.21.21,0,1,1,.4.11l-.28,1A.21.21,0,0,1,40,33.9Z"/><path class="cls-10" d="M39,33.62H39a.21.21,0,0,1-.14-.26l.28-1a.21.21,0,1,1,.4.11l-.28,1A.21.21,0,0,1,39,33.62Z"/><path class="cls-10" d="M38,33.33H38a.21.21,0,0,1-.14-.26l.28-1a.21.21,0,0,1,.4.11l-.28,1A.21.21,0,0,1,38,33.33Z"/><path class="cls-10" d="M37,33H37a.21.21,0,0,1-.14-.26l.28-1a.21.21,0,1,1,.4.11l-.28,1A.21.21,0,0,1,37,33Z"/><path class="cls-10" d="M36,32.76H36a.21.21,0,0,1-.14-.26l.28-1a.21.21,0,0,1,.4.11l-.28,1A.21.21,0,0,1,36,32.76Z"/><path class="cls-10" d="M35,32.48H35a.21.21,0,0,1-.14-.26l.28-1a.21.21,0,1,1,.4.11l-.28,1A.21.21,0,0,1,35,32.48Z"/><path class="cls-10" d="M34,32.19H34a.21.21,0,0,1-.14-.26l.28-1a.21.21,0,1,1,.4.11l-.28,1A.21.21,0,0,1,34,32.19Z"/><path class="cls-10" d="M33,31.91h-.06a.21.21,0,0,1-.14-.26l.28-1a.21.21,0,1,1,.4.11l-.28,1A.21.21,0,0,1,33,31.91Z"/><path class="cls-10" d="M32,31.62h-.06a.21.21,0,0,1-.14-.26l.28-1a.21.21,0,0,1,.4.11l-.28,1A.21.21,0,0,1,32,31.62Z"/><path class="cls-10" d="M31,31.34h-.06a.21.21,0,0,1-.14-.26l.28-1a.21.21,0,0,1,.4.11l-.28,1A.21.21,0,0,1,31,31.34Z"/><path class="cls-10" d="M30,31.05h-.06a.21.21,0,0,1-.14-.26l.28-1a.21.21,0,1,1,.4.11l-.28,1A.21.21,0,0,1,30,31.05Z"/><path class="cls-10" d="M29,30.77h-.06a.21.21,0,0,1-.14-.26l.28-1a.21.21,0,1,1,.4.11l-.28,1A.21.21,0,0,1,29,30.77Z"/><path class="cls-10" d="M28,30.48h-.06a.21.21,0,0,1-.14-.26l.28-1a.21.21,0,1,1,.4.11l-.28,1A.21.21,0,0,1,28,30.48Z"/><path class="cls-10" d="M27,30.2h-.06a.21.21,0,0,1-.14-.26l.28-1a.21.21,0,0,1,.4.11l-.28,1A.21.21,0,0,1,27,30.2Z"/><path class="cls-10" d="M41,36.33h-.06a.21.21,0,0,1-.14-.26l.28-1a.21.21,0,0,1,.4.11l-.28,1A.21.21,0,0,1,41,36.33Z"/><path class="cls-10" d="M40,36H39.9a.21.21,0,0,1-.14-.26l.28-1a.21.21,0,1,1,.4.11l-.28,1A.21.21,0,0,1,40,36Z"/><path class="cls-10" d="M39,35.76H38.9a.21.21,0,0,1-.14-.26l.28-1a.21.21,0,0,1,.4.11l-.28,1A.21.21,0,0,1,39,35.76Z"/><path class="cls-10" d="M38,35.48H37.9a.21.21,0,0,1-.14-.26l.28-1a.21.21,0,1,1,.4.11l-.28,1A.21.21,0,0,1,38,35.48Z"/><path class="cls-10" d="M37,35.19h-.06a.21.21,0,0,1-.14-.26l.28-1a.21.21,0,0,1,.4.11l-.28,1A.21.21,0,0,1,37,35.19Z"/><path class="cls-10" d="M35.95,34.91h-.06a.21.21,0,0,1-.14-.26l.28-1a.21.21,0,1,1,.4.11l-.28,1A.21.21,0,0,1,35.95,34.91Z"/><path class="cls-10" d="M34.95,34.63h-.06a.21.21,0,0,1-.14-.26l.28-1a.21.21,0,0,1,.4.11l-.28,1A.21.21,0,0,1,34.95,34.63Z"/><path class="cls-10" d="M33.94,34.34h-.06a.21.21,0,0,1-.14-.26l.28-1a.21.21,0,1,1,.4.11l-.28,1A.21.21,0,0,1,33.94,34.34Z"/><path class="cls-10" d="M32.94,34.06h-.06a.21.21,0,0,1-.14-.26l.28-1a.21.21,0,1,1,.4.11l-.28,1A.21.21,0,0,1,32.94,34.06Z"/><path class="cls-10" d="M31.94,33.77h-.06a.21.21,0,0,1-.14-.26l.28-1a.21.21,0,1,1,.4.11l-.28,1A.21.21,0,0,1,31.94,33.77Z"/><path class="cls-10" d="M30.93,33.49h-.06a.21.21,0,0,1-.14-.26l.28-1a.21.21,0,0,1,.4.11l-.28,1A.21.21,0,0,1,30.93,33.49Z"/><path class="cls-10" d="M29.93,33.2h-.06a.21.21,0,0,1-.14-.26l.28-1a.21.21,0,0,1,.4.11l-.28,1A.21.21,0,0,1,29.93,33.2Z"/><path class="cls-10" d="M28.93,32.92h-.06a.21.21,0,0,1-.14-.26l.28-1a.21.21,0,1,1,.4.11l-.28,1A.21.21,0,0,1,28.93,32.92Z"/><path class="cls-10" d="M27.92,32.63h-.06a.21.21,0,0,1-.14-.26l.28-1a.21.21,0,1,1,.4.11l-.28,1A.21.21,0,0,1,27.92,32.63Z"/><path class="cls-10" d="M26.92,32.35h-.06a.21.21,0,0,1-.14-.26l.28-1a.21.21,0,1,1,.4.11l-.28,1A.21.21,0,0,1,26.92,32.35Z"/><path class="cls-10" d="M25.92,32.06h-.06a.21.21,0,0,1-.14-.26l.28-1a.21.21,0,0,1,.4.11l-.28,1A.21.21,0,0,1,25.92,32.06Z"/><path class="cls-10" d="M40.9,38.48h-.06a.21.21,0,0,1-.14-.26l.28-1a.21.21,0,0,1,.4.11l-.28,1A.21.21,0,0,1,40.9,38.48Z"/><path class="cls-10" d="M39.89,38.2h-.06a.21.21,0,0,1-.14-.26l.28-1a.21.21,0,0,1,.4.11l-.28,1A.21.21,0,0,1,39.89,38.2Z"/><path class="cls-10" d="M38.89,37.91h-.06a.21.21,0,0,1-.14-.26l.28-1a.21.21,0,1,1,.4.11l-.28,1A.21.21,0,0,1,38.89,37.91Z"/><path class="cls-10" d="M37.89,37.63h-.06a.21.21,0,0,1-.14-.26l.28-1a.21.21,0,1,1,.4.11l-.28,1A.21.21,0,0,1,37.89,37.63Z"/><path class="cls-10" d="M36.88,37.34h-.06a.21.21,0,0,1-.14-.26l.28-1a.21.21,0,1,1,.4.11l-.28,1A.21.21,0,0,1,36.88,37.34Z"/><path class="cls-10" d="M35.88,37.06h-.06a.21.21,0,0,1-.14-.26l.28-1a.21.21,0,0,1,.4.11l-.28,1A.21.21,0,0,1,35.88,37.06Z"/><path class="cls-10" d="M34.88,36.77h-.06a.21.21,0,0,1-.14-.26l.28-1a.21.21,0,1,1,.4.11l-.28,1A.21.21,0,0,1,34.88,36.77Z"/><path class="cls-10" d="M33.87,36.49h-.06a.21.21,0,0,1-.14-.26l.28-1a.21.21,0,0,1,.4.11l-.28,1A.21.21,0,0,1,33.87,36.49Z"/><path class="cls-10" d="M32.87,36.2h-.06a.21.21,0,0,1-.14-.26l.28-1a.21.21,0,1,1,.4.11l-.28,1A.21.21,0,0,1,32.87,36.2Z"/><path class="cls-10" d="M31.87,35.92h-.06a.21.21,0,0,1-.14-.26l.28-1a.21.21,0,1,1,.4.11l-.28,1A.21.21,0,0,1,31.87,35.92Z"/><path class="cls-10" d="M30.86,35.64h-.06a.21.21,0,0,1-.14-.26l.28-1a.21.21,0,1,1,.4.11l-.28,1A.21.21,0,0,1,30.86,35.64Z"/><path class="cls-10" d="M29.86,35.35H29.8a.21.21,0,0,1-.14-.26l.28-1a.21.21,0,0,1,.4.11l-.28,1A.21.21,0,0,1,29.86,35.35Z"/><path class="cls-10" d="M28.86,35.07H28.8a.21.21,0,0,1-.14-.26l.28-1a.21.21,0,0,1,.4.11l-.28,1A.21.21,0,0,1,28.86,35.07Z"/><path class="cls-10" d="M27.85,34.78H27.8a.21.21,0,0,1-.14-.26l.28-1a.21.21,0,1,1,.4.11l-.28,1A.21.21,0,0,1,27.85,34.78Z"/><path class="cls-10" d="M26.85,34.5h-.06a.21.21,0,0,1-.14-.26l.28-1a.21.21,0,1,1,.4.11l-.28,1A.21.21,0,0,1,26.85,34.5Z"/><path class="cls-10" d="M25.85,34.21h-.06a.21.21,0,0,1-.14-.26l.28-1a.21.21,0,0,1,.4.11l-.28,1A.21.21,0,0,1,25.85,34.21Z"/></g><path class="cls-10" d="M39.35,23l.15.3a4.3,4.3,0,0,0,.36-.24,2.7,2.7,0,0,0,.33-.3,3.35,3.35,0,0,0,.51-.75l.09-.2a4.24,4.24,0,0,0,.19-.47,1.87,1.87,0,0,0,.06-.25.43.43,0,0,0,0-.22,5.93,5.93,0,0,0-.43-.77,3.42,3.42,0,0,0-3.77-1.73,5.94,5.94,0,0,0-2.52,1.3.8.8,0,0,0-.16.17c0,.07,0,.11,0,.19a3.71,3.71,0,0,0,.13.41,3.8,3.8,0,0,0,.39.77,3.73,3.73,0,0,0,.58.68c.12.11.24.21.36.33a1.92,1.92,0,0,0,.36.28,5.6,5.6,0,0,0,.85.45c.23.1.47.19.7.27a1.51,1.51,0,0,0,.57.12c.11,0,.11-.05.15-.14a5.53,5.53,0,0,1,.26-.59,1.15,1.15,0,0,0,.13-.27l0-.16a.77.77,0,0,0,.05-.14c0,.06.1.12.14.19l.15.24.25.4Z"/><path class="cls-5" d="M42,34.67a57.32,57.32,0,0,0,.32-7.18,18.1,18.1,0,0,0-1.15-6.73c0-.11-.35,0-.3.08A17.85,17.85,0,0,1,42,27.41a56.46,56.46,0,0,1-.32,7.3c0,.13.29.08.3,0Z"/><path class="cls-6" d="M41.17,25.48c0,.12-.23.13-.33.16l-.47.1c-.3,0-.63,0-.93.05a.67.67,0,0,1-.34,0c-.09,0-.07-.13,0-.14h.25a3.6,3.6,0,0,0,.48,0,5,5,0,0,0,.89-.21.68.68,0,0,1,.35,0c.06,0,.09,0,.09.07A.14.14,0,0,1,41.17,25.48Z"/><path class="cls-5" d="M41.09,25.22a5.94,5.94,0,0,1-1,.24c-.3,0-.61,0-.91.05s-.14.19,0,.15c-.08,0,.06,0,.07,0h.31a4.15,4.15,0,0,0,.65-.05,7.52,7.52,0,0,0,.92-.22c.18-.05.14-.21,0-.15Z"/><circle class="cls-5" cx="40.27" cy="26.29" r="0.26" transform="translate(-3.41 6.16) rotate(-8.4)"/><path class="cls-5" d="M34.52,19.4a18,18,0,0,0-4.47,5.42,54.3,54.3,0,0,0-3.93,8.36s0,0,0,0c1.94.57,3.9,1.11,5.86,1.59a21.32,21.32,0,0,0,3,.56c1.28.12,2.57.18,3.85.23l2.75.1c.05,0,.24,0,.25-.09a60,60,0,0,0,.43-7.9c-.05-2.47-.21-5.2-1.39-7.43,0-.08-.33,0-.3.08,1.15,2.18,1.33,4.85,1.39,7.27a59.14,59.14,0,0,1-.42,8l.25-.09a45.27,45.27,0,0,1-9.59-.89c-1.8-.44-3.58-.93-5.36-1.44-.07,0-.4-.06-.44-.13a6.86,6.86,0,0,1,.36-.87q.23-.59.47-1.17c.62-1.48,1.28-2.93,2-4.35,1.38-2.65,3-5.47,5.48-7.29.13-.09-.17-.07-.23,0Z"/><path class="cls-2" d="M37.36,13.69c1.54-3,4.09-4.7,5.7-3.86s1.67,3.92.14,6.88l-.28.53a14.31,14.31,0,0,1-2.24,3.39,3.09,3.09,0,0,1-.57.46,3.63,3.63,0,0,1-.63.31,4.45,4.45,0,0,1-.64.19c-.64.14-1-.24-1.52-.51a4.82,4.82,0,0,1-1.51-1.32,1.27,1.27,0,0,1-.34-.69,1.3,1.3,0,0,1,.08-.44,26.7,26.7,0,0,1,1.53-4.4Z"/><path class="cls-4" d="M37.86,12.07a2.59,2.59,0,0,1,.56-3,3.79,3.79,0,0,1,3.08-.91,7.31,7.31,0,0,1,3,1.23,2.94,2.94,0,0,1,1.37,1.54,2,2,0,0,1-.71,2,3.27,3.27,0,0,1-2.08.67,9.61,9.61,0,0,1-2.2-.32,4,4,0,0,1-1.34-.48,1.35,1.35,0,0,1-.65-1.19Z"/><path class="cls-5" d="M34.76,19.42a2.54,2.54,0,0,0,1.18-1.64,16.12,16.12,0,0,1,1-2.92,10.79,10.79,0,0,1,3-4.25c1.1-.88,2.84-1.49,3.76,0s.45,3.45-.09,4.91a18.66,18.66,0,0,1-1.28,2.61,13.14,13.14,0,0,1-1.61,2.35c-.07.08.22,0,.28,0a16.37,16.37,0,0,0,2.81-4.73c.61-1.53,1.14-3.75.16-5.25a2.33,2.33,0,0,0-3-.63,7.87,7.87,0,0,0-3.48,3.42,15.71,15.71,0,0,0-1.36,3.09,16.26,16.26,0,0,0-.5,1.73,2.36,2.36,0,0,1-1.08,1.33c-.13.09.17.06.23,0Z"/><path class="cls-5" d="M40.45,20.7a3.37,3.37,0,0,1-1.31.72,1.67,1.67,0,0,1-1.5-.31,5.7,5.7,0,0,1-1.87-1.66c-.06-.09-.35,0-.28.12a5.34,5.34,0,0,0,1.14,1.21,5.28,5.28,0,0,0,1.49.86,3.07,3.07,0,0,0,2.57-.88c.13-.12-.17-.13-.24-.06Z"/><path class="cls-5" d="M38.61,22c.24.45.48.91.73,1.35,0,.06.16,0,.2,0a3.17,3.17,0,0,0,1.59-2.13c0-.15-.28-.11-.31,0a2.9,2.9,0,0,1-1.42,1.94l.2,0c-.25-.45-.49-.9-.73-1.35-.06-.12-.35,0-.28.13Z"/><path class="cls-5" d="M38.61,21.95,38,23.34l.2-.09a4.52,4.52,0,0,1-1.51-.48,5.51,5.51,0,0,1-1.29-.88,4.53,4.53,0,0,1-1-1.5c-.05-.11-.35,0-.3.08A4.62,4.62,0,0,0,35.08,22a5.69,5.69,0,0,0,1.4,1,4.86,4.86,0,0,0,1.63.51c.06,0,.17,0,.2-.09L38.89,22c.06-.14-.24-.12-.28,0Z"/><path class="cls-5" d="M41,18.75c-.24.55-.68.91-1,.86s-.62-.54-.59-1.12A1.31,1.31,0,0,0,41,18.75Z"/><path class="cls-5" d="M43.63,36.11a2.59,2.59,0,0,1-.25-1.23c0-.43,0-.86-.06-1.28-.05-.84-.11-1.69-.19-2.53a34,34,0,0,0-.9-5.34c0-.13-.34,0-.3.08a34.36,34.36,0,0,1,.91,5.53c.09,1,.16,1.91.2,2.86a4.1,4.1,0,0,0,.31,2c.07.1.36,0,.28-.13Z"/><path class="cls-10" d="M40.48,40.81a3.75,3.75,0,0,0,2.29-.62l12.13-9a35.15,35.15,0,0,0,10.93-1.31c8.94-2.41,15.44-7.23,14.5-10.74s-9-4.41-17.93-2S47,24.38,47.9,27.9c.36,1.35,1.77,2.31,3.88,2.85l.65.13-12.19,9C39.67,40.33,39.77,40.73,40.48,40.81ZM51.4,27c-.74-2.75,4.36-6.53,11.36-8.42s13.32-1.19,14.06,1.57-4.36,6.53-11.36,8.42S52.14,29.7,51.4,27Z"/><path class="cls-2" d="M40.42,39.41a3.86,3.86,0,0,0,2.29-.62L54.89,30a36.17,36.17,0,0,0,10.92-1.36c8.94-2.41,15.47-7.14,14.55-10.55s-8.94-4.21-17.88-1.8S47,23.41,47.93,26.81c.35,1.31,1.75,2.23,3.85,2.74l.65.12L40.19,38.54C39.62,39,39.73,39.34,40.42,39.41Zm25-12.13c-7,1.89-13.3,1.26-14-1.41s4.4-6.38,11.41-8.27,13.3-1.26,14,1.41S72.46,25.39,65.45,27.28Z"/><path class="cls-5" d="M40.37,39.53c1.87.12,3.31-1.29,4.72-2.31l6.15-4.46,2.6-1.89.79-.57A1.53,1.53,0,0,1,55,30c-.06,0,.26.06.32.06H56c.56,0,1.12,0,1.68,0a35.43,35.43,0,0,0,3.54-.37A43.29,43.29,0,0,0,68.34,28c3.59-1.2,7.35-2.85,10.13-5.49,1.44-1.37,3.07-3.7,1.43-5.56a6.26,6.26,0,0,0-3.22-1.68,19.7,19.7,0,0,0-5.37-.47,40.23,40.23,0,0,0-13.58,2.95,31.2,31.2,0,0,0-5.41,2.75,14.28,14.28,0,0,0-3.48,3,4.39,4.39,0,0,0-1.14,2.86c.09,1.5,1.42,2.43,2.71,2.93a10.57,10.57,0,0,0,2,.53l-.05-.19L40.8,37.95l-.69.5c-.61.46-.53,1,.26,1.08.15,0,.3-.2.1-.23-.53-.08-.6-.36-.18-.69l0,0,.2-.14.82-.6,2.91-2.11L51,30.88l1.58-1.14c.09-.07,0-.17-.05-.19-1.48-.27-3.28-.77-4.12-2.14a3,3,0,0,1,.18-3.05,10.27,10.27,0,0,1,2.86-3,26.11,26.11,0,0,1,4.75-2.75,40.73,40.73,0,0,1,13.19-3.52,25,25,0,0,1,5.72.06A8.89,8.89,0,0,1,79,16.52a2.74,2.74,0,0,1,1.26,2.54A5.38,5.38,0,0,1,78.61,22c-2.52,2.61-6.11,4.25-9.47,5.46a38.16,38.16,0,0,1-13.45,2.43,1.75,1.75,0,0,0-1,.07c-.17.1-.32.23-.48.35l-2,1.45c-3.19,2.31-6.33,4.7-9.57,6.94a3.54,3.54,0,0,1-2.19.61C40.32,39.29,40.17,39.51,40.37,39.53Z"/><path class="cls-5" d="M65.42,27.17a29.21,29.21,0,0,1-7.6,1.08,9.57,9.57,0,0,1-5.21-1.13c-3.09-2.08,1.13-5.32,2.93-6.4A27.87,27.87,0,0,1,62,18a30.67,30.67,0,0,1,7.62-1.32,12,12,0,0,1,5.59.82,2.31,2.31,0,0,1,1.46,2.85c-.58,1.69-2.36,2.92-3.81,3.8a28.66,28.66,0,0,1-7.4,3.06c-.19.05-.13.27.06.22a29.59,29.59,0,0,0,7.16-2.9,10.77,10.77,0,0,0,4-3.44,2.41,2.41,0,0,0-.23-3.12c-1.22-1.17-3.23-1.41-4.83-1.5a27,27,0,0,0-7.66.8,31.13,31.13,0,0,0-7.43,2.72A12.91,12.91,0,0,0,52,23.41a2.67,2.67,0,0,0-.34,3.21c1.07,1.43,3.34,1.72,5,1.82a27.75,27.75,0,0,0,8.87-1.06C65.67,27.34,65.61,27.12,65.42,27.17Z"/><path class="cls-5" d="M53.74,32.29,43.8,39.5l-.74.54-.1.07a3.45,3.45,0,0,1-1.63.56c-.3,0-1.09,0-1-.45,0-.06-.28,0-.3.05-.18.82,1.57.47,1.94.37A4.07,4.07,0,0,0,43.31,40l2.06-1.49,6.85-5L54,32.3c.12-.09-.18,0-.23,0Z"/><path class="cls-5" d="M69.65,17.76a32.28,32.28,0,0,0-10.5,2.43c-2.43,1-5.08,2.34-6.73,4.45-.12.15.17.17.25.07,1.63-2.08,4.22-3.38,6.61-4.37A31.78,31.78,0,0,1,69.61,18c.16,0,.24-.21,0-.2Z"/><path class="cls-5" d="M80.5,19.19a3.69,3.69,0,0,1-.86,3,13.46,13.46,0,0,1-3.56,3.13,37.05,37.05,0,0,1-13,5,33.25,33.25,0,0,1-8,.68c-.08,0-.35.14-.19.14a38.29,38.29,0,0,0,14.65-2.5,33.94,33.94,0,0,0,6.09-2.86,15.75,15.75,0,0,0,3.93-3.18,4.1,4.1,0,0,0,1.19-3.51c0-.09-.32,0-.3.08Z"/><g class="cls-11"><path class="cls-2" d="M65.45,27.28c-7,1.89-13.3,1.26-14-1.41s4.4-6.38,11.41-8.27,13.3-1.26,14,1.41S72.46,25.39,65.45,27.28Z"/></g><path class="cls-5" d="M65.43,27.21a28.85,28.85,0,0,1-7.72,1.08,9.34,9.34,0,0,1-5.13-1.16c-3-2.08,1.06-5.27,2.85-6.37A27.53,27.53,0,0,1,62,17.93a30.34,30.34,0,0,1,7.74-1.32,11.61,11.61,0,0,1,5.53.87,2.33,2.33,0,0,1,1.43,2.8c-.53,1.69-2.31,2.93-3.74,3.81a28.35,28.35,0,0,1-7.49,3.12c-.18,0-.14.2,0,.15a30,30,0,0,0,7.07-2.84A10.9,10.9,0,0,0,76.59,21a2.37,2.37,0,0,0-.26-3.13c-1.23-1.13-3.19-1.36-4.78-1.45a27,27,0,0,0-7.66.8,31.45,31.45,0,0,0-7.32,2.67A13.31,13.31,0,0,0,52,23.38a2.66,2.66,0,0,0-.39,3.24c1.06,1.43,3.34,1.7,5,1.8a27.77,27.77,0,0,0,8.87-1.06C65.65,27.31,65.61,27.16,65.43,27.21Z"/><path class="cls-5" d="M45,38.54a3.71,3.71,0,0,0-.42-3.71A18,18,0,0,0,41,31.47c-1.29-1.09-2.6-2.15-3.9-3.23a8.13,8.13,0,0,1-2.91-3.83c0-.13-.34-.05-.3.08a7.27,7.27,0,0,0,2.21,3.25c1.19,1.09,2.5,2.05,3.73,3.09a42.87,42.87,0,0,1,3.84,3.34c1,1.07,1.86,2.9,1,4.32-.08.14.22.14.29,0Z"/></svg>