<svg id="Layer_1" data-name="Layer 1" xmlns="http://www.w3.org/2000/svg" viewBox="0 0 86.67 64.48"><defs><style>.cls-1{fill:#ecf8fb;}.cls-2{fill:#e5e5e5;}.cls-3{fill:#fff;}.cls-4{fill:#f9f9f9;}.cls-5{fill:#d1d1d1;}.cls-6{fill:#ddd;}.cls-7{fill:#abdff5;}.cls-8{fill:#bbdff5;}.cls-9{fill:#def3f9;}.cls-10{fill:#6a79a8;}.cls-11{fill:#637aaa;}.cls-12{fill:#ff9c80;}.cls-13{fill:#f9ab98;}</style></defs><title>Artboard 8</title><path class="cls-1" d="M22.35,63.5C20.52,63.2-1.54,60.55.09,41S3.75,15.51,12.32,13.35,41.74,1,58.09,10.7s34,18.38,27,33.86S76.94,65.19,58.67,64.4,31.08,64.9,22.35,63.5Z"/><g id="_Group_" data-name="&lt;Group&gt;"><g id="_Group_2" data-name="&lt;Group&gt;"><rect class="cls-2" x="12.24" y="0.19" width="54.34" height="46.97"/></g><g id="_Group_3" data-name="&lt;Group&gt;"><path class="cls-3" d="M12.24,4.07H65.51a0,0,0,0,1,0,0V24.82A22.34,22.34,0,0,1,43.17,47.16H12.24a0,0,0,0,1,0,0V4.07a0,0,0,0,1,0,0Z"/></g><g id="_Group_4" data-name="&lt;Group&gt;"><rect class="cls-2" x="12.23" y="0.19" width="54.34" height="3.88"/></g><g id="_Group_5" data-name="&lt;Group&gt;"><path class="cls-4" d="M12.23.19h49.4a3.88,3.88,0,0,1,3.88,3.88v0a0,0,0,0,1,0,0H12.23a0,0,0,0,1,0,0V.19A0,0,0,0,1,12.23.19Z"/></g><g id="_Group_6" data-name="&lt;Group&gt;"><path id="_Compound_Path_" data-name="&lt;Compound Path&gt;" class="cls-5" d="M66.58,4.26H12.24a.19.19,0,0,1-.19-.19V.19A.19.19,0,0,1,12.24,0H66.58a.19.19,0,0,1,.19.19V4.07A.19.19,0,0,1,66.58,4.26ZM12.43,3.88h54V.38h-54Z"/></g><g id="_Group_7" data-name="&lt;Group&gt;"><g id="_Group_8" data-name="&lt;Group&gt;"><circle class="cls-3" cx="15.39" cy="2.13" r="0.9"/></g><g id="_Group_9" data-name="&lt;Group&gt;"><circle class="cls-3" cx="18.08" cy="2.13" r="0.9"/></g><g id="_Group_10" data-name="&lt;Group&gt;"><circle class="cls-3" cx="20.78" cy="2.13" r="0.9"/></g></g><g id="_Group_11" data-name="&lt;Group&gt;"><g id="_Group_12" data-name="&lt;Group&gt;"><path id="_Compound_Path_2" data-name="&lt;Compound Path&gt;" class="cls-6" d="M15.12,3.22A1.09,1.09,0,1,1,16.2,2.13,1.09,1.09,0,0,1,15.12,3.22Zm0-1.8a.71.71,0,1,0,.71.71A.71.71,0,0,0,15.12,1.42Z"/></g><g id="_Group_13" data-name="&lt;Group&gt;"><path id="_Compound_Path_3" data-name="&lt;Compound Path&gt;" class="cls-6" d="M17.81,3.22A1.09,1.09,0,1,1,18.9,2.13,1.09,1.09,0,0,1,17.81,3.22Zm0-1.8a.71.71,0,1,0,.71.71A.71.71,0,0,0,17.81,1.42Z"/></g><g id="_Group_14" data-name="&lt;Group&gt;"><path id="_Compound_Path_4" data-name="&lt;Compound Path&gt;" class="cls-6" d="M20.51,3.22A1.09,1.09,0,1,1,21.6,2.13,1.09,1.09,0,0,1,20.51,3.22Zm0-1.8a.71.71,0,1,0,.71.71A.71.71,0,0,0,20.51,1.42Z"/></g></g><g id="_Group_15" data-name="&lt;Group&gt;"><g id="_Group_16" data-name="&lt;Group&gt;"><path id="_Compound_Path_5" data-name="&lt;Compound Path&gt;" class="cls-5" d="M15.39,3.22a1.09,1.09,0,1,1,1.09-1.09A1.09,1.09,0,0,1,15.39,3.22Zm0-1.8a.71.71,0,1,0,.71.71A.71.71,0,0,0,15.39,1.42Z"/></g><g id="_Group_17" data-name="&lt;Group&gt;"><path id="_Compound_Path_6" data-name="&lt;Compound Path&gt;" class="cls-5" d="M18.08,3.22a1.09,1.09,0,1,1,1.09-1.09A1.09,1.09,0,0,1,18.08,3.22Zm0-1.8a.71.71,0,1,0,.71.71A.71.71,0,0,0,18.08,1.42Z"/></g><g id="_Group_18" data-name="&lt;Group&gt;"><path id="_Compound_Path_7" data-name="&lt;Compound Path&gt;" class="cls-5" d="M20.78,3.22a1.09,1.09,0,1,1,1.09-1.09A1.09,1.09,0,0,1,20.78,3.22Zm0-1.8a.71.71,0,1,0,.71.71A.71.71,0,0,0,20.78,1.42Z"/></g></g><g id="_Group_19" data-name="&lt;Group&gt;"><path id="_Compound_Path_8" data-name="&lt;Compound Path&gt;" class="cls-5" d="M66.58,47.35H12.24a.19.19,0,0,1-.19-.19V.19A.19.19,0,0,1,12.24,0H66.58a.19.19,0,0,1,.19.19v47A.19.19,0,0,1,66.58,47.35ZM12.43,47h54V.38h-54Z"/></g></g><g id="_Group_20" data-name="&lt;Group&gt;"><g id="_Group_21" data-name="&lt;Group&gt;"><rect class="cls-2" x="25.99" y="6.78" width="54.34" height="46.97"/></g><g id="_Group_22" data-name="&lt;Group&gt;"><path class="cls-3" d="M26,10.66H79.25a0,0,0,0,1,0,0V31.41A22.34,22.34,0,0,1,56.92,53.74H26a0,0,0,0,1,0,0V10.66A0,0,0,0,1,26,10.66Z"/></g><g id="_Group_23" data-name="&lt;Group&gt;"><rect class="cls-2" x="25.97" y="6.78" width="54.34" height="3.88"/></g><g id="_Group_24" data-name="&lt;Group&gt;"><path class="cls-4" d="M26,6.78h49.4a3.88,3.88,0,0,1,3.88,3.88v0a0,0,0,0,1,0,0H26a0,0,0,0,1,0,0V6.78A0,0,0,0,1,26,6.78Z"/></g><g id="_Group_25" data-name="&lt;Group&gt;"><path id="_Compound_Path_9" data-name="&lt;Compound Path&gt;" class="cls-5" d="M80.32,10.85H26a.19.19,0,0,1-.19-.19V6.78A.19.19,0,0,1,26,6.59H80.32a.19.19,0,0,1,.19.19v3.88A.19.19,0,0,1,80.32,10.85Zm-54.15-.38h54V7h-54Z"/></g><g id="_Group_26" data-name="&lt;Group&gt;"><g id="_Group_27" data-name="&lt;Group&gt;"><circle class="cls-3" cx="29.13" cy="8.72" r="0.9"/></g><g id="_Group_28" data-name="&lt;Group&gt;"><circle class="cls-3" cx="31.83" cy="8.72" r="0.9"/></g><g id="_Group_29" data-name="&lt;Group&gt;"><circle class="cls-3" cx="34.53" cy="8.72" r="0.9"/></g></g><g id="_Group_30" data-name="&lt;Group&gt;"><g id="_Group_31" data-name="&lt;Group&gt;"><path id="_Compound_Path_10" data-name="&lt;Compound Path&gt;" class="cls-6" d="M28.86,9.8a1.09,1.09,0,1,1,1.09-1.09A1.09,1.09,0,0,1,28.86,9.8Zm0-1.8a.71.71,0,1,0,.71.71A.71.71,0,0,0,28.86,8Z"/></g><g id="_Group_32" data-name="&lt;Group&gt;"><path id="_Compound_Path_11" data-name="&lt;Compound Path&gt;" class="cls-6" d="M31.56,9.8a1.09,1.09,0,1,1,1.09-1.09A1.09,1.09,0,0,1,31.56,9.8Zm0-1.8a.71.71,0,1,0,.71.71A.71.71,0,0,0,31.56,8Z"/></g><g id="_Group_33" data-name="&lt;Group&gt;"><path id="_Compound_Path_12" data-name="&lt;Compound Path&gt;" class="cls-6" d="M34.26,9.8a1.09,1.09,0,1,1,1.09-1.09A1.09,1.09,0,0,1,34.26,9.8Zm0-1.8a.71.71,0,1,0,.71.71A.71.71,0,0,0,34.26,8Z"/></g></g><g id="_Group_34" data-name="&lt;Group&gt;"><g id="_Group_35" data-name="&lt;Group&gt;"><path id="_Compound_Path_13" data-name="&lt;Compound Path&gt;" class="cls-5" d="M29.13,9.8a1.09,1.09,0,1,1,1.09-1.09A1.09,1.09,0,0,1,29.13,9.8Zm0-1.8a.71.71,0,1,0,.71.71A.71.71,0,0,0,29.13,8Z"/></g><g id="_Group_36" data-name="&lt;Group&gt;"><path id="_Compound_Path_14" data-name="&lt;Compound Path&gt;" class="cls-5" d="M31.83,9.8a1.09,1.09,0,1,1,1.09-1.09A1.09,1.09,0,0,1,31.83,9.8Zm0-1.8a.71.71,0,1,0,.71.71A.71.71,0,0,0,31.83,8Z"/></g><g id="_Group_37" data-name="&lt;Group&gt;"><path id="_Compound_Path_15" data-name="&lt;Compound Path&gt;" class="cls-5" d="M34.53,9.8a1.09,1.09,0,1,1,1.09-1.09A1.09,1.09,0,0,1,34.53,9.8Zm0-1.8a.71.71,0,1,0,.71.71A.71.71,0,0,0,34.53,8Z"/></g></g><g id="_Group_38" data-name="&lt;Group&gt;"><path id="_Compound_Path_16" data-name="&lt;Compound Path&gt;" class="cls-5" d="M80.32,53.93H26a.19.19,0,0,1-.19-.19v-47A.19.19,0,0,1,26,6.59H80.32a.19.19,0,0,1,.19.19v47A.19.19,0,0,1,80.32,53.93Zm-54.15-.38h54V7h-54Z"/></g></g><g id="_Group_39" data-name="&lt;Group&gt;"><g id="_Group_40" data-name="&lt;Group&gt;"><rect class="cls-7" x="16.75" y="13.21" width="54.34" height="46.97"/></g><g id="_Group_41" data-name="&lt;Group&gt;"><path class="cls-3" d="M16.75,17.09H70a0,0,0,0,1,0,0V37.84A22.34,22.34,0,0,1,47.68,60.17H16.75a0,0,0,0,1,0,0V17.09a0,0,0,0,1,0,0Z"/></g><g id="_Group_42" data-name="&lt;Group&gt;"><rect class="cls-8" x="16.74" y="13.21" width="54.34" height="3.88"/></g><g id="_Group_43" data-name="&lt;Group&gt;"><path class="cls-9" d="M16.74,13.21h49.4A3.88,3.88,0,0,1,70,17.09v0a0,0,0,0,1,0,0H16.74a0,0,0,0,1,0,0V13.21A0,0,0,0,1,16.74,13.21Z"/></g><g id="_Group_44" data-name="&lt;Group&gt;"><path id="_Compound_Path_17" data-name="&lt;Compound Path&gt;" class="cls-10" d="M71.09,17.28H16.75a.19.19,0,0,1-.19-.19V13.21a.19.19,0,0,1,.19-.19H71.09a.19.19,0,0,1,.19.19v3.88A.19.19,0,0,1,71.09,17.28ZM16.94,16.9h54v-3.5h-54Z"/></g><g id="_Group_45" data-name="&lt;Group&gt;"><g id="_Group_46" data-name="&lt;Group&gt;"><circle class="cls-3" cx="19.9" cy="15.15" r="0.9"/></g><g id="_Group_47" data-name="&lt;Group&gt;"><circle class="cls-3" cx="22.6" cy="15.15" r="0.9"/></g><g id="_Group_48" data-name="&lt;Group&gt;"><circle class="cls-3" cx="25.29" cy="15.15" r="0.9"/></g></g><g id="_Group_49" data-name="&lt;Group&gt;"><g id="_Group_50" data-name="&lt;Group&gt;"><path id="_Compound_Path_18" data-name="&lt;Compound Path&gt;" class="cls-8" d="M19.63,16.23a1.09,1.09,0,1,1,1.09-1.09A1.09,1.09,0,0,1,19.63,16.23Zm0-1.8a.71.71,0,1,0,.71.71A.71.71,0,0,0,19.63,14.44Z"/></g><g id="_Group_51" data-name="&lt;Group&gt;"><path id="_Compound_Path_19" data-name="&lt;Compound Path&gt;" class="cls-8" d="M22.33,16.23a1.09,1.09,0,1,1,1.09-1.09A1.09,1.09,0,0,1,22.33,16.23Zm0-1.8a.71.71,0,1,0,.71.71A.71.71,0,0,0,22.33,14.44Z"/></g><g id="_Group_52" data-name="&lt;Group&gt;"><path id="_Compound_Path_20" data-name="&lt;Compound Path&gt;" class="cls-8" d="M25,16.23a1.09,1.09,0,1,1,1.09-1.09A1.09,1.09,0,0,1,25,16.23Zm0-1.8a.71.71,0,1,0,.71.71A.71.71,0,0,0,25,14.44Z"/></g></g><g id="_Group_53" data-name="&lt;Group&gt;"><g id="_Group_54" data-name="&lt;Group&gt;"><path id="_Compound_Path_21" data-name="&lt;Compound Path&gt;" class="cls-10" d="M19.9,16.23A1.09,1.09,0,1,1,21,15.15,1.09,1.09,0,0,1,19.9,16.23Zm0-1.8a.71.71,0,1,0,.71.71A.71.71,0,0,0,19.9,14.44Z"/></g><g id="_Group_55" data-name="&lt;Group&gt;"><path id="_Compound_Path_22" data-name="&lt;Compound Path&gt;" class="cls-10" d="M22.6,16.23a1.09,1.09,0,1,1,1.09-1.09A1.09,1.09,0,0,1,22.6,16.23Zm0-1.8a.71.71,0,1,0,.71.71A.71.71,0,0,0,22.6,14.44Z"/></g><g id="_Group_56" data-name="&lt;Group&gt;"><path id="_Compound_Path_23" data-name="&lt;Compound Path&gt;" class="cls-10" d="M25.29,16.23a1.09,1.09,0,1,1,1.09-1.09A1.09,1.09,0,0,1,25.29,16.23Zm0-1.8a.71.71,0,1,0,.71.71A.71.71,0,0,0,25.29,14.44Z"/></g></g><g id="_Group_57" data-name="&lt;Group&gt;"><path id="_Compound_Path_24" data-name="&lt;Compound Path&gt;" class="cls-10" d="M71.09,60.36H16.75a.19.19,0,0,1-.19-.19v-47a.19.19,0,0,1,.19-.19H71.09a.19.19,0,0,1,.19.19v47A.19.19,0,0,1,71.09,60.36ZM16.94,60h54V13.39h-54Z"/></g></g><polygon class="cls-1" points="51.92 47.16 34.64 47.16 34.64 55.59 52.13 55.59 52.13 47.16 51.92 47.16"/><path class="cls-11" d="M49.88,53.45H36.79a.18.18,0,0,1,0-.36H49.88a.18.18,0,0,1,0,.36Z"/><path class="cls-11" d="M49.88,51.55H44.37a.18.18,0,0,1,0-.36h5.51a.18.18,0,0,1,0,.36Z"/><path class="cls-11" d="M42.21,51.55H36.79a.18.18,0,0,1,0-.36h5.42a.18.18,0,0,1,0,.36Z"/><path class="cls-11" d="M42.27,49.66H36.77a.18.18,0,1,1,0-.36h5.51a.18.18,0,0,1,0,.36Z"/><rect class="cls-1" x="34.46" y="23.5" width="9.77" height="8.43"/><rect class="cls-1" x="42.37" y="35.11" width="22.63" height="8.43"/><polygon class="cls-12" points="65.23 23.42 47.95 23.42 47.95 31.85 65.44 31.85 65.44 23.42 65.23 23.42"/><path class="cls-11" d="M63.19,29.71H50.1a.18.18,0,1,1,0-.36H63.19a.18.18,0,1,1,0,.36Z"/><path class="cls-11" d="M63.19,27.81H57.68a.18.18,0,0,1,0-.36h5.51a.18.18,0,0,1,0,.36Z"/><path class="cls-11" d="M55.52,27.81H50.1a.18.18,0,0,1,0-.36h5.42a.18.18,0,0,1,0,.36Z"/><path class="cls-11" d="M55.59,25.92H50.08a.18.18,0,0,1,0-.36h5.51a.18.18,0,0,1,0,.36Z"/><polygon class="cls-1" points="37.67 35.29 20.38 35.29 20.38 43.72 37.88 43.72 37.88 35.29 37.67 35.29"/><path class="cls-11" d="M35.63,41.58H22.53a.18.18,0,0,1,0-.36H35.63a.18.18,0,0,1,0,.36Z"/><path class="cls-11" d="M35.63,39.68H30.12a.18.18,0,0,1,0-.36h5.51a.18.18,0,0,1,0,.36Z"/><path class="cls-11" d="M28,39.68H22.53a.18.18,0,0,1,0-.36H28a.18.18,0,0,1,0,.36Z"/><path class="cls-11" d="M28,37.79H22.51a.18.18,0,0,1,0-.36H28a.18.18,0,0,1,0,.36Z"/><rect class="cls-1" x="20.48" y="23.5" width="9.77" height="8.43"/><path class="cls-11" d="M28.07,29.66H22.59a.18.18,0,0,1,0-.36h5.49a.18.18,0,0,1,0,.36Z"/><path class="cls-11" d="M28,27.89H22.59a.18.18,0,0,1,0-.36H28a.18.18,0,0,1,0,.36Z"/><path class="cls-11" d="M28.07,26H22.57a.18.18,0,1,1,0-.36h5.51a.18.18,0,0,1,0,.36Z"/><rect class="cls-1" x="20.48" y="47.23" width="9.77" height="8.43"/><path class="cls-11" d="M28.07,53.4H22.59a.18.18,0,0,1,0-.36h5.49a.18.18,0,0,1,0,.36Z"/><path class="cls-11" d="M28,51.63H22.59a.18.18,0,0,1,0-.36H28a.18.18,0,0,1,0,.36Z"/><path class="cls-11" d="M28.07,49.73H22.57a.18.18,0,0,1,0-.36h5.51a.18.18,0,0,1,0,.36Z"/><g id="_Group_58" data-name="&lt;Group&gt;"><g id="_Group_59" data-name="&lt;Group&gt;"><g id="_Group_60" data-name="&lt;Group&gt;"><path class="cls-13" d="M72.64,27.41A16.81,16.81,0,0,1,61.77,43.08a16.59,16.59,0,0,1-18.24-5.39,17.08,17.08,0,0,1-1.32-19.31,16.53,16.53,0,0,1,7.29-6.53,16,16,0,0,1,10-1,17,17,0,0,1,13,13.94,17.63,17.63,0,0,1,.2,2.61c0,.35,1.37.11,1.36-.37A17.43,17.43,0,0,0,62.34,10.75a18.46,18.46,0,0,0-19.88,5.53,17.27,17.27,0,0,0,6.47,27,18.14,18.14,0,0,0,10.86,1,17.89,17.89,0,0,0,14-14.52A18.24,18.24,0,0,0,74,27C74,26.7,72.64,26.93,72.64,27.41Z"/></g></g><g id="_Group_61" data-name="&lt;Group&gt;"><g id="_Group_62" data-name="&lt;Group&gt;"><path class="cls-13" d="M55.53,10.38v7c0,.66,1.37.42,1.37-.13v-7c0-.66-1.37-.42-1.37.13Z"/></g></g><g id="_Group_63" data-name="&lt;Group&gt;"><g id="_Group_64" data-name="&lt;Group&gt;"><path class="cls-13" d="M55.53,37.2v7c0,.66,1.37.42,1.37-.13v-7c0-.66-1.37-.42-1.37.13Z"/></g></g><g id="_Group_65" data-name="&lt;Group&gt;"><g id="_Group_66" data-name="&lt;Group&gt;"><path class="cls-13" d="M38.95,28.13h7a1,1,0,0,0,.89-.4c.14-.28-.12-.51-.4-.51h-7a1,1,0,0,0-.89.4c-.14.28.12.51.4.51Z"/></g></g><g id="_Group_67" data-name="&lt;Group&gt;"><g id="_Group_68" data-name="&lt;Group&gt;"><path class="cls-13" d="M66.08,27.68h7a1,1,0,0,0,.89-.4c.14-.28-.12-.51-.4-.51h-7a1,1,0,0,0-.89.4c-.14.28.12.51.4.51Z"/></g></g></g></svg>