<svg id="Layer_1" data-name="Layer 1" xmlns="http://www.w3.org/2000/svg" viewBox="0 0 123.46 105.81"><defs><style>.cls-1{fill:#abdff5;}.cls-2{fill:#e5e5e5;}.cls-3{fill:#fff;}.cls-4{fill:#637aaa;}.cls-5{fill:#f8f8f8;}.cls-6{fill:#d5f2f8;}.cls-7{fill:#88cdee;}</style></defs><title>Artboard 21</title><path class="cls-1" d="M28.49,105.11c-6.34-.2-12.62-.52-18.77-1-2.41-.19-4.82-.43-7-.83a7.37,7.37,0,0,1-2.11-.6C-2.08,101.12,5.1,99.38,8.44,99c4.71-.48,9.85-.31,14.72-.4,15-.29,30-.28,45.08,0,6.72.14,23.73.31,30.54.61,6.19.27,14.45.32,19.3,1.91l.51.18c1,.35,1.6.85,1.34,1.31a3.73,3.73,0,0,1-1.93,1c-5.79,1.77-13.13,2-20.62,2.11-9.66.13-29.38-.17-39-.24C48.4,105.48,38.43,105.43,28.49,105.11Z"/><rect class="cls-2" x="14.09" y="42.69" width="90.52" height="57.7"/><rect class="cls-3" x="15.89" y="44.49" width="90.52" height="57.7"/><path class="cls-4" d="M106.57,101.91H17.27a3.69,3.69,0,0,0-1.09,0,.46.46,0,0,1-.14,0l.28.24V45.66a4.18,4.18,0,0,0,0-1.08.53.53,0,0,1,0-.14l-.6.33H105a3.69,3.69,0,0,0,1.08,0,.46.46,0,0,1,.14,0l-.28-.24V98.94a17.79,17.79,0,0,0,0,3.16.77.77,0,0,1,0,.14c0,.41.88.25.88-.09V47.73a19.37,19.37,0,0,0,0-3.16.84.84,0,0,1,0-.14.25.25,0,0,0-.28-.24H26c-3.26,0-6.54-.11-9.8,0H16c-.16,0-.6.08-.6.33V98.94a19.37,19.37,0,0,0,0,3.16.84.84,0,0,1,0,.14.25.25,0,0,0,.28.24H96.31c3.26,0,6.54.11,9.8,0h.14C106.62,102.47,107.16,101.91,106.57,101.91Z"/><rect class="cls-5" x="15.89" y="53.39" width="90.52" height="48.8"/><rect class="cls-3" x="15.89" y="53.39" width="86.95" height="48.8"/><path class="cls-4" d="M106.45,101.85H17.14a4.27,4.27,0,0,0-1.08,0,.54.54,0,0,1-.14,0l.41.31V45.68a4.07,4.07,0,0,0,0-1.08.51.51,0,0,1,0-.14l-.48.37h89.3a4.27,4.27,0,0,0,1.08,0,.54.54,0,0,1,.14,0l-.41-.31V98.92a24.7,24.7,0,0,0,0,3.16,1.08,1.08,0,0,1,0,.14c0,.48.89.36.89-.06V47.75a24.7,24.7,0,0,0,0-3.16,1.08,1.08,0,0,1,0-.14c0-.23-.21-.31-.41-.31H19.21c-1,0-2.12-.08-3.16,0h-.14c-.18,0-.48.15-.48.37V98.92a24.7,24.7,0,0,0,0,3.16,1.08,1.08,0,0,1,0,.14c0,.23.21.31.41.31h87.23c1,0,2.12.08,3.16,0h.14C106.89,102.53,107,101.85,106.45,101.85Z"/><rect class="cls-1" x="15.98" y="44.52" width="90.35" height="8.87"/><path class="cls-6" d="M102.84,53.39H16V46.33H98.21A4.63,4.63,0,0,1,102.84,51Z"/><path class="cls-4" d="M106.36,53.07H17.24a4.28,4.28,0,0,0-1.09,0,.54.54,0,0,1-.14,0l.41.29V44.49l-.48.36h89.12a4.28,4.28,0,0,0,1.09,0,.54.54,0,0,1,.14,0l-.41-.29v8.87c0,.46.89.34.89-.06V44.49c0-.23-.21-.29-.41-.29H19.31c-1,0-2.12-.08-3.16,0H16c-.17,0-.48.15-.48.36v8.87c0,.23.21.29.41.29H103c1,0,2.12.08,3.16,0h.14C106.79,53.72,107,53.07,106.36,53.07Z"/><ellipse class="cls-3" cx="21.48" cy="48.96" rx="1.58" ry="1.57"/><ellipse class="cls-3" cx="26.21" cy="48.96" rx="1.58" ry="1.57"/><ellipse class="cls-3" cx="30.94" cy="48.96" rx="1.58" ry="1.57"/><path class="cls-1" d="M23,48.92c-.13-2.48-4-2.36-4,.07s3.91,2.33,4-.07c0-.46-.87-.33-.89.07,0,.63-.43,1.28-1.15,1.21a1.31,1.31,0,0,1-1.11-1.27,1.14,1.14,0,0,1,1-1.2A1.29,1.29,0,0,1,22.08,49C22.1,49.45,23,49.31,23,48.92Z"/><path class="cls-1" d="M27.69,48.84c-.13-2.37-4-2-4,.24,0,2.4,3.91,1.94,4-.24,0-.13-.86,0-.88.24,0,.78-.67,1.58-1.52,1.09a1.53,1.53,0,0,1-.75-1.32c0-.73.61-1.5,1.4-1.14a1.54,1.54,0,0,1,.88,1.38C26.82,49.23,27.7,49.08,27.69,48.84Z"/><path class="cls-1" d="M32.41,48.84c-.13-2.41-4-2.09-4,.2s3.91,2.13,4-.14c0-.36-.86-.19-.88.11,0,.64-.45,1.4-1.21,1.24a1.41,1.41,0,0,1-1.06-1.38c0-.71.55-1.41,1.31-1.17a1.44,1.44,0,0,1,1,1.37C31.55,49.36,32.43,49.18,32.41,48.84Z"/><path class="cls-4" d="M23.5,48.92c-.13-2.48-4-2.36-4,.07s3.91,2.33,4-.07c0-.46-.87-.33-.89.07,0,.63-.43,1.28-1.15,1.21a1.31,1.31,0,0,1-1.11-1.27,1.14,1.14,0,0,1,1-1.21A1.29,1.29,0,0,1,22.62,49C22.64,49.45,23.53,49.31,23.5,48.92Z"/><path class="cls-4" d="M28.23,48.84c-.13-2.37-4-2-4,.24,0,2.39,3.91,1.92,4-.24,0-.1-.86,0-.88.24,0,.77-.6,1.56-1.45,1.13a1.53,1.53,0,0,1-.83-1.36c0-.73.58-1.52,1.37-1.16a1.56,1.56,0,0,1,.9,1.4C27.35,49.21,28.24,49.07,28.23,48.84Z"/><path class="cls-4" d="M33,48.84c-.13-2.4-4-2.07-4,.21,0,2.43,3.91,2.11,4-.15,0-.34-.86-.16-.88.12,0,.65-.44,1.39-1.2,1.24a1.42,1.42,0,0,1-1.06-1.39c0-.71.54-1.42,1.31-1.17a1.46,1.46,0,0,1,1,1.38C32.09,49.34,33,49.17,33,48.84Z"/><path class="cls-4" d="M52.32,68.41c4,4,11.85,4,16,.17.22-.21,1,.13.82.34-4.51,4.2-13.16,4-17.5-.37-.36-.36.5-.34.7-.14Z"/><path class="cls-4" d="M71.25,62.94a4,4,0,0,0,5.9-.07c.19-.23-.65-.12-.8,0a2.77,2.77,0,0,1-4.27-.29c-.14-.18-1,.12-.82.31Z"/><path class="cls-4" d="M43,62.63a4,4,0,0,0,5.92,0c.18-.21-.66-.1-.79.06a2.76,2.76,0,0,1-4.25-.26c-.17-.21-.94.15-.88.24Z"/><path class="cls-4" d="M1.73,66A24.35,24.35,0,0,0,15.4,78.42c.36.13,1-.38.51-.57A23.77,23.77,0,0,1,2.61,65.8c-.18-.37-1-.11-.88.24Z"/><path class="cls-4" d="M119.72,65.88a23.63,23.63,0,0,1-13.25,12c-.57.21-.06.59.37.44a24.49,24.49,0,0,0,13.72-12.41c.2-.42-.68-.36-.83-.06Z"/><path class="cls-4" d="M4.63,78.22,2.72,37.86l-.54-11.4c0-.43-.9-.27-.88.08L3.21,66.9l.54,11.4c0,.43.9.27.88-.08Z"/><path class="cls-4" d="M118.49,80.44l2.42-41,.69-11.74c0-.41-.86-.26-.88.09l-2.42,41-.69,11.74c0,.41.86.26.88-.09Z"/><path class="cls-7" d="M.57.26S29.42,2.16,58,2.4,123,.26,123,.26l-1.94,28.1s-41.76,2.39-61.95,2.09S1.8,28,1.8,28Z"/><path class="cls-1" d="M1.47,9.73A6.15,6.15,0,0,1,7.93,3.3c10,.52,29.68,1.42,49.23,1.57,18.94.14,46.92-.81,56.49-1.43a6.24,6.24,0,0,1,6.63,6.69l-1.36,18.41s-41,2.18-60.66,1.91S2.35,28.26,2.35,28.26Z"/><path class="cls-4" d="M.4.5c12.88.85,25.79,1.4,38.7,1.78,20.16.59,50.29.39,70.41-.82,4.49-.27,9-.56,13.45-1l-.38-.19L120.88,25l-.24,3.45.5-.3c-4.57.34-9.14.63-13.71.89C98,29.56,78.51,30,69,30.17c-8.62.15-17.24-.1-25.86-.42q-13.24-.49-26.47-1.17L7,28.07,3.86,27.9a12.68,12.68,0,0,0-1.67-.09H2l.27.13L1.16,3.63,1,.14C1-.14.11,0,.13.37l1.08,24.3.16,3.49c0,.11.2.13.27.13q6,.34,12,.64,12.92.66,25.84,1.18c8.66.34,17.32.67,26,.59,9.52-.09,29-.51,38.53-1,5.57-.31,11.17-.55,16.72-1.06l.26,0c.14,0,.49-.12.5-.3l1.7-24.65L123.46.2c0-.2-.24-.2-.38-.19C110.68,1.12,88.2,1.69,75.75,2,55.41,2.49,35,1.81,14.73.8,10.06.56,5.4.31.74,0,.4,0-.19.46.4.5Z"/><path class="cls-4" d="M117.68,4.47a6.31,6.31,0,0,1,2-1.95c.51-.3,0-.8-.39-.54a7.25,7.25,0,0,0-2.38,2.21c-.31.47.51.62.74.27Z"/><path class="cls-4" d="M120,8.13a17.3,17.3,0,0,1,1.25-4.85c0-.11-.77,0-.86.17a17.56,17.56,0,0,0-1.26,4.92c0,.08.85,0,.88-.24Z"/><path class="cls-4" d="M4.47,24.35a14.36,14.36,0,0,0,2.58-6.18c.06-.37-.83-.22-.88.1a14,14,0,0,1-2.52,6c-.25.34.64.29.82,0Z"/><path class="cls-4" d="M4.72,25.76,9.3,23.55c.52-.25-.29-.24-.51-.14L4.2,25.62c-.52.25.29.24.51.14Z"/><path class="cls-4" d="M6,26.41l2-.26c.16,0,.5-.06.59-.21s-.08-.16-.21-.14l-2,.26c-.16,0-.5.06-.59.21s.08.16.21.14Z"/><path class="cls-4" d="M111.49,25.54l5,1.63c.23.07,1-.28.71-.38l-5-1.63c-.23-.07-1,.28-.71.38Z"/><path class="cls-4" d="M120.15,25.68a15.32,15.32,0,0,1-1.53-5.8c0-.48-.92-.36-.89.06a16.1,16.1,0,0,0,1.62,6.14c.18.38,1,0,.8-.4Z"/><path class="cls-4" d="M116.87,25.32l1.24,1.76c.16.23,1-.11.88-.24l-1.24-1.76c-.16-.23-1,.11-.88.24Z"/><path class="cls-4" d="M3.32,1.63a14.59,14.59,0,0,0,6.11,3c.44.1.87-.52.3-.66A13.78,13.78,0,0,1,4,1.11c-.31-.26-1.07.19-.67.52Z"/><path class="cls-4" d="M2,1.79,3.89,6.52c.09.22.95-.06.88-.24L2.88,1.56c-.09-.22-.95.06-.88.24Z"/></svg>