<svg id="Layer_1" data-name="Layer 1" xmlns="http://www.w3.org/2000/svg" viewBox="0 0 156.73 17.55"><defs><style>.cls-1{fill:#1f91c8;}.cls-2{fill:#333;}</style></defs><title>Artboard 23</title><path class="cls-1" d="M9.34,12.76a1.69,1.69,0,0,0-.64-1.41,7.94,7.94,0,0,0-2.24-1,21.53,21.53,0,0,1-2.62-1Q.52,7.64.52,4.79a4,4,0,0,1,.83-2.5A5.34,5.34,0,0,1,3.68.6,9.1,9.1,0,0,1,7.08,0a8,8,0,0,1,3.3.66,5.22,5.22,0,0,1,2.27,1.87,4.88,4.88,0,0,1,.81,2.77H9.35a2.06,2.06,0,0,0-.64-1.62A2.49,2.49,0,0,0,7,3.11a2.81,2.81,0,0,0-1.74.49,1.49,1.49,0,0,0-.64,1.24A1.5,1.5,0,0,0,5.31,6a8.87,8.87,0,0,0,2.47,1.1,15.15,15.15,0,0,1,2.91,1.22,4.88,4.88,0,0,1,2.77,4.39,4.17,4.17,0,0,1-1.69,3.52,7.51,7.51,0,0,1-4.63,1.28,9.18,9.18,0,0,1-3.76-.74,5.66,5.66,0,0,1-2.53-2,5.31,5.31,0,0,1-.85-3H4.13a2.62,2.62,0,0,0,.71,2,3.35,3.35,0,0,0,2.3.65A2.65,2.65,0,0,0,8.75,14,1.45,1.45,0,0,0,9.34,12.76Z"/><path class="cls-1" d="M19.95,17.3h-4.1V.23h4.1Z"/><path class="cls-1" d="M36.36,3.41H31.24V17.3H27.12V3.41h-5V.23H36.36Z"/><path class="cls-2" d="M63.58,10H57.66v7.3H57V.25h5.44a6,6,0,0,1,4.08,1.32,4.53,4.53,0,0,1,1.52,3.6A4.64,4.64,0,0,1,67,8.23a4.59,4.59,0,0,1-2.76,1.62l4.56,7.3v.16h-.67Zm-5.92-.63H63a4.34,4.34,0,0,0,3.18-1.2,4.05,4.05,0,0,0,1.21-3A3.92,3.92,0,0,0,66.09,2,5.47,5.47,0,0,0,62.42.89H57.66Z"/><path class="cls-2" d="M82,8.85H73.42v7.83h9.75v.63H72.79V.25H83.17V.89H73.42V8.22H82Z"/><path class="cls-2" d="M96.67,13.23a3.22,3.22,0,0,0-.51-1.85A4.31,4.31,0,0,0,94.56,10a17.28,17.28,0,0,0-3.31-1.19,15.58,15.58,0,0,1-3.32-1.23A4.39,4.39,0,0,1,86.3,6.18a3.67,3.67,0,0,1-.52-2,3.58,3.58,0,0,1,1.57-3A6.74,6.74,0,0,1,91.44,0a6.62,6.62,0,0,1,2.95.64,4.79,4.79,0,0,1,2,1.79,4.85,4.85,0,0,1,.71,2.61h-.63A4,4,0,0,0,95.09,1.9,5.29,5.29,0,0,0,91.44.65a6.08,6.08,0,0,0-3.64,1,3,3,0,0,0-1.39,2.51,3,3,0,0,0,1.21,2.47,11.4,11.4,0,0,0,4,1.66A12.27,12.27,0,0,1,95.67,10a3.81,3.81,0,0,1,1.64,3.23,3.75,3.75,0,0,1-.73,2.28A4.63,4.63,0,0,1,94.53,17a8,8,0,0,1-3,.54,8.58,8.58,0,0,1-3.33-.62A4.73,4.73,0,0,1,86,15.18a4.79,4.79,0,0,1-.74-2.68h.63a3.82,3.82,0,0,0,1.57,3.26,6.71,6.71,0,0,0,4.09,1.16,6.25,6.25,0,0,0,3.69-1A3.13,3.13,0,0,0,96.67,13.23Z"/><path class="cls-2" d="M112,.89h-6.21V17.31h-.63V.89H98.94V.25H112Z"/><path class="cls-2" d="M126.74,10.06a9.22,9.22,0,0,1-.79,3.92,6.06,6.06,0,0,1-2.26,2.64,6.15,6.15,0,0,1-3.37.93,5.88,5.88,0,0,1-4.66-2.05A8.14,8.14,0,0,1,113.87,10V7.51a9.23,9.23,0,0,1,.79-3.91A6,6,0,0,1,116.93.95a6.58,6.58,0,0,1,6.75,0,6.07,6.07,0,0,1,2.27,2.65,9.18,9.18,0,0,1,.8,3.91Zm-.63-2.58a7.46,7.46,0,0,0-1.57-5,5.72,5.72,0,0,0-8.45,0,7.58,7.58,0,0,0-1.57,5.06v2.5a8.65,8.65,0,0,0,.71,3.6,5.45,5.45,0,0,0,2,2.41,5.55,5.55,0,0,0,3.07.84,5.23,5.23,0,0,0,4.23-1.86A7.68,7.68,0,0,0,126.11,10Z"/><path class="cls-2" d="M137.14,10h-5.92v7.3h-.63V.25H136a6,6,0,0,1,4.08,1.32,4.53,4.53,0,0,1,1.52,3.6,4.64,4.64,0,0,1-1.08,3.05,4.59,4.59,0,0,1-2.76,1.62l4.56,7.3v.16h-.67Zm-5.92-.63h5.38a4.34,4.34,0,0,0,3.18-1.2,4.05,4.05,0,0,0,1.21-3A3.92,3.92,0,0,0,139.65,2,5.47,5.47,0,0,0,136,.89h-4.76Z"/><path class="cls-2" d="M155.53,8.85H147v7.83h9.75v.63H146.35V.25h10.38V.89H147V8.22h8.55Z"/><rect class="cls-1" x="38.66" y="0.15" width="14.08" height="3.38"/><rect class="cls-1" x="38.66" y="13.86" width="14.08" height="3.38"/><rect class="cls-1" x="38.66" y="7" width="14.08" height="3.38"/></svg>