<svg id="Layer_1" data-name="Layer 1" xmlns="http://www.w3.org/2000/svg" viewBox="0 0 142.84 124.05"><defs><style>.cls-1{fill:#fff;}.cls-2{fill:#d5f2f8;}.cls-3{fill:#637aaa;}.cls-4{fill:#ffefa6;}.cls-5{fill:#ff9c80;}.cls-6{fill:#f1f2f3;}.cls-7{fill:#abdff5;}</style></defs><title>Artboard 22</title><path class="cls-1" d="M35.55,121c-2.86-.61-37.19-6.1-34.66-46.59s5.7-52.67,19-57.12S65.73-8.24,91.19,11.8s52.94,38,42,70-12.69,42.68-41.14,41S49.14,123.9,35.55,121Z"/><g id="_Group_" data-name="&lt;Group&gt;"><rect id="_Rectangle_" data-name="&lt;Rectangle&gt;" class="cls-2" x="9.86" y="52.52" width="72.44" height="10.13" rx="5.06" ry="5.06" transform="translate(92.17 115.18) rotate(-180)"/><path id="_Path_" data-name="&lt;Path&gt;" class="cls-2" d="M8.84,66.15H34.5a4.05,4.05,0,0,1,4,4h0a4.05,4.05,0,0,1-4,4H8.84a4.05,4.05,0,0,1-4-4h0A4.05,4.05,0,0,1,8.84,66.15Z"/><rect id="_Rectangle_2" data-name="&lt;Rectangle&gt;" class="cls-2" y="41.31" width="33.74" height="8.08" rx="4.04" ry="4.04" transform="translate(33.74 90.7) rotate(-180)"/><path id="_Path_2" data-name="&lt;Path&gt;" class="cls-2" d="M17.52,49.07a2.05,2.05,0,0,1,2.27,1.73,2.05,2.05,0,0,1-2.27,1.73H27.4a2.05,2.05,0,0,1-2.27-1.73,2.05,2.05,0,0,1,2.27-1.73Z"/><path id="_Path_3" data-name="&lt;Path&gt;" class="cls-2" d="M14.32,62.54a2.14,2.14,0,0,1,2.36,1.8,2.14,2.14,0,0,1-2.36,1.8H24.64a2.14,2.14,0,0,1-2.36-1.8,2.14,2.14,0,0,1,2.36-1.8Z"/></g><g id="_Group_2" data-name="&lt;Group&gt;"><rect id="_Rectangle_3" data-name="&lt;Rectangle&gt;" class="cls-2" x="48.39" y="28.76" width="72.44" height="10.13" rx="5.06" ry="5.06"/><path id="_Path_4" data-name="&lt;Path&gt;" class="cls-2" d="M121.85,25.26H96.19a4.05,4.05,0,0,1-4-4h0a4.05,4.05,0,0,1,4-4h25.66a4.05,4.05,0,0,1,4,4h0A4.05,4.05,0,0,1,121.85,25.26Z"/><path id="_Path_5" data-name="&lt;Path&gt;" class="cls-2" d="M126.66,50.1H101a4.05,4.05,0,0,1-4-4h0a4.05,4.05,0,0,1,4-4h25.66a4.05,4.05,0,0,1,4,4h0A4.05,4.05,0,0,1,126.66,50.1Z"/><path id="_Path_6" data-name="&lt;Path&gt;" class="cls-2" d="M113.18,42.34a2.05,2.05,0,0,1-2.27-1.73,2.05,2.05,0,0,1,2.27-1.73h-9.88a2.05,2.05,0,0,1,2.27,1.73,2.05,2.05,0,0,1-2.27,1.73Z"/><path id="_Path_7" data-name="&lt;Path&gt;" class="cls-2" d="M116.38,28.87a2.14,2.14,0,0,1-2.36-1.8,2.14,2.14,0,0,1,2.36-1.8H106.06a2.14,2.14,0,0,1,2.36,1.8,2.14,2.14,0,0,1-2.36,1.8Z"/></g><path class="cls-1" d="M36.71,60.23h0A22.75,22.75,0,0,1,59.46,83v40a0,0,0,0,1,0,0H14a0,0,0,0,1,0,0V83A22.75,22.75,0,0,1,36.71,60.23Z"/><path class="cls-3" d="M59.46,121.82a.3.3,0,0,1-.3-.3V65.94a5.35,5.35,0,0,0-5.35-5.35H19.61a5.35,5.35,0,0,0-5.35,5.35v55.58a.3.3,0,0,1-.59,0V65.94A6,6,0,0,1,19.61,60h34.2a6,6,0,0,1,5.94,5.94v55.58A.3.3,0,0,1,59.46,121.82Z"/><path class="cls-3" d="M56.94,121.82a.3.3,0,0,1-.3-.3V70.2H16.78v51.32a.3.3,0,0,1-.59,0V69.9a.3.3,0,0,1,.3-.3H56.94a.3.3,0,0,1,.3.3v51.62A.3.3,0,0,1,56.94,121.82Z"/><path class="cls-3" d="M52,66H51.2a.88.88,0,0,1-.88-.88v-.51a.88.88,0,0,1,.88-.88H52a.88.88,0,0,1,.88.88v.51A.88.88,0,0,1,52,66Zm-.82-1.67a.29.29,0,0,0-.29.29v.51a.29.29,0,0,0,.29.29H52a.29.29,0,0,0,.29-.29v-.51a.29.29,0,0,0-.29-.29Z"/><path class="cls-3" d="M40.81,66H32.58a.88.88,0,0,1-.88-.88v-.51a.88.88,0,0,1,.88-.88h8.23a.88.88,0,0,1,.88.88v.51A.88.88,0,0,1,40.81,66Zm-8.23-1.67a.29.29,0,0,0-.29.29v.51a.29.29,0,0,0,.29.29h8.23a.29.29,0,0,0,.29-.29v-.51a.29.29,0,0,0-.29-.29Z"/><rect class="cls-4" x="25.45" y="117.65" width="4.14" height="4.26"/><path class="cls-3" d="M28.84,121.46a.3.3,0,0,1-.3-.3v-3.92H25.6a.3.3,0,0,1,0-.59h3.25a.3.3,0,0,1,.3.3v4.21A.3.3,0,0,1,28.84,121.46Z"/><path class="cls-3" d="M28.84,114H25.6a.3.3,0,1,1,0-.59h2.95V109.3a.3.3,0,0,1,.59,0v4.41A.3.3,0,0,1,28.84,114Z"/><path class="cls-3" d="M26.42,107.53H25.6a.3.3,0,1,1,0-.59h.83a.3.3,0,0,1,0,.59Z"/><path class="cls-3" d="M28.84,104.29H25.6a.3.3,0,0,1,0-.59h2.95V97.81H25.6a.3.3,0,0,1,0-.59h3.25a.3.3,0,0,1,.3.3V104A.3.3,0,0,1,28.84,104.29Z"/><rect class="cls-4" x="35.96" y="98.32" width="3.7" height="6.48"/><path class="cls-3" d="M39,104.29h-3.7a.3.3,0,0,1-.3-.3V97.51a.3.3,0,0,1,.3-.3H39a.3.3,0,0,1,0,.59h-3.4v5.89H39a.3.3,0,0,1,0,.59Z"/><rect class="cls-4" x="35.96" y="78.87" width="3.7" height="6.48"/><path class="cls-3" d="M39,84.84h-3.7a.3.3,0,0,1-.3-.3V78.06a.3.3,0,0,1,.3-.3H39a.3.3,0,0,1,0,.59h-3.4v5.89H39a.3.3,0,0,1,0,.59Z"/><rect class="cls-4" x="24.61" y="88.6" width="4.9" height="6.48"/><path class="cls-3" d="M28.84,94.56H25.6a.3.3,0,0,1,0-.59h2.95V88.08H24.18a.3.3,0,0,1,0-.59h4.67a.3.3,0,0,1,.3.3v6.48A.3.3,0,0,1,28.84,94.56Z"/><path class="cls-3" d="M27.28,84.84H22.35a.3.3,0,0,1-.3-.3V78.06a.3.3,0,0,1,.3-.3h6.49a.3.3,0,0,1,.3.3v3.86a.3.3,0,1,1-.59,0V78.36h-5.9v5.89h4.63a.3.3,0,1,1,0,.59Z"/><path class="cls-3" d="M39,94.56h-3.7a.3.3,0,0,1-.3-.3V87.79a.3.3,0,0,1,.3-.3H39a.3.3,0,0,1,0,.59h-3.4V94H39a.3.3,0,0,1,0,.59Z"/><path class="cls-3" d="M39,114.05h-3.7a.3.3,0,0,1-.3-.3v-6.48a.3.3,0,0,1,.3-.3H39a.3.3,0,1,1,0,.59h-3.4v5.89H39a.3.3,0,0,1,0,.59Z"/><path class="cls-3" d="M35.28,121.46a.3.3,0,0,1-.3-.3V117a.3.3,0,0,1,.3-.3H39a.3.3,0,0,1,0,.59h-3.4v3.92A.3.3,0,0,1,35.28,121.46Z"/><g id="_Group_3" data-name="&lt;Group&gt;"><path class="cls-1" d="M100.14,74.47h0a15.4,15.4,0,0,1,15.4,15.4v34.18a0,0,0,0,1,0,0H84.73a0,0,0,0,1,0,0V89.87A15.4,15.4,0,0,1,100.14,74.47Z"/><path class="cls-3" d="M115.54,123a.3.3,0,0,1-.3-.3V78.15a3.53,3.53,0,0,0-3.53-3.53H88.56A3.53,3.53,0,0,0,85,78.15V122.7a.3.3,0,0,1-.59,0V78.15A4.12,4.12,0,0,1,88.56,74h23.16a4.12,4.12,0,0,1,4.12,4.12V122.7A.3.3,0,0,1,115.54,123Z"/><path class="cls-3" d="M113.83,123.12a.3.3,0,0,1-.3-.3V81.12H86.74V122.7a.3.3,0,0,1-.59,0V80.83a.3.3,0,0,1,.3-.3h27.39a.3.3,0,0,1,.3.3v42A.3.3,0,0,1,113.83,123.12Z"/><path class="cls-3" d="M102.8,78.36H97.46a.81.81,0,0,1-.81-.81v-.11a.81.81,0,0,1,.81-.81h5.34a.81.81,0,0,1,.81.81v.11A.81.81,0,0,1,102.8,78.36Zm-5.34-1.13a.22.22,0,0,0-.22.22v.11a.22.22,0,0,0,.22.22h5.34a.22.22,0,0,0,.22-.22v-.11a.22.22,0,0,0-.22-.22Z"/><path class="cls-3" d="M110.39,78.36h-.33a.81.81,0,0,1-.81-.81v-.11a.81.81,0,0,1,.81-.81h.33a.81.81,0,0,1,.81.81v.11A.81.81,0,0,1,110.39,78.36Zm-.33-1.13a.22.22,0,0,0-.22.22v.11a.22.22,0,0,0,.22.22h.33a.22.22,0,0,0,.22-.22v-.11a.22.22,0,0,0-.22-.22Z"/></g><path class="cls-3" d="M97.18,90.8A2.7,2.7,0,1,1,98,85.54a.3.3,0,0,1-.18.57A2.1,2.1,0,1,0,99,87a.3.3,0,1,1,.5-.32,2.7,2.7,0,0,1-2.27,4.15Z"/><path class="cls-3" d="M107.26,88.4h-5.13a.3.3,0,0,1,0-.59h5.13a.3.3,0,0,1,0,.59Z"/><path class="cls-3" d="M97.18,108.62a2.7,2.7,0,1,1,2.37-1.41.3.3,0,1,1-.52-.28,2.1,2.1,0,1,0-1.24,1,.3.3,0,1,1,.17.57A2.7,2.7,0,0,1,97.18,108.62Z"/><path class="cls-3" d="M107.26,106.22h-5.13a.3.3,0,1,1,0-.59h5.13a.3.3,0,0,1,0,.59Z"/><path class="cls-5" d="M100.32,97.76h0a2.4,2.4,0,0,1-2.4,2.4h0a2.4,2.4,0,0,1-2.4-2.4h0a2.4,2.4,0,0,1,2.4-2.4h0A2.4,2.4,0,0,1,100.32,97.76Z"/><path class="cls-3" d="M97.18,99.71a2.7,2.7,0,1,1,2.7-2.7A2.7,2.7,0,0,1,97.18,99.71Zm0-4.8a2.1,2.1,0,1,0,2.1,2.1A2.11,2.11,0,0,0,97.18,94.91Z"/><path class="cls-3" d="M107.26,96.72h-5.13a.3.3,0,0,1,0-.59h5.13a.3.3,0,0,1,0,.59Z"/><path class="cls-3" d="M107.26,98.05h-5.13a.3.3,0,0,1,0-.59h5.13a.3.3,0,0,1,0,.59Z"/><path class="cls-3" d="M107.26,113.31h-4.83a.3.3,0,0,1,0-.59h4.83a.3.3,0,0,1,0,.59Z"/><path class="cls-3" d="M100.32,113.31H96a.3.3,0,1,1,0-.59h4.32a.3.3,0,1,1,0,.59Z"/><path class="cls-3" d="M104.84,114.65H96a.3.3,0,0,1,0-.59h8.84a.3.3,0,0,1,0,.59Z"/><path class="cls-1" d="M12.44,89.29h0a11.23,11.23,0,0,1,11.23,11.23v22.56a0,0,0,0,1,0,0H1.21a0,0,0,0,1,0,0V100.52A11.23,11.23,0,0,1,12.44,89.29Z"/><path class="cls-3" d="M23.67,122a.3.3,0,0,1-.3-.3V92.08a2.49,2.49,0,0,0-2.49-2.49H4A2.49,2.49,0,0,0,1.5,92.08v29.63a.3.3,0,0,1-.59,0V92.08A3.09,3.09,0,0,1,4,89H20.88A3.09,3.09,0,0,1,24,92.08v29.63A.3.3,0,0,1,23.67,122Z"/><path class="cls-3" d="M22.43,122a.3.3,0,0,1-.3-.3V94.33H2.75v27.38a.3.3,0,0,1-.59,0V94a.3.3,0,0,1,.3-.3h20a.3.3,0,0,1,.3.3v27.7A.3.3,0,0,1,22.43,122Z"/><path class="cls-3" d="M14.38,92.31H10.49a.67.67,0,0,1-.67-.67v-.08a.67.67,0,0,1,.67-.67h3.89a.67.67,0,0,1,.67.67v.08A.67.67,0,0,1,14.38,92.31Zm-3.89-.83a.08.08,0,0,0-.08.08v.08a.08.08,0,0,0,.08.08h3.89a.08.08,0,0,0,.08-.08v-.08a.08.08,0,0,0-.08-.08Z"/><path class="cls-3" d="M18.9,104.92H14.09a.3.3,0,0,1-.3-.3v-1.3a.3.3,0,1,1,.59,0v1h4.22v-4.21H14.39v1a.3.3,0,0,1-.59,0V99.82a.3.3,0,0,1,.3-.3H18.9a.3.3,0,0,1,.3.3v4.8A.3.3,0,0,1,18.9,104.92Z"/><path class="cls-3" d="M18.9,112.35H15.7a.3.3,0,0,1,0-.59h2.9v-4.21H14.39v2.75a.3.3,0,1,1-.59,0v-3a.3.3,0,0,1,.3-.3H18.9a.3.3,0,0,1,.3.3v4.8A.3.3,0,0,1,18.9,112.35Z"/><rect class="cls-5" x="6.72" y="100.56" width="4.81" height="12.23"/><path class="cls-3" d="M10.79,112.35H6a.3.3,0,0,1-.3-.3v-2.4a.3.3,0,0,1,.59,0v2.1h4.22V100.12H6.27v5.82a.3.3,0,0,1-.59,0V99.82a.3.3,0,0,1,.3-.3h4.81a.3.3,0,0,1,.3.3v12.23A.3.3,0,0,1,10.79,112.35Z"/><path class="cls-3" d="M15.7,116.46H9.18a.3.3,0,1,1,0-.59H15.7a.3.3,0,1,1,0,.59Z"/><path class="cls-3" d="M15.7,117.8H12.76a.3.3,0,1,1,0-.59H15.7a.3.3,0,0,1,0,.59Z"/><path class="cls-3" d="M10.79,117.8H9.18a.3.3,0,1,1,0-.59h1.61a.3.3,0,1,1,0,.59Z"/><g id="_Group_4" data-name="&lt;Group&gt;"><rect class="cls-6" x="40.75" y="60" width="26.43" height="62.93"/><rect class="cls-6" x="67.18" y="73.99" width="26.43" height="48.93"/><path class="cls-1" d="M67.2,46.25h0A24.13,24.13,0,0,1,91.33,70.38v52.54a0,0,0,0,1,0,0H43.06a0,0,0,0,1,0,0V70.38A24.13,24.13,0,0,1,67.2,46.25Z"/><path class="cls-3" d="M91.33,122.27a.3.3,0,0,1-.3-.3V52.24a5.7,5.7,0,0,0-5.69-5.69H49.05a5.7,5.7,0,0,0-5.69,5.69V122a.3.3,0,0,1-.59,0V52.24A6.29,6.29,0,0,1,49.05,46H85.34a6.29,6.29,0,0,1,6.29,6.29V122A.3.3,0,0,1,91.33,122.27Z"/><path class="cls-3" d="M45.74,122.27a.3.3,0,0,1-.3-.3V56.44a.3.3,0,0,1,.3-.3H88.65a.3.3,0,0,1,.3.3v65.33a.3.3,0,1,1-.59,0v-65H46V122A.3.3,0,0,1,45.74,122.27Z"/><path class="cls-3" d="M71.28,52.41H63.09a1.19,1.19,0,0,1,0-2.37h8.19a1.19,1.19,0,0,1,0,2.37Zm-8.19-1.78a.59.59,0,0,0,0,1.18h8.19a.59.59,0,0,0,0-1.18Z"/></g><path class="cls-3" d="M71.65,117a1.63,1.63,0,1,1,1.63-1.63A1.64,1.64,0,0,1,71.65,117Zm0-2.67a1,1,0,1,0,1,1A1,1,0,0,0,71.65,114.31Z"/><circle class="cls-3" cx="67.2" cy="115.35" r="1.48"/><path class="cls-3" d="M62.74,117a1.63,1.63,0,1,1,1.63-1.63A1.64,1.64,0,0,1,62.74,117Zm0-2.67a1,1,0,1,0,1,1A1,1,0,0,0,62.74,114.31Z"/><path class="cls-3" d="M73.14,111.19H61.25a.3.3,0,0,1,0-.59H73.14a.3.3,0,0,1,0,.59Z"/><path class="cls-3" d="M75.47,106.39H58.92a.3.3,0,1,1,0-.59H75.47a.3.3,0,1,1,0,.59Z"/><path class="cls-3" d="M79.26,82.83H55.14a.3.3,0,0,1,0-.59H79.26a.3.3,0,0,1,0,.59Z"/><path class="cls-3" d="M65.29,87.29H55.14a.3.3,0,0,1,0-.59H65.29a.3.3,0,0,1,0,.59Z"/><path class="cls-3" d="M79.26,87.29h-10a.3.3,0,0,1,0-.59h10a.3.3,0,0,1,0,.59Z"/><path class="cls-3" d="M75.72,100.91H54.85a.3.3,0,0,1-.3-.3V92.74a.3.3,0,0,1,.3-.3H79.54a.3.3,0,0,1,.3.3v4.88a.3.3,0,1,1-.59,0V93H55.15v7.27H75.72a.3.3,0,0,1,0,.59Z"/><rect class="cls-7" x="56.24" y="70.56" width="24.68" height="7.87" transform="translate(12.5 -9.81) rotate(9)"/><path class="cls-3" d="M78.72,79h0L59.24,75.94a.3.3,0,0,1,.09-.59l19.14,3,1.14-7.18L55.82,67.43,55,72.59a.3.3,0,1,1-.59-.09L55.28,67a.3.3,0,0,1,.34-.25L80,70.66a.3.3,0,0,1,.25.34L79,78.77a.3.3,0,0,1-.29.25Z"/><path class="cls-3" d="M120.84,119.16h-2a.3.3,0,0,1,0-.59h2a.3.3,0,0,1,0,.59Z"/><path class="cls-3" d="M123.16,107.28h-4.34a.3.3,0,1,1,0-.59h4.34a.3.3,0,0,1,0,.59Z"/><path class="cls-3" d="M124.64,113.22H120.3a.3.3,0,1,1,0-.59h4.34a.3.3,0,1,1,0,.59Z"/><path class="cls-3" d="M120.84,101.34h-2a.3.3,0,1,1,0-.59h2a.3.3,0,1,1,0,.59Z"/><path class="cls-3" d="M124.64,95.4h-5.82a.3.3,0,0,1,0-.59h5.82a.3.3,0,0,1,0,.59Z"/><path class="cls-3" d="M124.64,89.46h-5.82a.3.3,0,0,1,0-.59h5.82a.3.3,0,0,1,0,.59Z"/><path class="cls-3" d="M124.64,83.52h-5.82a.3.3,0,0,1,0-.59h5.82a.3.3,0,0,1,0,.59Z"/><path class="cls-3" d="M124.64,77.58h-5.82a.3.3,0,0,1,0-.59h5.82a.3.3,0,0,1,0,.59Z"/><path class="cls-3" d="M124.64,71.64h-5.82a.3.3,0,0,1,0-.59h5.82a.3.3,0,0,1,0,.59Z"/><path class="cls-3" d="M123,65.7h-2.44a.3.3,0,0,1,0-.59H123a.3.3,0,0,1,0,.59Z"/><path class="cls-3" d="M120.53,65.7h-1.71a.3.3,0,0,1,0-.59h1.71a.3.3,0,0,1,0,.59Z"/><path class="cls-3" d="M124.64,59.76h-5.82a.3.3,0,0,1,0-.59h5.82a.3.3,0,0,1,0,.59Z"/><path class="cls-3" d="M122.34,53.82h-3.52a.3.3,0,0,1,0-.59h3.52a.3.3,0,0,1,0,.59Z"/><path class="cls-3" d="M124.64,47.88h-1.85a.3.3,0,0,1,0-.59h1.85a.3.3,0,0,1,0,.59Z"/><path class="cls-3" d="M120.94,47.88h-2.12a.3.3,0,0,1,0-.59h2.12a.3.3,0,1,1,0,.59Z"/><path class="cls-3" d="M124.64,41.94h-5.82a.3.3,0,0,1,0-.59h5.82a.3.3,0,0,1,0,.59Z"/><path class="cls-3" d="M124.64,36H120.9a.3.3,0,0,1,0-.59h3.74a.3.3,0,0,1,0,.59Z"/><path class="cls-3" d="M124.64,30.06h-5.82a.3.3,0,0,1,0-.59h5.82a.3.3,0,0,1,0,.59Z"/><path class="cls-3" d="M120.9,32.19a.3.3,0,0,1-.21-.09L118.61,30a.3.3,0,0,1,.42-.42l2.08,2.12a.3.3,0,0,1-.21.5Z"/><path class="cls-3" d="M120.94,44.11a.3.3,0,0,1-.21-.09l-2.12-2.16a.3.3,0,0,1,0-.42l5.62-5.73-2.1-2.14a.3.3,0,0,1,.42-.42l2.3,2.35a.3.3,0,0,1,0,.42l-5.62,5.73,1.92,2a.3.3,0,0,1-.21.5Z"/><path class="cls-3" d="M120.53,55.57a.3.3,0,0,1-.21-.09l-1.71-1.75a.3.3,0,0,1,0-.42l5.62-5.73-1.65-1.68a.3.3,0,0,1,.42-.42l1.85,1.89a.3.3,0,0,1,0,.42l-5.62,5.73,1.51,1.54a.3.3,0,0,1-.21.5Z"/><path class="cls-3" d="M120.2,76.17a.3.3,0,0,1-.21-.5l4.23-4.32-5.62-5.73a.3.3,0,0,1,0-.42l5.62-5.73L122,57.16a.3.3,0,0,1,.42-.42l2.46,2.51a.3.3,0,0,1,0,.42l-5.62,5.73,5.62,5.73a.3.3,0,0,1,0,.42l-4.44,4.53A.3.3,0,0,1,120.2,76.17Z"/><path class="cls-3" d="M123,81.82a.3.3,0,0,1-.21-.09l-4.15-4.24a.3.3,0,0,1,0-.42l.76-.77a.3.3,0,0,1,.42.42l-.55.57,3.95,4a.3.3,0,0,1-.21.5Z"/><path class="cls-3" d="M120.84,99.28a.3.3,0,0,1-.21-.5l3.6-3.67-5.62-5.73a.3.3,0,0,1,0-.42l4.34-4.43a.3.3,0,1,1,.42.42l-4.14,4.22,5.62,5.73a.3.3,0,0,1,0,.42l-3.8,3.88A.3.3,0,0,1,120.84,99.28Z"/><path class="cls-3" d="M123.24,108.71a.3.3,0,0,1-.21-.5l1.2-1.22-3.95-4a.3.3,0,1,1,.42-.42l4.15,4.23a.3.3,0,0,1,0,.42l-1.4,1.43A.3.3,0,0,1,123.24,108.71Z"/><path class="cls-3" d="M120.74,115.18a.3.3,0,0,1-.21-.09l-1.92-2a.3.3,0,0,1,0-.42l2.38-2.42a.3.3,0,1,1,.42.42l-2.17,2.22,1.71,1.75a.3.3,0,0,1-.21.5Z"/><path class="cls-3" d="M124.64,119.16a.3.3,0,0,1-.21-.09l-2.32-2.36a.3.3,0,1,1,.42-.42l2.32,2.36a.3.3,0,0,1-.21.5Z"/><path class="cls-3" d="M118.82,119.16a.3.3,0,0,1-.21-.51l5.62-5.68-5.62-5.78a.3.3,0,1,1,.43-.41l5.82,6a.3.3,0,0,1,0,.42L119,119.08A.3.3,0,0,1,118.82,119.16Z"/><path class="cls-3" d="M123.71,41.06a.3.3,0,0,1-.21-.09l-5-5.06a.3.3,0,0,1,0-.42l5.82-5.94a.3.3,0,0,1,.42.42l-5.62,5.73,4.75,4.85a.3.3,0,0,1-.21.5Z"/><path class="cls-3" d="M120.09,61.13a.3.3,0,0,1-.21-.09l-1.33-1.36a.3.3,0,0,1,0-.42l5.62-5.73-5.62-5.73a.3.3,0,0,1,0-.42l4-4.11a.3.3,0,0,1,.42.42l-3.83,3.9,5.62,5.73a.3.3,0,0,1,0,.42l-5.62,5.73,1.13,1.15a.3.3,0,0,1-.21.5Z"/><path class="cls-3" d="M123.44,66.87a.3.3,0,0,1-.21-.5l.94-1-2.89-2.95a.3.3,0,0,1,.42-.42l3.09,3.15a.3.3,0,0,1,0,.42l-1.14,1.16A.3.3,0,0,1,123.44,66.87Z"/><path class="cls-3" d="M120.77,73.7a.3.3,0,0,1-.21-.09l-2-2.05a.3.3,0,0,1,0-.42l3.58-3.65a.3.3,0,0,1,.42.42l-3.38,3.45L121,73.19a.3.3,0,0,1-.21.5Z"/><path class="cls-3" d="M123.6,90.46a.3.3,0,0,1-.21-.5l.77-.79-5.62-5.73a.3.3,0,0,1,0-.42l5.62-5.73-1.71-1.75a.3.3,0,0,1,.42-.42l1.92,2a.3.3,0,0,1,0,.42l-5.62,5.73L124.79,89a.3.3,0,0,1,0,.42l-1,1A.3.3,0,0,1,123.6,90.46Z"/><path class="cls-3" d="M118.76,107.28a.3.3,0,0,1-.21-.5l5.62-5.73-5.62-5.73a.3.3,0,0,1,0-.42l1.64-1.68a.3.3,0,1,1,.42.42l-1.44,1.47,5.62,5.73a.3.3,0,0,1,0,.42L119,107.19A.3.3,0,0,1,118.76,107.28Z"/><path class="cls-3" d="M118.76,86.32a.3.3,0,0,1-.3-.3V58.64a.3.3,0,1,1,.59,0V86A.3.3,0,0,1,118.76,86.32Z"/><path class="cls-3" d="M118.76,56.12a.3.3,0,0,1-.3-.3v-16a.3.3,0,1,1,.59,0v16A.3.3,0,0,1,118.76,56.12Z"/><path class="cls-3" d="M124.7,44a.3.3,0,0,1-.3-.3V30.06h-5.35v7.49a.3.3,0,1,1-.59,0V29.77a.3.3,0,0,1,.3-.3h5.94a.3.3,0,0,1,.3.3v14A.3.3,0,0,1,124.7,44Z"/><path class="cls-3" d="M124.7,68a.3.3,0,0,1-.3-.3V45.3a.3.3,0,1,1,.59,0v22.4A.3.3,0,0,1,124.7,68Z"/><path class="cls-3" d="M124.7,98.15a.3.3,0,0,1-.3-.3V70.55a.3.3,0,1,1,.59,0v27.3A.3.3,0,0,1,124.7,98.15Z"/><path class="cls-3" d="M124.7,119.26a.3.3,0,0,1-.3-.3V100.21a.3.3,0,0,1,.59,0V119A.3.3,0,0,1,124.7,119.26Z"/><path class="cls-3" d="M118.76,119.35a.3.3,0,0,1-.3-.3V117.7a.3.3,0,1,1,.59,0v1.36A.3.3,0,0,1,118.76,119.35Z"/><path class="cls-3" d="M118.76,116a.3.3,0,0,1-.3-.3V88.54a.3.3,0,1,1,.59,0v27.13A.3.3,0,0,1,118.76,116Z"/><path class="cls-3" d="M142.54,30a.3.3,0,0,1-.3-.3V23.95a.3.3,0,1,1,.59,0v5.76A.3.3,0,0,1,142.54,30Z"/><path class="cls-3" d="M136.6,30a.3.3,0,0,1-.3-.3V23.89a.3.3,0,1,1,.59,0v5.82A.3.3,0,0,1,136.6,30Z"/><path class="cls-3" d="M130.66,30a.3.3,0,0,1-.3-.3V23.89a.3.3,0,1,1,.59,0v5.82A.3.3,0,0,1,130.66,30Z"/><path class="cls-3" d="M124.72,30a.3.3,0,0,1-.3-.3V23.89a.3.3,0,0,1,.59,0v5.82A.3.3,0,0,1,124.72,30Z"/><path class="cls-3" d="M118.78,30a.3.3,0,0,1-.3-.3V23.89a.3.3,0,1,1,.59,0v5.82A.3.3,0,0,1,118.78,30Z"/><path class="cls-3" d="M112.84,30a.3.3,0,0,1-.3-.3V23.89a.3.3,0,1,1,.59,0v5.82A.3.3,0,0,1,112.84,30Z"/><path class="cls-3" d="M106.9,28.29a.3.3,0,0,1-.3-.3V25.56a.3.3,0,0,1,.59,0V28A.3.3,0,0,1,106.9,28.29Z"/><path class="cls-3" d="M106.9,30a.3.3,0,0,1-.3-.3V28a.3.3,0,0,1,.59,0v1.71A.3.3,0,0,1,106.9,30Z"/><path class="cls-3" d="M101,30a.3.3,0,0,1-.3-.3V23.89a.3.3,0,1,1,.59,0v5.82A.3.3,0,0,1,101,30Z"/><path class="cls-3" d="M95,30a.3.3,0,0,1-.3-.3V26.19a.3.3,0,0,1,.59,0v3.52A.3.3,0,0,1,95,30Z"/><path class="cls-3" d="M89.08,26a.3.3,0,0,1-.3-.3V23.89a.3.3,0,0,1,.59,0v1.85A.3.3,0,0,1,89.08,26Z"/><path class="cls-3" d="M89.08,30a.3.3,0,0,1-.3-.3V27.59a.3.3,0,0,1,.59,0v2.12A.3.3,0,0,1,89.08,30Z"/><path class="cls-3" d="M83.14,30a.3.3,0,0,1-.3-.3V23.89a.3.3,0,0,1,.59,0v5.82A.3.3,0,0,1,83.14,30Z"/><path class="cls-3" d="M77.2,27.93a.3.3,0,0,1-.3-.3V23.89a.3.3,0,1,1,.59,0v3.74A.3.3,0,0,1,77.2,27.93Z"/><path class="cls-3" d="M71.26,30a.3.3,0,0,1-.3-.3V23.89a.3.3,0,0,1,.59,0v5.82A.3.3,0,0,1,71.26,30Z"/><path class="cls-3" d="M71.26,30a.3.3,0,0,1-.21-.51l2.12-2.08a.3.3,0,0,1,.42.42l-2.12,2.08A.3.3,0,0,1,71.26,30Z"/><path class="cls-3" d="M83.14,30a.3.3,0,0,1-.21-.08L77.2,24.3l-2.14,2.1a.3.3,0,1,1-.42-.42L77,23.67a.3.3,0,0,1,.42,0l5.73,5.62,2-1.92a.3.3,0,1,1,.42.42l-2.16,2.12A.3.3,0,0,1,83.14,30Z"/><path class="cls-3" d="M95,30a.3.3,0,0,1-.21-.08L89.08,24.3,87.4,25.95a.3.3,0,1,1-.42-.42l1.89-1.85a.3.3,0,0,1,.42,0L95,29.29l1.54-1.51a.3.3,0,1,1,.42.42l-1.75,1.71A.3.3,0,0,1,95,30Z"/><path class="cls-3" d="M106.9,30a.3.3,0,0,1-.21-.08L101,24.3l-2.3,2.26a.3.3,0,1,1-.42-.42l2.51-2.46a.3.3,0,0,1,.42,0l5.73,5.62,5.73-5.62a.3.3,0,0,1,.42,0l4.53,4.44a.3.3,0,1,1-.42.42l-4.32-4.23-5.73,5.62A.3.3,0,0,1,106.9,30Z"/><path class="cls-3" d="M118.78,30a.3.3,0,0,1-.21-.08l-.77-.76a.3.3,0,1,1,.42-.42l.57.55,4-3.95a.3.3,0,1,1,.42.42L119,29.92A.3.3,0,0,1,118.78,30Z"/><path class="cls-3" d="M130.66,30a.3.3,0,0,1-.21-.08L126,25.58a.3.3,0,1,1,.42-.42l4.22,4.14,5.73-5.62a.3.3,0,0,1,.42,0l3.88,3.8a.3.3,0,1,1-.42.42l-3.67-3.6-5.73,5.62A.3.3,0,0,1,130.66,30Z"/><path class="cls-3" d="M77.2,30.06A.3.3,0,0,1,77,30l-5.94-5.82a.3.3,0,1,1,.42-.42l5.73,5.62L82,24.6a.3.3,0,1,1,.42.42l-5.06,5A.3.3,0,0,1,77.2,30.06Z"/><path class="cls-3" d="M101,30.06a.3.3,0,0,1-.21-.08L95,24.36,89.29,30a.3.3,0,0,1-.42,0l-4.11-4a.3.3,0,1,1,.42-.42l3.9,3.83,5.73-5.62a.3.3,0,0,1,.42,0L101,29.35l1.15-1.13a.3.3,0,1,1,.42.42L101.17,30A.3.3,0,0,1,101,30.06Z"/><path class="cls-3" d="M103.75,27.33a.3.3,0,0,1-.21-.51l3.15-3.09a.3.3,0,0,1,.42,0l1.16,1.14a.3.3,0,1,1-.42.42l-1-.94L104,27.25A.3.3,0,0,1,103.75,27.33Z"/><path class="cls-3" d="M112.84,30.06a.3.3,0,0,1-.21-.08L109,26.4a.3.3,0,1,1,.42-.42l3.45,3.38,1.85-1.81a.3.3,0,1,1,.42.42L113,30A.3.3,0,0,1,112.84,30.06Z"/><path class="cls-3" d="M124.72,30.06a.3.3,0,0,1-.21-.08l-5.73-5.62L117,26.07a.3.3,0,1,1-.42-.42l2-1.92a.3.3,0,0,1,.42,0l5.73,5.62,5.73-5.62a.3.3,0,0,1,.42,0l1,1a.3.3,0,1,1-.42.42l-.79-.77L124.93,30A.3.3,0,0,1,124.72,30.06Z"/><path class="cls-3" d="M136.6,30.06a.3.3,0,0,1-.21-.08l-1.68-1.64a.3.3,0,1,1,.42-.42l1.47,1.44,5.73-5.62a.3.3,0,1,1,.42.42L136.81,30A.3.3,0,0,1,136.6,30.06Z"/><path class="cls-3" d="M127.51,30.06H100.14a.3.3,0,0,1,0-.59h27.37a.3.3,0,1,1,0,.59Z"/><path class="cls-3" d="M97.32,30.06h-16a.3.3,0,0,1,0-.59h16a.3.3,0,0,1,0,.59Z"/><path class="cls-3" d="M71.26,30.06a.3.3,0,0,1-.3-.3V23.83a.3.3,0,0,1,.3-.3h14a.3.3,0,0,1,0,.59H71.56v5.64A.3.3,0,0,1,71.26,30.06Z"/><path class="cls-3" d="M109.19,24.12H86.79a.3.3,0,0,1,0-.59h22.4a.3.3,0,0,1,0,.59Z"/><path class="cls-3" d="M79.05,30.06H65a.3.3,0,1,1,0-.59h14a.3.3,0,0,1,0,.59Z"/><path class="cls-3" d="M65,68.87a.3.3,0,0,1-.3-.3V29.77a.3.3,0,0,1,.09-.21l6.23-5.94.08-.05L121.59,0a.3.3,0,0,1,.35.07l20.74,23.53a.3.3,0,0,1-.22.49H112a.3.3,0,0,1,0-.59H141.8L121.64.66,71.43,24.08l-6.1,5.82V68.57A.3.3,0,0,1,65,68.87Z"/><path class="cls-3" d="M130,30.06a.3.3,0,0,1,0-.59l12.5-.06h0a.3.3,0,0,1,0,.59l-12.5.06Z"/><path class="cls-3" d="M124.66,18.23h-5.82a.3.3,0,0,1,0-.59h5.82a.3.3,0,0,1,0,.59Z"/><path class="cls-3" d="M124.66,12.29h-3.74a.3.3,0,0,1,0-.59h3.74a.3.3,0,0,1,0,.59Z"/><path class="cls-3" d="M124.66,6.35h-5.82a.3.3,0,0,1,0-.59h5.82a.3.3,0,0,1,0,.59Z"/><path class="cls-3" d="M120.92,8.47a.3.3,0,0,1-.21-.09l-2.08-2.12a.3.3,0,0,1,.42-.42L121.13,8a.3.3,0,0,1-.21.5Z"/><path class="cls-3" d="M121,20.39a.3.3,0,0,1-.21-.09l-2.12-2.16a.3.3,0,0,1,0-.42L124.25,12l-2.1-2.14a.3.3,0,0,1,.42-.42l2.3,2.35a.3.3,0,0,1,0,.42l-5.62,5.73,1.92,2a.3.3,0,0,1-.21.5Z"/><path class="cls-3" d="M124.66,24.17a.3.3,0,0,1-.21-.09l-1.85-1.89a.3.3,0,0,1,.42-.42l1.85,1.89a.3.3,0,0,1-.21.5Z"/><path class="cls-3" d="M123.74,17.35a.3.3,0,0,1-.21-.09l-5-5.06a.3.3,0,0,1,0-.42l5.82-5.94a.3.3,0,0,1,.42.42L119.2,12l4.75,4.85a.3.3,0,0,1-.21.5Z"/><path class="cls-3" d="M118.78,24.17a.3.3,0,0,1-.21-.5l4-4.11A.3.3,0,0,1,123,20l-4,4.11A.3.3,0,0,1,118.78,24.17Z"/><path class="cls-3" d="M118.78,24.17a.3.3,0,0,1-.3-.3v-7.8a.3.3,0,1,1,.59,0v7.8A.3.3,0,0,1,118.78,24.17Z"/><path class="cls-3" d="M124.72,24.27a.3.3,0,0,1-.3-.3V6.35h-5.35v7.49a.3.3,0,1,1-.59,0V6.05a.3.3,0,0,1,.3-.3h5.94a.3.3,0,0,1,.3.3V24A.3.3,0,0,1,124.72,24.27Z"/><path class="cls-3" d="M118.78,6.38a.3.3,0,0,1-.26-.43L121.46.16a.3.3,0,0,1,.26-.16.31.31,0,0,1,.26.16l3,5.79a.3.3,0,0,1-.53.27L121.72.95,119,6.22A.3.3,0,0,1,118.78,6.38Z"/><g id="_Group_5" data-name="&lt;Group&gt;"><path class="cls-1" d="M122.26,89.26h0a12.08,12.08,0,0,1,12.08,12.08V123a0,0,0,0,1,0,0H110.18a0,0,0,0,1,0,0V101.34A12.08,12.08,0,0,1,122.26,89.26Z"/><path class="cls-3" d="M134.35,122a.3.3,0,0,1-.3-.3V92.26a2.7,2.7,0,0,0-2.7-2.7H113.18a2.7,2.7,0,0,0-2.7,2.7v29.47a.3.3,0,0,1-.59,0V92.26a3.3,3.3,0,0,1,3.3-3.3h18.17a3.3,3.3,0,0,1,3.3,3.3v29.47A.3.3,0,0,1,134.35,122Z"/><path class="cls-3" d="M133,122a.3.3,0,0,1-.3-.3V94.65H111.82v27.07a.3.3,0,0,1-.59,0V94.36a.3.3,0,0,1,.3-.3H133a.3.3,0,0,1,.3.3v27.37A.3.3,0,0,1,133,122Z"/><path class="cls-3" d="M124.31,92.49h-4.1a.74.74,0,1,1,0-1.48h4.1a.74.74,0,1,1,0,1.48Zm-4.1-.89a.15.15,0,1,0,0,.3h4.1a.15.15,0,1,0,0-.3Z"/><path class="cls-3" d="M130.26,92.49h-.17a.74.74,0,1,1,0-1.48h.17a.74.74,0,1,1,0,1.48Zm-.17-.89a.15.15,0,1,0,0,.3h.17a.15.15,0,0,0,0-.3Z"/></g><path class="cls-3" d="M124.51,117.13H119a.3.3,0,1,1,0-.59h5.54a.3.3,0,0,1,0,.59Z"/><path class="cls-3" d="M125.6,114.89h-7.71a.3.3,0,1,1,0-.59h7.71a.3.3,0,0,1,0,.59Z"/><path class="cls-3" d="M127.65,103.91H116.4a.3.3,0,1,1,0-.59h11.25a.3.3,0,0,1,0,.59Z"/><path class="cls-3" d="M121.13,106H116.4a.3.3,0,1,1,0-.59h4.73a.3.3,0,0,1,0,.59Z"/><path class="cls-3" d="M127.65,106H123a.3.3,0,0,1,0-.59h4.66a.3.3,0,1,1,0,.59Z"/><rect class="cls-4" x="116.86" y="109.11" width="11.51" height="3.67"/><path class="cls-3" d="M125.87,112.34h-9.73a.3.3,0,0,1-.3-.3v-3.67a.3.3,0,0,1,.3-.3h11.51a.3.3,0,0,1,.3.3v2.28a.3.3,0,0,1-.59,0v-2H116.43v3.07h9.43a.3.3,0,0,1,0,.59Z"/><rect class="cls-4" x="116.88" y="98.72" width="11.51" height="3.67"/><path class="cls-3" d="M127.65,101.94h-9.18a.3.3,0,0,1,0-.59h8.88V98.27H116.43v2.28a.3.3,0,0,1-.59,0V98a.3.3,0,0,1,.3-.3h11.51a.3.3,0,0,1,.3.3v3.67A.3.3,0,0,1,127.65,101.94Z"/><g id="_Group_6" data-name="&lt;Group&gt;"><path class="cls-3" d="M107,123.37H50.6a.3.3,0,0,1,0-.59H107a.3.3,0,1,1,0,.59Z"/></g><g id="_Group_7" data-name="&lt;Group&gt;"><path class="cls-3" d="M134.08,123.37h-3.19a.3.3,0,0,1,0-.59h3.19a.3.3,0,0,1,0,.59Z"/></g><g id="_Group_8" data-name="&lt;Group&gt;"><path class="cls-3" d="M127.48,123.37H112.85a.3.3,0,0,1,0-.59h14.63a.3.3,0,0,1,0,.59Z"/></g><g id="_Group_9" data-name="&lt;Group&gt;"><path class="cls-3" d="M11.7,123.37H3.12a.3.3,0,0,1,0-.59H11.7a.3.3,0,0,1,0,.59Z"/></g><g id="_Group_10" data-name="&lt;Group&gt;"><path class="cls-3" d="M40.77,123.37h-23a.3.3,0,0,1,0-.59h23a.3.3,0,0,1,0,.59Z"/></g></svg>