<svg id="Layer_1" data-name="Layer 1" xmlns="http://www.w3.org/2000/svg" xmlns:xlink="http://www.w3.org/1999/xlink" viewBox="0 0 105.2 73.87"><defs><style>.cls-1{fill:none;}.cls-2{fill:#ecf8fb;}.cls-3{fill:#ffc259;}.cls-4{fill:#abdff5;}.cls-5{fill:#fff;}.cls-6{fill:#637aaa;}.cls-7{clip-path:url(#clip-path);}</style><clipPath id="clip-path"><rect class="cls-1" x="36.15" y="20.42" width="33.09" height="12.15" rx="4.56" ry="4.56"/></clipPath></defs><title>Artboard 16</title><path class="cls-2" d="M27.13,72.62c-2.23-.38-29-3.76-27-28.74S4.55,11.38,15,8.63,50.66-7.12,70.51,5.25s41.27,23.46,32.77,43.2S93.39,74.78,71.21,73.77,37.72,74.4,27.13,72.62Z"/><path class="cls-3" d="M60.46,20.34a.26.26,0,0,1-.2-.43l.57-.66a.26.26,0,1,1,.39.34l-.57.66A.26.26,0,0,1,60.46,20.34ZM61.61,19a.26.26,0,0,1-.2-.43l.57-.66a.26.26,0,1,1,.4.34l-.57.66A.26.26,0,0,1,61.61,19Zm1.14-1.32a.26.26,0,0,1-.2-.43l.57-.66a.26.26,0,1,1,.39.34l-.57.66A.26.26,0,0,1,62.75,17.71Zm1.14-1.32a.26.26,0,0,1-.2-.43l.58-.66a.26.26,0,0,1,.39.35l-.57.65A.26.26,0,0,1,63.89,16.39ZM65,15.09a.26.26,0,0,1-.19-.44l.58-.65a.26.26,0,1,1,.39.35l-.58.65A.26.26,0,0,1,65,15.09Zm1.17-1.29a.26.26,0,0,1-.19-.44l.59-.64a.26.26,0,0,1,.38.36l-.59.64A.26.26,0,0,1,66.21,13.8Zm1.19-1.27a.26.26,0,0,1-.19-.44l.61-.63a.26.26,0,0,1,.37.37l-.6.62A.26.26,0,0,1,67.41,12.52Zm1.22-1.24a.26.26,0,0,1-.18-.45l.62-.61a.26.26,0,0,1,.36.38l-.62.61A.26.26,0,0,1,68.63,11.28Z"/><path class="cls-3" d="M100.66,13.51h-.07c-3.49-1-5.83-3.4-8.09-5.7a28.83,28.83,0,0,0-4.75-4.16c-2.84-1.84-6-1.84-9.54,0-3.16,1.63-6.12,4.42-8.28,6.46a.26.26,0,1,1-.36-.38c2.18-2.06,5.18-4.89,8.4-6.55a11.94,11.94,0,0,1,4.95-1.44A8.63,8.63,0,0,1,88,3.2a29.22,29.22,0,0,1,4.83,4.24c2.31,2.35,4.5,4.58,7.86,5.56a.26.26,0,0,1-.07.51Z"/><path class="cls-3" d="M2.79,44.49a.26.26,0,0,1-.21-.41c1.55-2.15,3-4.41,4.4-6.6,1-1.53,2-3.11,3-4.65a19.29,19.29,0,0,1,4.28-4.67A10.62,10.62,0,0,1,20.19,26a10.85,10.85,0,0,1,5.63,1.33,12.43,12.43,0,0,1,4.32,3.85l.75,1.09c1.49,2.18,2.9,4.25,4.68,5.37,2,1.23,4.19,1.21,7-.06,4.65-2.08,8.16-6.38,11.55-10.54,1.25-1.54,2.43-3,3.67-4.33.73-.79,1.51-1.67,2.46-2.75a.26.26,0,0,1,.39.34c-.95,1.08-1.73,2-2.47,2.76-1.22,1.33-2.4,2.77-3.65,4.3-3.43,4.21-7,8.55-11.74,10.69-3,1.35-5.4,1.36-7.52,0-1.87-1.18-3.31-3.29-4.83-5.52l-.74-1.08a11.29,11.29,0,0,0-9.5-5c-3.66.18-6.85,2.35-9.77,6.66-1,1.53-2,3.11-3,4.63C6,40,4.57,42.22,3,44.38A.26.26,0,0,1,2.79,44.49Z"/><path class="cls-4" d="M25.88,33.91a.26.26,0,0,1-.22-.4l.48-.73a.26.26,0,1,1,.44.29l-.48.73A.26.26,0,0,1,25.88,33.91Zm1-1.46a.26.26,0,0,1-.22-.4l.48-.73a.26.26,0,1,1,.44.29l-.48.73A.26.26,0,0,1,26.83,32.45Zm1-1.46a.26.26,0,0,1-.22-.4l.48-.73a.26.26,0,1,1,.44.29l-.48.73A.26.26,0,0,1,27.79,31Zm1-1.46a.26.26,0,0,1-.22-.4L29,28.4a.26.26,0,1,1,.44.29l-.48.73A.26.26,0,0,1,28.74,29.53Zm1-1.46a.26.26,0,0,1-.22-.4l.48-.73a.26.26,0,0,1,.44.29l-.48.73A.26.26,0,0,1,29.7,28.08Zm1-1.46a.26.26,0,0,1-.22-.4l.48-.73a.26.26,0,1,1,.44.29l-.48.73A.26.26,0,0,1,30.65,26.62Zm1-1.46a.26.26,0,0,1-.22-.4l.48-.73a.26.26,0,1,1,.44.29l-.48.73A.26.26,0,0,1,31.61,25.16Zm1-1.46a.26.26,0,0,1-.22-.4l.21-.32a.26.26,0,0,1,.44.29l-.21.32A.26.26,0,0,1,32.56,23.7Z"/><path class="cls-4" d="M83.63,28.57a9.33,9.33,0,0,1-5.47-1.89,90.79,90.79,0,0,1-8-6.71C65.65,15.84,61,11.58,55.56,9.44a12.21,12.21,0,0,0-12.31,1.32c-3.36,2.37-6.12,6.19-8.6,10L33,23.26a.26.26,0,0,1-.44-.29l1.66-2.53c2.51-3.82,5.3-7.69,8.73-10.11A12.7,12.7,0,0,1,55.75,9C61.24,11.13,66,15.42,70.54,19.58a89,89,0,0,0,7.92,6.67,8.46,8.46,0,0,0,6.75,1.64c6.56-1.31,12.24-10.46,15.29-15.38a.26.26,0,0,1,.44.28A73.4,73.4,0,0,1,94.49,22c-3.15,3.66-6.24,5.82-9.17,6.4A8.57,8.57,0,0,1,83.63,28.57Z"/><path class="cls-4" d="M3.07,69.37a.26.26,0,0,1-.22-.4c7.39-11.78,15-23.5,20.81-32.4l2-3.06a.26.26,0,0,1,.44.29l-2,3.06c-5.81,8.89-13.42,20.61-20.8,32.39A.26.26,0,0,1,3.07,69.37Z"/><circle class="cls-5" cx="100.82" cy="13.25" r="0.87"/><path class="cls-4" d="M100.82,14.29a1,1,0,1,1,1-1A1,1,0,0,1,100.82,14.29Zm0-1.74a.69.69,0,1,0,.69.69A.69.69,0,0,0,100.82,12.56Z"/><rect class="cls-5" x="32.46" y="16.46" width="39.45" height="54.98" rx="14.8" ry="14.8"/><rect class="cls-4" x="33.33" y="17.33" width="39.45" height="54.98" rx="14.8" ry="14.8"/><path class="cls-6" d="M69.78,71.61H34.59a2.31,2.31,0,0,1-2.31-2.31V18.59a2.31,2.31,0,0,1,2.31-2.31H69.78a2.31,2.31,0,0,1,2.31,2.31V69.3A2.31,2.31,0,0,1,69.78,71.61Zm-35.18-55a2,2,0,0,0-2,2V69.3a2,2,0,0,0,2,2H69.78a2,2,0,0,0,2-2V18.59a2,2,0,0,0-2-2Z"/><rect class="cls-2" x="36.15" y="20.42" width="33.09" height="12.15" rx="4.56" ry="4.56"/><g class="cls-7"><rect class="cls-5" x="44.77" y="3.33" width="7.43" height="37.18" transform="translate(29.7 -27.87) rotate(45)"/><rect class="cls-5" x="53.54" y="10.23" width="3.71" height="37.18" transform="translate(36.61 -30.73) rotate(45)"/><rect class="cls-5" x="57.39" y="14.59" width="3.71" height="37.18" transform="translate(40.82 -32.18) rotate(45)"/></g><path class="cls-6" d="M67.36,32.74H38A2.06,2.06,0,0,1,36,30.69V22.3A2.06,2.06,0,0,1,38,20.25H67.36a2.06,2.06,0,0,1,2.06,2.06v8.39A2.06,2.06,0,0,1,67.36,32.74ZM38,20.6a1.71,1.71,0,0,0-1.71,1.71v8.39A1.71,1.71,0,0,0,38,32.39H67.36a1.71,1.71,0,0,0,1.71-1.71V22.3a1.71,1.71,0,0,0-1.71-1.71Z"/><rect class="cls-5" x="62.93" y="36.04" width="6.61" height="6.38" rx="2.39" ry="2.39"/><rect class="cls-5" x="54.3" y="36.04" width="6.61" height="6.38" rx="2.39" ry="2.39"/><rect class="cls-5" x="45.66" y="36.04" width="6.61" height="6.38" rx="2.39" ry="2.39"/><rect class="cls-5" x="37.02" y="36.04" width="6.61" height="6.38" rx="2.39" ry="2.39"/><rect class="cls-5" x="62.93" y="44.85" width="6.61" height="6.38" rx="2.39" ry="2.39"/><rect class="cls-5" x="54.3" y="44.85" width="6.61" height="6.38" rx="2.39" ry="2.39"/><rect class="cls-5" x="45.66" y="44.85" width="6.61" height="6.38" rx="2.39" ry="2.39"/><rect class="cls-5" x="37.02" y="44.85" width="6.61" height="6.38" rx="2.39" ry="2.39"/><rect class="cls-5" x="62.93" y="53.66" width="6.61" height="6.38" rx="2.39" ry="2.39"/><rect class="cls-5" x="54.3" y="53.66" width="6.61" height="6.38" rx="2.39" ry="2.39"/><rect class="cls-5" x="45.66" y="53.66" width="6.61" height="6.38" rx="2.39" ry="2.39"/><rect class="cls-5" x="62.93" y="62.48" width="6.61" height="6.38" rx="2.39" ry="2.39"/><rect class="cls-5" x="54.3" y="62.48" width="6.61" height="6.38" rx="2.39" ry="2.39"/><rect class="cls-5" x="45.66" y="62.48" width="6.61" height="6.38" rx="2.39" ry="2.39"/><path class="cls-6" d="M65.62,42.15h-.5a3.23,3.23,0,0,1-3.23-3.23v-.27a3.23,3.23,0,0,1,3.23-3.23h.5a3.23,3.23,0,0,1,3.23,3.23v.27A3.23,3.23,0,0,1,65.62,42.15Zm-.5-6.38a2.88,2.88,0,0,0-2.88,2.88v.27a2.88,2.88,0,0,0,2.88,2.88h.5a2.88,2.88,0,0,0,2.88-2.88v-.27a2.88,2.88,0,0,0-2.88-2.88Z"/><path class="cls-6" d="M57,42.15h-.5a3.23,3.23,0,0,1-3.23-3.23v-.27a3.23,3.23,0,0,1,3.23-3.23H57a3.23,3.23,0,0,1,3.23,3.23v.27A3.23,3.23,0,0,1,57,42.15Zm-.5-6.38a2.88,2.88,0,0,0-2.88,2.88v.27a2.88,2.88,0,0,0,2.88,2.88H57a2.88,2.88,0,0,0,2.88-2.88v-.27A2.88,2.88,0,0,0,57,35.77Z"/><path class="cls-6" d="M48.35,42.15h-.5a3.23,3.23,0,0,1-3.23-3.23v-.27a3.23,3.23,0,0,1,3.23-3.23h.5a3.23,3.23,0,0,1,3.23,3.23v.27A3.23,3.23,0,0,1,48.35,42.15Zm-.5-6.38A2.88,2.88,0,0,0,45,38.65v.27a2.88,2.88,0,0,0,2.88,2.88h.5a2.88,2.88,0,0,0,2.88-2.88v-.27a2.88,2.88,0,0,0-2.88-2.88Z"/><path class="cls-6" d="M39.71,42.15h-.5A3.23,3.23,0,0,1,36,38.92v-.27a3.23,3.23,0,0,1,3.23-3.23h.5a3.23,3.23,0,0,1,3.23,3.23v.27A3.23,3.23,0,0,1,39.71,42.15Zm-.5-6.38a2.88,2.88,0,0,0-2.88,2.88v.27a2.88,2.88,0,0,0,2.88,2.88h.5a2.88,2.88,0,0,0,2.88-2.88v-.27a2.88,2.88,0,0,0-2.88-2.88Z"/><path class="cls-6" d="M65.62,51h-.5a3.23,3.23,0,0,1-3.23-3.23v-.27a3.23,3.23,0,0,1,3.23-3.23h.5a3.23,3.23,0,0,1,3.23,3.23v.27A3.23,3.23,0,0,1,65.62,51Zm-.5-6.38a2.88,2.88,0,0,0-2.88,2.88v.27a2.88,2.88,0,0,0,2.88,2.88h.5a2.88,2.88,0,0,0,2.88-2.88v-.27a2.88,2.88,0,0,0-2.88-2.88Z"/><path class="cls-6" d="M57,51h-.5a3.23,3.23,0,0,1-3.23-3.23v-.27a3.23,3.23,0,0,1,3.23-3.23H57a3.23,3.23,0,0,1,3.23,3.23v.27A3.23,3.23,0,0,1,57,51Zm-.5-6.38a2.88,2.88,0,0,0-2.88,2.88v.27a2.88,2.88,0,0,0,2.88,2.88H57a2.88,2.88,0,0,0,2.88-2.88v-.27A2.88,2.88,0,0,0,57,44.59Z"/><path class="cls-6" d="M48.35,51h-.5a3.23,3.23,0,0,1-3.23-3.23v-.27a3.23,3.23,0,0,1,3.23-3.23h.5a3.23,3.23,0,0,1,3.23,3.23v.27A3.23,3.23,0,0,1,48.35,51Zm-.5-6.38A2.88,2.88,0,0,0,45,47.47v.27a2.88,2.88,0,0,0,2.88,2.88h.5a2.88,2.88,0,0,0,2.88-2.88v-.27a2.88,2.88,0,0,0-2.88-2.88Z"/><path class="cls-6" d="M39.71,51h-.5A3.23,3.23,0,0,1,36,47.74v-.27a3.23,3.23,0,0,1,3.23-3.23h.5a3.23,3.23,0,0,1,3.23,3.23v.27A3.23,3.23,0,0,1,39.71,51Zm-.5-6.38a2.88,2.88,0,0,0-2.88,2.88v.27a2.88,2.88,0,0,0,2.88,2.88h.5a2.88,2.88,0,0,0,2.88-2.88v-.27a2.88,2.88,0,0,0-2.88-2.88Z"/><path class="cls-6" d="M65.62,59.78h-.5a3.23,3.23,0,0,1-3.23-3.23v-.27a3.23,3.23,0,0,1,3.23-3.23h.5a3.23,3.23,0,0,1,3.23,3.23v.27A3.23,3.23,0,0,1,65.62,59.78Zm-.5-6.38a2.88,2.88,0,0,0-2.88,2.88v.27a2.88,2.88,0,0,0,2.88,2.88h.5a2.88,2.88,0,0,0,2.88-2.88v-.27a2.88,2.88,0,0,0-2.88-2.88Z"/><path class="cls-6" d="M57,59.78h-.5a3.23,3.23,0,0,1-3.23-3.23v-.27a3.23,3.23,0,0,1,3.23-3.23H57a3.23,3.23,0,0,1,3.23,3.23v.27A3.23,3.23,0,0,1,57,59.78Zm-.5-6.38a2.88,2.88,0,0,0-2.88,2.88v.27a2.88,2.88,0,0,0,2.88,2.88H57a2.88,2.88,0,0,0,2.88-2.88v-.27A2.88,2.88,0,0,0,57,53.4Z"/><path class="cls-6" d="M48.35,59.78h-.5a3.23,3.23,0,0,1-3.23-3.23v-.27a3.23,3.23,0,0,1,3.23-3.23h.5a3.23,3.23,0,0,1,3.23,3.23v.27A3.23,3.23,0,0,1,48.35,59.78Zm-.5-6.38A2.88,2.88,0,0,0,45,56.28v.27a2.88,2.88,0,0,0,2.88,2.88h.5a2.88,2.88,0,0,0,2.88-2.88v-.27a2.88,2.88,0,0,0-2.88-2.88Z"/><path class="cls-6" d="M65.62,68.59h-.5a3.23,3.23,0,0,1-3.23-3.23V65.1a3.23,3.23,0,0,1,3.23-3.23h.5a3.23,3.23,0,0,1,3.23,3.23v.27A3.23,3.23,0,0,1,65.62,68.59Zm-.5-6.38a2.88,2.88,0,0,0-2.88,2.88v.27a2.88,2.88,0,0,0,2.88,2.88h.5a2.88,2.88,0,0,0,2.88-2.88V65.1a2.88,2.88,0,0,0-2.88-2.88Z"/><path class="cls-6" d="M57,68.59h-.5a3.23,3.23,0,0,1-3.23-3.23V65.1a3.23,3.23,0,0,1,3.23-3.23H57a3.23,3.23,0,0,1,3.23,3.23v.27A3.23,3.23,0,0,1,57,68.59Zm-.5-6.38A2.88,2.88,0,0,0,53.6,65.1v.27a2.88,2.88,0,0,0,2.88,2.88H57a2.88,2.88,0,0,0,2.88-2.88V65.1A2.88,2.88,0,0,0,57,62.22Z"/><path class="cls-6" d="M48.35,68.59h-.5a3.23,3.23,0,0,1-3.23-3.23V65.1a3.23,3.23,0,0,1,3.23-3.23h.5a3.23,3.23,0,0,1,3.23,3.23v.27A3.23,3.23,0,0,1,48.35,68.59Zm-.5-6.38A2.88,2.88,0,0,0,45,65.1v.27a2.88,2.88,0,0,0,2.88,2.88h.5a2.88,2.88,0,0,0,2.88-2.88V65.1a2.88,2.88,0,0,0-2.88-2.88Z"/><rect class="cls-5" x="36.94" y="54.02" width="6.61" height="15.19" rx="2.48" ry="2.48"/><path class="cls-6" d="M39.6,68.59h-.28A3.34,3.34,0,0,1,36,65.25V56.4a3.34,3.34,0,0,1,3.34-3.34h.28a3.34,3.34,0,0,1,3.34,3.34v8.86A3.34,3.34,0,0,1,39.6,68.59ZM39.32,53.4a3,3,0,0,0-3,3v8.86a3,3,0,0,0,3,3h.28a3,3,0,0,0,3-3V56.4a3,3,0,0,0-3-3Z"/><path class="cls-6" d="M73.83,42.1a7.79,7.79,0,0,1-2-.26.17.17,0,1,1,.09-.34A7.37,7.37,0,0,0,81,35.91L82.28,30a.17.17,0,0,1,.34.07L81.36,36a7.73,7.73,0,0,1-7.53,6.12Z"/><path class="cls-6" d="M82.69,30.23l-.11,0a.35.35,0,0,1-.22-.44l.46-1.33a.35.35,0,1,1,.66.23L83,30A.35.35,0,0,1,82.69,30.23Z"/><g id="_Group_" data-name="&lt;Group&gt;"><path class="cls-6" d="M82.2,29.87h-.06a.35.35,0,0,1-.28-.33L81.78,27a.35.35,0,1,1,.7,0l0,1.14a.35.35,0,0,1,.46.48l-.44,1A.35.35,0,0,1,82.2,29.87Z"/></g><path class="cls-6" d="M82.69,30.23a.35.35,0,0,1-.21-.07L82,29.8a.35.35,0,1,1,.41-.56l.49.36a.35.35,0,0,1-.21.63Z"/><g id="_Group_2" data-name="&lt;Group&gt;"><path class="cls-6" d="M26.82,44.18A8.93,8.93,0,0,1,20,41l-2.2-2.63a.17.17,0,1,1,.27-.22l2.2,2.63a8.58,8.58,0,0,0,9.14,2.7l3-.92a.17.17,0,1,1,.1.33l-3,.92A9,9,0,0,1,26.82,44.18Z"/></g><path class="cls-6" d="M18,38.57a.35.35,0,0,1-.25-.1L16.28,37a.35.35,0,0,1,.49-.5L18.24,38a.35.35,0,0,1-.25.6Z"/><path class="cls-6" d="M18,38.57a.35.35,0,0,1-.18-.05l-1.39-.84a.35.35,0,1,1,.36-.6l1.39.84a.35.35,0,0,1-.18.65Z"/><path class="cls-6" d="M18,38.57l-.11,0a.35.35,0,0,1-.22-.44l.09-.28a.35.35,0,1,1,.66.21l-.09.28A.35.35,0,0,1,18,38.57Z"/><path class="cls-6" d="M18.08,38.29a.35.35,0,0,1-.34-.28l-.28-1.34a.35.35,0,1,1,.68-.14l.28,1.34a.35.35,0,0,1-.27.41Z"/><path class="cls-6" d="M18,38.15a.35.35,0,0,1-.25-.11l-1.48-1.58a.35.35,0,1,1,.51-.48l1.48,1.58a.35.35,0,0,1-.25.59Z"/><g id="_Group_3" data-name="&lt;Group&gt;"><path class="cls-6" d="M51.2,27.78a.64.64,0,0,0-.48.9,2.86,2.86,0,0,0,5.42-.81.64.64,0,0,0-.73-.72Z"/></g><circle class="cls-6" cx="51.18" cy="23.98" r="0.54"/><circle class="cls-6" cx="55" cy="23.23" r="0.56"/><path class="cls-6" d="M53.7,24.24a.22.22,0,0,1-.05-.43l1.87-.47a.22.22,0,0,1,.11.42l-1.87.47Z"/><path class="cls-6" d="M49.89,25a.22.22,0,0,1-.05-.43l1.87-.47a.22.22,0,0,1,.11.42L49.95,25Z"/></svg>