<svg id="Layer_1" data-name="Layer 1" xmlns="http://www.w3.org/2000/svg" viewBox="0 0 75.75 79.17"><defs><style>.cls-1{fill:#abdff5;}.cls-2{fill:#f8f8f8;}.cls-3{fill:#ffe27a;}.cls-4{fill:#ffefa6;}.cls-5{fill:#637aaa;}.cls-6{fill:#fff;}.cls-7{fill:#9af8b9;}.cls-8{fill:#d5f2f8;}.cls-9{fill:#fff9c1;}.cls-10{fill:#ffcac1;}</style></defs><title>Artboard 17</title><path class="cls-1" d="M14.11,77.15c-.73-.28-1-.59-.67-.94,2.36-2.46,13.27-2.15,18.57-2,6.66.15,13.58-.31,19.59.43,2.52.31,8.2,1.21,9.2,2.08C63.41,79,45.29,79.2,42.36,79.17,37.46,79.11,18.31,78.73,14.11,77.15Z"/><path id="_Path_" data-name="&lt;Path&gt;" class="cls-2" d="M39.42,20.67l5.84,11.74a3.58,3.58,0,0,0,2.7,2l13,1.85a3.58,3.58,0,0,1,2,6.1l-9.36,9.18a3.58,3.58,0,0,0-1,3.17l2.25,12.92a3.58,3.58,0,0,1-5.19,3.79L38,65.31a3.58,3.58,0,0,0-3.33,0L23.08,71.45a3.58,3.58,0,0,1-5.21-3.76l2.18-12.93a3.58,3.58,0,0,0-1-3.17L9.59,42.47a3.58,3.58,0,0,1,2-6.11l14.84-2.2h0L33,20.69A3.58,3.58,0,0,1,39.42,20.67Z"/><path id="_Path_2" data-name="&lt;Path&gt;" class="cls-3" d="M38.77,20.41l7.06,14.2a1.82,1.82,0,0,0,1.37,1l15.7,2.24a1.82,1.82,0,0,1,1,3.1L52.59,52a1.82,1.82,0,0,0-.52,1.61L54.8,69.28a1.82,1.82,0,0,1-2.63,1.92L38.11,63.86a1.82,1.82,0,0,0-1.69,0l-14,7.42a1.82,1.82,0,0,1-2.64-1.91l2.64-15.64a1.82,1.82,0,0,0-.53-1.61l-11.39-11a1.82,1.82,0,0,1,1-3.1l15.69-2.33a1.82,1.82,0,0,0,1.37-1l7-14.25A1.82,1.82,0,0,1,38.77,20.41Z"/><path id="_Path_3" data-name="&lt;Path&gt;" class="cls-4" d="M38.48,24,44.66,36.4a1.59,1.59,0,0,0,1.2.87l13.75,2a1.59,1.59,0,0,1,.89,2.71l-9.92,9.73a1.59,1.59,0,0,0-.45,1.41l2.39,13.69a1.59,1.59,0,0,1-2.3,1.68L37.9,62a1.59,1.59,0,0,0-1.48,0l-12.28,6.5a1.59,1.59,0,0,1-2.31-1.67l2.31-13.7a1.59,1.59,0,0,0-.46-1.41l-10-9.67a1.59,1.59,0,0,1,.87-2.72l13.74-2a1.59,1.59,0,0,0,1.2-.87L35.62,24A1.59,1.59,0,0,1,38.48,24Z"/><g id="_Group_" data-name="&lt;Group&gt;"><path class="cls-5" d="M38.42,20.55l3.86,7.76,2.45,4.93c.5,1,.9,2.31,2.17,2.54,2.82.51,5.69.81,8.53,1.21l5.45.78c1.1.16,2.63.11,3.11,1.34s-.69,2.2-1.51,3l-3.85,3.77C56.51,48,54.31,50,52.27,52.13c-.88.93-.45,2.16-.26,3.26l.93,5.34c.5,2.89,1.1,5.78,1.52,8.68a1.56,1.56,0,0,1-2.23,1.75l-1-.53-4.57-2.39c-2.79-1.46-5.56-3-8.37-4.37-1.12-.56-2.06,0-3,.51l-4.44,2.35c-2.85,1.51-5.68,3.07-8.55,4.53A1.67,1.67,0,0,1,19.88,70a3.72,3.72,0,0,1,.1-1.16l.77-4.55,1.71-10.15a2.16,2.16,0,0,0-.28-1.75,5.86,5.86,0,0,0-.67-.69l-3.32-3.22L10.81,41.3A2,2,0,0,1,10,39.78a1.67,1.67,0,0,1,1.48-1.64l3.84-.57L26.21,36c1-.15,2-.32,2.49-1.36s1.07-2.18,1.6-3.27l4.89-10c.14-.29.27-.58.42-.87a1.55,1.55,0,0,1,1-.88,1.7,1.7,0,0,1,1.76.94c.07.13.52,0,.48-.13a2.07,2.07,0,0,0-2.75-.83A2.3,2.3,0,0,0,35,20.78L33.22,24.5l-4.8,9.8a2.33,2.33,0,0,1-.93,1.21,3.52,3.52,0,0,1-1.1.24l-4.79.71c-3.34.5-6.68,1-10,1.49a2.34,2.34,0,0,0-1.66.89,1.88,1.88,0,0,0,.25,2.44c.78.79,1.6,1.55,2.4,2.33l8.17,7.92c.26.25.52.49.77.74A2,2,0,0,1,22,54.05L21.35,58,19.52,68.86a6.77,6.77,0,0,0-.14.93,1.94,1.94,0,0,0,2.44,1.84,4.38,4.38,0,0,0,1.08-.47l1.63-.86,10.26-5.43,1.41-.74a1.7,1.7,0,0,1,1.65-.07c1.06.53,2.1,1.1,3.15,1.65l10,5.21.85.44a2.27,2.27,0,0,0,2.67-.51c.79-.9.32-2.23.13-3.28l-2-11.42-.33-1.9a3,3,0,0,1-.06-1.35,2.66,2.66,0,0,1,.85-1.17l1.35-1.33,8.26-8.1c.7-.69,1.85-1.5,1.89-2.57a1.9,1.9,0,0,0-1.68-1.92l-1-.15-11.21-1.6c-1.13-.16-2.26-.29-3.38-.48s-1.58-1.46-2.05-2.41L40.08,22.81l-1.19-2.39C38.83,20.3,38.37,20.46,38.42,20.55Z"/></g><path class="cls-6" d="M13.71,13.75A6.81,6.81,0,0,0,13.08,16a9.55,9.55,0,0,0-1.72-1.83,8.78,8.78,0,0,0-2.27-.75,7,7,0,0,0,1.67-1.33,10.14,10.14,0,0,0,.86-2.25,7.29,7.29,0,0,0,1.53,1.6,11.06,11.06,0,0,0,2.32.79A8.71,8.71,0,0,0,13.71,13.75Z"/><path class="cls-5" d="M13.49,13.74A5.42,5.42,0,0,0,12.84,16l.46-.12a7.65,7.65,0,0,0-1.67-1.8,6.48,6.48,0,0,0-2.39-.82v.22A5.12,5.12,0,0,0,11.06,12a8.18,8.18,0,0,0,.8-2.18l-.46.12a5.28,5.28,0,0,0,1.76,1.73,9.92,9.92,0,0,0,2.16.7v-.22a7.4,7.4,0,0,0-1.83,1.61c-.13.18.35.16.45,0a6.82,6.82,0,0,1,1.69-1.47c.09-.06.14-.18,0-.22a9.52,9.52,0,0,1-2.07-.67,5.13,5.13,0,0,1-1.69-1.68c-.1-.13-.42,0-.46.12a8.76,8.76,0,0,1-.72,2,4.48,4.48,0,0,1-1.72,1.45c-.1.06-.13.19,0,.22a6.12,6.12,0,0,1,2.3.79,7.61,7.61,0,0,1,1.61,1.75c.09.12.44,0,.46-.12a5.27,5.27,0,0,1,.61-2.2C14.06,13.57,13.58,13.6,13.49,13.74Z"/><path class="cls-6" d="M46.37,9.6a6.81,6.81,0,0,0-1.61,1.67,9.55,9.55,0,0,0-.64-2.43A8.78,8.78,0,0,0,42.48,7.1a7,7,0,0,0,2.1-.37,10.14,10.14,0,0,0,1.82-1.57A7.29,7.29,0,0,0,47,7.29a11.06,11.06,0,0,0,1.66,1.8A8.71,8.71,0,0,0,46.37,9.6Z"/><path class="cls-5" d="M46.22,9.52a5.58,5.58,0,0,0-1.69,1.74l.46-.05a7.71,7.71,0,0,0-.6-2.34A6.3,6.3,0,0,0,42.7,7l-.25.24a5.3,5.3,0,0,0,2.36-.47A8.11,8.11,0,0,0,46.6,5.21l-.43,0a5.45,5.45,0,0,0,.67,2.28,8.89,8.89,0,0,0,1.59,1.69l.25-.24a7.51,7.51,0,0,0-2.41.55c-.3.14,0,.32.19.22a6.71,6.71,0,0,1,2.15-.48c.06,0,.38-.13.25-.24a9.54,9.54,0,0,1-1.54-1.61,5.19,5.19,0,0,1-.69-2.29c0-.17-.37-.05-.43,0a9.16,9.16,0,0,1-1.55,1.4A4.29,4.29,0,0,1,42.51,7c-.06,0-.38.13-.25.24A6,6,0,0,1,44,9.09a8.16,8.16,0,0,1,.55,2.25c0,.19.4,0,.46-.05a5.14,5.14,0,0,1,1.54-1.6C46.8,9.53,46.39,9.43,46.22,9.52Z"/><path class="cls-7" d="M30.77,14.29A4.34,4.34,0,0,1,29,11.84a7.87,7.87,0,0,0-1,.65.81.81,0,1,1-1-1.28A8.18,8.18,0,0,1,29,10a8.79,8.79,0,0,1,1.27-2.34.81.81,0,0,1,1.29,1,6.7,6.7,0,0,0-.65,1,3.45,3.45,0,0,1,2.32,1.57,2.45,2.45,0,0,1-.17,2.92,1.61,1.61,0,0,1-.83.43A2,2,0,0,1,30.77,14.29Zm.85-1.38a.78.78,0,0,0,.3.13,1,1,0,0,0-.08-.9,1.72,1.72,0,0,0-1.34-.83A2.73,2.73,0,0,0,31.63,12.91Z"/><path class="cls-5" d="M28.25,10.19c-.69.37-2.15,1-1.7,2.05a1,1,0,0,0,.9.57c.53,0,.89-.38,1.31-.65s-.12-.34-.31-.21-.55.49-.83.52a.66.66,0,0,1-.65-.76c.07-.56,1.05-1,1.5-1.25.29-.15,0-.4-.21-.28Z"/><path class="cls-5" d="M31,11.63c.39.24,1,.86.72,1.38l.31-.15A1.84,1.84,0,0,1,31,11.8a2.31,2.31,0,0,1,0-1.58,5.22,5.22,0,0,1,.68-1.3,1.28,1.28,0,0,0,.29-1,1,1,0,0,0-1.23-.72c-.75.15-1.17,1.11-1.48,1.72a4.18,4.18,0,0,0,.7,5c1,1,2.7,1.4,3.57,0,1.07-1.67-.3-3.64-1.91-4.27-.21-.08-.56.22-.27.32a2.9,2.9,0,0,1,1.95,3.42,1.38,1.38,0,0,1-1.54,1A3.2,3.2,0,0,1,29.82,13a4.13,4.13,0,0,1,.09-4.44c.18-.31.44-.87.8-1a.6.6,0,0,1,.77.59,1.8,1.8,0,0,1-.46.94,4.27,4.27,0,0,0-.46,1,2.57,2.57,0,0,0,0,2,2.12,2.12,0,0,0,1.3,1.14.31.31,0,0,0,.31-.15c.4-.65-.31-1.41-.81-1.72-.18-.11-.6.14-.37.28Z"/><path class="cls-8" d="M65.22,23.24a2.46,2.46,0,0,1-.39.14,2.16,2.16,0,0,1-2.6-1.24,4.29,4.29,0,0,1-.38-1.54,3.08,3.08,0,0,0-1,1.55c0,.07,0,.08,0,.1a.81.81,0,0,1-1,1.24,1.71,1.71,0,0,1-.61-1.41,4.66,4.66,0,0,1,1.87-2.93,3.37,3.37,0,0,1,1-.45,6.68,6.68,0,0,1,.8-1.8,4.75,4.75,0,0,1,3.93-2.44.81.81,0,1,1,0,1.62,3.23,3.23,0,0,0-2.56,1.69,5.14,5.14,0,0,0-.39.74,4.08,4.08,0,0,1,1.44.34,2.3,2.3,0,0,1,1.41,1.92A2.47,2.47,0,0,1,65.22,23.24Zm-1.76-3.12a2.88,2.88,0,0,0,.24,1.34.57.57,0,0,0,.71.36.87.87,0,0,0,.66-.9.69.69,0,0,0-.48-.6A2.67,2.67,0,0,0,63.45,20.12Z"/><path class="cls-5" d="M61.1,21.15a2.68,2.68,0,0,0-.47.81c-.08.26,0,.3.1.49.33.45,0,1.37-.62,1a1.5,1.5,0,0,1-.64-1.06c-.2-1.29,1-2.73,2.07-3.33.28-.16-.13-.28-.31-.18-1.31.74-3,2.82-2,4.34a1.18,1.18,0,0,0,1.85.28.94.94,0,0,0,.22-1c-.07-.18-.25-.29-.25-.47a1.9,1.9,0,0,1,.47-.85c.14-.19-.34-.17-.45,0Z"/><path class="cls-5" d="M64.21,18.72a2.47,2.47,0,0,1,2.22,2.11,2.29,2.29,0,0,1-1.94,2.45c-1.35.17-2.14-1-2.36-2.22a6.14,6.14,0,0,1,.1-2,5.41,5.41,0,0,1,.66-1.87,5.22,5.22,0,0,1,2.51-2.34c.48-.19,1.44-.49,1.8,0a.69.69,0,0,1-.11.94c-.21.15-.62.1-.87.16A3.82,3.82,0,0,0,64,17.68,4.81,4.81,0,0,0,63.28,21a1.24,1.24,0,0,0,.58.95,1.09,1.09,0,0,0,1-.21,1,1,0,0,0,.37-1.05c-.16-.49-.78-.63-1.22-.7-.22,0-.49.27-.17.32s.85.18.94.59-.36,1-.76.67-.36-1.35-.28-1.87c.22-1.36,1-2.95,2.41-3.38.47-.14.93,0,1.32-.38a.94.94,0,0,0,.23-1.1c-.42-.86-1.71-.52-2.4-.27a5.49,5.49,0,0,0-2.53,2,7.1,7.1,0,0,0-1.17,3.49,3.38,3.38,0,0,0,1.19,3.14,2.58,2.58,0,0,0,2.7,0,2.65,2.65,0,0,0,1.36-2.68,2.75,2.75,0,0,0-2.4-2.15c-.19,0-.56.24-.28.3Z"/><path class="cls-6" d="M10.53,28.44a2.46,2.46,0,0,1-.1-.4,2.16,2.16,0,0,1,1.51-2.45,4.29,4.29,0,0,1,1.57-.22,3.08,3.08,0,0,0-1.43-1.18c-.07,0-.08,0-.1,0A.81.81,0,0,1,10.85,23a1.71,1.71,0,0,1,1.47-.46A4.66,4.66,0,0,1,15,24.76a3.37,3.37,0,0,1,.34,1,6.68,6.68,0,0,1,1.7,1,4.75,4.75,0,0,1,2,4.17.81.81,0,1,1-1.61-.18A3.23,3.23,0,0,0,16.07,28a5.14,5.14,0,0,0-.69-.47A4.08,4.08,0,0,1,14.89,29a2.3,2.3,0,0,1-2.06,1.19A2.47,2.47,0,0,1,10.53,28.44ZM13.82,27a2.88,2.88,0,0,0-1.36.1.57.57,0,0,0-.44.67.87.87,0,0,0,.83.75.69.69,0,0,0,.64-.41A2.67,2.67,0,0,0,13.82,27Z"/><path class="cls-5" d="M13.23,24.69c-.31-.29-.85-.82-1.32-.62-.27.11-.21.37-.69.15a.71.71,0,0,1-.35-.43c-.17-.56.38-1,.87-1.05,1.32-.23,2.73,1.3,3.21,2.4.08.19.55,0,.48-.13-.61-1.42-2.4-3.1-4.06-2.47-.71.27-1.47,1.19-.65,1.83a1.08,1.08,0,0,0,.91.18c.15,0,.39-.25.51-.26-.25,0,.19.2.21.22a3.17,3.17,0,0,1,.45.37c.14.13.59-.06.44-.2Z"/><path class="cls-5" d="M15,28c-.39,1.24-1.4,2.26-2.79,1.82a2.24,2.24,0,0,1,1.18-4.32A6.55,6.55,0,0,1,16.9,26.9a5.07,5.07,0,0,1,1.91,3c.08.45.24,1.55-.46,1.6s-.57-1-.66-1.42a3.88,3.88,0,0,0-1.86-2.46,4.67,4.67,0,0,0-3.06-.75,1.29,1.29,0,0,0-.89.47.92.92,0,0,0,.19,1.08,1.06,1.06,0,0,0,1,.27A1.47,1.47,0,0,0,14,27.55c.08-.27-.4-.28-.46-.06s-.28,1-.78.83c-.29-.09-.61-.55-.44-.86s.6-.29.86-.29a3.74,3.74,0,0,1,1.26.24,4,4,0,0,1,2.81,2.77c.09.49-.09,1,.31,1.37a1.08,1.08,0,0,0,1.1.22c1-.35.8-1.65.57-2.44-.7-2.39-3.09-3.79-5.43-4.12a3.52,3.52,0,0,0-3,.94,2.42,2.42,0,0,0-.3,2.69,2.67,2.67,0,0,0,2.65,1.48,2.9,2.9,0,0,0,2.4-2.21c.08-.27-.39-.27-.46-.06Z"/><path class="cls-9" d="M65.37,33.82,63.27,32a.32.32,0,0,1,0-.45L66.38,28a.32.32,0,0,1,.44,0L69,29.67a.32.32,0,0,1,0,.46l-3.2,3.66A.32.32,0,0,1,65.37,33.82Z"/><path class="cls-5" d="M68.31,30.63,66.25,33c-.15.17-.5.74-.71.7s-.29-.25-.37-.32l-.75-.65c-.21-.19-1.12-.73-1-1.09s.53-.61.73-.84l1.34-1.53.58-.67a2.69,2.69,0,0,1,.4-.46c.12-.08.09-.08.23,0a8.43,8.43,0,0,1,.68.57l1.28,1.08c.16.14.58-.1.37-.28l-1.35-1.14c-.35-.29-.81-.89-1.33-.63-.35.17-.63.65-.87.93L64,30.38a13.44,13.44,0,0,0-1,1.1c-.33.48.17.78.5,1.06.51.44,1,.9,1.52,1.32a.7.7,0,0,0,1.06-.14c.87-1,1.72-2,2.57-3,.2-.23-.26-.31-.4-.14Z"/><path class="cls-9" d="M24.19,21.47l-2.27.8a.3.3,0,0,1-.37-.21L20,17.54a.3.3,0,0,1,.15-.39l2.25-.88a.3.3,0,0,1,.37.21l1.59,4.6A.3.3,0,0,1,24.19,21.47Z"/><path class="cls-5" d="M22.76,17.27l1,2.79a7.53,7.53,0,0,1,.38,1.08c.05.29-.05.28-.27.36l-.86.3-.8.28a.88.88,0,0,1-.26.09c-.12,0-.07,0-.12-.19-.1-.34-.24-.68-.35-1L20.3,17.69c0-.12-.15-.36-.07-.47s.49-.18.6-.22l1.57-.58c.32-.12,0-.2-.17-.13l-1.61.59c-.37.13-1,.23-.87.74a8.73,8.73,0,0,0,.42,1.21l.72,2.06a9,9,0,0,0,.42,1.21c.24.46.73.21,1.1.08.6-.21,1.22-.39,1.8-.63s.39-.47.26-.85l-1.24-3.56c0-.12-.52,0-.48.13Z"/><path class="cls-9" d="M46,21.65,43.68,21a.3.3,0,0,1-.18-.38L44.85,16a.3.3,0,0,1,.34-.23l2.34.59a.3.3,0,0,1,.18.39l-1.38,4.67A.3.3,0,0,1,46,21.65Z"/><path class="cls-5" d="M47.25,17.52l-.82,2.79a4.49,4.49,0,0,1-.33,1.14c-.09.13.08,0,0,.06s-.17,0-.22-.06l-.92-.27c-.33-.1-1.2-.15-1.19-.61a4.58,4.58,0,0,1,.29-1l1-3.3a1.57,1.57,0,0,0,.07-.34c.09,0,.55.15.64.18l1.57.43c.15,0,.56-.19.29-.26l-1.66-.45c-.44-.12-1-.35-1.3.19a7.48,7.48,0,0,0-.33,1.11l-.61,2.09a11.6,11.6,0,0,0-.41,1.39c-.08.52.45.56.83.67a15.87,15.87,0,0,0,1.73.5c.49.08.7-.25.82-.65l1.08-3.67c0-.17-.43-.1-.48.06Z"/><path class="cls-9" d="M5.7,34.9,3.93,36.52a.3.3,0,0,1-.42,0L.3,32.93a.3.3,0,0,1,0-.41L2,30.83a.3.3,0,0,1,.42,0l3.26,3.61A.3.3,0,0,1,5.7,34.9Z"/><path class="cls-5" d="M2.71,31.53l2,2.18a5.56,5.56,0,0,1,.77.84c.23.42-.6.91-.87,1.16L4,36.25s-.14.17-.21.19,0,0-.07-.07A9.83,9.83,0,0,1,3,35.61L.69,33c-.12-.13-.3-.28-.21-.49s.37-.35.5-.47L2.17,31c.19-.18-.28-.15-.38-.05L.57,32c-.29.27-.78.56-.48,1A10.62,10.62,0,0,0,1,34l1.46,1.61a8.08,8.08,0,0,0,.81.89c.43.35.83,0,1.15-.3s1-.83,1.4-1.28.11-.56-.14-.83L3.16,31.35c-.1-.11-.55.06-.45.18Z"/><circle class="cls-10" cx="26.06" cy="25.8" r="1.46"/><path class="cls-5" d="M26,24.52a1.31,1.31,0,0,1,.6,2.46A1.24,1.24,0,0,1,25,26.43a1.35,1.35,0,0,1,.28-1.65c.21-.21-.25-.29-.4-.14a1.64,1.64,0,1,0,1.25-.47c-.23,0-.49.34-.16.35Z"/><circle class="cls-10" cx="53.33" cy="29.24" r="1.46"/><path class="cls-5" d="M53.17,27.87a1.42,1.42,0,0,1,.76,2.57,1.25,1.25,0,0,1-1.69-.65,1.45,1.45,0,0,1,.33-1.67c.1-.09-.35,0-.43,0A1.52,1.52,0,0,0,52,30.26a1.72,1.72,0,0,0,1.93.4A1.6,1.6,0,0,0,55,29.11a1.53,1.53,0,0,0-1.54-1.42c-.1,0-.54.18-.31.19Z"/><circle class="cls-10" cx="1.81" cy="20.68" r="1.46"/><path class="cls-5" d="M1.66,19.33a1.4,1.4,0,0,1,.8,2.52,1.24,1.24,0,0,1-1.73-.61,1.43,1.43,0,0,1,.33-1.66c.12-.12-.34-.08-.44,0A1.54,1.54,0,0,0,.47,21.7a1.73,1.73,0,0,0,1.94.42,1.55,1.55,0,0,0-.45-3c-.12,0-.55.21-.3.23Z"/><circle class="cls-6" cx="20.25" cy="6.54" r="1.46"/><path class="cls-5" d="M20.1,5.18a1.42,1.42,0,0,1,.76,2.57,1.25,1.25,0,0,1-1.69-.65,1.45,1.45,0,0,1,.33-1.67c.1-.09-.35,0-.43,0a1.52,1.52,0,0,0-.16,2.09,1.72,1.72,0,0,0,1.93.4,1.6,1.6,0,0,0,1.1-1.55A1.53,1.53,0,0,0,20.41,5c-.1,0-.54.18-.31.19Z"/><circle class="cls-6" cx="70.31" cy="42.55" r="1.46"/><path class="cls-5" d="M70.22,41.26a1.33,1.33,0,0,1,.61,2.48,1.24,1.24,0,0,1-1.56-.55,1.36,1.36,0,0,1,.27-1.66c.21-.2-.25-.27-.4-.13a1.63,1.63,0,1,0,1.25-.47c-.22,0-.49.32-.17.33Z"/><circle class="cls-6" cx="74.1" cy="27.65" r="1.46"/><path class="cls-5" d="M73.95,26.29a1.43,1.43,0,0,1,.88,2.49,1.22,1.22,0,0,1-1.8-.57,1.44,1.44,0,0,1,.33-1.67c.1-.1-.35-.05-.43,0a1.52,1.52,0,0,0-.16,2.1,1.72,1.72,0,0,0,1.93.4,1.53,1.53,0,0,0-.44-3c-.11,0-.54.19-.31.2Z"/><circle class="cls-6" cx="2.91" cy="44.47" r="1.46"/><path class="cls-5" d="M2.76,43.11a1.43,1.43,0,0,1,.88,2.49A1.22,1.22,0,0,1,1.83,45a1.44,1.44,0,0,1,.33-1.67c.1-.1-.35-.05-.43,0a1.52,1.52,0,0,0-.16,2.1,1.72,1.72,0,0,0,1.93.4,1.53,1.53,0,0,0-.44-3c-.11,0-.54.19-.31.2Z"/><circle class="cls-10" cx="37.65" cy="1.6" r="1.46"/><path class="cls-5" d="M37.56.27a1.37,1.37,0,0,1,.68,2.51,1.25,1.25,0,0,1-1.67-.63A1.39,1.39,0,0,1,36.88.54c.2-.19-.27-.19-.38-.08a1.57,1.57,0,0,0-.22,2.12,1.72,1.72,0,0,0,2,.48A1.65,1.65,0,0,0,39.34,1.4,1.6,1.6,0,0,0,37.74,0c-.18,0-.51.26-.18.27Z"/><circle class="cls-6" cx="55.95" cy="10.14" r="1.46"/><path class="cls-5" d="M55.79,8.79a1.42,1.42,0,0,1,.81,2.53,1.24,1.24,0,0,1-1.74-.62A1.44,1.44,0,0,1,55.2,9c.11-.11-.34-.06-.43,0a1.53,1.53,0,0,0-.16,2.11,1.73,1.73,0,0,0,1.93.41A1.61,1.61,0,0,0,57.64,10,1.55,1.55,0,0,0,56.1,8.58c-.11,0-.55.2-.3.21Z"/><path class="cls-5" d="M42,50.13a5.32,5.32,0,0,1-3.13,2.65,5,5,0,0,1-4.73-1.29c-.12-.12-.6,0-.43.12a5.74,5.74,0,0,0,5,1.51,5.6,5.6,0,0,0,3.72-2.9c.09-.18-.39-.25-.47-.09Z"/><path class="cls-5" d="M35.34,48.14a1.45,1.45,0,0,1-.49.65.89.89,0,0,1-1.18-.31c-.11-.13-.59-.06-.43.12a1.49,1.49,0,0,0,2.57-.38c.08-.2-.41-.26-.47-.09Z"/><path class="cls-5" d="M42.53,47.11a1.45,1.45,0,0,1-.49.65.89.89,0,0,1-1.18-.31c-.11-.13-.59-.06-.43.12A1.49,1.49,0,0,0,43,47.2c.08-.2-.41-.26-.47-.09Z"/></svg>