<svg id="Layer_1" data-name="Layer 1" xmlns="http://www.w3.org/2000/svg" viewBox="0 0 81.53 65.89"><defs><style>.cls-1{fill:#ecf8fb;}.cls-2{fill:#abdff5;}.cls-3{fill:#e5e5e5;}.cls-4{fill:#fff;}.cls-5{fill:#637aaa;}.cls-6{fill:#f6f6f6;}.cls-7{fill:#f1f1f1;}</style></defs><title>Artboard 5</title><path class="cls-1" d="M21,65C19.3,64.68-1.45,62.19.08,43.77s3.44-24,11.51-26,27.67-11.61,43.06-2.5,32,17.29,25.4,31.85S72.38,66.56,55.19,65.81,29.24,66.28,21,65Z"/><path class="cls-2" d="M17.6,59.06a1.48,1.48,0,0,0-.8,1.27c.07,1.26,2.32,1.56,3.25,1.68,1.63.21,3.27.18,4.92.24q9,.33,17.91.13,4.6-.1,9.19-.32c2.69-.13,5.69,0,8.24-1A36.34,36.34,0,0,0,64.73,59c1.19-.66,2.73-1.29,3.43-2.52,1.23-2.16-3.09-2.59-4.28-2.83a85.41,85.41,0,0,0-14.26-1.24,111.8,111.8,0,0,0-14.52.43c-6,.61-12.5,2.57-17.44,6.21Z"/><rect class="cls-3" x="30.74" y="34.14" width="33.16" height="22.73"/><path class="cls-4" d="M63.9,34.14H30.74l4.39-5.07a1.07,1.07,0,0,1,.81-.37H68a.28.28,0,0,1,.21.46Z"/><path class="cls-5" d="M63.92,34H31.26a1.49,1.49,0,0,0-.44,0h-.06l.17.24,3.23-3.74c.38-.44.75-.92,1.16-1.34a1.16,1.16,0,0,1,1-.27H67a4.56,4.56,0,0,1,.9,0s.11,0,.14,0c.2.16-.18.48-.26.57L64,33.7l-.32.37c-.19.22.24.3.38.14l3.35-3.88.76-.88c.14-.16.33-.33.3-.56-.05-.39-.45-.37-.75-.37H36a1.76,1.76,0,0,0-1.32.78l-3.79,4.38-.33.38c-.12.14,0,.24.17.24h31.8a11.73,11.73,0,0,0,1.3,0h.06C64.15,34.31,64.23,34,63.92,34Z"/><polygon class="cls-6" points="30.79 34.14 22.64 37.31 22.64 60.04 30.79 56.99 30.79 34.14"/><path class="cls-5" d="M30.71,34.08l-7.13,2.77-1,.4c-.3.12,0,.19.16.12l7.13-2.77,1-.4c.3-.12,0-.19-.16-.12Z"/><path class="cls-5" d="M31,56.93V35.16c0-.12-.45,0-.45.12V57c0,.12.45,0,.45-.12Z"/><path class="cls-7" d="M30.79,34.14l-8.15,3.17-3.9-3.8A.71.71,0,0,1,19,32.33l6.68-2.5a.71.71,0,0,1,.74.15Z"/><path class="cls-4" d="M30.58,34.22l-7.94,3.09L19.33,34a.71.71,0,0,1,.25-1.18L21.88,32c1.13-.42,2.49-1.28,3.74-1C26.52,31.16,30.49,34.14,30.58,34.22Z"/><path class="cls-5" d="M30.7,34,23.57,36.8l-1,.4.31,0-3-2.9-.71-.69a1.31,1.31,0,0,1-.38-.46c-.23-.69.66-.85,1.12-1l4.74-1.78c.37-.14,1.06-.57,1.47-.34a6.34,6.34,0,0,1,1.07,1l3.39,3.21c.13.13.57-.05.42-.19l-3.21-3c-.39-.37-.76-.77-1.18-1.12s-1-.18-1.57,0l-5,1.87a8.87,8.87,0,0,0-1.31.51.85.85,0,0,0-.34,1.19,2.62,2.62,0,0,0,.4.42l3.62,3.52a.29.29,0,0,0,.31,0l7.13-2.77,1-.4C31.18,34.14,30.92,33.94,30.7,34Z"/><path id="_Path_" data-name="&lt;Path&gt;" class="cls-3" d="M17.12,19.65,30.57,45.93a1.3,1.3,0,0,0,1.76.56L56,34.37a1.3,1.3,0,0,0,.57-1.75l-2.1-4.1-1.18-2.25-12.78-25A1.3,1.3,0,0,0,38.78.75L20.14,10.29l-3,9.35Z"/><g id="_Group_" data-name="&lt;Group&gt;"><path class="cls-4" d="M18.06,19.17,31.51,45.46a1.3,1.3,0,0,0,1.76.56L57,33.9a1.3,1.3,0,0,0,.57-1.75l-2.1-4.1-1.18-2.25L41.47.84A1.3,1.3,0,0,0,39.72.28L21.08,9.82l-3,9.35Z"/><path class="cls-5" d="M17.83,19.24l5.13,10,7.41,14.47.8,1.56a1.59,1.59,0,0,0,2.08.9c1.14-.46,2.23-1.14,3.33-1.7l15.3-7.83,4.85-2.48c.71-.37,1.37-.95,1.11-1.86a7.07,7.07,0,0,0-.57-1.17l-1-1.92c-1.47-2.87-3-5.72-4.42-8.59L44,5.21,41.78.94A1.58,1.58,0,0,0,39.61.17c-.44.2-.86.44-1.29.66L23.81,8.26,21.5,9.45c-.29.15-.59.23-.69.55-.79,2.42-1.56,4.84-2.35,7.26L18,18.69c0,.1-.21.43-.16.54s.53,0,.45-.12c0,0,.06-.16.08-.22l.22-.67L19.3,16l1.63-5,.38-1.19-.13.13L31.41,4.69l6.45-3.3L39.58.51l.23-.12A1.12,1.12,0,0,1,41.27,1c.58,1,1.09,2.13,1.63,3.19l3.3,6.45L53,23.8c1.35,2.64,2.72,5.27,4.08,7.92A2,2,0,0,1,57.42,33a1.2,1.2,0,0,1-.67.85l-1.22.62-5.47,2.8-13.8,7.06c-1,.52-2,1.09-3.07,1.57-1.26.59-1.87-1.33-2.3-2.16L24.39,31,18.6,19.73l-.32-.62C18.2,18.94,17.75,19.08,17.83,19.24Z"/></g><g id="_Group_2" data-name="&lt;Group&gt;"><path class="cls-5" d="M20.87,9.87l2.36,4.61a2.41,2.41,0,0,1,.33.86,1.3,1.3,0,0,1-.78,1.28l-2.57,1.31L18,19.09l.32.07L20.94,11l.38-1.19c.05-.17-.4-.11-.46.05L18.22,18l-.38,1.19c0,.15.26.1.32.07l4.78-2.44a1.58,1.58,0,0,0,.9-2.17c-.41-.83-.84-1.65-1.26-2.47L21.32,9.75C21.24,9.59,20.8,9.73,20.87,9.87Z"/></g><path class="cls-2" d="M26.59,18.15a.28.28,0,0,1-.13-.53L37.37,12a.28.28,0,0,1,.26.5L26.72,18.12A.28.28,0,0,1,26.59,18.15Z"/><path class="cls-5" d="M24.9,26.38l7-3.57,11-5.64,2.55-1.3c.28-.14,0-.39-.2-.27l-7,3.57-11,5.64-2.55,1.3c-.28.14,0,.39.2.27Z"/><path class="cls-5" d="M23.73,23.94l7-3.57,11-5.64,2.55-1.3c.27-.14-.13-.21-.28-.13l-7,3.57L26,22.51l-2.55,1.3c-.27.14.13.21.28.13Z"/><path class="cls-5" d="M26.11,28.74l9.06-4.64,1.29-.66c.28-.14,0-.37-.2-.26L27.2,27.82l-1.29.66c-.28.14,0,.37.2.26Z"/><path class="cls-2" d="M32.56,29.81a.28.28,0,0,1-.13-.53l10.91-5.59a.28.28,0,0,1,.26.5L32.69,29.78A.28.28,0,0,1,32.56,29.81Z"/><path class="cls-5" d="M30.86,38l7-3.57,11-5.64,2.55-1.3c.28-.14,0-.34-.19-.23l-7,3.57-11,5.64-2.55,1.3c-.28.14,0,.34.19.23Z"/><path class="cls-5" d="M29.66,35.67l7-3.57,11-5.64,2.55-1.3c.28-.14,0-.37-.2-.25l-7,3.57L32,34.11l-2.55,1.3c-.28.14,0,.37.2.25Z"/><path class="cls-5" d="M32.08,40.41l5.18-2.65,8.28-4.24,1.92-1c.28-.14,0-.4-.2-.28l-5.18,2.65L33.8,39.15l-1.92,1c-.28.14,0,.4.2.28Z"/><path id="_Path_2" data-name="&lt;Path&gt;" class="cls-3" d="M40.32,6.08,30.14,33.8a1.3,1.3,0,0,0,.78,1.67l25,9.17a1.3,1.3,0,0,0,1.67-.77l1.59-4.32L60,37.17l9.67-26.32a1.3,1.3,0,0,0-.78-1.67L49.24,2,40.32,6.08Z"/><g id="_Group_3" data-name="&lt;Group&gt;"><path class="cls-4" d="M39.38,5.8,29.2,33.52A1.3,1.3,0,0,0,30,35.19l25,9.17a1.3,1.3,0,0,0,1.67-.77l1.59-4.32.85-2.39,9.67-26.32A1.3,1.3,0,0,0,68,8.89L48.3,1.67,39.38,5.8Z"/><path class="cls-5" d="M39.15,5.83,35.27,16.4l-5.6,15.26-.6,1.64a1.46,1.46,0,0,0,.74,2c1.19.49,2.43.89,3.64,1.34l16.18,5.94,4.91,1.8a1.72,1.72,0,0,0,2.27-.67,11.41,11.41,0,0,0,.43-1.14l.74-2c1.11-3,2.2-6.05,3.31-9.08l6-16.27c.55-1.5,1.11-3,1.65-4.5a1.44,1.44,0,0,0-.8-1.94c-.5-.2-1-.37-1.53-.56L51.2,2.55l-2.3-.84a1,1,0,0,0-.92,0L40.93,4.94l-1.28.59c-.13.06-.44.15-.5.3s.39.1.46-.05h0l-.14.13,7.79-3.6,1.13-.52h-.27L59,5.78l6.77,2.49,1.76.65a1.31,1.31,0,0,1,1,1.7c-.35,1.08-.79,2.14-1.18,3.21l-2.47,6.73L59.67,34.63c-1,2.78-2,5.57-3,8.35-.15.42-.27.94-.67,1.19a1.07,1.07,0,0,1-1,0l-1.34-.49L47.8,41.56,33.23,36.21c-1-.37-2.07-.71-3.07-1.13-1.45-.6-.48-2.29-.11-3.29L35,18.44l4.41-12,.24-.65C39.67,5.61,39.21,5.67,39.15,5.83Z"/></g><g id="_Group_4" data-name="&lt;Group&gt;"><path class="cls-5" d="M48.09,1.7,46.32,6.52a2.46,2.46,0,0,1-.38.81,1.17,1.17,0,0,1-1.41.2l-2.65-1-2.36-.87,0,.24,7.81-3.61,1.14-.53c.29-.13,0-.32-.19-.22L40.42,5.18l-1.14.53c-.12.05-.2.18,0,.24l5.07,1.86a1.73,1.73,0,0,0,2.32-1c.33-.85.63-1.72.95-2.58l1-2.63C48.61,1.48,48.15,1.54,48.09,1.7Z"/></g><path class="cls-2" d="M57.63,15.69l-.1,0L46,11.44a.28.28,0,0,1,.19-.53l11.51,4.23a.28.28,0,0,1-.1.55Z"/><path class="cls-5" d="M38.63,15.69,46,18.4,57.6,22.66l2.69,1c.18.07.53-.2.27-.29l-7.35-2.7L41.58,16.39l-2.69-1c-.18-.07-.53.2-.27.29Z"/><path class="cls-5" d="M39.55,13.21l7.35,2.7,11.62,4.27,2.69,1c.2.07.53-.21.26-.31l-7.35-2.7L42.49,13.88l-2.69-1c-.2-.07-.53.21-.26.31Z"/><path class="cls-5" d="M37.66,18.15l7.24,2.66,11.55,4.24,2.65,1c.14.05.55-.16.36-.23l-7.24-2.66L40.68,18.9l-2.65-1c-.14-.05-.55.16-.36.23Z"/><path class="cls-2" d="M40.88,23.39l9,3.31,1.27.47c.13,0,.55-.15.36-.22l-9-3.31-1.27-.47c-.13,0-.55.15-.36.22Z"/><path class="cls-5" d="M34.11,28l6.55,2.4,10.39,3.82,2.4.88c.19.07.53-.21.26-.31l-6.55-2.4L36.78,28.58l-2.4-.88c-.19-.07-.53.21-.26.31Z"/><path class="cls-5" d="M35,25.5l6.55,2.4L52,31.72l2.4.88c.19.07.53-.2.27-.3l-6.55-2.4L37.7,26.09l-2.4-.88c-.19-.07-.53.2-.27.3Z"/><path class="cls-5" d="M33.15,30.45l8.54,3.14,1.21.44c.14.05.55-.15.36-.22l-8.54-3.14-1.21-.44c-.14-.05-.55.15-.36.22Z"/><path id="_Path_3" data-name="&lt;Path&gt;" class="cls-3" d="M26.16,16V45.55a1.3,1.3,0,0,0,1.31,1.3H54.07a1.3,1.3,0,0,0,1.31-1.3v-4.6l0-2.54v-28A1.3,1.3,0,0,0,54,9.06H33.11l-7,6.95Z"/><g id="_Group_5" data-name="&lt;Group&gt;"><path class="cls-4" d="M27.1,15.83V45.36a1.3,1.3,0,0,0,1.31,1.3H55a1.3,1.3,0,0,0,1.31-1.3v-4.6l0-2.54v-28A1.3,1.3,0,0,0,55,8.88H34.05l-7,6.95Z"/><path class="cls-5" d="M26.87,15.89q0,5.63,0,11.27v18a1.46,1.46,0,0,0,1.44,1.61c1.27,0,2.54,0,3.81,0H54.63c.85,0,1.8-.33,1.91-1.32a11.61,11.61,0,0,0,0-1.21V42.09c0-3.22,0-6.44,0-9.66q0-8.66,0-17.33c0-1.6,0-3.2,0-4.8A1.44,1.44,0,0,0,55,8.76c-.53,0-1.06,0-1.59,0H34.62c-.37,0-.63,0-.91.25l-5.43,5.43-1,1c-.08.08-.36.27-.36.4s.45,0,.45-.12c0,.09.11-.08.17-.14l.5-.49,1.65-1.65,3.74-3.73.88-.88L34,9H54.63a1.3,1.3,0,0,1,1.43,1.29c0,1.16,0,2.32,0,3.48q0,3.6,0,7.19,0,7.45,0,14.9c0,3,0,6,0,9a2.09,2.09,0,0,1-.25,1.35,1,1,0,0,1-.88.4c-.48,0-1,0-1.45,0H31.84c-1.1,0-2.23.07-3.33,0-1.51-.09-1.18-2-1.18-3.06V15.77C27.32,15.66,26.87,15.73,26.87,15.89Z"/></g><g id="_Group_6" data-name="&lt;Group&gt;"><path class="cls-5" d="M33.84,8.94v4.72c0,.8.09,2-1,2.1-.61.06-1.26,0-1.88,0H28a4.37,4.37,0,0,0-.73,0c-.08,0,0,.08,0,0a1,1,0,0,0,.13-.13l3.5-3.5,3.32-3.32c.09-.09-.33,0-.41,0L27.78,15l-.88.88s0,.07.06.07h5.44a1.7,1.7,0,0,0,1.9-1.55c0-.89,0-1.78,0-2.67V8.82C34.29,8.75,33.84,8.81,33.84,8.94Z"/></g><path class="cls-2" d="M47.55,18.83H35.28a.28.28,0,0,1,0-.57H47.55a.28.28,0,1,1,0,.57Z"/><path class="cls-5" d="M29.78,25.29H52.86c.13,0,.49-.2.19-.2H30c-.13,0-.49.2-.19.2Z"/><path class="cls-5" d="M29.78,22.64H52.86c.14,0,.49-.22.19-.22H30c-.14,0-.49.22-.19.22Z"/><path class="cls-5" d="M29.86,28H41.48c.27,0,.34-.35,0-.35H29.89c-.27,0-.34.35,0,.35Z"/><path class="cls-2" d="M47.55,31.94H35.28a.28.28,0,0,1,0-.57H47.55a.28.28,0,1,1,0,.57Z"/><path class="cls-5" d="M29.78,38.4H52.86c.14,0,.49-.2.19-.2H30c-.14,0-.49.2-.19.2Z"/><path class="cls-5" d="M29.79,35.79H52.87c.2,0,.47-.3.17-.3H30c-.2,0-.47.3-.17.3Z"/><path class="cls-5" d="M29.85,41.11H41.48c.25,0,.35-.32,0-.32H29.9c-.25,0-.35.32,0,.32Z"/><rect class="cls-7" x="22.49" y="37.31" width="33.26" height="22.73"/><path class="cls-4" d="M55.76,37.78c-1.07,1.59-2.3,3.73-3.06,5.1a2.62,2.62,0,0,1-2.28,1.34l-27.92.06V60H55.76Z"/><polygon class="cls-3" points="63.9 34.14 55.76 37.31 55.76 60.04 63.9 56.99 63.9 34.14"/><path class="cls-7" d="M63.9,41.68,61.2,42.76A2.22,2.22,0,0,1,58.6,42l-2.84-3.78V60L63.9,57Z"/><path class="cls-5" d="M55.53,38.34V59.26c0,.1.45,0,.45-.12V38.22c0-.1-.45,0-.45.12Z"/><path class="cls-5" d="M22.4,37.42H54.08c.52,0,1.06.05,1.58,0a3.57,3.57,0,0,0,.87-.3l2.35-.91,4.82-1.87.29-.11c.3-.12,0-.22-.17-.15L60.14,35.5l-2.71,1.05c-.55.21-1.14.39-1.66.65-.19.09.06,0,.06,0s-.14,0-.18,0H28.84c-2.05,0-4.12-.08-6.17,0h-.09c-.15,0-.49.22-.19.22Z"/><path class="cls-5" d="M63.67,41.22V57l.13-.15-3.68,1.38-2.76,1c-.54.2-1.1.37-1.62.61-.18.08.07,0,0,0H23.31a3.43,3.43,0,0,0-.71,0h-.09l.21.15V43.42c0-.24-.46-.17-.46,0V60.06c0,.12.11.15.21.15H54.08a12.55,12.55,0,0,0,1.64,0,4,4,0,0,0,.8-.28l2.32-.87,4.86-1.82.3-.11c.05,0,.13-.09.13-.15V41.19c0-.24-.46-.17-.46,0Z"/><path class="cls-7" d="M55.76,37.31H22.49l-4.39,5.07a.23.23,0,0,0,.17.37H50.94a.23.23,0,0,0,.17-.08Z"/><path class="cls-4" d="M55.76,37.31H22.82c-.51,1-1,2-1.53,2.94-.33.59-.39,1.56.57,1.56H50.11a2.12,2.12,0,0,0,1.45-.57Z"/><path class="cls-5" d="M55.84,37.16H22.77a.67.67,0,0,0-.48.11,10.29,10.29,0,0,0-1.06,1.23C20.16,39.74,19.08,41,18,42.22c-.24.29-.25.65.21.69.19,0,.38,0,.57,0H50.4c.15,0,.3,0,.45,0,.41,0,.58-.33.83-.61l3.42-4,.84-1c.18-.21-.26-.24-.37-.1L52.33,41A15,15,0,0,0,51,42.59c-.05.08.14,0,0,0H19.41a5.65,5.65,0,0,1-.91,0c-.37-.06-.08-.32.09-.52l3.76-4.35.33-.38-.27.09H51.56c1.34,0,2.71.08,4.06,0h.06C55.87,37.46,56.15,37.16,55.84,37.16Z"/><path class="cls-7" d="M63.9,34.14l-8.15,3.17,4.55,4.39a.36.36,0,0,0,.37.08L68.09,39a.36.36,0,0,0,.13-.59Z"/><path class="cls-4" d="M63.64,34.24l-7.78,3.11,4.09,4.13a.31.31,0,0,0,.34.07l3.07-1.2,1.86-.73c.61-.24,1.46-.53,1.38-1.34a1.66,1.66,0,0,0-.53-.93C65.78,37.05,63.77,34.38,63.64,34.24Z"/><path class="cls-5" d="M63.8,34l-7.13,2.77-1,.4a.16.16,0,0,0-.07.28L59,40.71a8.92,8.92,0,0,0,1.23,1.17c.4.25,1-.11,1.4-.25l5.33-2a12.86,12.86,0,0,0,1.28-.48c.79-.4.07-1-.29-1.35L64.11,34c-.15-.15-.58,0-.42.2l3.16,3.13A9,9,0,0,1,68,38.52c.28.42-.72.61-1,.7l-5.12,1.92-.9.34c-.1,0-.33.18-.44.16s-.24-.2-.31-.27l-.7-.68-3.64-3.52-.07.28L63,34.68l1-.4C64.3,34.17,64,33.9,63.8,34Z"/><path class="cls-5" d="M31.28,52.12a1.08,1.08,0,0,0-.39-.88,4.13,4.13,0,0,0-1.43-.62A5,5,0,0,1,28,50a1.54,1.54,0,0,1,0-2.52A2.59,2.59,0,0,1,29.52,47a2.68,2.68,0,0,1,1.19.26,2,2,0,0,1,.82.72,1.88,1.88,0,0,1,.29,1h-.57a1.41,1.41,0,0,0-.47-1.1,1.82,1.82,0,0,0-1.26-.42,2,2,0,0,0-1.22.34,1.07,1.07,0,0,0-.46.89,1,1,0,0,0,.41.83,3.77,3.77,0,0,0,1.31.57,6.18,6.18,0,0,1,1.36.51,1.94,1.94,0,0,1,.7.63,1.58,1.58,0,0,1,.23.87,1.51,1.51,0,0,1-.63,1.27,2.69,2.69,0,0,1-1.66.48,3.26,3.26,0,0,1-1.3-.25,2,2,0,0,1-.9-.71,1.83,1.83,0,0,1-.3-1h.56A1.33,1.33,0,0,0,28.15,53a2.23,2.23,0,0,0,1.41.41A2.08,2.08,0,0,0,30.81,53,1.08,1.08,0,0,0,31.28,52.12Z"/><path class="cls-5" d="M33.63,51v2.72h-.56V47.08h2.28a2.4,2.4,0,0,1,1.65.53,2.09,2.09,0,0,1,0,2.92,2.47,2.47,0,0,1-1.68.51Zm0-.48h1.71a1.81,1.81,0,0,0,1.25-.39A1.4,1.4,0,0,0,37,49.08,1.46,1.46,0,0,0,36.6,48a1.72,1.72,0,0,0-1.22-.42H33.63Z"/><path class="cls-5" d="M41.84,51.89h-3l-.69,1.88h-.59l2.53-6.69h.54l2.53,6.69h-.59ZM39,51.41h2.68l-1.34-3.64Z"/><path class="cls-5" d="M44.85,47.08,47.31,53l2.48-5.9h.75v6.69H50V50.85l0-3-2.49,5.9H47.1l-2.48-5.87,0,2.94v2.93H44.1V47.08Z"/></svg>