<svg id="Layer_1" data-name="Layer 1" xmlns="http://www.w3.org/2000/svg" viewBox="0 0 80.92 74.39"><defs><style>.cls-1{fill:#ecf8fb;}.cls-2{fill:#fff;}.cls-3{fill:#637aaa;}.cls-4{fill:#abdff5;}.cls-5{fill:#d5f2f8;}.cls-6{fill:#ff9c80;}</style></defs><title>Artboard 13</title><path class="cls-1" d="M20.87,73.45C19.16,73.16-1.44,70.61.08,51.8S3.5,27.33,11.5,25.26,39,13.4,54.24,22.71,86,40.38,79.45,55.25,71.84,75.07,54.78,74.31,29,74.79,20.87,73.45Z"/><rect class="cls-2" x="24.81" y="40.35" width="43.49" height="29.02" rx="12.21" ry="12.21"/><rect class="cls-2" x="25.62" y="41.16" width="43.49" height="29.02" rx="12.21" ry="12.21"/><path class="cls-3" d="M67,69.55H26.15A1.52,1.52,0,0,1,24.63,68V41.69a.18.18,0,1,1,.36,0V68a1.16,1.16,0,0,0,1.16,1.16H67A1.16,1.16,0,0,0,68.12,68V41.69A1.16,1.16,0,0,0,67,40.53H44.67a.18.18,0,0,1,0-.36H67a1.52,1.52,0,0,1,1.52,1.52V68A1.52,1.52,0,0,1,67,69.55Z"/><g id="_Group_" data-name="&lt;Group&gt;"><path class="cls-2" d="M50.71,25.41,45.15,45.24a.91.91,0,0,0,.63,1.12l17.87,5a.91.91,0,0,0,1.12-.63l.87-3.09L66.1,46l5.28-18.83A.91.91,0,0,0,70.75,26L56.69,22.05l-6,3.36Z"/><path class="cls-3" d="M63.9,51.59a1.09,1.09,0,0,1-.29,0l-17.87-5A1.09,1.09,0,0,1,45,45.2l5.56-19.83h0a.18.18,0,0,1,.08-.11l6-3.36a.18.18,0,0,1,.14,0L70.8,25.83a1.09,1.09,0,0,1,.76,1.34L66.27,46l-.46,1.71-.87,3.09A1.09,1.09,0,0,1,63.9,51.59Zm-13-26.06L45.32,45.29a.73.73,0,0,0,.51.9l17.87,5a.73.73,0,0,0,.9-.5l.87-3.09.46-1.71,5.28-18.83a.73.73,0,0,0-.51-.9l-14-3.92Zm-.15-.12h0Z"/></g><g id="_Group_2" data-name="&lt;Group&gt;"><path class="cls-3" d="M54.73,26.69a1.14,1.14,0,0,1-.31,0L50.66,25.6a.18.18,0,0,1,0-.33l6-3.37a.18.18,0,0,1,.26.21l-1.05,3.76a1.14,1.14,0,0,1-1.09.83Zm-3.55-1.33,3.34.94a.78.78,0,0,0,1-.54l.94-3.34Z"/></g><g id="_Group_3" data-name="&lt;Group&gt;"><path class="cls-2" d="M62.93,29.4,61.25,49.93a.91.91,0,0,1-1,.83L41.77,49.24a.91.91,0,0,1-.83-1l.26-3.2.16-1.76L43,23.81a.91.91,0,0,1,1-.83l14.55,1.19,4.44,5.23Z"/><path class="cls-3" d="M60.34,50.94h-.09l-18.5-1.51a1.09,1.09,0,0,1-1-1.17L41,45l.16-1.76,1.6-19.49a1.09,1.09,0,0,1,1.18-1L58.5,24a.18.18,0,0,1,.12.06l4.44,5.23a.18.18,0,0,1,0,.13h0L61.43,49.94a1.09,1.09,0,0,1-1.09,1ZM43.86,23.15a.73.73,0,0,0-.73.67l-1.6,19.49-.16,1.76-.26,3.2a.73.73,0,0,0,.67.78l18.5,1.51a.73.73,0,0,0,.79-.67l1.68-20.46L58.4,24.34,43.92,23.16ZM62.93,29.4h0Z"/></g><g id="_Group_4" data-name="&lt;Group&gt;"><path class="cls-3" d="M62.93,29.59h0L59,29.27A1.14,1.14,0,0,1,58,28l.32-3.89a.18.18,0,0,1,.32-.1l4.45,5.24a.18.18,0,0,1-.14.3Zm-4.3-5-.28,3.46a.78.78,0,0,0,.71.84l3.46.28Z"/></g><g id="_Group_5" data-name="&lt;Group&gt;"><path class="cls-2" d="M48.83,66.86,29,61.17A.91.91,0,0,1,28.41,60l5.13-17.83a.91.91,0,0,1,1.12-.62l3.09.89,1.7.5,18.8,5.4a.91.91,0,0,1,.62,1.13l-4,14-6,3.32Z"/><path class="cls-3" d="M48.83,67h-.05L29,61.34A1.09,1.09,0,0,1,28.24,60l5.13-17.83a1.09,1.09,0,0,1,1.35-.75l3.09.89,1.7.5,18.8,5.4A1.09,1.09,0,0,1,59,49.55l-4,14a.18.18,0,0,1-.09.11l-6,3.32ZM34.41,41.73a.73.73,0,0,0-.7.53L28.59,60.09a.73.73,0,0,0,.5.9l19.73,5.67,5.87-3.25,4-14a.73.73,0,0,0-.5-.9l-18.8-5.4-1.7-.5-3.08-.89Z"/></g><g id="_Group_6" data-name="&lt;Group&gt;"><path class="cls-3" d="M48.82,67a.18.18,0,0,1-.17-.23l1.08-3.75a1.14,1.14,0,0,1,1.41-.78l3.75,1.08a.18.18,0,0,1,0,.33l-6,3.33Zm2-4.44a.78.78,0,0,0-.74.56l-1,3.33,5.25-2.91-3.33-1A.78.78,0,0,0,50.81,62.59Z"/></g><g id="_Group_7" data-name="&lt;Group&gt;"><path class="cls-2" d="M46.46,28.34,43.06,48.66a.91.91,0,0,0,.75,1l18.3,3.06a.91.91,0,0,0,1-.75l.53-3.17L64,47.1l3.22-19.29a.91.91,0,0,0-.75-1L52,24.36l-5.58,4Z"/><path class="cls-3" d="M62.27,53l-.18,0-18.3-3.06a1.09,1.09,0,0,1-.9-1.25l3.39-20.31h0a.18.18,0,0,1,.07-.11l5.58-4a.18.18,0,0,1,.13,0l14.4,2.41a1.09,1.09,0,0,1,.9,1.25L64.15,47.13l-.28,1.75L63.34,52A1.09,1.09,0,0,1,62.27,53ZM46.62,28.44,43.24,48.69a.73.73,0,0,0,.6.84l18.3,3.06A.73.73,0,0,0,63,52l.53-3.17.28-1.75L67,27.78a.73.73,0,0,0-.6-.84L52.08,24.55Zm-.17-.1h0Z"/></g><g id="_Group_8" data-name="&lt;Group&gt;"><path class="cls-3" d="M50.47,29.19l-.19,0-3.85-.64a.18.18,0,0,1-.08-.32l5.59-4a.18.18,0,0,1,.28.18l-.64,3.85a1.14,1.14,0,0,1-1.12.95Zm-3.55-.94,3.42.57a.78.78,0,0,0,.89-.64l.57-3.42Z"/></g><path class="cls-4" d="M59.17,39.06h0l-8.43-1.41a.27.27,0,0,1,.09-.53l8.43,1.41a.27.27,0,0,1,0,.54Z"/><path class="cls-3" d="M62.19,43.82h0L46.28,41.17a.18.18,0,0,1,.06-.36l15.88,2.65a.18.18,0,0,1,0,.36Z"/><path class="cls-3" d="M62.47,42.13h0L46.56,39.47a.18.18,0,1,1,.06-.36L62.5,41.77a.18.18,0,0,1,0,.36Z"/><path class="cls-3" d="M54,44.2h0l-8-1.34a.18.18,0,0,1,.06-.36l8,1.34a.18.18,0,0,1,0,.36Z"/><path class="cls-3" d="M56.49,35.12a5.07,5.07,0,0,1-.84-.07,5,5,0,0,1-3.05-1.68.18.18,0,0,1,.29-.22,4.74,4.74,0,0,0,2.83,1.54,4.6,4.6,0,0,0,3.2-.63.18.18,0,0,1,.21.29A4.79,4.79,0,0,1,56.49,35.12Z"/><circle class="cls-3" cx="52.05" cy="31.61" r="0.47" transform="translate(12.3 77.74) rotate(-80.52)"/><circle class="cls-3" cx="60.08" cy="32.95" r="0.47" transform="translate(17.69 86.78) rotate(-80.52)"/><path class="cls-3" d="M68.94,40.84h0c-3.2-.91-3.47-3.49-3.39-4a.18.18,0,0,1,.36.06s-.09,2.63,3.14,3.55a.18.18,0,0,1,0,.35Z"/><path class="cls-3" d="M45.57,33.85h0a7.25,7.25,0,0,1-4.06-3.91.18.18,0,1,1,.33-.16,7,7,0,0,0,3.81,3.71.18.18,0,0,1,0,.36Z"/><path class="cls-3" d="M51.77,53.41h0a.18.18,0,0,1-.15-.21L52,51.06a.18.18,0,0,1,.36.06L52,53.26A.18.18,0,0,1,51.77,53.41Z"/><path class="cls-3" d="M53.44,53.69h0a.18.18,0,0,1-.15-.21l.36-2.14a.18.18,0,1,1,.36.06l-.36,2.14A.18.18,0,0,1,53.44,53.69Z"/><path class="cls-2" d="M68.3,44.81H48a1.34,1.34,0,0,1-1-.47l-5.06-5.93a1.34,1.34,0,0,0-1-.47H26.15a1.34,1.34,0,0,0-1.34,1.34V68a1.34,1.34,0,0,0,1.34,1.34H67A1.34,1.34,0,0,0,68.3,68Z"/><path class="cls-5" d="M69.11,45.63H48.79a1.34,1.34,0,0,1-1-.47l-5.06-5.93a1.34,1.34,0,0,0-1-.47H27a1.34,1.34,0,0,0-1.34,1.34V68.84A1.34,1.34,0,0,0,27,70.18H67.77a1.34,1.34,0,0,0,1.34-1.34Z"/><path class="cls-3" d="M67,69.55H26.15A1.52,1.52,0,0,1,24.63,68V39.28a1.52,1.52,0,0,1,1.52-1.52H40.87a1.52,1.52,0,0,1,1.16.53l5.06,5.93a1.16,1.16,0,0,0,.88.41H68.3a.18.18,0,0,1,.18.18V68A1.52,1.52,0,0,1,67,69.55ZM26.15,38.12A1.16,1.16,0,0,0,25,39.28V68a1.16,1.16,0,0,0,1.16,1.16H67A1.16,1.16,0,0,0,68.12,68V45H48a1.52,1.52,0,0,1-1.16-.53l-5.06-5.93a1.16,1.16,0,0,0-.88-.41Z"/><path class="cls-3" d="M66.1,63.46a.18.18,0,0,1-.18-.18v-.8a.18.18,0,1,1,.36,0v.8A.18.18,0,0,1,66.1,63.46Z"/><path class="cls-3" d="M66.1,64.72a.18.18,0,0,1-.18-.18v-.49a.18.18,0,1,1,.36,0v.49A.18.18,0,0,1,66.1,64.72Z"/><path class="cls-3" d="M64.9,68H63.77a.18.18,0,0,1,0-.36H64.9a1,1,0,0,0,1-1v-1.3a.18.18,0,1,1,.36,0v1.3A1.39,1.39,0,0,1,64.9,68Z"/><path class="cls-3" d="M62.68,68H61.47a.18.18,0,0,1,0-.36h1.21a.18.18,0,0,1,0,.36Z"/><path class="cls-2" d="M35.31,41.83s-2.46,0-7.93-1.9a21.49,21.49,0,0,1-8-4.54,21.49,21.49,0,0,1-8,4.54c-5.47,1.9-7.93,1.9-7.93,1.9a19.56,19.56,0,0,0,.79,13.22A30.6,30.6,0,0,0,12.78,67a26.22,26.22,0,0,0,6.58,3.64A26.22,26.22,0,0,0,25.95,67a30.6,30.6,0,0,0,8.57-11.9A19.56,19.56,0,0,0,35.31,41.83Z"/><path class="cls-2" d="M35.77,42.38s-2.46,0-7.93-1.9a21.49,21.49,0,0,1-8-4.54,21.49,21.49,0,0,1-8,4.54c-5.47,1.9-7.93,1.9-7.93,1.9A19.56,19.56,0,0,0,4.68,55.6a30.6,30.6,0,0,0,8.57,11.9,26.22,26.22,0,0,0,6.58,3.64,26.22,26.22,0,0,0,6.58-3.64A30.6,30.6,0,0,0,35,55.6,19.56,19.56,0,0,0,35.77,42.38Z"/><path class="cls-3" d="M19.36,70.77H19.3a26,26,0,0,1-6.64-3.67A30.79,30.79,0,0,1,4,55.13a19.85,19.85,0,0,1-1.54-9.3,16.91,16.91,0,0,1,.74-4.05.18.18,0,0,1,.17-.12s2.5,0,7.87-1.89a21.57,21.57,0,0,0,7.94-4.5.19.19,0,0,1,.26,0,21.57,21.57,0,0,0,7.94,4.5c5.37,1.86,7.85,1.89,7.87,1.89a.18.18,0,0,1,.17.12,16.91,16.91,0,0,1,.74,4.05,19.85,19.85,0,0,1-1.54,9.3,30.79,30.79,0,0,1-8.61,12,26,26,0,0,1-6.64,3.67ZM3.55,42a19.63,19.63,0,0,0,.83,13A30.46,30.46,0,0,0,12.9,66.82a25.72,25.72,0,0,0,6.46,3.58,25.72,25.72,0,0,0,6.46-3.58A30.46,30.46,0,0,0,34.35,55a19.63,19.63,0,0,0,.83-13,30.2,30.2,0,0,1-7.86-1.91,22.76,22.76,0,0,1-8-4.46,22.76,22.76,0,0,1-8,4.46A30.2,30.2,0,0,1,3.55,42Z"/><path class="cls-3" d="M35.94,50a.18.18,0,0,1,0-.36,3.76,3.76,0,0,0,3-1.39,7.42,7.42,0,0,0,1.72-3.07,7,7,0,0,0,.18-1.72c0-.18,0-.37,0-.55a1.63,1.63,0,0,1,.54-1.36.18.18,0,1,1,.22.29,1.28,1.28,0,0,0-.4,1.09c0,.18,0,.37,0,.54A7.35,7.35,0,0,1,41,45.3a7.78,7.78,0,0,1-1.81,3.22A4.13,4.13,0,0,1,35.94,50Z"/><ellipse id="_Path_" data-name="&lt;Path&gt;" class="cls-6" cx="13.17" cy="44.94" rx="1.02" ry="0.76" transform="translate(-32.83 53.71) rotate(-84.47)"/><ellipse id="_Path_2" data-name="&lt;Path&gt;" class="cls-6" cx="23.92" cy="45.31" rx="1.02" ry="0.76" transform="translate(-23.49 64.76) rotate(-84.47)"/><path id="_Path_3" data-name="&lt;Path&gt;" class="cls-3" d="M17,45.36a.55.55,0,0,0-.51.71A2.45,2.45,0,0,0,21.16,46a.55.55,0,0,0-.53-.7Z"/><path id="_Path_4" data-name="&lt;Path&gt;" class="cls-3" d="M15.66,42.64a.47.47,0,0,1-.31-.18h0a.46.46,0,0,1,.07-.64.44.44,0,0,1,.34-.09.47.47,0,0,1,.3.18.46.46,0,0,1-.07.64A.44.44,0,0,1,15.66,42.64Z"/><path id="_Path_5" data-name="&lt;Path&gt;" class="cls-3" d="M21.87,42.57a.47.47,0,0,1-.31-.18h0a.45.45,0,1,1,.71-.55.47.47,0,0,1,.1.34.44.44,0,0,1-.5.39Z"/><path class="cls-3" d="M25.4,64.67a.18.18,0,0,1-.12-.31c.54-.49,1.18-1.08,1.88-1.83a.18.18,0,1,1,.27.24c-.7.76-1.35,1.37-1.9,1.86A.18.18,0,0,1,25.4,64.67Z"/><path class="cls-3" d="M24.05,65.7a.18.18,0,0,1-.11-.33l.58-.44a.18.18,0,0,1,.23.28l-.59.45A.18.18,0,0,1,24.05,65.7Z"/><path class="cls-3" d="M22.72,66.61a.18.18,0,0,1-.1-.33l.72-.47a.18.18,0,1,1,.2.3l-.73.48A.18.18,0,0,1,22.72,66.61Z"/><path class="cls-3" d="M12.4,63.81a.18.18,0,0,1-.13-.05l-.61-.61a.18.18,0,1,1,.26-.25l.6.6a.18.18,0,0,1-.13.31Z"/><path class="cls-3" d="M11.2,62.56a.18.18,0,0,1-.13-.06L10.64,62a.18.18,0,1,1,.27-.24l.43.47a.18.18,0,0,1-.13.3Z"/><path class="cls-3" d="M10.2,61.37a.18.18,0,0,1-.14-.07,25.85,25.85,0,0,1-1.79-2.62.18.18,0,1,1,.31-.19,25.5,25.5,0,0,0,1.77,2.58.18.18,0,0,1-.14.29Z"/><path class="cls-2" d="M55.65,19.77a21.4,21.4,0,1,0-42.13,7.51Z"/><path class="cls-4" d="M56.42,20.34a21.4,21.4,0,0,0-42.13,7.51Z"/><path class="cls-3" d="M13.52,27.46a.18.18,0,0,1-.18-.15,21.58,21.58,0,1,1,42.49-7.57.18.18,0,0,1-.15.21L13.55,27.46ZM34.6,2.3A21.22,21.22,0,0,0,13.67,27.07l41.78-7.44A21.25,21.25,0,0,0,34.6,2.3Z"/><path class="cls-3" d="M21.35,23.23a.18.18,0,0,1-.18-.15,24.86,24.86,0,0,1-.38-3.72.18.18,0,0,1,.36,0A24.49,24.49,0,0,0,21.52,23a.18.18,0,0,1-.15.21Z"/><path class="cls-3" d="M21.5,14.09h0a.18.18,0,0,1-.14-.22,16.13,16.13,0,0,1,9.2-11.54.18.18,0,0,1,.15.33,15.78,15.78,0,0,0-9,11.29A.18.18,0,0,1,21.5,14.09Z"/><path class="cls-3" d="M28.36,15.88a.18.18,0,0,1-.18-.16c-.48-4.61-.19-7.86,1-10.56a.18.18,0,1,1,.33.14c-1.12,2.63-1.41,5.84-.94,10.38a.18.18,0,0,1-.16.2Z"/><path class="cls-3" d="M38.8,16.84a.18.18,0,0,1-.18-.14c-.91-4.49-1.88-7.37-3.22-9.61a.18.18,0,0,1,.31-.19c1.37,2.28,2.34,5.18,3.27,9.72a.18.18,0,0,1-.14.21Z"/><path class="cls-3" d="M41.62,7.71a.18.18,0,0,1-.13-.06A14.32,14.32,0,0,0,31.31,2.56a.18.18,0,1,1,0-.36A14.67,14.67,0,0,1,41.75,7.41a.18.18,0,0,1-.13.3Z"/><path class="cls-3" d="M46.85,18.76a.18.18,0,0,1-.18-.15A23.23,23.23,0,0,0,43.28,10a.18.18,0,0,1,.3-.2A23.6,23.6,0,0,1,47,18.55a.18.18,0,0,1-.15.21Z"/><path class="cls-3" d="M37.8,41.72a.18.18,0,0,1-.18-.15l-3.21-18a.18.18,0,0,1,.36-.06L38,41.5a.18.18,0,0,1-.15.21Z"/><path class="cls-3" d="M32.84,13.9a.18.18,0,0,1-.18-.15l-.84-4.7A.18.18,0,0,1,32.18,9l.84,4.7a.18.18,0,0,1-.15.21Z"/><path class="cls-3" d="M30.84,2.65a.18.18,0,0,1-.18-.15L30.25.21a.18.18,0,1,1,.36-.06L31,2.44a.18.18,0,0,1-.15.21Z"/><path class="cls-3" d="M40.19,44a2.9,2.9,0,0,1-2.85-2.39l-.26-1.48L38,40l.26,1.48a2,2,0,0,0,3.93-.7.45.45,0,0,1,.89-.16A2.9,2.9,0,0,1,40.71,44,2.94,2.94,0,0,1,40.19,44Z"/><path class="cls-3" d="M9.85,57.8a5.37,5.37,0,0,1-3.17-1.16,11.4,11.4,0,0,1-3.32-4.13.18.18,0,0,1,.32-.16,11.19,11.19,0,0,0,3.21,4,4.5,4.5,0,0,0,4.64.71h0a.88.88,0,0,1,.49-.11.46.46,0,0,1,.33.24.35.35,0,0,1,0,.32.18.18,0,0,1-.33-.15.1.1,0,0,0-.07,0,.59.59,0,0,0-.29.08h0A4.38,4.38,0,0,1,9.85,57.8Z"/></svg>