<svg id="Layer_1" data-name="Layer 1" xmlns="http://www.w3.org/2000/svg" viewBox="0 0 64.12 74.77"><defs><style>.cls-1{fill:#abdff5;}.cls-2{fill:#ffeea4;}.cls-3{fill:#637aab;}.cls-4{fill:#ffe07b;}.cls-5{fill:#fff7bf;}.cls-6{fill:#637aaa;}.cls-7{fill:#ffac98;}</style></defs><title>Artboard 18</title><path class="cls-1" d="M9.9,69.7c-.7.36-1,.8-.62,1.32,2.36,3.62,12.87,3.63,18,3.68,6.42.07,13.09.24,18.87-.57,2.42-.34,7.89-.61,8.83-1.81,2.45-3.16-15-4.24-17.87-4.32C32.36,67.88,13.89,67.62,9.9,69.7Z"/><path class="cls-2" d="M40.83,64.27c0,1.09-3.86,2-8.78,2s-8.78-.89-8.78-2l-.12,5.66c0,1.09,4,2,8.9,2s8.9-.89,8.9-2Z"/><path class="cls-3" d="M40.58,64.34c0,.68-1.28,1-1.77,1.09a20.84,20.84,0,0,1-4.15.62,28,28,0,0,1-9.26-.64c-.55-.15-1.85-.46-1.88-1.2,0-.13-.5,0-.5.14l-.11,4.89c0,.47-.12.92.26,1.27a6.16,6.16,0,0,0,3,1.07,32.83,32.83,0,0,0,11,.1,9.48,9.48,0,0,0,3.4-1,1.09,1.09,0,0,0,.64-1.09l-.12-5.38c0-.13-.51,0-.5.14l.1,4.49c0,.39.16,1.06-.06,1.42a2,2,0,0,1-1,.63,11,11,0,0,1-1.82.47,32.24,32.24,0,0,1-10.7.09,7.68,7.68,0,0,1-3.28-1c-.44-.32-.37-.67-.36-1.15l.11-5.06-.5.14c0,.71,1.17,1,1.7,1.21a19.5,19.5,0,0,0,4.39.73,37.83,37.83,0,0,0,5.8,0,19.63,19.63,0,0,0,4.3-.72c.6-.19,1.84-.54,1.88-1.34C41.09,64.08,40.59,64.16,40.58,64.34Z"/><path class="cls-4" d="M39.6,63a16.79,16.79,0,0,0-3.66-.63,40.08,40.08,0,0,0-5.26-.1,24.14,24.14,0,0,0-5,.65c-.67.18-2.43.62-2.5,1.52,0,0,0,0,0,0a.39.39,0,0,0,0,.11c.05.66,1.19.93,1.68,1.06a21.29,21.29,0,0,0,4.14.59,29.52,29.52,0,0,0,9.53-.65c.71-.2,2.12-.56,2.36-1.4S40.08,63.15,39.6,63Z"/><path class="cls-3" d="M39.81,62.9a20,20,0,0,0-4.71-.71,41.81,41.81,0,0,0-5,0,23.3,23.3,0,0,0-4.48.65,5.52,5.52,0,0,0-2.33,1,1,1,0,0,0-.36.9c.11.43.64.65,1,.78a16.21,16.21,0,0,0,4.08.74,32.91,32.91,0,0,0,9.33-.34,7.8,7.8,0,0,0,3.33-1.19c.34-.28.64-.75.34-1.16a2.36,2.36,0,0,0-1.23-.67c-.11,0-.55.14-.42.19a2.64,2.64,0,0,1,1,.52c.41.4.16.91-.24,1.21a7.64,7.64,0,0,1-3.1,1,32.53,32.53,0,0,1-8.13.28c-.74,0-6.42-.37-5.41-2.07.4-.67,1.46-.88,2.15-1.06a22.32,22.32,0,0,1,4.28-.6,40.87,40.87,0,0,1,4.78,0,19.63,19.63,0,0,1,4.63.7C39.51,63.13,39.95,62.95,39.81,62.9Z"/><path class="cls-4" d="M53.43,2.57A93.51,93.51,0,0,1,32.06,5.09,93.52,93.52,0,0,1,10.69,2.57c0,20.1,8.38,41,19.13,43.59,0,.49,1.19,14.76-2.81,17.44-.5.34.13,1.19.74,1.28a11,11,0,0,0,4.24.47,18.13,18.13,0,0,0,4.23-.46c.62-.09,1.24-1,.72-1.32C33.2,61,34.25,46.66,34.29,46.16,45,43.57,53.43,22.68,53.43,2.57Z"/><path class="cls-2" d="M33.92,46.08a6.13,6.13,0,0,0,1.22-.26,10.6,10.6,0,0,0,1.73-.8,15.49,15.49,0,0,0,2.26-1.52,20.61,20.61,0,0,0,2.15-2,27.31,27.31,0,0,0,2-2.44c.68-.92,1.3-1.87,1.88-2.84a10,10,0,0,0,1.08-2c.21-.67.24-1.39.38-2.07a7.42,7.42,0,0,1,1.11-2.55,11.52,11.52,0,0,1,.78-1.07,8.15,8.15,0,0,0,1.33-2.74q.65-2,1.18-4t1-4.15q.44-2.13.75-4.28T53.26,9q.19-2.2.26-4.4,0-.51,0-1a8.37,8.37,0,0,1,0-1A80.48,80.48,0,0,1,32.9,5.09,80.47,80.47,0,0,1,12.25,2.57a74.24,74.24,0,0,0,.53,8.77,76,76,0,0,0,1.51,8.52C16,27,18.73,34.58,23.52,40.36a20.47,20.47,0,0,0,4.28,4,13.54,13.54,0,0,0,2.3,1.25,6.17,6.17,0,0,0,1,.37,7,7,0,0,0,1.08.16A9.7,9.7,0,0,0,33.92,46.08Z"/><path class="cls-2" d="M33,45.75a.37.37,0,0,1,.15-.11,1.27,1.27,0,0,1,1.17.27c.18.24,0,.62,0,.89a43.71,43.71,0,0,0,0,9.31c.29,2.61.35,5.19,2.18,7.21.35.38.64.89.38,1.33s-1.19.38-1.54.45a22.49,22.49,0,0,1-3.83.32A9.39,9.39,0,0,1,29,65.12c-.44-.13-.9-.35-1-.76s.5-.87.81-1.24c1.36-1.59,1.64-3.64,2-5.64A51,51,0,0,0,31,47.21a.62.62,0,0,1,0-.32c.32-.61,1.4.16,1.81-.55C33,46.11,32.91,45.9,33,45.75Z"/><path class="cls-5" d="M32.18,15.73c-9.78,0-18.23-.81-20.55-2a.74.74,0,0,1-.33-1,.75.75,0,0,1,1-.33c1.8.9,9.21,1.82,19.88,1.82,9.16,0,17.26-.71,19.7-1.74a.75.75,0,0,1,1,.39.74.74,0,0,1-.4,1C49.82,15,41.67,15.73,32.18,15.73Z"/><path class="cls-5" d="M32.18,12.42c-10.2,0-18.81-.85-20.93-2.07a.73.73,0,0,1-.27-1,.76.76,0,0,1,1-.26c1.58.91,9.18,1.87,20.17,1.87,10.63,0,18.12-.9,20-1.79a.76.76,0,0,1,1,.35.73.73,0,0,1-.35,1C50.38,11.64,42.07,12.42,32.18,12.42Z"/><path class="cls-3" d="M10.6,7.55a77.55,77.55,0,0,0,2.5,15.08,57.88,57.88,0,0,0,5,12.71,27.28,27.28,0,0,0,6.82,8.56,13.3,13.3,0,0,0,3.9,2.16l.49.15c.05,0,.34.11.29,0s0,.17,0,.22c0,.32,0,.63.06.95a57.87,57.87,0,0,1-.06,8.07A25,25,0,0,1,28.86,60a6.94,6.94,0,0,1-1.65,3.26c-.17.16-.46.3-.57.51a.78.78,0,0,0,.21.84c.38.44.91.44,1.43.6a12.21,12.21,0,0,0,3.62.33,16.68,16.68,0,0,0,2.76-.18,8.66,8.66,0,0,0,1.9-.38c.55-.24,1.17-1,.59-1.5a4.53,4.53,0,0,1-1-1.12,11.32,11.32,0,0,1-1.22-3.73A35.08,35.08,0,0,1,34.45,54a66.44,66.44,0,0,1,.06-7.3c0-.18,0-.35,0-.53l-.22.17c4.56-1.12,7.94-5,10.37-8.77a56.37,56.37,0,0,0,7-17.76,78.5,78.5,0,0,0,1.79-12c0-.22-.49-.13-.51.06a74.77,74.77,0,0,1-4.11,20C47,33,44.42,38.37,40.41,42.31A13.61,13.61,0,0,1,34.25,46c-.07,0-.21.08-.22.17a64.11,64.11,0,0,0-.1,7.69,32,32,0,0,0,.68,5.71,7.31,7.31,0,0,0,1.84,3.89c.12.11.3.2.38.34.17.33-.19.77-.48.89a7,7,0,0,1-1.27.24,18,18,0,0,1-3.66.24A9.93,9.93,0,0,1,29,65a4.51,4.51,0,0,1-1.52-.49c-.17-.14-.43-.46-.35-.7s.33-.3.45-.41a4.19,4.19,0,0,0,.61-.7,7.69,7.69,0,0,0,1-2,22.59,22.59,0,0,0,1-5.49,58.36,58.36,0,0,0,0-8.88l0-.24S30,46,30,46c-4.59-1.13-7.94-5.14-10.33-9a57.24,57.24,0,0,1-6.85-17.8A78.54,78.54,0,0,1,11.1,7.41c0-.19-.52-.08-.5.14Z"/><path class="cls-2" d="M56.24,5.63a3.94,3.94,0,0,1,3.23,2.3,12,12,0,0,1-.3,9.1,22,22,0,0,1-6,8.12c-2.27,2-5.12,3.43-6.35,6.36a4,4,0,0,0,.88,4.65,3.45,3.45,0,0,0,2.57,1.05,4.75,4.75,0,0,0,3.31-1.75,1.12,1.12,0,0,0-.49-1.82,2.38,2.38,0,0,0-2.52.68l-.25.24c.11-.1,0,0-.08,0a1.36,1.36,0,0,1,.43-.12c.12,0,.53.13.3,0s0,0,0,0l-.19-.13-.18-.15.06.06L50.45,34a1.18,1.18,0,0,1-.37-.69A2.1,2.1,0,0,1,50,33s0,.18,0,0a3.09,3.09,0,0,1,0-.48,2.16,2.16,0,0,1,.25-.74c.07-.16.15-.31.24-.46l.11-.19c-.13.2,0,0,0,0,.2-.28.4-.55.63-.81l.32-.35c.26-.28-.11.08.1-.1s.36-.32.56-.46c.68-.5,1.37-1,2-1.5A32.85,32.85,0,0,0,58.46,24a21.4,21.4,0,0,0,5.07-9.61c.67-3.1.42-6.84-1.6-9.42a6.71,6.71,0,0,0-5.38-2.63,5.61,5.61,0,0,0-2,.41c-.32.13-.61.31-.92.47s-.54-.17-.88-.09a1.85,1.85,0,0,0-.88.39,4,4,0,0,0-.29,2.27,6.38,6.38,0,0,1,0,.88c0,.15-.08.29-.09.44s0,.69.34.54c.09,0,.14-.19.21-.27a3.92,3.92,0,0,1,1.18-.62,3.57,3.57,0,0,0,.58-.52,2.7,2.7,0,0,1,.79-.43A4,4,0,0,1,56.24,5.63Z"/><path class="cls-2" d="M7.89,5.64a3.94,3.94,0,0,0-3.23,2.3A12,12,0,0,0,5,17a22,22,0,0,0,6,8.12c2.27,2,5.12,3.43,6.35,6.36a4,4,0,0,1-.88,4.65,3.45,3.45,0,0,1-2.57,1.05,4.75,4.75,0,0,1-3.31-1.75A1.12,1.12,0,0,1,11,33.64a2.38,2.38,0,0,1,2.52.68l.25.24c-.11-.1,0,0,.08,0a1.36,1.36,0,0,0-.43-.12c-.12,0-.53.13-.3,0s0,0,0,0l.19-.13.18-.15-.06.06.26-.29a1.18,1.18,0,0,0,.37-.69,2.1,2.1,0,0,0,0-.27s0,.18,0,0a3.1,3.1,0,0,0,0-.48,2.16,2.16,0,0,0-.25-.74c-.07-.16-.15-.31-.24-.46l-.11-.19c.13.2,0,0,0,0-.2-.28-.4-.55-.63-.81L12.48,30c-.26-.28.11.08-.1-.1s-.36-.32-.56-.46c-.68-.5-1.37-1-2-1.5A32.86,32.86,0,0,1,5.67,24,21.4,21.4,0,0,1,.6,14.44C-.07,11.35.17,7.6,2.2,5A6.71,6.71,0,0,1,7.58,2.39a19.34,19.34,0,0,1,3.34.84,6.54,6.54,0,0,1,1.15.29c.67.27.69.86.89,1.44s.53.91.73,1.38a2.49,2.49,0,0,1,.2,1.7c-.18.55-.78.5-1.14.18-.16-.14-.29-.31-.44-.45A14.78,14.78,0,0,0,9.87,6.14,3.22,3.22,0,0,0,7.89,5.64Z"/><ellipse class="cls-2" cx="32.08" cy="2.58" rx="21.37" ry="2.47"/><ellipse class="cls-4" cx="32.08" cy="3.7" rx="18.29" ry="1.24"/><path class="cls-3" d="M53.71,2.52c0-.44-.73-.67-1.06-.79a16.17,16.17,0,0,0-2.88-.67A85.41,85.41,0,0,0,39.33.14q-6.78-.28-13.58,0A93.79,93.79,0,0,0,15.12,1,20.82,20.82,0,0,0,12,1.65c-.44.14-1.2.34-1.44.79-.5,1,2.63,1.43,3.06,1.51a71.37,71.37,0,0,0,9.81,1c4.47.23,8.94.26,13.41.14A109.83,109.83,0,0,0,48,4.33a30.08,30.08,0,0,0,3.58-.64,4.62,4.62,0,0,0,1.88-.77.57.57,0,0,0,.24-.41c0-.09-.5,0-.5.14,0,.43-.85.62-1.14.71A20.43,20.43,0,0,1,49,4a92.86,92.86,0,0,1-10.11.82q-6.4.25-12.82,0A99.67,99.67,0,0,1,15.78,4a24.75,24.75,0,0,1-3.24-.62c-.44-.12-1.25-.29-1.51-.72-.51-.85,2.87-1.32,3.22-1.39A77.83,77.83,0,0,1,23.79.42C28,.21,32.3.18,36.54.29c3.59.09,7.19.27,10.76.7a35,35,0,0,1,3.68.6,5.38,5.38,0,0,1,2,.7.52.52,0,0,1,.26.38C53.21,2.76,53.71,2.67,53.71,2.52Z"/><path class="cls-3" d="M53.47,7.9C53.39,6,55.61,5.48,57.1,6c1.94.65,2.59,2.83,2.81,4.66.51,4.35-1.61,8.64-4.37,11.86a27.71,27.71,0,0,1-4.33,4,17.68,17.68,0,0,0-3.73,3.43,5.08,5.08,0,0,0-1,4.91,4,4,0,0,0,3.93,2.51A4.73,4.73,0,0,0,53,36.29c.61-.49,1.44-1.18,1.08-2.06a1.78,1.78,0,0,0-2-.86,3.48,3.48,0,0,0-2,1.14c-.22.21.28.24.41.11l.05-.05c.22-.22-.25-.22-.37-.15l-.12.08c-.28.16.1.28.27.21a.72.72,0,0,1,.54,0c.12,0,.39,0,.4-.18h0a.1.1,0,0,0-.06-.11L51,34.3c-.14,0-.58.17-.35.28l.15.08c.15.09.62-.11.4-.26l-.33-.26c-.14-.12-.63,0-.47.21l.1.1.47-.21a2.11,2.11,0,0,1-.7-1.26c0-.2-.52-.07-.5.14v.09c0,.19.5.08.51-.09a3.69,3.69,0,0,1,.62-1.91c.13-.22-.38-.19-.48,0l-.05.08c-.14.23.37.16.48,0,.36-.46.74-.9,1.1-1.36.11-.14,0-.24-.18-.21a.46.46,0,0,0-.3.16c-.17.21.17.25.31.18a2.55,2.55,0,0,0,.44-.35c.33-.27.68-.51,1-.76.59-.43,1.17-.86,1.73-1.32a32.82,32.82,0,0,0,3.3-3.11,23.28,23.28,0,0,0,4.5-6.9C64.56,13.28,65.09,7,61,3.75a6.53,6.53,0,0,0-7.7-.46c-.29.19.14.3.32.18a5.93,5.93,0,0,1,7.19.71,9.05,9.05,0,0,1,2.75,6.13c.41,5-2,9.88-5.2,13.54A32,32,0,0,1,55.15,27q-.89.76-1.83,1.45l-.94.68a7.41,7.41,0,0,1-.8.65l.31.18c.08-.1.08,0-.17,0l-.18-.21c-.38.48-.78.95-1.17,1.44l.48,0,.05-.08-.48,0a3.87,3.87,0,0,0-.65,2l.51-.09V33l-.5.14a2.24,2.24,0,0,0,.74,1.33c.14.14.62,0,.47-.21l-.1-.1-.47.21a4.82,4.82,0,0,0,.4.31l.4-.26-.15-.08-.35.28q.09.08.06,0l.4-.18a1.7,1.7,0,0,0-1.05.08l.27.21.12-.08-.37-.15-.05.05.41.11c.66-.64,1.54-1.3,2.51-.8a1.08,1.08,0,0,1,.6,1.06c-.06.45-.49.81-.82,1.09A3.84,3.84,0,0,1,49.88,37a3.65,3.65,0,0,1-2.44-1.55c-1.19-1.61-.77-3.57.25-5.14a15.51,15.51,0,0,1,3.84-3.66,24.53,24.53,0,0,0,7.22-8.19,15.4,15.4,0,0,0,1.69-5.58,9.71,9.71,0,0,0-.93-5.47,3.91,3.91,0,0,0-4-1.91C54.1,5.71,52.9,6.52,53,8c0,.19.51.08.5-.14Z"/><path class="cls-3" d="M11.16,7.95A2.31,2.31,0,0,0,9,5.56a4.19,4.19,0,0,0-3.69,1c-1.23,1.21-1.6,3.24-1.66,4.9a14,14,0,0,0,1.12,5.76A22.27,22.27,0,0,0,11.64,26a30.51,30.51,0,0,1,4,3.33c1.16,1.29,2.17,3.1,1.73,4.89a4,4,0,0,1-2,2.54A3.39,3.39,0,0,1,12,36.43C11.32,36,9.88,34.9,10.79,34s2.13,0,2.79.68l.47-.21L14,34.41l-.43.24.12.08.35-.28a1.48,1.48,0,0,0-.92-.06l.22.09h0l-.15.19.1-.05-.14-.27-.2.11.32.18a5,5,0,0,0,.41-.32l-.41-.11-.1.1c-.21.22.28.25.41.11A2.3,2.3,0,0,0,14.36,33l-.51.05v.09l.51-.05a4,4,0,0,0-.66-2l-.47.21.05.08.47-.21c-.37-.47-.76-.93-1.13-1.4l-.38.25c-.08,0-.06,0,0,0l.43-.24a4,4,0,0,1-.55-.45c-.28-.22-.57-.42-.86-.63-.61-.44-1.21-.9-1.8-1.38a33.11,33.11,0,0,1-2.9-2.71,23.66,23.66,0,0,1-4.36-6.31C.3,14.25-.58,8.45,2.66,4.77A6.51,6.51,0,0,1,6.11,2.69a4.64,4.64,0,0,1,2.29,0,7.57,7.57,0,0,1,2.07,1.07c.16.1.61-.12.4-.26A6,6,0,0,0,7.29,2.24a7,7,0,0,0-3.35,1A8.44,8.44,0,0,0,.21,9.09c-1,5.23,1.46,10.6,4.77,14.53A31.13,31.13,0,0,0,8.54,27.2q.89.76,1.83,1.46l1.1.8a6.13,6.13,0,0,0,.78.62c.12.06.58,0,.43-.24a.27.27,0,0,0-.15-.11c-.1,0-.53.07-.38.25.37.47.76.92,1.13,1.4.12.15.59,0,.47-.21l-.05-.08c-.1-.16-.59,0-.47.21a3.64,3.64,0,0,1,.62,1.87c0,.23.49.14.51-.05V33c0-.23-.48-.14-.51.05a2,2,0,0,1-.68,1.21l.41.11.1-.1c.22-.22-.28-.22-.41-.11l-.32.25c-.29.2.15.28.32.18l.09,0c.26-.13.1-.35-.14-.27l-.23.1c-.08,0-.16.1-.15.19h0c0,.08.16.1.22.09a1.05,1.05,0,0,1,.67,0c.14.05.57-.15.35-.28L14,34.38c-.12-.07-.59.07-.43.24l.05.05c.14.13.62-.06.47-.21a3.35,3.35,0,0,0-1.8-1.09,2.16,2.16,0,0,0-1.87.5c-1.29,1.3,1,2.82,2.07,3.23A4,4,0,0,0,17,35.84,4.3,4.3,0,0,0,17.35,31a11.56,11.56,0,0,0-3.42-3.79A40.46,40.46,0,0,1,9.56,23.5c-2.89-3-5.21-6.91-5.4-11.17A10.33,10.33,0,0,1,4.65,8.6,4,4,0,0,1,6.48,6.17C8,5.37,10.75,5.87,10.66,8c0,.23.5.14.51-.05Z"/><path id="_Path_" data-name="&lt;Path&gt;" class="cls-6" d="M29.43,26.26a.81.81,0,0,0-.79,1,3.61,3.61,0,0,0,6.92.12.81.81,0,0,0-.76-1.05Z"/><path class="cls-6" d="M27.32,22.42a1,1,0,0,1,1.12-1,1.12,1.12,0,0,1,.84,1.1c0,.21.52.09.5-.14-.1-1.83-2.87-1.67-3,.09,0,.25.5.17.51,0Z"/><path class="cls-6" d="M34.94,22.42a1,1,0,0,1,1.12-1,1.12,1.12,0,0,1,.84,1.1c0,.21.52.09.5-.14-.1-1.83-2.87-1.67-3,.09,0,.25.5.17.51,0Z"/><ellipse class="cls-7" cx="23.65" cy="26.27" rx="1.51" ry="1.85"/><ellipse class="cls-7" cx="40.56" cy="26.27" rx="1.51" ry="1.85"/></svg>