<svg id="Layer_1" data-name="Layer 1" xmlns="http://www.w3.org/2000/svg" xmlns:xlink="http://www.w3.org/1999/xlink" viewBox="0 0 101.96 63.21"><defs><style>.cls-1{fill:none;}.cls-2{fill:#ecf8fb;}.cls-3{fill:#fff;}.cls-4{fill:#abdff5;}.cls-5{fill:#637aaa;}.cls-6{fill:#d5f2f8;}.cls-7{clip-path:url(#clip-path);}</style><clipPath id="clip-path"><rect class="cls-1" x="69.72" y="23.26" width="15.4" height="22.87"/></clipPath></defs><title>Artboard 3</title><path class="cls-2" d="M24.79,60.68c-2-.31-25.47-3.14-23.74-24S5,9.51,14.09,7.22,45.46-5.95,62.9,4.38,99.15,24,91.68,40.49,83,62.49,63.51,61.65,34.09,62.18,24.79,60.68Z"/><g id="_Group_" data-name="&lt;Group&gt;"><path class="cls-3" d="M79.64,52.08v-42a1.39,1.39,0,0,0-1.38-1.38H9.12a1.39,1.39,0,0,0-1.38,1.38v42Z"/></g><g id="_Group_2" data-name="&lt;Group&gt;"><path class="cls-4" d="M80.52,53V11A1.39,1.39,0,0,0,79.14,9.6H10A1.39,1.39,0,0,0,8.62,11V53Z"/></g><g id="_Group_3" data-name="&lt;Group&gt;"><path class="cls-5" d="M79.64,52.27H7.73a.19.19,0,0,1-.19-.19v-42A1.57,1.57,0,0,1,9.12,8.52H78.26a1.57,1.57,0,0,1,1.57,1.57v42A.19.19,0,0,1,79.64,52.27ZM7.92,51.89H79.45V10.09A1.19,1.19,0,0,0,78.26,8.9H9.12a1.19,1.19,0,0,0-1.19,1.19Z"/></g><g id="_Group_4" data-name="&lt;Group&gt;"><path class="cls-3" d="M83.25,56.51H4.12A3.93,3.93,0,0,1,.19,52.58v-.24a.23.23,0,0,1,.23-.23H87a.23.23,0,0,1,.23.23v.23A3.94,3.94,0,0,1,83.25,56.51Z"/></g><g id="_Group_5" data-name="&lt;Group&gt;"><path class="cls-4" d="M84.13,57.39H5a3.93,3.93,0,0,1-3.93-3.93v-.24A.23.23,0,0,1,1.3,53H87.84a.23.23,0,0,1,.23.23v.23A3.94,3.94,0,0,1,84.13,57.39Z"/></g><g id="_Group_6" data-name="&lt;Group&gt;"><path class="cls-5" d="M83.25,56.7H4.12A4.12,4.12,0,0,1,0,52.58v-.24a.42.42,0,0,1,.42-.42H87a.42.42,0,0,1,.42.42v.23A4.13,4.13,0,0,1,83.25,56.7ZM.42,52.3a0,0,0,0,0,0,0v.24a3.74,3.74,0,0,0,3.74,3.74H83.25A3.75,3.75,0,0,0,87,52.58v-.23a0,0,0,0,0,0,0Z"/></g><g id="_Group_7" data-name="&lt;Group&gt;"><path class="cls-3" d="M33.69,52.12a1.4,1.4,0,0,0,1.38,1.17H52.3a1.4,1.4,0,0,0,1.38-1.17Z"/><path class="cls-5" d="M52.3,53.48H35.07a1.59,1.59,0,0,1-1.57-1.33.19.19,0,0,1,.19-.22h20a.19.19,0,0,1,.19.22A1.59,1.59,0,0,1,52.3,53.48ZM33.93,52.31a1.21,1.21,0,0,0,1.14.79H52.3a1.21,1.21,0,0,0,1.14-.79Z"/></g><g id="_Group_8" data-name="&lt;Group&gt;"><rect class="cls-3" x="11.68" y="12.05" width="64.01" height="38.04"/></g><g id="_Group_9" data-name="&lt;Group&gt;"><rect class="cls-3" x="11.68" y="12.05" width="64.01" height="38.04"/><path class="cls-5" d="M75.69,50.28h-64a.19.19,0,0,1-.19-.19V12a.19.19,0,0,1,.19-.19h64a.19.19,0,0,1,.19.19v38A.19.19,0,0,1,75.69,50.28ZM11.87,49.9H75.5V12.24H11.87Z"/></g><g id="_Group_10" data-name="&lt;Group&gt;"><path class="cls-5" d="M75.69,50.28h-64a.19.19,0,0,1-.19-.19V12a.19.19,0,0,1,.19-.19h64a.19.19,0,0,1,.19.19v38A.19.19,0,0,1,75.69,50.28ZM11.87,49.9H75.5V12.24H11.87Z"/></g><circle class="cls-3" cx="43.5" cy="45.24" r="3.2"/><circle class="cls-6" cx="43.83" cy="45.57" r="3.2"/><path class="cls-5" d="M43.5,48.63a3.39,3.39,0,1,1,3.39-3.39A3.4,3.4,0,0,1,43.5,48.63Zm0-6.4a3,3,0,1,0,3,3A3,3,0,0,0,43.5,42.23Z"/><path class="cls-5" d="M43.24,46.29a.19.19,0,0,1-.13-.06L41.9,45a.19.19,0,0,1,.27-.27l1.08,1.08,1.59-1.59a.19.19,0,0,1,.27.27l-1.72,1.72A.19.19,0,0,1,43.24,46.29Z"/><rect class="cls-6" x="20.87" y="21.05" width="45.5" height="9.98" rx="4.73" ry="4.73"/><path class="cls-5" d="M64.7,30.51H21.21A1.2,1.2,0,0,1,20,29.32v-8a1.2,1.2,0,0,1,1.19-1.19H64.7a1.2,1.2,0,0,1,1.19,1.19v8A1.2,1.2,0,0,1,64.7,30.51Zm-43.49-10a.81.81,0,0,0-.81.81v8a.81.81,0,0,0,.81.81H64.7a.81.81,0,0,0,.81-.81v-8a.81.81,0,0,0-.81-.81Z"/><path class="cls-5" d="M34.36,27.66a.24.24,0,0,1-.24-.24V23.24a.24.24,0,1,1,.48,0v4.19A.24.24,0,0,1,34.36,27.66Z"/><path class="cls-5" d="M35.84,27a.24.24,0,0,1-.17-.07l-3-3a.24.24,0,1,1,.34-.34l3,3a.24.24,0,0,1-.17.41Z"/><path class="cls-5" d="M36.45,25.57H32.26a.24.24,0,0,1,0-.48h4.19a.24.24,0,1,1,0,.48Z"/><path class="cls-5" d="M32.88,27a.24.24,0,0,1-.17-.41l3-3A.24.24,0,0,1,36,24l-3,3A.24.24,0,0,1,32.88,27Z"/><path class="cls-5" d="M40.64,27.66a.24.24,0,0,1-.24-.24V23.24a.24.24,0,1,1,.48,0v4.19A.24.24,0,0,1,40.64,27.66Z"/><path class="cls-5" d="M42.12,27A.24.24,0,0,1,42,27l-3-3a.24.24,0,1,1,.34-.34l3,3a.24.24,0,0,1-.17.41Z"/><path class="cls-5" d="M42.74,25.57H38.55a.24.24,0,1,1,0-.48h4.19a.24.24,0,0,1,0,.48Z"/><path class="cls-5" d="M39.16,27a.24.24,0,0,1-.17-.41l3-3a.24.24,0,0,1,.34.34l-3,3A.24.24,0,0,1,39.16,27Z"/><path class="cls-5" d="M46.92,27.66a.24.24,0,0,1-.24-.24V23.24a.24.24,0,1,1,.48,0v4.19A.24.24,0,0,1,46.92,27.66Z"/><path class="cls-5" d="M48.4,27a.24.24,0,0,1-.17-.07l-3-3a.24.24,0,0,1,.34-.34l3,3a.24.24,0,0,1-.17.41Z"/><path class="cls-5" d="M49,25.57H44.83a.24.24,0,1,1,0-.48H49a.24.24,0,0,1,0,.48Z"/><path class="cls-5" d="M45.44,27a.24.24,0,0,1-.17-.41l3-3a.24.24,0,1,1,.34.34l-3,3A.24.24,0,0,1,45.44,27Z"/><path class="cls-5" d="M53.19,27.66a.24.24,0,0,1-.24-.24V23.24a.24.24,0,1,1,.48,0v4.19A.24.24,0,0,1,53.19,27.66Z"/><path class="cls-5" d="M54.67,27A.24.24,0,0,1,54.5,27l-3-3a.24.24,0,1,1,.34-.34l3,3a.24.24,0,0,1-.17.41Z"/><path class="cls-5" d="M55.28,25.57H51.09a.24.24,0,1,1,0-.48h4.19a.24.24,0,1,1,0,.48Z"/><path class="cls-5" d="M51.7,27a.24.24,0,0,1-.17-.41l3-3a.24.24,0,1,1,.34.34l-3,3A.24.24,0,0,1,51.7,27Z"/><path class="cls-5" d="M59.47,27.66a.24.24,0,0,1-.24-.24V23.24a.24.24,0,1,1,.48,0v4.19A.24.24,0,0,1,59.47,27.66Z"/><path class="cls-5" d="M60.95,27a.24.24,0,0,1-.17-.07l-3-3a.24.24,0,1,1,.34-.34l3,3a.24.24,0,0,1-.17.41Z"/><path class="cls-5" d="M61.56,25.57H57.37a.24.24,0,0,1,0-.48h4.19a.24.24,0,1,1,0,.48Z"/><path class="cls-5" d="M58,27a.24.24,0,0,1-.17-.41l3-3a.24.24,0,1,1,.34.34l-3,3A.24.24,0,0,1,58,27Z"/><path class="cls-3" d="M29.64,25.19a.12.12,0,0,1-.12-.12h0a2.1,2.1,0,0,0-1.86-2.31,2.1,2.1,0,0,0-1.86,2.31h0a.12.12,0,0,1-.12.12H25.6a.12.12,0,0,0-.12.12v3.16a.12.12,0,0,0,.12.12h4.13a.12.12,0,0,0,.12-.12V25.32a.12.12,0,0,0-.12-.12ZM28,27.64h-.71a.08.08,0,0,1-.08-.1l.2-.77a.08.08,0,0,0,0-.09.37.37,0,0,1-.19-.31.47.47,0,0,1,.92,0,.37.37,0,0,1-.19.31.08.08,0,0,0,0,.09l.2.77A.08.08,0,0,1,28,27.64Zm.84-2.45H26.47a.11.11,0,0,1-.11-.11h0c0-1,.6-1.79,1.31-1.79S29,24.1,29,25.07h0A.11.11,0,0,1,28.85,25.19Z"/><path class="cls-5" d="M29.38,28.44H25.25a.32.32,0,0,1-.31-.31V25a.32.32,0,0,1,.31-.31h0a2.27,2.27,0,0,1,2-2.43,2.27,2.27,0,0,1,2,2.43h0a.32.32,0,0,1,.31.31v3.16A.32.32,0,0,1,29.38,28.44Zm-4.06-.38h4V25h0a.31.31,0,0,1-.31-.32,1.91,1.91,0,0,0-1.67-2.12,1.91,1.91,0,0,0-1.67,2.12.31.31,0,0,1-.09.22.31.31,0,0,1-.22.09h0Zm4.06-3h0Zm0-.32h0Zm-1.69,2.76H27a.27.27,0,0,1-.26-.34l.18-.7a.55.55,0,0,1-.21-.42A.65.65,0,0,1,28,26a.55.55,0,0,1-.21.42l.18.7a.27.27,0,0,1-.26.34Zm-.11-.24h0Zm-.46-.14h.43l-.16-.64a.27.27,0,0,1,.12-.3.18.18,0,0,0,.1-.15c0-.11-.12-.19-.27-.19S27,25.91,27,26a.18.18,0,0,0,.1.15.27.27,0,0,1,.12.3Zm-.16-.61h0Zm.75,0h0ZM28.51,25H26.12a.3.3,0,0,1-.3-.3c0-1.07.69-2,1.5-2s1.5.91,1.5,2A.3.3,0,0,1,28.51,25Zm-2.31-.38h2.23c0-.82-.54-1.52-1.12-1.52S26.23,23.83,26.2,24.65Z"/><rect class="cls-6" x="20.2" y="33.18" width="45.49" height="8.15"/><path class="cls-5" d="M63.4,39.15H22.26a.19.19,0,0,1,0-.38H63.4a.19.19,0,1,1,0,.38Z"/><path class="cls-5" d="M63.4,37.44H22.26a.19.19,0,0,1,0-.38H63.4a.19.19,0,1,1,0,.38Z"/><path class="cls-5" d="M63.4,35.61H22.1a.19.19,0,0,1,0-.38H63.4a.19.19,0,1,1,0,.38Z"/><rect class="cls-6" x="12.41" y="12.64" width="63.1" height="3.73"/><path class="cls-5" d="M75.64,16h-64a.19.19,0,0,1-.19-.19V12a.19.19,0,0,1,.19-.19h64a.19.19,0,0,1,.19.19v3.73A.19.19,0,0,1,75.64,16Zm-63.77-.38H75.45V12.22H11.87Z"/><circle class="cls-3" cx="15.14" cy="14.33" r="0.86"/><circle class="cls-3" cx="17.73" cy="14.33" r="0.86"/><circle class="cls-3" cx="20.33" cy="14.33" r="0.86"/><path class="cls-5" d="M14.71,15a1.05,1.05,0,1,1,1.05-1.05A1.06,1.06,0,0,1,14.71,15Zm0-1.73a.67.67,0,1,0,.67.67A.68.68,0,0,0,14.71,13.22Z"/><path class="cls-5" d="M17.3,15a1.05,1.05,0,1,1,1.05-1.05A1.06,1.06,0,0,1,17.3,15Zm0-1.73a.67.67,0,1,0,.67.67A.68.68,0,0,0,17.3,13.22Z"/><path class="cls-5" d="M19.9,15a1.05,1.05,0,1,1,1.05-1.05A1.06,1.06,0,0,1,19.9,15Zm0-1.73a.67.67,0,1,0,.67.67A.68.68,0,0,0,19.9,13.22Z"/><path class="cls-3" d="M95.22,63s-4.76-6.29-4.8-6.33c-1.19-1-2.46-2-3.72-2.93a6.28,6.28,0,0,1-1.94-2.44A26.48,26.48,0,0,1,83.48,48a4,4,0,0,1-.31-1.26c0-.35.47-.76.72-1a6.67,6.67,0,0,1,1.18-.85c.44-.26.54-.3.58-.82.11-1.25,0-2.56,0-3.82s-.15-3.42-.17-5.62L83.9,31.47a2.56,2.56,0,0,1,.3-3,1.64,1.64,0,0,1,1.92-.13A10.42,10.42,0,0,1,89.63,32l2.22,3.19a13.62,13.62,0,0,1,1.7,2.66,14.32,14.32,0,0,1,.72,3.44c.22,1.69.35,3.39.5,5.09.08.88.18,1.76.27,2.63a6.36,6.36,0,0,0,.35,1.86,8.5,8.5,0,0,0,1.43,2c.18.21,5,5.15,5,5.15Z"/><path class="cls-5" d="M95.21,63.21c-.09,0-.16-.08-.24-.19l-.25-.32-.84-1.1-2.22-2.95-1.38-1.83c-1-.9-2.14-1.73-3.22-2.54l-.48-.37a6.49,6.49,0,0,1-2-2.51,26.9,26.9,0,0,1-1.28-3.31l-.09-.28A2.71,2.71,0,0,1,83,46.74a2.15,2.15,0,0,1,.78-1.11A7,7,0,0,1,85,44.77l0,0c.39-.23.42-.25.45-.65a21.66,21.66,0,0,0,0-2.53c0-.42,0-.85,0-1.27,0-.57,0-1.33-.07-2.2,0-1-.09-2.19-.1-3.37l-1.55-3.16a2.75,2.75,0,0,1,.33-3.26,1.8,1.8,0,0,1,2.14-.17,10.48,10.48,0,0,1,3.54,3.65L92,35l.46.63a9.27,9.27,0,0,1,1.26,2.06,13.78,13.78,0,0,1,.71,3.33l0,.16c.17,1.36.3,2.74.42,4.08l.09,1c.05.62.12,1.25.19,1.85l.08.78,0,.21a5.42,5.42,0,0,0,.32,1.59,7.47,7.47,0,0,0,1.24,1.81l.16.18c.14.17,3.62,3.77,4.94,5.14a.19.19,0,0,1-.27.26c-.2-.2-4.78-4.94-5-5.16l-.15-.18a7.75,7.75,0,0,1-1.3-1.9,5.71,5.71,0,0,1-.35-1.71l0-.21-.08-.78c-.07-.61-.13-1.24-.19-1.86l-.09-1c-.12-1.33-.24-2.72-.41-4.07l0-.16a13.5,13.5,0,0,0-.68-3.24,9,9,0,0,0-1.21-2l-.47-.64L89.43,32A10,10,0,0,0,86,28.47c-.11-.06-1.09-.54-1.69.09a2.41,2.41,0,0,0-.26,2.83l1.57,3.19a.19.19,0,0,1,0,.08c0,1.19.06,2.37.1,3.41,0,.88.07,1.64.07,2.22,0,.41,0,.84,0,1.26a21.94,21.94,0,0,1,0,2.58c0,.57-.18.68-.64.95l0,0a6.59,6.59,0,0,0-1.15.82c-.2.19-.63.59-.66.87a2.55,2.55,0,0,0,.2.89l.1.3a26.55,26.55,0,0,0,1.26,3.26,6.1,6.1,0,0,0,1.88,2.36l.48.36c1.08.82,2.2,1.66,3.25,2.57,0,0,0,0,1.42,1.88,1.28,1.7,3.19,4.25,3.38,4.45l0,.06a.19.19,0,0,1-.09.25Z"/><g id="_Group_11" data-name="&lt;Group&gt;"><path class="cls-3" d="M70.92,19.75h13a2.11,2.11,0,0,1,2.14,2.07v25a2.11,2.11,0,0,1-2.14,2.07h-13a2.11,2.11,0,0,1-2.14-2.07v-25A2.11,2.11,0,0,1,70.92,19.75Z"/><path class="cls-5" d="M83.91,49.12h-13a2.3,2.3,0,0,1-2.33-2.26v-25a2.3,2.3,0,0,1,2.33-2.26h13a2.3,2.3,0,0,1,2.33,2.26v25A2.3,2.3,0,0,1,83.91,49.12Zm-13-29.18a1.92,1.92,0,0,0-2,1.88v25a1.92,1.92,0,0,0,2,1.88h13a1.92,1.92,0,0,0,2-1.88v-25a1.92,1.92,0,0,0-2-1.88Z"/><path class="cls-5" d="M78.9,22h-3a.5.5,0,0,1,0-1h3a.5.5,0,1,1,0,1Zm-3-.61a.12.12,0,0,0,0,.23h3a.12.12,0,1,0,0-.23Z"/><path class="cls-5" d="M78.53,48.36H76.24a.83.83,0,0,1,0-1.66h2.29a.83.83,0,1,1,0,1.66Zm-2.29-1.28a.45.45,0,0,0,0,.9h2.29a.45.45,0,1,0,0-.9Z"/><g class="cls-7"><g id="_Group_12" data-name="&lt;Group&gt;"><path class="cls-3" d="M84,48.84,71.17,49c-1.26,0-2.24-2.51-2.2-5.6l.27-18c0-2.93,1.06-5.28,2.27-5.27l12.33.12C85,20.22,86,22.56,86,25.45l.14,17.8C86.2,46.31,85.22,48.82,84,48.84Z"/></g><path class="cls-2" d="M69.11,34.41,78,48.9l-6.8.07c-1.26,0-2.24-2.51-2.2-5.6Z"/><path class="cls-2" d="M86.14,38.15l-10.75-18,8.46.08C85,20.22,86,22.56,86,25.45Z"/><path class="cls-2" d="M69.45,23.28,84.71,48.52a1.12,1.12,0,0,1-.72.31l-1.66,0L69.21,27.27l0-1.92A12,12,0,0,1,69.45,23.28Z"/></g><path class="cls-5" d="M85.1,46.32H69.74a.19.19,0,0,1-.19-.19V23.27a.19.19,0,0,1,.19-.19H85.1a.19.19,0,0,1,.19.19V46.13A.19.19,0,0,1,85.1,46.32Zm-15.17-.38h15V23.46h-15Z"/><path class="cls-6" d="M82.42,31.27a.29.29,0,0,1-.29-.29h0c0-3-1.9-5.38-4.32-5.38S73.48,28,73.48,31h0a.29.29,0,0,1-.29.29H73a.29.29,0,0,0-.29.29v7.36a.29.29,0,0,0,.29.29h9.62a.29.29,0,0,0,.29-.29V31.56a.29.29,0,0,0-.29-.29ZM78.63,37H77a.19.19,0,0,1-.18-.24l.46-1.8a.19.19,0,0,0-.08-.21.86.86,0,0,1-.43-.72,1.08,1.08,0,0,1,2.14,0,.86.86,0,0,1-.43.72.19.19,0,0,0-.08.21l.46,1.8A.19.19,0,0,1,78.63,37Zm2-5.72H75a.27.27,0,0,1-.27-.26h0c0-2.26,1.4-4.17,3-4.17s3,1.91,3,4.17h0A.27.27,0,0,1,80.59,31.26Z"/><path class="cls-5" d="M82.09,38.88H72.48A.48.48,0,0,1,72,38.4V31a.48.48,0,0,1,.48-.48h.2a.09.09,0,0,0,.07,0,.1.1,0,0,0,0-.07c0-3.13,2-5.57,4.51-5.57s4.51,2.45,4.51,5.57a.1.1,0,0,0,0,.08.09.09,0,0,0,.07,0h.2a.48.48,0,0,1,.48.48V38.4A.48.48,0,0,1,82.09,38.88Zm-9.62-7.94a.1.1,0,0,0-.1.1V38.4a.1.1,0,0,0,.1.1h9.62a.1.1,0,0,0,.1-.1V31a.1.1,0,0,0-.1-.1h-.2a.47.47,0,0,1-.34-.14.48.48,0,0,1-.14-.34c0-2.91-1.82-5.19-4.13-5.19s-4.13,2.28-4.13,5.19a.48.48,0,0,1-.14.34.47.47,0,0,1-.34.14Zm5.63,5.7H76.46a.38.38,0,0,1-.37-.47l.46-1.8a1.05,1.05,0,0,1-.52-.88,1.27,1.27,0,0,1,2.52,0,1.05,1.05,0,0,1-.52.88l.46,1.8a.38.38,0,0,1-.37.47Zm-.82-3.87a.81.81,0,0,0-.88.71.67.67,0,0,0,.34.56.38.38,0,0,1,.17.42l-.46,1.8h1.65l-.46-1.8a.38.38,0,0,1,.17-.42.67.67,0,0,0,.34-.56A.81.81,0,0,0,77.29,32.78Zm2.78-1.85H74.51a.46.46,0,0,1-.46-.45c0-2.37,1.48-4.36,3.24-4.36s3.24,2,3.24,4.36A.46.46,0,0,1,80.07,30.93Zm-2.78-4.44c-1.55,0-2.86,1.82-2.86,4a.08.08,0,0,0,.08.08h5.56a.08.08,0,0,0,.08-.07C80.14,28.32,78.83,26.49,77.29,26.49Z"/><rect class="cls-6" x="73.13" y="40.9" width="9.11" height="4.04"/><path class="cls-5" d="M81.69,43.94H73.54a.19.19,0,0,1,0-.38h8.14a.19.19,0,0,1,0,.38Z"/><path class="cls-5" d="M81.79,42.25H73.51a.19.19,0,0,1,0-.38h8.27a.19.19,0,0,1,0,.38Z"/></g><path class="cls-3" d="M88.47,42.71V34.78a2.08,2.08,0,0,0-2-2.17h0a2.08,2.08,0,0,0-2,2.17v3.29c0,2.93,0,5.87.2,8.79a5.78,5.78,0,0,0,.6,2.41,13.78,13.78,0,0,0,2.2,3.37Z"/><path class="cls-5" d="M87.51,52.83a.19.19,0,0,1-.15-.07,13.72,13.72,0,0,1-2.23-3.41,6,6,0,0,1-.62-2.47c-.18-3.22-.2-6.39-.2-8.8V34.78a2.27,2.27,0,0,1,2.16-2.36h0a2.27,2.27,0,0,1,2.16,2.36V41.2a.19.19,0,1,1-.38,0V34.78a1.89,1.89,0,0,0-1.78-2h0a1.89,1.89,0,0,0-1.78,2v3.29c0,2.4,0,5.58.2,8.78a5.57,5.57,0,0,0,.59,2.34,13.36,13.36,0,0,0,2.17,3.32.19.19,0,0,1-.15.31Z"/><path class="cls-5" d="M89.6,43.35a.19.19,0,0,1-.1,0,2.76,2.76,0,0,1-.8-.84,6.69,6.69,0,0,1-.4-.71.19.19,0,1,1,.35-.15,7,7,0,0,0,.38.66,2.42,2.42,0,0,0,.68.72.19.19,0,0,1-.1.35Z"/><path class="cls-5" d="M86.49,36.83a1.57,1.57,0,0,1-1.57-1.57V34.6a1.57,1.57,0,0,1,3.14,0v.66A1.57,1.57,0,0,1,86.49,36.83Zm0-3.42a1.19,1.19,0,0,0-1.2,1.19v.66a1.19,1.19,0,0,0,2.38,0v-.66A1.19,1.19,0,0,0,86.49,33.41Z"/></svg>