<svg id="Layer_1" data-name="Layer 1" xmlns="http://www.w3.org/2000/svg" viewBox="0 0 89.26 58.13"><defs><style>.cls-1{fill:#ecf8fb;}.cls-2{fill:#fff;}.cls-3{fill:#abdff5;}.cls-4{fill:#637aaa;}.cls-5{fill:#d5f2f8;}.cls-6{fill:#ff9c80;}</style></defs><title>Artboard 2</title><path class="cls-1" d="M22.9,57.14c-1.84-.3-24-3-22.36-22.62S4.22,9,12.83,6.79s29.54-12.4,46-2.67,34.14,18.46,27.11,34S77.72,58.84,59.37,58.05,31.67,58.55,22.9,57.14Z"/><path id="_Path_" data-name="&lt;Path&gt;" class="cls-2" d="M80.72,48.89V6.33a1.41,1.41,0,0,0-1.4-1.4H9.23a1.41,1.41,0,0,0-1.4,1.4V48.89Z"/><path id="_Path_2" data-name="&lt;Path&gt;" class="cls-3" d="M81.61,49.79V7.23a1.41,1.41,0,0,0-1.4-1.4H10.12a1.41,1.41,0,0,0-1.4,1.4V49.79Z"/><g id="_Group_" data-name="&lt;Group&gt;"><path class="cls-4" d="M80.72,49.07H7.83a.18.18,0,0,1-.18-.18V6.33A1.58,1.58,0,0,1,9.23,4.75H79.31a1.58,1.58,0,0,1,1.58,1.58V48.89A.18.18,0,0,1,80.72,49.07ZM8,48.72H80.54V6.33a1.22,1.22,0,0,0-1.22-1.22H9.23A1.22,1.22,0,0,0,8,6.33Z"/></g><path id="_Path_3" data-name="&lt;Path&gt;" class="cls-2" d="M84.38,53.38H4.16a4,4,0,0,1-4-4v-.24a.23.23,0,0,1,.23-.23H88.13a.23.23,0,0,1,.23.23v.23A4,4,0,0,1,84.38,53.38Z"/><path id="_Path_4" data-name="&lt;Path&gt;" class="cls-3" d="M85.27,54.27H5.05a4,4,0,0,1-4-4v-.24a.23.23,0,0,1,.23-.23H89a.23.23,0,0,1,.23.23v.23A4,4,0,0,1,85.27,54.27Z"/><g id="_Group_2" data-name="&lt;Group&gt;"><path class="cls-4" d="M84.38,53.56H4.16A4.17,4.17,0,0,1,0,49.4v-.24a.41.41,0,0,1,.41-.41H88.13a.41.41,0,0,1,.41.41v.23A4.17,4.17,0,0,1,84.38,53.56Zm-84-4.45a.05.05,0,0,0-.05.05v.24a3.81,3.81,0,0,0,3.8,3.8H84.38a3.81,3.81,0,0,0,3.81-3.81v-.23a.05.05,0,0,0-.05-.05Z"/></g><g id="_Group_3" data-name="&lt;Group&gt;"><path class="cls-2" d="M34.13,48.93a1.42,1.42,0,0,0,1.4,1.19H53a1.42,1.42,0,0,0,1.4-1.19Z"/><path class="cls-4" d="M53,50.29H35.54A1.59,1.59,0,0,1,34,49a.18.18,0,0,1,.18-.21H54.41a.18.18,0,0,1,.18.21A1.59,1.59,0,0,1,53,50.29ZM34.36,49.11a1.24,1.24,0,0,0,1.17.83H53a1.24,1.24,0,0,0,1.17-.83Z"/></g><rect id="_Rectangle_" data-name="&lt;Rectangle&gt;" class="cls-2" x="11.83" y="8.31" width="64.88" height="38.56"/><g id="_Group_4" data-name="&lt;Group&gt;"><rect class="cls-1" x="11.83" y="8.31" width="64.88" height="38.56"/><path class="cls-4" d="M76.71,47.06H11.83a.18.18,0,0,1-.18-.18V8.31a.18.18,0,0,1,.18-.18H76.71a.18.18,0,0,1,.18.18V46.88A.18.18,0,0,1,76.71,47.06ZM12,46.7H76.53V8.49H12Z"/></g><rect class="cls-2" x="17.11" y="0.18" width="54.03" height="46.7"/><rect class="cls-5" x="17.64" y="0.72" width="54.03" height="3.86"/><path class="cls-4" d="M71.13,4.22h-54A.18.18,0,0,1,16.93,4V.18A.18.18,0,0,1,17.11,0h54a.18.18,0,0,1,.18.18V4A.18.18,0,0,1,71.13,4.22ZM17.29,3.86H71V.36H17.29Z"/><circle class="cls-2" cx="20.68" cy="2.56" r="0.89"/><circle class="cls-2" cx="23.37" cy="2.56" r="0.89"/><circle class="cls-2" cx="26.05" cy="2.56" r="0.89"/><path class="cls-4" d="M20.23,3.18a1.07,1.07,0,1,1,1.07-1.07A1.07,1.07,0,0,1,20.23,3.18Zm0-1.79a.72.72,0,1,0,.72.72A.72.72,0,0,0,20.23,1.39Z"/><path class="cls-4" d="M22.92,3.18A1.07,1.07,0,1,1,24,2.11,1.07,1.07,0,0,1,22.92,3.18Zm0-1.79a.72.72,0,1,0,.72.72A.72.72,0,0,0,22.92,1.39Z"/><path class="cls-4" d="M25.6,3.18a1.07,1.07,0,1,1,1.07-1.07A1.07,1.07,0,0,1,25.6,3.18Zm0-1.79a.72.72,0,1,0,.72.72A.72.72,0,0,0,25.6,1.39Z"/><path class="cls-4" d="M71.13,47.06h-54a.18.18,0,0,1-.18-.18V.18A.18.18,0,0,1,17.11,0h54a.18.18,0,0,1,.18.18v46.7A.18.18,0,0,1,71.13,47.06ZM17.29,46.7H71V.36H17.29Z"/><rect class="cls-1" x="30.36" y="42.49" width="26.45" height="1.91"/><path class="cls-4" d="M49.11,43.56H38a.18.18,0,1,1,0-.36H49.11a.18.18,0,0,1,0,.36Z"/><path class="cls-4" d="M59.6,41.85H27.46a.18.18,0,0,1,0-.36H59.6a.18.18,0,0,1,0,.36Z"/><rect class="cls-1" x="35.68" y="8.51" width="9.77" height="8.43"/><rect class="cls-6" x="21.57" y="20.13" width="45.09" height="6.59" rx="3.3" ry="3.3"/><polygon class="cls-1" points="66.46 8.43 49.17 8.43 49.17 16.86 66.67 16.86 66.67 8.43 66.46 8.43"/><path class="cls-4" d="M64.41,14.72H51.32a.18.18,0,0,1,0-.36H64.41a.18.18,0,1,1,0,.36Z"/><path class="cls-4" d="M64.41,12.83H58.9a.18.18,0,0,1,0-.36h5.51a.18.18,0,0,1,0,.36Z"/><path class="cls-4" d="M56.74,12.83H51.32a.18.18,0,0,1,0-.36h5.42a.18.18,0,0,1,0,.36Z"/><path class="cls-4" d="M56.81,10.93H51.3a.18.18,0,0,1,0-.36h5.51a.18.18,0,1,1,0,.36Z"/><polygon class="cls-1" points="66.64 29.56 49.35 29.56 49.35 37.98 66.85 37.98 66.85 29.56 66.64 29.56"/><rect class="cls-1" x="35.68" y="29.56" width="9.77" height="8.43"/><path class="cls-4" d="M43.28,35.72H37.79a.18.18,0,1,1,0-.36h5.49a.18.18,0,0,1,0,.36Z"/><path class="cls-4" d="M43.21,33.95H37.79a.18.18,0,0,1,0-.36h5.42a.18.18,0,1,1,0,.36Z"/><path class="cls-4" d="M43.28,32.06H37.77a.18.18,0,0,1,0-.36h5.51a.18.18,0,0,1,0,.36Z"/><rect class="cls-1" x="21.7" y="29.56" width="9.77" height="8.43"/><path class="cls-4" d="M29.3,35.72H23.81a.18.18,0,0,1,0-.36H29.3a.18.18,0,0,1,0,.36Z"/><path class="cls-4" d="M29.23,33.95H23.81a.18.18,0,0,1,0-.36h5.42a.18.18,0,0,1,0,.36Z"/><path class="cls-4" d="M29.3,32.06H23.79a.18.18,0,0,1,0-.36H29.3a.18.18,0,0,1,0,.36Z"/><rect class="cls-1" x="21.7" y="8.51" width="9.77" height="8.43"/><path class="cls-4" d="M29.3,14.68H23.81a.18.18,0,0,1,0-.36H29.3a.18.18,0,1,1,0,.36Z"/><path class="cls-4" d="M29.23,12.9H23.81a.18.18,0,0,1,0-.36h5.42a.18.18,0,0,1,0,.36Z"/><path class="cls-4" d="M29.3,11H23.79a.18.18,0,1,1,0-.36H29.3a.18.18,0,0,1,0,.36Z"/><path class="cls-4" d="M43.66,30.12a.27.27,0,0,1-.27-.27V26.19a.27.27,0,0,1,.54,0v3.66A.27.27,0,0,1,43.66,30.12Z"/><path class="cls-4" d="M43.66,21.43a.27.27,0,0,1-.27-.27V17.53a.27.27,0,1,1,.54,0v3.62A.27.27,0,0,1,43.66,21.43Z"/><path class="cls-4" d="M48,28.32a.27.27,0,0,1-.19-.08l-2.59-2.59a.27.27,0,1,1,.38-.38l2.59,2.59a.27.27,0,0,1-.19.46Z"/><path class="cls-4" d="M41.89,22.2a.27.27,0,0,1-.19-.08l-2.59-2.59a.27.27,0,1,1,.38-.38l2.59,2.59a.27.27,0,0,1-.19.46Z"/><path class="cls-4" d="M49.82,24H46.15a.27.27,0,0,1,0-.54h3.66a.27.27,0,0,1,0,.54Z"/><path class="cls-4" d="M41.16,24H37.5a.27.27,0,0,1,0-.54h3.66a.27.27,0,0,1,0,.54Z"/><path class="cls-4" d="M45.42,22.2a.27.27,0,0,1-.19-.46l2.59-2.59a.27.27,0,0,1,.38.38l-2.59,2.59A.27.27,0,0,1,45.42,22.2Z"/><path class="cls-4" d="M39.3,28.32a.27.27,0,0,1-.19-.46l2.59-2.59a.27.27,0,0,1,.38.38l-2.59,2.59A.27.27,0,0,1,39.3,28.32Z"/><polygon class="cls-2" points="55.82 33.31 51.06 28.55 53.88 25.74 43.6 23.57 43.55 23.63 45.71 33.9 48.52 31.09 53.28 35.85 55.82 33.31"/><polygon class="cls-6" points="56.4 33.93 51.64 29.17 54.45 26.36 44.17 24.2 44.12 24.25 46.28 34.52 49.09 31.71 53.85 36.47 56.4 33.93"/><path class="cls-4" d="M53.28,36a.18.18,0,0,1-.13-.05l-4.63-4.63L45.84,34a.18.18,0,0,1-.3-.09L43.37,23.67a.18.18,0,0,1,0-.16l.05-.05a.18.18,0,0,1,.16,0l10.27,2.16a.18.18,0,0,1,.09.3l-2.69,2.69,4.63,4.63a.18.18,0,0,1,0,.25L53.41,36A.18.18,0,0,1,53.28,36Zm-4.76-5.12a.18.18,0,0,1,.13.05l4.63,4.63,2.29-2.29-4.63-4.63a.18.18,0,0,1,0-.25l2.58-2.58-9.75-2.05,2.05,9.75L48.4,31A.18.18,0,0,1,48.52,30.91Z"/></svg>