<svg id="Layer_1" data-name="Layer 1" xmlns="http://www.w3.org/2000/svg" viewBox="0 0 79.69 59.68"><defs><style>.cls-1{fill:#ecf8fb;}.cls-2{fill:#abdff5;}.cls-3{fill:#d1d1d1;}.cls-4{fill:#e5e5e5;}.cls-5{fill:#637aaa;}.cls-6{fill:#fff;}.cls-7{fill:#9af8b9;}.cls-8{fill:#637aa8;}.cls-9{fill:#ffac98;}.cls-10{fill:#ffcac1;}.cls-11{fill:#88cdee;}</style></defs><title>Artboard 12</title><path class="cls-1" d="M20.55,58.78c-1.69-.27-22-2.71-20.47-20.71S3.44,14.66,11.33,12.68s27-11.35,42.08-2.44,31.26,16.9,24.82,31.13-7.49,19-24.29,18.25S28.58,60.07,20.55,58.78Z"/><path class="cls-2" d="M12,55.92c-.8-.21-1.1-.46-.72-.75,2.64-2,14.63-2,20.45-1.95,7.32,0,14.93,0,21.53.46,2.76.21,9,.41,10.09,1.09,2.84,1.81-17.1,2.29-20.32,2.31C37.63,57.12,16.57,57.13,12,55.92Z"/><path class="cls-3" d="M57.14,29H37.29a1.44,1.44,0,0,1-1.09-.5l-5.43-6.37a1.44,1.44,0,0,0-1.09-.5H13.88a1.44,1.44,0,0,0-1.44,1.44V53.94a1.44,1.44,0,0,0,1.44,1.44H57.64a1.44,1.44,0,0,0,1.44-1.44V31A2,2,0,0,0,57.14,29Z"/><path class="cls-4" d="M58.17,31.07A1.21,1.21,0,0,0,57,29.86H36.8a1.42,1.42,0,0,1-1.07-.49L30.4,23.2a1.42,1.42,0,0,0-1.07-.49H13.85a1.4,1.4,0,0,0-1.41,1.39V54a1.4,1.4,0,0,0,1.41,1.39H56.76A1.4,1.4,0,0,0,58.17,54Z"/><path class="cls-5" d="M57.19,29H37.76a1.77,1.77,0,0,1-1.1-.24,4.81,4.81,0,0,1-.81-.88l-3.23-3.78L31.3,22.5A2.06,2.06,0,0,0,30,21.6a16.21,16.21,0,0,0-2.19,0H14.36c-1.1,0-2.13.46-2.13,1.72,0,1.5,0,3,0,4.5v23.7c0,.77,0,1.54,0,2.32a1.54,1.54,0,0,0,1.59,1.64c1.37,0,2.74,0,4.11,0H57.06a2.32,2.32,0,0,0,1.83-.56,2.84,2.84,0,0,0,.4-2.06V31.38c0-.14,0-.28,0-.43a2.1,2.1,0,0,0-2.1-2c-.09,0-.48.16-.27.17a2,2,0,0,1,2,2c0,.18,0,.36,0,.54V53c0,.87.14,2.21-1.09,2.31-.28,0-.56,0-.84,0H15.26c-.4,0-.8,0-1.2,0A1.42,1.42,0,0,1,12.65,54c0-.15,0-.31,0-.47V29.33c0-2,0-4.08,0-6.11a1.31,1.31,0,0,1,1.15-1.47c.28,0,.58,0,.87,0H28.25c.82,0,1.73-.15,2.34.52.84.93,1.62,1.9,2.43,2.85l2.8,3.29a1.76,1.76,0,0,0,1.33.71H56.91C57,29.13,57.39,29,57.19,29Z"/><path id="_Path_" data-name="&lt;Path&gt;" class="cls-4" d="M76.21,23.05,64,47.39a1.2,1.2,0,0,1-1.61.53l-21.92-11a1.2,1.2,0,0,1-.54-1.61l1.9-3.79,1.06-2.08L54.48,6.35a1.2,1.2,0,0,1,1.61-.53l17.25,8.64L76.21,23Z"/><path class="cls-6" d="M41.82,31.59l1-2L54.14,7a1.16,1.16,0,0,1,1.55-.53L72.08,14.7l.12.36-2.14,4.27A1.26,1.26,0,0,0,70.62,21L74,22.74A1,1,0,0,1,74.47,24L63,46.84a1.16,1.16,0,0,1-1.55.53l-21-10.53a1.16,1.16,0,0,1-.5-1.56Z"/><g id="_Group_" data-name="&lt;Group&gt;"><path class="cls-5" d="M76,23l-4.47,8.93L64.89,45.29l-.83,1.66c-.28.57-.61,1.19-1.42.83-1.07-.48-2.11-1.06-3.16-1.58L45.61,39.26,41.1,37l-.35-.18a1.19,1.19,0,0,1-.58-1.54c.38-.94.92-1.84,1.37-2.74,1.27-2.55,2.57-5.08,3.84-7.63l7-14,2.15-4.29c.28-.57.64-1.1,1.41-.75.44.2.88.44,1.31.66l13.21,6.61,2.16,1.08c.3.15.5.18.59.45l2.18,6.53.45,1.34A3.37,3.37,0,0,1,76,23c0,.07.36,0,.42-.07s-.13-.44-.16-.53L75.81,21l-1.3-3.9L74,15.44a8.12,8.12,0,0,0-.33-1c-.12-.24-.44-.31-.67-.43l-13-6.51L57.3,6.17c-.36-.18-.71-.39-1.08-.54a1.61,1.61,0,0,0-2,.87L53.5,7.94,46.77,21.37c-1.51,3-3,6.05-4.55,9.06L41,32.76l-.93,1.85a3.51,3.51,0,0,0-.47,1.13c-.07.77.49,1.13,1.08,1.42l1.81.9,13.94,7,5.11,2.56a4,4,0,0,0,1.05.46,1.64,1.64,0,0,0,1.75-1L70,35.9l6.12-12.23.36-.72C76.48,22.88,76.09,22.91,76,23Z"/></g><path id="_Path_2" data-name="&lt;Path&gt;" class="cls-6" d="M73.37,14.38,71.06,19a1.26,1.26,0,0,0,.56,1.69L76.23,23Z"/><g id="_Group_2" data-name="&lt;Group&gt;"><path class="cls-5" d="M73.16,14.42,71,18.8a1.37,1.37,0,0,0,.54,2c.76.39,1.54.77,2.3,1.15L76,23.07c.06,0,.44,0,.41-.13l-2.5-7.52-.36-1.09c0-.1-.45,0-.42.11L75.66,22,76,23.05l.41-.13-4.31-2.16a1.76,1.76,0,0,1-.81-.61,1.33,1.33,0,0,1,0-1.34c.38-.78.78-1.55,1.17-2.33l1.08-2.15C73.6,14.29,73.21,14.31,73.16,14.42Z"/></g><g id="_Group_3" data-name="&lt;Group&gt;"><g id="_Group_4" data-name="&lt;Group&gt;"><path class="cls-7" d="M47.15,30c1.56-1.28,3.19-2.46,4.87-3.59a11.42,11.42,0,0,1,2.32-1.34,1.71,1.71,0,0,1,1.89.13,6.1,6.1,0,0,1,1,1.63,1.66,1.66,0,0,0,.61.77,1.71,1.71,0,0,0,1.13.13,17.8,17.8,0,0,0,2.71-.88c1-.33,1.92-.67,2.86-1a45.11,45.11,0,0,0,6.29-3.09c.21-.12.49-.36.31-.62s-.64-.21-.85-.08a45.83,45.83,0,0,1-5.58,2.81c-1,.4-1.94.75-2.92,1.1l-1.44.49a9.48,9.48,0,0,1-1.34.45c-.31.06-.4-.17-.53-.43s-.31-.62-.47-.92a2.86,2.86,0,0,0-1.36-1.39c-1.6-.66-3.52.48-4.82,1.33a62.58,62.58,0,0,0-5.48,4c-.66.54.36.93.83.54Z"/></g><g id="_Group_5" data-name="&lt;Group&gt;"><path class="cls-7" d="M68.54,23c.33,0,.67,0,1-.09l.5-.08.17,0q.33-.06,0,0l-.27-.28v.06l.21-.48a6.15,6.15,0,0,0-1,1.05,4.85,4.85,0,0,0-.66,1.5c-.08.32.37.46.59.45a.72.72,0,0,0,.69-.53,3.53,3.53,0,0,1,.73-1.38c.23-.27.78-.54.71-1s-.59-.46-.91-.41c-.56.09-1.1.18-1.67.22-.29,0-.66.21-.69.53s.33.47.59.45Z"/></g></g><path class="cls-8" d="M69,29.38l-6.1-3.05-9.71-4.86L51,20.36c-.18-.09-.48.18-.24.3l6.1,3.05,9.71,4.86,2.22,1.11c.18.09.48-.18.24-.3Z"/><path class="cls-8" d="M70.21,27.17l-6.1-3.05L54.4,19.26l-2.22-1.11c-.11-.05-.44.12-.4.14l6.1,3.05L67.6,26.2l2.22,1.11c.11.05.44-.12.4-.14Z"/><path class="cls-8" d="M62.49,35l5-10,.71-1.42c.09-.17-.31-.34-.4-.16l-5,10-.71,1.42c-.09.17.31.34.4.16Z"/><path class="cls-8" d="M66.67,34.15l-6.1-3.05-9.71-4.86-2.22-1.11c-.13-.07-.52.12-.33.22l6.1,3.05,9.71,4.86,2.22,1.11c.13.07.52-.12.33-.22Z"/><path class="cls-8" d="M67.77,31.82l-6.1-3.05L52,23.91,49.75,22.8c-.18-.09-.48.17-.24.29l6.1,3.05L65.31,31l2.22,1.11c.18.09.48-.17.24-.29Z"/><path class="cls-8" d="M47.14,27.63l6.1,3.06L63,35.56l2.25,1.13a.27.27,0,0,0,.32-.12l5.09-10.16L71.36,25c0-.08,0-.14-.08-.17l-6.1-3.06-9.74-4.88-2.25-1.13a.27.27,0,0,0-.32.12L47.77,26l-.72,1.43c-.11.22.32.23.4.06l5.09-10.16.72-1.43-.32.12L59,19.09,68.79,24,71,25.1,71,24.92,65.87,35.08l-.72,1.43.32-.12-6.1-3.06-9.74-4.88-2.25-1.13C47.2,27.25,46.9,27.51,47.14,27.63Z"/><rect class="cls-6" x="60.35" y="32.85" width="5.23" height="5.23" transform="translate(3.07 75.9) rotate(-63.41)"/><rect class="cls-7" x="61.03" y="33.91" width="4.26" height="4.26" transform="translate(2.66 76.38) rotate(-63.41)"/><path class="cls-8" d="M64.3,38.87l-4.68-2.34,0,.12L62,32l-.36.1,4.68,2.34,0-.12L63.94,39c-.09.19.33.16.4,0l2.34-4.68a.08.08,0,0,0,0-.12L62,31.85a.31.31,0,0,0-.36.1l-2.34,4.68a.08.08,0,0,0,0,.12L64,39.08C64.1,39.15,64.48,39,64.3,38.87Z"/><path id="_Path_3" data-name="&lt;Path&gt;" class="cls-4" d="M63.35,11.53,58,38.21a1.2,1.2,0,0,1-1.41.94l-24-4.79a1.2,1.2,0,0,1-.95-1.41l.83-4.16.48-2.29L38,1.16A1.2,1.2,0,0,1,39.39.22L58.31,4l5,7.53Z"/><path class="cls-6" d="M32.44,28.85l.46-2.23L37.83,1.9A1.16,1.16,0,0,1,39.18,1l18,3.58.21.32-.93,4.68a1.26,1.26,0,0,0,1,1.49l3.75.75a1,1,0,0,1,.75,1.13l-5,25a1.16,1.16,0,0,1-1.35.92l-23.06-4.6a1.16,1.16,0,0,1-.89-1.37Z"/><g id="_Group_6" data-name="&lt;Group&gt;"><path class="cls-5" d="M63.15,11.48l-2,9.79L58.28,35.89l-.36,1.82c-.13.63-.31,1.36-1.17,1.24-1.14-.15-2.28-.45-3.4-.68l-15.12-3-5-1-.42-.08a1.14,1.14,0,0,1-.91-1.33c.15-1,.41-2.07.62-3.1C33,27,33.6,24.18,34.15,21.39L37.21,6.08l.93-4.66c.12-.62.38-1.26,1.19-1.14.48.07,1,.19,1.44.29L55.25,3.45l2.37.47.53.1c.08,0,0,0,0,0a1.13,1.13,0,0,1,.11.17l3.84,5.75.77,1.15c.07.11.14.23.22.33s.05.15.07.07c0,.17.4.11.42,0s-.23-.38-.29-.47l-.82-1.23L60.19,6.32c-.52-.78-1-1.65-1.59-2.38-.18-.22-.48-.21-.76-.27L43.65.84C42.28.57,40.91.25,39.54,0a1.52,1.52,0,0,0-1.79,1.28l-.31,1.58L34.49,17.61c-.66,3.29-1.29,6.58-2,9.86q-.27,1.3-.53,2.6l-.4,2a4.21,4.21,0,0,0-.18,1.23c.09.82.78,1.06,1.46,1.2l2,.39,15.19,3L55.71,39a6,6,0,0,0,1.08.19,1.54,1.54,0,0,0,1.52-1.39l2.43-12.21,2.67-13.41.16-.78C63.61,11.26,63.18,11.32,63.15,11.48Z"/></g><path id="_Path_4" data-name="&lt;Path&gt;" class="cls-6" d="M58.32,3.91,57.31,9a1.26,1.26,0,0,0,1,1.49l5.06,1Z"/><g id="_Group_7" data-name="&lt;Group&gt;"><path class="cls-5" d="M58.1,3.94l-1,4.85a1.42,1.42,0,0,0,1.11,1.82c.83.18,1.66.33,2.49.5l2.49.5c.1,0,.43-.05.32-.21l-4.4-6.59-.64-1c-.09-.13-.49,0-.39.17l4.4,6.59.64,1,.32-.21-4.7-.94a1.72,1.72,0,0,1-.91-.35,1.3,1.3,0,0,1-.32-1.28l.51-2.56.46-2.32C58.56,3.71,58.14,3.78,58.1,3.94Z"/></g><g id="_Group_8" data-name="&lt;Group&gt;"><path class="cls-9" d="M48.22,19.58a4.74,4.74,0,1,1-4-6.05.38.38,0,0,1,.33.46l-.6,3a1.27,1.27,0,0,0,1,1.49l3,.6A.39.39,0,0,1,48.22,19.58Z"/><path class="cls-5" d="M48,19.56a4.53,4.53,0,0,1-5.86,3,4.67,4.67,0,0,1-2.77-5.81,4.57,4.57,0,0,1,2.29-2.63,4.43,4.43,0,0,1,1.7-.45c.3,0,.93-.09.93.34a1.11,1.11,0,0,1,0,.18l-.42,2.13c-.13.64-.31,1.3.18,1.86a3.26,3.26,0,0,0,1.9.68l1.3.26c.29.06.84,0,.78.48,0,.21.4.16.43,0,.11-.75-1.07-.76-1.56-.86l-1.33-.27a2.57,2.57,0,0,1-.9-.26c-.84-.55-.42-1.63-.26-2.42l.26-1.31a1.53,1.53,0,0,0,.08-.74c-.18-.5-1-.39-1.42-.36a5.07,5.07,0,0,0-1.76.48,5,5,0,0,0-2.47,2.62,4.91,4.91,0,0,0,2.52,6.24,5,5,0,0,0,6.84-3.09C48.5,19.38,48.08,19.38,48,19.56Z"/></g><g id="_Group_9" data-name="&lt;Group&gt;"><path class="cls-10" d="M48.37,18.34l.6.12a.51.51,0,0,0,.61-.47,4.74,4.74,0,0,0-3.24-4.86.52.52,0,0,0-.67.39l-.34,1.69-.06.32-.17.86a1.27,1.27,0,0,0,1,1.49l.43.09Z"/><path class="cls-5" d="M48.25,18.46c.43.09.93.26,1.31-.05s.23-1.61.06-2.16A4.72,4.72,0,0,0,46.48,13c-1.18-.26-1.18,1.38-1.33,2.14s-.59,1.94.25,2.58a3.16,3.16,0,0,0,1.34.41l1.5.3c.14,0,.5-.19.26-.23l-1.83-.37c-.55-.11-1.06-.24-1.29-.82a2.37,2.37,0,0,1,.07-1.33l.37-1.88a1.51,1.51,0,0,1,.07-.33c.23-.48.92,0,1.19.14a4.68,4.68,0,0,1,2.27,3.42c0,.31.21,1.23-.28,1.27a2.33,2.33,0,0,1-.57-.11C48.36,18.2,48,18.41,48.25,18.46Z"/></g><rect class="cls-10" x="48.84" y="2.16" width="1.47" height="12.57" rx="0.55" ry="0.55" transform="translate(31.6 55.42) rotate(-78.73)"/><rect class="cls-10" x="44.73" y="18.98" width="1.47" height="20.2" rx="0.55" ry="0.55" transform="translate(8.05 67.99) rotate(-78.73)"/><rect class="cls-10" x="53.86" y="14.63" width="1.47" height="4.25" rx="0.55" ry="0.55" transform="translate(27.49 67.03) rotate(-78.73)"/><path class="cls-5" d="M56.13,17.67l-1.47-.29a13.46,13.46,0,0,1-1.62-.32c-.44-.15-.4-.56-.29-.92s.4-.28.68-.22l2,.4a5.72,5.72,0,0,1,.69.14.49.49,0,0,1,.35.57c0,.24-.09.67-.42.63-.17,0-.45.22-.16.25a.84.84,0,0,0,1-.69c.1-.45,0-.86-.46-1-.73-.2-1.5-.3-2.24-.45s-1.58-.45-1.83.4c-.12.39-.15.87.29,1.06a3.55,3.55,0,0,0,.74.17l2.5.5C56,17.93,56.37,17.72,56.13,17.67Z"/><rect class="cls-9" x="52.93" y="19.33" width="1.47" height="4.25" rx="0.55" ry="0.55" transform="translate(22.14 69.89) rotate(-78.73)"/><path class="cls-5" d="M55.2,22.37l-1.47-.29a13.46,13.46,0,0,1-1.62-.32c-.44-.15-.4-.56-.29-.92s.4-.28.68-.22l2,.4a5.71,5.71,0,0,1,.69.14.49.49,0,0,1,.35.57c0,.24-.09.67-.42.63-.17,0-.45.22-.16.25a.84.84,0,0,0,1-.69c.1-.45,0-.86-.46-1-.73-.2-1.5-.3-2.24-.45s-1.58-.45-1.83.4c-.12.39-.15.87.29,1.06a3.55,3.55,0,0,0,.74.17l2.5.5C55.08,22.63,55.44,22.41,55.2,22.37Z"/><path class="cls-5" d="M51,23.87l3.93.78c.12,0,.49-.17.26-.21l-3.93-.78c-.12,0-.49.17-.26.21Z"/><path class="cls-5" d="M51.16,23.22l3.93.78c.14,0,.5-.19.26-.23L51.42,23c-.14,0-.5.19-.26.23Z"/><path class="cls-5" d="M52,19.15l3.93.78c.13,0,.49-.17.26-.22l-3.93-.78c-.13,0-.49.17-.26.22Z"/><path class="cls-5" d="M52.06,18.46l3.93.78c.1,0,.46-.14.35-.16l-3.93-.78c-.1,0-.46.14-.35.16Z"/><path class="cls-5" d="M57,12.37l-5.29-1.05L43.27,9.63l-2-.39c-.23,0-.4.29-.13.34l5.29,1.05,8.45,1.68,2,.39c.23,0,.4-.29.13-.34Z"/><path class="cls-5" d="M56.07,28.44l-6.69-1.33L38.73,25,36.3,24.5c-.09,0-.43.08-.37.09l6.69,1.33L53.27,28l2.43.48c.09,0,.43-.08.37-.09Z"/><path id="_Path_5" data-name="&lt;Path&gt;" class="cls-4" d="M43.49,13.89l5.23,26.7a1.2,1.2,0,0,1-1,1.41L23.71,46.72a1.2,1.2,0,0,1-1.41-.95l-.82-4.16-.43-2.3L16.09,14a1.2,1.2,0,0,1,1-1.41L36,8.84l7.52,5Z"/><path class="cls-6" d="M21.5,41.67l-.42-2.24L16.23,14.69a1.16,1.16,0,0,1,.9-1.37l18-3.53.31.22.92,4.69a1.26,1.26,0,0,0,1.48,1L41.58,15a1,1,0,0,1,1.13.76l4.91,25a1.16,1.16,0,0,1-.9,1.37L23.64,46.66a1.16,1.16,0,0,1-1.35-.93Z"/><g id="_Group_10" data-name="&lt;Group&gt;"><path class="cls-5" d="M43.27,13.87l1.68,8.57L47.72,36.6l.73,3.74c.12.61,0,1.31-.69,1.5-.33.09-.68.13-1,.2L34.14,44.51,27.4,45.83c-1.19.23-2.38.5-3.57.7a1.1,1.1,0,0,1-1.08-.37A2.52,2.52,0,0,1,22.38,45l-.64-3.27c-.2-1-.37-2-.57-3l-2.23-11.4L16.49,14.89c-.07-.34-.15-.68-.2-1a1.12,1.12,0,0,1,1-1.35L22,11.59,35.05,9l.87-.17-.16,0,6.58,4.42a5.14,5.14,0,0,1,.93.62c0,.12.45,0,.42-.11s-.37-.27-.46-.32L42,12.59,38.57,10.3c-.77-.52-1.53-1.08-2.32-1.56-.25-.15-.56,0-.84,0L21.25,11.55c-1.39.27-2.8.52-4.19.82a1.42,1.42,0,0,0-1.16,1.76l.31,1.58L19.1,30.45c.64,3.29,1.31,6.57,1.92,9.87q.24,1.3.5,2.6l.39,2a3.61,3.61,0,0,0,.35,1.28c.43.65,1.14.6,1.8.47L26,46.29l15.17-3,5.74-1.13c.33-.07.68-.11,1-.2a1.37,1.37,0,0,0,1-1.53c0-.09,0-.18-.05-.27L46.47,28,43.84,14.55l-.15-.79C43.66,13.64,43.24,13.74,43.27,13.87Z"/></g><path id="_Path_6" data-name="&lt;Path&gt;" class="cls-6" d="M35.94,8.76l1,5.06a1.26,1.26,0,0,0,1.48,1l5.06-1Z"/><g id="_Group_11" data-name="&lt;Group&gt;"><path class="cls-5" d="M35.73,8.82l1,4.85a1.43,1.43,0,0,0,1.77,1.23c.84-.15,1.67-.33,2.51-.49l2.49-.49s.33-.1.23-.17L37.1,9.33l-1-.64c-.11-.07-.47.1-.4.15l6.58,4.42,1,.64.23-.17-4.68.92a1.45,1.45,0,0,1-1.12-.07,1.38,1.38,0,0,1-.6-1L36.61,11l-.45-2.32C36.13,8.6,35.71,8.7,35.73,8.82Z"/></g><g id="_Group_12" data-name="&lt;Group&gt;"><path class="cls-4" d="M22.44,20.66l-.08,1.09-.95.19.44-4.28,1.2-.23,2,3.79-1,.19-.51-1Zm.89-.88L22.91,19c-.12-.23-.25-.51-.36-.74h0c0,.25,0,.57,0,.82l-.07.9Z"/></g><g id="_Group_13" data-name="&lt;Group&gt;"><path class="cls-11" d="M22.1,20.73,22,21.82l-.95.19.44-4.28,1.2-.24,2,3.79-1,.19-.51-1Zm.89-.88L22.57,19c-.12-.23-.25-.51-.36-.74h0c0,.25,0,.57,0,.82l-.07.9Z"/></g><path class="cls-5" d="M40.58,16.75l-5,1-7.91,1.55-1.84.36c-.26.05-.19.29.06.24l5-1,7.91-1.55L40.65,17c.26-.05.19-.29-.06-.24Z"/><path class="cls-5" d="M41.57,21.78,34.88,23.1,24.22,25.19l-2.43.48c-.26.05-.2.27.06.22l6.69-1.31L39.2,22.48,41.63,22c.26-.05.2-.27-.06-.22Z"/><path class="cls-5" d="M41.15,19.31l-6.69,1.31L23.8,22.71l-2.43.48c-.16,0-.38.2-.08.14L28,22l10.66-2.09,2.43-.48c.16,0,.38-.2.08-.14Z"/><path class="cls-5" d="M42.65,27,36,28.3,25.3,30.39l-2.43.48c-.18,0-.36.24-.07.18l6.69-1.31,10.66-2.09,2.43-.48c.18,0,.36-.24.07-.18Z"/><path class="cls-5" d="M42.09,24.46,35.4,25.77,24.74,27.86l-2.43.48c-.26.05-.2.27.06.22l6.69-1.31,10.66-2.09,2.43-.48c.26-.05.2-.27-.06-.22Z"/><path class="cls-5" d="M43.14,29.49l-6.69,1.31L25.79,32.89l-2.43.48c-.18,0-.36.26-.07.2L30,32.26l10.66-2.09,2.43-.48c.18,0,.36-.26.07-.2Z"/><rect class="cls-4" x="12.44" y="28.4" width="46.64" height="26.97" rx="12.56" ry="12.56"/><rect class="cls-6" x="12.44" y="29.42" width="45.64" height="25.96" rx="12.08" ry="12.08"/><path class="cls-5" d="M58,55.26H14.34a2.11,2.11,0,0,1-1.2-.17c-.61-.41-.48-1.24-.48-1.88V35.65c0-2,0-4,0-6,0-.54.24-1.1.86-1.15H57.7a1.16,1.16,0,0,1,1.17,1.28V53.37c0,.69.14,1.84-.86,1.89-.16,0-.45.25-.16.24a1.41,1.41,0,0,0,1.45-1.35c0-.16,0-.32,0-.49V29.81a2.77,2.77,0,0,0,0-.54,1.29,1.29,0,0,0-1.29-1c-1.17,0-2.34,0-3.51,0H13.87a1.46,1.46,0,0,0-1.64,1.35c0,.54,0,1.08,0,1.63v21.8a5.58,5.58,0,0,0,.05,1.56c.24.77,1,.88,1.64.88H57.84C58,55.5,58.29,55.26,58,55.26Z"/><g id="_Group_14" data-name="&lt;Group&gt;"><rect id="_Path_7" data-name="&lt;Path&gt;" class="cls-4" x="30.03" y="39.1" width="9.92" height="7.12"/><g id="_Group_15" data-name="&lt;Group&gt;"><g id="_Group_16" data-name="&lt;Group&gt;"><path class="cls-5" d="M31.31,44H41c.17,0,.44-.26.16-.26H31.47c-.17,0-.44.26-.16.26Z"/></g><g id="_Group_17" data-name="&lt;Group&gt;"><path class="cls-5" d="M31.31,42.25H41c.17,0,.44-.25.16-.25H31.47c-.17,0-.44.25-.16.25Z"/></g><g id="_Group_18" data-name="&lt;Group&gt;"><path class="cls-5" d="M31.31,40H41c.13,0,.46-.2.18-.2H31.48c-.13,0-.46.2-.18.2Z"/></g><g id="_Group_19" data-name="&lt;Group&gt;"><g id="_Group_20" data-name="&lt;Group&gt;"><path class="cls-5" d="M31.38,45.7h2.15c.24,0,.32-.31,0-.31H31.41c-.24,0-.32.31,0,.31Z"/></g><g id="_Group_21" data-name="&lt;Group&gt;"><path class="cls-5" d="M35.14,45.71h2.15c.25,0,.32-.33,0-.33H35.18c-.25,0-.32.33,0,.33Z"/></g></g></g></g></svg>