<svg id="Layer_1" data-name="Layer 1" xmlns="http://www.w3.org/2000/svg" viewBox="0 0 83.48 55.53"><defs><style>.cls-1{fill:#ecf8fb;}.cls-2{fill:#abdff5;}.cls-3{fill:#e3e3e3;}.cls-4{fill:#fff;}.cls-5{fill:#637aaa;}.cls-6{fill:#eee;}.cls-7{fill:#65e393;}</style></defs><title>Artboard 11</title><path class="cls-1" d="M22.14,54.63c-1.69-.27-22-2.71-20.47-20.71S5,10.51,12.92,8.52,40-2.83,55,6.08,86.26,23,79.83,37.21s-7.49,19-24.29,18.25S30.16,55.92,22.14,54.63Z"/><path class="cls-2" d="M1.39,50.89C.12,50.64-.34,50.34.27,50c4.25-2.48,23.31-2.52,32.56-2.57,11.63-.06,23.73-.2,34.21.34,4.38.23,14.31.4,16,1.22,4.45,2.16-27.24,2.94-32.37,3C42.12,52.08,8.65,52.3,1.39,50.89Z"/><path id="_Path_" data-name="&lt;Path&gt;" class="cls-3" d="M77.65,49.66H3.76A3.67,3.67,0,0,1,.09,46v-.22a.22.22,0,0,1,.22-.22h80.8a.22.22,0,0,1,.22.22V46A3.68,3.68,0,0,1,77.65,49.66Z"/><path id="_Path_2" data-name="&lt;Path&gt;" class="cls-3" d="M74.31,47.12V6.34A1.32,1.32,0,0,0,73,5H8.45A1.32,1.32,0,0,0,7.16,6.34V47.12Z"/><g id="_Group_" data-name="&lt;Group&gt;"><path class="cls-4" d="M75.42,45.53V6.32A1.29,1.29,0,0,0,74.12,5H9.56A1.29,1.29,0,0,0,8.27,6.32V45.53Z"/><path class="cls-5" d="M75.64,45.51V7.24c0-.31,0-.63,0-.94A1.51,1.51,0,0,0,74,4.88h-63C9.78,4.88,8.11,4.71,8,6.34,8,7.52,8,8.71,8,9.89V45.55c0,.12.11.14.21.14H72.66c.87,0,1.75,0,2.62,0h.11c.25,0,.35-.31,0-.31H9.3a5.75,5.75,0,0,0-.9,0H8.29l.21.14V7.42c0-.37,0-.74,0-1.11A1.09,1.09,0,0,1,9.55,5.19H72.63c1,0,2.5-.26,2.56,1.18.05,1.27,0,2.56,0,3.84V45.55C75.19,45.77,75.64,45.7,75.64,45.51Z"/></g><g id="_Group_2" data-name="&lt;Group&gt;"><path class="cls-4" d="M78.79,49.66H4.89A3.67,3.67,0,0,1,1.23,46v-.22a.22.22,0,0,1,.22-.22h80.8a.22.22,0,0,1,.22.22V46A3.68,3.68,0,0,1,78.79,49.66Z"/><path class="cls-5" d="M78.9,49.51H5.5a5.2,5.2,0,0,1-1.32-.1A3.61,3.61,0,0,1,1.57,46.5a3.75,3.75,0,0,0,0-.77s-.23,0-.19,0H1.4c1,0,1.93,0,2.88,0H81.22a2.71,2.71,0,0,1,.86,0c.29.14,0,1.14-.07,1.39a3.34,3.34,0,0,1-3.1,2.4c-.2,0-.63.32-.24.31a4.25,4.25,0,0,0,3.23-1.51,3.79,3.79,0,0,0,.79-1.72c.06-.36.23-1.1-.27-1.19a3.72,3.72,0,0,0-.61,0H2.58c-.32,0-.64,0-1,0s-.55.06-.67.3a1.49,1.49,0,0,0,0,.63,3.64,3.64,0,0,0,.21,1,3.78,3.78,0,0,0,1.05,1.54c1.21,1.06,2.68,1,4.15,1H78.67C78.87,49.82,79.3,49.51,78.9,49.51Z"/></g><g id="_Group_3" data-name="&lt;Group&gt;"><path class="cls-5" d="M32.28,45.62c.27,1.25,1.46,1.16,2.45,1.16H48.56c1.09,0,2.55.15,2.85-1.25,0-.08-.08-.1-.14-.1H32.59c-.17,0-.48.26-.18.26H51.09l-.14-.1a1.14,1.14,0,0,1-1.23.94H35.46c-1,0-2.45.27-2.73-1C32.7,45.34,32.24,45.46,32.28,45.62Z"/></g><g id="_Group_4" data-name="&lt;Group&gt;"><rect class="cls-6" x="10.83" y="8.15" width="60.9" height="35.52"/><path class="cls-5" d="M71.81,8H18.43C16,8,13.48,7.94,11,8h-.1c-.07,0-.31,0-.31.16V42.24a7.38,7.38,0,0,0,0,1.4.33.33,0,0,1,0,.06c0,.08.07.1.14.1H64.13c2.47,0,4.95.07,7.41,0h.1c.07,0,.31,0,.31-.16V9.58a6.74,6.74,0,0,0,0-1.4.31.31,0,0,1,0-.06c0-.19-.45-.1-.45.06v35a1.66,1.66,0,0,0,0,.48.22.22,0,0,1,0,.06l.31-.16h-60a3.77,3.77,0,0,0-.82,0h-.1l.14.1v-35a1.66,1.66,0,0,0,0-.48.22.22,0,0,1,0-.06l-.31.16H64.13c2.47,0,4.95.06,7.41,0h.1C71.81,8.28,72.12,8,71.81,8Z"/></g><g id="_Group_5" data-name="&lt;Group&gt;"><rect id="_Path_3" data-name="&lt;Path&gt;" class="cls-4" x="17.05" y="0.18" width="48.22" height="43.45" rx="0.7" ry="0.7"/><path id="_Rectangle_" data-name="&lt;Rectangle&gt;" class="cls-6" d="M17,.18H62.1a3.16,3.16,0,0,1,3.16,3.16v.28a0,0,0,0,1,0,0H17a0,0,0,0,1,0,0V.18A0,0,0,0,1,17,.18Z"/><g id="_Group_6" data-name="&lt;Group&gt;"><path class="cls-5" d="M65.29,3.45H17.79a2.83,2.83,0,0,0-.64,0h-.08l.21.16a24,24,0,0,1,0-2.6c.07-.61.51-.65,1-.65H64a4.34,4.34,0,0,1,.67,0c.28,0,.36.25.37.5,0,.55,0,1.1,0,1.65V3.64c0,.25.46.18.46,0,0-.95,0-1.9,0-2.85,0-.55-.41-.75-.9-.75H18a1.17,1.17,0,0,0-1.15,1,10,10,0,0,0,0,1.35V3.64c0,.12.11.16.21.16H63.29c.62,0,1.27,0,1.89,0h.08C65.52,3.8,65.6,3.45,65.29,3.45Z"/></g><g id="_Group_7" data-name="&lt;Group&gt;"><circle id="_Ellipse_" data-name="&lt;Ellipse&gt;" class="cls-4" cx="19.84" cy="1.9" r="0.8"/><circle id="_Ellipse_2" data-name="&lt;Ellipse&gt;" class="cls-4" cx="22.24" cy="1.9" r="0.8"/><circle id="_Ellipse_3" data-name="&lt;Ellipse&gt;" class="cls-4" cx="24.63" cy="1.9" r="0.8"/></g><g id="_Group_8" data-name="&lt;Group&gt;"><g id="_Group_9" data-name="&lt;Group&gt;"><path class="cls-5" d="M20.87,1.84C20.8.6,18.82.75,18.82,1.94s2,1.11,2.05-.07c0-.21-.45-.13-.46,0s-.23.7-.61.62a.69.69,0,0,1-.53-.69.55.55,0,0,1,.64-.59.72.72,0,0,1,.5.69C20.42,2.13,20.88,2,20.87,1.84Z"/></g><g id="_Group_10" data-name="&lt;Group&gt;"><path class="cls-5" d="M23.26,1.84c-.07-1.21-2-1-2,.12s2,1,2-.12c0-.06-.45,0-.45.12,0,.39-.33.8-.76.55a.78.78,0,0,1-.38-.67c0-.37.32-.78.72-.57a.79.79,0,0,1,.42.69C22.81,2,23.27,2,23.26,1.84Z"/></g><g id="_Group_11" data-name="&lt;Group&gt;"><path class="cls-5" d="M25.66,1.84c-.07-1.22-2.06-1-2,.12s2,1,2-.12c0-.08-.44,0-.45.12,0,.39-.34.79-.76.55a.78.78,0,0,1-.38-.67c0-.36.31-.76.7-.58a.78.78,0,0,1,.44.7C25.21,2.05,25.67,2,25.66,1.84Z"/></g></g><g id="_Group_12" data-name="&lt;Group&gt;"><path class="cls-5" d="M64.61,43.54h-46c-.6,0-1.26,0-1.3-.83,0-.57,0-1.15,0-1.72V1.16c0-.34,0-.79.44-.89a1.56,1.56,0,0,1,.32,0H62.75c.5,0,1,0,1.53,0,.86.07.77.84.77,1.45V41.86c0,.43.16,1.64-.49,1.69-.11,0-.49.19-.2.17a1.08,1.08,0,0,0,1.14-1c0-.21,0-.43,0-.64V1.64c0-.69.06-1.5-.9-1.55C63.07,0,61.5.09,60,.09H18.28c-.69,0-1.44.21-1.46,1,0,.63,0,1.26,0,1.9V37c0,1.92,0,3.85,0,5.78,0,.81.67.91,1.3.91H64.32C64.41,43.72,64.82,43.54,64.61,43.54Z"/></g></g><rect class="cls-6" x="21.69" y="31.85" width="29.05" height="8.25" rx="3.79" ry="3.79"/><path class="cls-5" d="M24,33.71H35.61c.09,0,.51-.17.3-.17H24.26c-.09,0-.51.17-.3.17Z"/><path class="cls-5" d="M24,36h24.9c.15,0,.49-.22.19-.22H24.15c-.15,0-.49.22-.19.22Z"/><path class="cls-5" d="M23.86,38.42H48.51c.14,0,.49-.22.19-.22H24c-.14,0-.49.22-.19.22Z"/><rect class="cls-6" x="52.38" y="31.85" width="8.25" height="8.25" rx="3.79" ry="3.79"/><rect class="cls-6" x="21.69" y="19.66" width="29.05" height="8.25" rx="3.79" ry="3.79"/><path class="cls-5" d="M24,21.55H35.66c.14,0,.49-.21.19-.21H24.21c-.14,0-.49.21-.19.21Z"/><path class="cls-5" d="M24,23.84h24.9c.25,0,.35-.32,0-.32H24.08c-.25,0-.35.32,0,.32Z"/><path class="cls-5" d="M23.87,26.28H48.52c.2,0,.47-.31.16-.31H24c-.2,0-.47.31-.16.31Z"/><rect class="cls-7" x="52.38" y="19.66" width="8.25" height="8.25" rx="3.79" ry="3.79"/><path class="cls-4" d="M53.23,22.81l2.63,2.63c.17.17.71,0,.84-.18a19,19,0,0,1,3.73-3.74c.16-.11.09-.21-.07-.24a.94.94,0,0,0-.64.17,19.62,19.62,0,0,0-3.85,3.84l.84-.18-2.63-2.63c-.18-.18-1,.15-.85.33Z"/><rect class="cls-6" x="21.68" y="7.48" width="29.05" height="8.25" rx="3.79" ry="3.79"/><path class="cls-5" d="M24,9.41H35.67c.2,0,.47-.3.16-.3H24.2c-.2,0-.47.3-.16.3Z"/><path class="cls-5" d="M24,11.63h24.9c.17,0,.48-.26.17-.26H24.14c-.17,0-.48.26-.17.26Z"/><path class="cls-5" d="M23.86,14.06H48.51c.15,0,.49-.22.18-.22H24c-.15,0-.49.22-.18.22Z"/><rect class="cls-7" x="52.38" y="7.48" width="8.25" height="8.25" rx="3.79" ry="3.79"/><path class="cls-4" d="M53.23,10.63l2.63,2.63c.17.17.71,0,.84-.18a19,19,0,0,1,3.73-3.74c.16-.11.09-.21-.07-.24a.94.94,0,0,0-.64.17,19.62,19.62,0,0,0-3.85,3.84l.84-.18-2.63-2.63c-.18-.18-1,.15-.85.33Z"/></svg>