<svg id="Layer_1" data-name="Layer 1" xmlns="http://www.w3.org/2000/svg" viewBox="0 0 82.9 62.42"><defs><style>.cls-1{fill:#ecf8fb;}.cls-2{fill:#abdff5;}.cls-3{fill:#cfcfcf;}.cls-4{fill:#e3e3e3;}.cls-5{fill:#637aaa;}.cls-6{fill:#e5e5e5;}.cls-7{fill:#fff;}.cls-8{fill:#88cdee;}.cls-9{fill:#ff8f7f;}.cls-10{fill:#ffac98;}.cls-11{fill:#637aab;}</style></defs><title>Artboard 9</title><path class="cls-1" d="M21.38,61.48C19.62,61.2-1.47,58.66.08,39.93s3.5-24.36,11.7-26.42S39.92,1.71,55.56,11,88.09,28.56,81.39,43.36s-7.8,19.74-25.27,19S29.73,62.82,21.38,61.48Z"/><path class="cls-2" d="M62,56.54c2.1.63-3.09,1.48-3.81,1.54A129,129,0,0,1,34,57.6a3.52,3.52,0,0,1-.91-.18c-1.92-.78,4.26-1.32,4.83-1.36,2.13-.15,4.3-.25,6.45-.27C47.46,55.77,59.39,55.76,62,56.54Z"/><path class="cls-2" d="M34.13,56.61c1.23.59-1.81,1.4-2.24,1.46a47.31,47.31,0,0,1-14.15-.46,1.41,1.41,0,0,1-.54-.17c-1.13-.74,2.5-1.24,2.83-1.28a37.28,37.28,0,0,1,3.78-.25C25.6,55.88,32.6,55.88,34.13,56.61Z"/><path class="cls-3" d="M32,41.71c0-.08-5.19-.22-6.08-.22-1.9,0-7.59-.67-7.61-.68s0,.25,0,.28a7.34,7.34,0,0,0,.18.8c.11.41.23.82.35,1.22s.32,1,.49,1.55.4,1.19.61,1.78.45,1.27.69,1.91.49,1.3.74,1.94.5,1.25.76,1.87.49,1.14.75,1.71.46,1,.71,1.45a11.48,11.48,0,0,0,.64,1.08,2.73,2.73,0,0,0,.53.63c.16.13.38.11.38-.13,0-1,0-2,.07-3q0-1.77.05-3.53,0-1.49,0-3c0-.22,0-.45,0-.67s0-.53.15-.49.12.69.13.84q0,.52,0,1,0,1.45,0,2.9t0,3.12c0,.77,0,1.54,0,2.31,0,.13,0,.45,0,.57a.23.23,0,0,0,.21.11c.19,0,.3-.27.37-.41.58-1.13,1.2-2.25,1.76-3.39.28-.56.53-1.13.79-1.7s.48-1.18.76-1.74l0,0a44.74,44.74,0,0,0,1.88-5.3,20.74,20.74,0,0,0,.58-2.23A1.94,1.94,0,0,0,32,41.71Z"/><path class="cls-4" d="M32,41.71c0-.08-5.19-.22-6.08-.22-1.9,0-7.06-.6-7.06-.58.13.81,2.26,6.75,2.49,7.39s3.16,8.57,3.37,8.74.38.11.38-.13c0-1,0-2,.07-3q0-1.77.05-3.53,0-1.49,0-3c0-.22,0-.45,0-.67s0-.39.15-.49c.88-.67.64,4,.64,5s-.31,5.89-.22,5.88.3-.27.37-.41c.58-1.13,1.2-2.25,1.76-3.39.28-.56.53-1.13.79-1.7s.48-1.18.76-1.74l0,0a44.74,44.74,0,0,0,1.88-5.3,20.74,20.74,0,0,0,.58-2.23A1.94,1.94,0,0,0,32,41.71Z"/><path class="cls-3" d="M18.25,41.05a.23.23,0,0,0,0,.18c.05.09.21.09.3.1s.25,0,.37.06l.38.08,1.83.43c.59.13,1.17.25,1.76.36l.9.15.45.06a1.26,1.26,0,0,1,.38.07,4.08,4.08,0,0,0,1.68.23q1.82,0,3.64,0a5,5,0,0,1,.8,0,2.5,2.5,0,0,0,.86-.05.39.39,0,0,0,.22-.56c-.12-.22-.36-.18-.56-.17a36.64,36.64,0,0,1-6.24.15,33.76,33.76,0,0,1-3.94-.72,3.59,3.59,0,0,1-.64-.15l-.66-.16c-.39-.1-.76-.23-1.15-.34a.35.35,0,0,0-.15,0C18.36,40.74,18.28,40.94,18.25,41.05Z"/><path class="cls-5" d="M18.2,41.37c1.85.44,3.7.86,5.57,1.2a25.21,25.21,0,0,0,5,.28l2.8-.08c.08,0,.34-.13.13-.12-1.76.06-3.53.12-5.3.07a27.52,27.52,0,0,1-5.06-.82l-2.89-.66c-.07,0-.34.1-.25.12Z"/><path class="cls-5" d="M32.12,41.64c-.13-.17-.72-.11-.9-.12l-2.06-.08c-1.18,0-2.36,0-3.54-.08a39.18,39.18,0,0,1-4.52-.54l-2-.33a2.8,2.8,0,0,0-.85-.13c-.28.05-.19.4-.17.6a9.84,9.84,0,0,0,.36,1.54c.36,1.26.78,2.51,1.21,3.75.88,2.52,1.79,5,2.91,7.46q.38.83.81,1.64a7.37,7.37,0,0,0,1,1.57c.2.21.55.51.82.22a.69.69,0,0,0,.12-.45c.06-1,.07-2.05.09-3.08.05-2.4,0-4.81.17-7.21a.54.54,0,0,0,0-.13c0-.06,0-.05,0,0l-.24.06c-.11,0-.06,0-.06.14s0,.2,0,.3,0,.42,0,.64q0,.81,0,1.63,0,1.54,0,3.08t0,3.25c0,.42,0,.84.05,1.26,0,.24,0,.53.33.6.62.14.85-.76,1-1.15.44-.91.89-1.81,1.33-2.71.86-1.76,1.68-3.55,2.37-5.38q.59-1.57,1.06-3.17c.15-.53.32-1.06.46-1.6a4.64,4.64,0,0,0,.24-1.54c0-.16-.36-.08-.34.09a4.22,4.22,0,0,1-.21,1.34c-.13.51-.29,1-.43,1.53q-.39,1.35-.87,2.68c-.6,1.66-1.3,3.3-2.06,4.9-.41.87-.84,1.73-1.27,2.59L26.36,56c-.08.16-.3.89-.49.92s-.25-.91-.25-1c0-.47,0-.94,0-1.41q0-1.48,0-3c0-1.06,0-2.13,0-3.19,0-.53,0-1.06,0-1.59,0-.13.08-.59-.1-.65a.24.24,0,0,0-.24.06c-.09.09-.05.39-.06.5,0,.42,0,.85,0,1.27,0,1.29-.05,2.58-.08,3.88S25,54.3,25,55.55c0,.38,0,.77,0,1.15a.6.6,0,0,1,0,.15c-.07.2-.25-.07-.34-.18a8.44,8.44,0,0,1-.91-1.48,58.43,58.43,0,0,1-3-7q-.65-1.77-1.25-3.56a22.36,22.36,0,0,1-1-3.58,2.67,2.67,0,0,0,0-.38.74.74,0,0,0,0-.11s-.19.08-.2.07h0a1.24,1.24,0,0,0,.36.06l1.64.27c1.47.24,3,.47,4.44.6,1,.1,2.07.07,3.1.1,1.27,0,2.54.05,3.81.14l.22,0c.09,0,.09.05,0,0C31.91,41.92,32.23,41.78,32.12,41.64Z"/><path class="cls-5" d="M21.41,42.75a2.46,2.46,0,0,1-.72,1.68c-.09.09.25.06.31,0a2.57,2.57,0,0,0,.75-1.76c0-.08-.34,0-.34.09Z"/><path class="cls-5" d="M28.69,43.1a3.28,3.28,0,0,0,1,1.79c.11.1.43,0,.31-.15A3.16,3.16,0,0,1,29,43c0-.15-.37-.06-.34.09Z"/><path class="cls-6" d="M18,40.63a31,31,0,0,1,.6-4.6q.25-1.26.6-2.49.17-.61.38-1.22A7.6,7.6,0,0,0,20,31.24c0-.33-.19-.6-.34-.86.28-.28.66-.42,1-.67s.35-.62.54-.92a7.5,7.5,0,0,1,1.34-1.69,3.12,3.12,0,0,1,3.36-.7l.35.16c3.25,1.68,5,8.73,5.85,15.63,0,0-5.92,0-7.87-.3C22.51,41.68,18,40.63,18,40.63Z"/><path class="cls-6" d="M27.89,23.07c0-3-1.34-5.49-3-5.49s-3,2.46-3,5.49v.54a13,13,0,0,0,.39,3.67,4.31,4.31,0,0,0,2.53,2.38s2.06-.69,2.59-2.18a12.12,12.12,0,0,0,.46-3.86Z"/><path class="cls-7" d="M18.83,40.91a43.77,43.77,0,0,1,1.5-9.29c.05-.18-.12-.1-.36-.43a5.82,5.82,0,0,1-.41-.91c.52-.28,1.15-.56,1.39-1.12a.12.12,0,0,1,.06-.07c.05,0,.1,0,.13.07a6.13,6.13,0,0,0,2.21,1.62,5.29,5.29,0,0,0,2.83.69c.1,0,.45-.65.55-.67.38-.05.5.51,1,.47.65-.07,1.16-1.62,1.16-1.62,1.59,3.1,2.57,7.85,3.18,12.54,0,0-5.92,0-7.87-.3C22.51,41.68,18.83,40.91,18.83,40.91Z"/><path class="cls-7" d="M28.34,28.87l-.69-1.08L26.13,29l-4.25-1.16a5.16,5.16,0,0,0-.38.5c-.11.18,1,1.21,1.57,1.6A11.73,11.73,0,0,0,25.18,31a2.52,2.52,0,0,0,.68.19s.38,0,.38,0l.19-1.33,1.15,1.07A2.33,2.33,0,0,0,28.34,28.87Z"/><path class="cls-7" d="M27.89,23.61v-.54c0-3-1.34-5.49-3-5.49a1.34,1.34,0,0,0-1.35,1A19.57,19.57,0,0,0,22.51,24c0,.67,0,1.46,0,1.88s0,1.48,0,1.48-.21,0-.21,0a.28.28,0,0,0,0,.05c-.26.1-.48.24-.43.44a4.21,4.21,0,0,0,.93,1.48,3.26,3.26,0,0,0,.61.39,4.19,4.19,0,0,0,1,.33,2.87,2.87,0,0,0,1.63-.15A3.13,3.13,0,0,0,27.65,28a.5.5,0,0,0-.23-.46v0A12.12,12.12,0,0,0,27.89,23.61Z"/><path class="cls-5" d="M26.31,29.91c.38.38.76.76,1.14,1.13a.21.21,0,0,0,.25,0,2.37,2.37,0,0,0,.89-2.19c0-.17-.37-.08-.34.09a2.1,2.1,0,0,1-.77,1.93l.25,0c-.37-.35-.73-.72-1.09-1.08-.12-.11-.44,0-.31.15Z"/><path class="cls-5" d="M26.12,29.81l0,1.49.31-.11a8.57,8.57,0,0,1-1.77-.62,8.54,8.54,0,0,1-3-2c-.05-.06-.37.06-.32.11a8.62,8.62,0,0,0,3.05,2.09,8.65,8.65,0,0,0,1.71.59c.06,0,.31,0,.31-.11l0-1.49s-.34,0-.34.09Z"/><path class="cls-4" d="M26.92,32.4c0,1,0,2,0,3a7,7,0,0,1-.68,3.29,14.33,14.33,0,0,1,1.06,1.76c.22-.23,1-1.2,1.27-1.44.44-.48-.1-3.59-.32-4.5-.11-.46-.56-2.54-1-2.51h-.16c-.12,0-.22.15-.2.32Z"/><path class="cls-2" d="M26.94,32.29c.09,1,.18,2,.28,3a7,7,0,0,1-.41,3.34C27,39,27.94,40,28,40.32c.2-.24.95-1.28,1.14-1.54.39-.52-.4-3.57-.69-4.46-.15-.45-.77-2.48-1.2-2.42l-.16,0c-.12,0-.2.17-.18.34Z"/><path class="cls-5" d="M26.81,32.32c.08.92.17,1.84.25,2.76A8.5,8.5,0,0,1,27,37.69c0,.18-.08.36-.14.53a1.91,1.91,0,0,0-.16.47c0,.15.24.34.33.44a3.88,3.88,0,0,1,.88,1.22c0,.07.22,0,.25,0,.23-.29.45-.6.67-.9a4.24,4.24,0,0,0,.53-.74,1.8,1.8,0,0,0,0-.8,10.73,10.73,0,0,0-.2-1.3,20.68,20.68,0,0,0-.58-2.26,11.58,11.58,0,0,0-.76-2c-.11-.2-.25-.47-.5-.48s-.57.15-.53.48c0,.06.27,0,.26-.07-.07-.54.33-.18.45,0a5.57,5.57,0,0,1,.43.94c.19.5.36,1,.51,1.52.21.7.38,1.41.52,2.12a10.24,10.24,0,0,1,.15,1.06,1.89,1.89,0,0,1,0,.78,3.48,3.48,0,0,1-.52.74c-.22.3-.44.61-.67.9l.25,0a3.47,3.47,0,0,0-.79-1.12c-.13-.15-.38-.38-.38-.58a2.71,2.71,0,0,1,.18-.58q.08-.3.13-.6a8.93,8.93,0,0,0,0-2.4c-.09-.92-.17-1.84-.25-2.76C27.06,32.19,26.8,32.24,26.81,32.32Z"/><path class="cls-2" d="M26.63,30.93c0-.1.12-.17.27-.1a2.48,2.48,0,0,1,.58.48c.14.13.22.23,0,.35a4.05,4.05,0,0,1-.63.22c-.32.11-.31-.46-.28-.63A1.54,1.54,0,0,1,26.63,30.93Z"/><path class="cls-5" d="M26.76,30.91c0-.1.52.38.57.43a.47.47,0,0,1,.12.14c0,.1-.06.16-.14.19a2.13,2.13,0,0,1-.42.13c-.18,0-.2-.17-.21-.32a1.55,1.55,0,0,1,.07-.57c0-.08-.23,0-.26,0a1.21,1.21,0,0,0,0,.91.27.27,0,0,0,.28.1,2.65,2.65,0,0,0,.65-.21c.11-.05.32-.14.29-.29s-.09-.14-.14-.19L27.32,31c-.23-.21-.64-.44-.82-.05C26.47,31,26.72,31,26.76,30.91Z"/><path class="cls-5" d="M26.52,25.73c-.19.16-1,.06-.94-.29s.52-.37.7-.32S26.81,25.47,26.52,25.73Z"/><path class="cls-2" d="M27,18.81a2.07,2.07,0,0,0,.52-1.18c.21.4.32.88.52,1.29a3.29,3.29,0,0,1,.28.72,2.19,2.19,0,0,1-.11,1.18,6.24,6.24,0,0,1-.54,1.07s.08-.06.07-.11l-.13-.72c0,.05-.19.15-.23.21l-.25.35A.59.59,0,0,0,27,21.1h-.08a1.49,1.49,0,0,1-.45.42l.1,0a1,1,0,0,0-.13-.34c-.12-.2-.33-.34-.45-.54s0-.3.09-.59A5.75,5.75,0,0,1,27,18.81Z"/><path class="cls-2" d="M20.52,19.65l.11-.19a4,4,0,0,1-1.31.08,2.48,2.48,0,0,0,1.31-.49c1.29-.89,2.24-2.34,3.82-2.76a2.41,2.41,0,0,1,1.81.32c.46.26,1.26.64,1,1.25a7.49,7.49,0,0,1-3.34,3.29,1.8,1.8,0,0,0-.61.34,1.58,1.58,0,0,0-.27.62c0-.05-.28-.62-.34-.55a2.21,2.21,0,0,0-.48.79c-.08.25.12.61,0,.82-.36-.07-.44-.5-.53-.8s-.49.18-.56.25-.74.49-.8.72l.28-1.12q-.5.17-1,.31c.28-.08.57-.67.69-.9a4.6,4.6,0,0,0,.43-1.1,4.48,4.48,0,0,1-.48.17.57.57,0,0,1-.51-.14A4.36,4.36,0,0,0,20.52,19.65Z"/><path class="cls-5" d="M20.12,31.11c-.12-.3-.28-.57-.38-.87l-.06.13a4.25,4.25,0,0,1,.85-.5A.82.82,0,0,0,21,29.4a9.31,9.31,0,0,1,1.45-2.07.11.11,0,0,0,0-.1,14.4,14.4,0,0,1-.39-4.3,7.14,7.14,0,0,1,1.3-4.39,2,2,0,0,1,1.42-.84,1.93,1.93,0,0,1,1.44.7,6.75,6.75,0,0,1,1.44,4.29,13.35,13.35,0,0,1-.44,4.74c-.07.19.28.2.33,0A9.94,9.94,0,0,0,28,24.7a15.65,15.65,0,0,0-.12-3.35c-.26-1.48-1.08-3.83-2.91-3.91S22.28,19.57,22,21a13.84,13.84,0,0,0-.2,3.4,16.44,16.44,0,0,0,.12,1.64c0,.22.06.45.11.67s0,.21.07.31.07.28.1.19c0,.1-.23.22-.31.31a5.48,5.48,0,0,0-.4.56c-.26.38-.49.78-.73,1.18l-.19.33s.13,0,0,0a1.24,1.24,0,0,0-.21.09,4.6,4.6,0,0,0-.87.53.13.13,0,0,0-.06.13c.11.3.27.57.38.87s.4.06.34-.09Z"/><path class="cls-5" d="M23,28.28a9.7,9.7,0,0,0,2.2.81,3.9,3.9,0,0,0,1.06.15,2,2,0,0,0,1.59-1.47l-.33.09a14,14,0,0,1,2.29,4.52,42.59,42.59,0,0,1,1.49,6.07c.23,1.26.42,2.52.58,3.79l.28-.12c-2.49,0-5,0-7.48-.26a37.81,37.81,0,0,1-4.35-.81l-1.85-.41c-.06,0-.3,0-.34-.08s0-.26,0-.27,0-.23,0-.34,0-.52.07-.77a31.7,31.7,0,0,1,1.84-7.81c0-.06-.3,0-.34.06a30.81,30.81,0,0,0-2,9.25l0,0c1.84.42,3.68.84,5.54,1.16a43,43,0,0,0,6.37.37l2.18,0c.05,0,.29,0,.28-.12A66.69,66.69,0,0,0,31,35.51a27.11,27.11,0,0,0-1.85-5.57,10.65,10.65,0,0,0-1.38-2.2c0-.06-.31,0-.33.09-.18.5-.61,1.27-1.2,1.26a4.75,4.75,0,0,1-1.11-.21,9.62,9.62,0,0,1-1.89-.72c-.09,0-.36.1-.32.12Z"/><path class="cls-5" d="M29,30.31a10.37,10.37,0,0,0,3.19,4.31A8.16,8.16,0,0,0,36,36.25c.25,0,.5,0,.76.08s.28.23.39.44.4,0,.31-.15c-.19-.38-.24-.52-.69-.55a7.82,7.82,0,0,1-4.13-1.5,10,10,0,0,1-3.3-4.34c-.07-.16-.41-.06-.34.09Z"/><path class="cls-5" d="M19.54,30.6c-1,.44-1.59-.5-1.84-1.3A4.37,4.37,0,0,1,18,26.2c.9-2,2.6-3.34,4-4.92.4-.45.75-.95,1.17-1.38a1.6,1.6,0,0,0,.38-.45c.05-.12.07-.47.24-.47s.36-.22.13-.22a.57.57,0,0,0-.63.43,1.16,1.16,0,0,1-.33.57,9.55,9.55,0,0,0-.66.77c-.83,1-1.79,1.92-2.68,2.88-1.5,1.62-3.17,4-2.17,6.33a1.59,1.59,0,0,0,2.2,1c.21-.1,0-.24-.14-.17Z"/><path class="cls-4" d="M46.93,56.44h0c-.39,0-.71,0-.71-.35V5.46a.71.71,0,0,1,.71-.71h0a.71.71,0,0,1,.71.71V56.09C47.64,56.48,47.33,56.44,46.93,56.44Z"/><path class="cls-5" d="M47.82,56.21V6.83c0-.47,0-1,0-1.43-.07-1.15-1.73-1-1.76.1,0,.2,0,.4,0,.59v50c0,.05,0,.1,0,.15,0,.46.77.31,1.07.33s.35-.21.12-.24-.76.11-.85-.16a.86.86,0,0,1,0-.22V7.44c0-.65,0-1.29,0-1.94a.73.73,0,0,1,.15-.5c.4-.45.91,0,.93.5,0,.19,0,.38,0,.57V56.24c0,.17.35.11.35,0Z"/><path class="cls-8" d="M40.94,13.06H54.12v5.08a.64.64,0,0,0,1.09.45l8.11-8.11a.65.65,0,0,0,0-.92L55.21,1.45a.64.64,0,0,0-1.09.45V6.82H40.94Z"/><path class="cls-2" d="M43.08,12.32l10.59,0a.69.69,0,0,1,.69.69V17a.6.6,0,0,0,1,.41l7-7a1.2,1.2,0,0,0,0-1.71l-7-6.89c-.78-.77-1.25-.51-1.25.41v4.7l-12.53,0v4A1.45,1.45,0,0,0,43.08,12.32Z"/><path class="cls-5" d="M40.93,13.19H54.11l-.16-.12v4.86a1.26,1.26,0,0,0,.07.53.85.85,0,0,0,1.42.1l6-6c.66-.66,1.37-1.29,2-2a.82.82,0,0,0-.13-1.21l-1-1L55.82,1.83a4.51,4.51,0,0,0-.58-.56.86.86,0,0,0-1.09.14.9.9,0,0,0-.2.66V6.84l.19-.14H41c-.07,0-.19.06-.19.14v6.23c0,.18.35.14.35,0V6.81L40.93,7H54.11c.07,0,.19-.06.19-.14V3.1a8.05,8.05,0,0,1,0-1.3.45.45,0,0,1,.79-.24l.25.25,6,6C62,8.43,62.61,9,63.16,9.63c.37.43.07.74-.22,1l-1,1-6.23,6.23c-.21.21-.4.44-.63.63a.48.48,0,0,1-.79-.4c0-.15,0-.3,0-.45V13c0-.09-.08-.12-.16-.12H41C40.75,12.93,40.69,13.19,40.93,13.19Z"/><path class="cls-9" d="M51.73,21.57H38.55v5.08a.64.64,0,0,1-1.09.45L29.35,19a.65.65,0,0,1,0-.92L37.46,10a.64.64,0,0,1,1.09.45v4.92H51.73Z"/><path class="cls-10" d="M49.59,20.83,39,20.85a.69.69,0,0,0-.69.69v3.93a.6.6,0,0,1-1,.41l-7-7a1.2,1.2,0,0,1,0-1.71l7-6.89c.78-.77,1.25-.51,1.25.41v4.7l12.53,0v4A1.45,1.45,0,0,1,49.59,20.83Z"/><path class="cls-5" d="M51.75,21.44H38.57c-.07,0-.19.06-.19.14v3.7c0,.45,0,.92,0,1.38a.45.45,0,0,1-.78.35l-.21-.21-6-6c-.63-.63-1.32-1.24-1.91-1.91-.34-.39-.13-.71.16-1l.94-.94,6.25-6.25c.23-.23.45-.48.69-.69a.47.47,0,0,1,.79.24,1.89,1.89,0,0,1,0,.48v4.58c0,.09.08.12.16.12H51.72l-.16-.12v6.23c0,.18.35.14.35,0V15.33c0-.09-.08-.12-.16-.12H38.57l.16.12v-4c0-.42.12-1.12-.19-1.45A.89.89,0,0,0,37.2,10l-6.13,6.13c-.62.62-1.29,1.21-1.86,1.86-.4.45-.17.9.18,1.25l1,1,6.49,6.49a2.19,2.19,0,0,0,.69.58.87.87,0,0,0,1-.38,1.16,1.16,0,0,0,.09-.59V21.56l-.19.14H51.72C51.92,21.7,52,21.44,51.75,21.44Z"/><path class="cls-11" d="M47,3.72v1c0,.09.21.05.21,0v-1c0-.09-.21-.05-.21,0Z"/><path class="cls-11" d="M46.58,3.78V4.7c0,.09.21.05.21,0V3.75c0-.09-.21-.05-.21,0Z"/><path class="cls-7" d="M48.23,3.41c.42-.08.82-.25,1.24-.33a3.1,3.1,0,0,0-.48-.9c-.12-.19,0-.22-.23-.05a1.8,1.8,0,0,1-2.36,0C46,1.62,46.52.36,45.84.15a.83.83,0,0,0-.53.06c-.26.11-.33.31-.43.55s-.13.36-.29.38c1,.27.31,1.36,1,2.17a1.35,1.35,0,0,0,1.39.4c.35-.07.69-.16,1-.25Z"/><path class="cls-5" d="M48.26,3.53c.42-.09.82-.24,1.24-.33.07,0,.16-.08.14-.17A3.67,3.67,0,0,0,49.07,2c0-.06-.13-.06-.19,0a.68.68,0,0,0-.26.17,1.65,1.65,0,0,1-.45.24,1.81,1.81,0,0,1-1,.07.91.91,0,0,1-.7-.56A3.42,3.42,0,0,1,46.41,1c0-.43-.11-.91-.62-1A1.08,1.08,0,0,0,45,.26a1,1,0,0,0-.21.31c0,.09-.11.42-.22.46s-.23.19-.07.24c.48.16.51.58.54,1a1.9,1.9,0,0,0,.42,1.2c.75.79,1.92.23,2.8.06.22,0,.15-.28-.06-.24a6.87,6.87,0,0,1-1.71.34,1.14,1.14,0,0,1-1-.94C45.3,2,45.48,1.28,44.7,1l-.07.24c.24-.08.33-.26.42-.48s.16-.4.4-.49a.4.4,0,0,1,.54.2c.22.48,0,1.06.19,1.54a1.37,1.37,0,0,0,1.25.65,2.41,2.41,0,0,0,.9-.15,2.17,2.17,0,0,0,.34-.16c.08,0,.25-.22.29-.22l-.19,0a3.51,3.51,0,0,1,.55,1L49.44,3c-.42.09-.82.24-1.24.33C48,3.34,48.05,3.58,48.26,3.53Z"/><path class="cls-7" d="M46.26,3a2.05,2.05,0,0,0,2.1,0c.61-.49.51-1.48.82-2.14a2.83,2.83,0,0,0-2.31.31,1.49,1.49,0,0,0-.48.79C46.32,2.18,46,2.89,46.26,3Z"/><path class="cls-5" d="M48.55,2.95c.59-.56.5-1.44.8-2.14,0,0,0,0,0,0a3.15,3.15,0,0,0-2.51.31,1.84,1.84,0,0,0-.64,1c-.07.22-.32.75-.07.94.07.06.37-.08.32-.12-.25-.19.09-.91.17-1.15a1.5,1.5,0,0,1,1.47-1,3.21,3.21,0,0,1,.46,0s.39,0,.43.07-.11.5-.14.62A2.62,2.62,0,0,1,48.24,3c-.07.07.25,0,.31,0Z"/><circle class="cls-11" cx="45.49" cy="0.99" r="0.12"/></svg>