<svg id="Layer_1" data-name="Layer 1" xmlns="http://www.w3.org/2000/svg" viewBox="0 0 19.03 19.03"><title>Artboard 24</title><path d="M17.76,4.74a9.48,9.48,0,0,0-3.46-3.46A9.31,9.31,0,0,0,9.52,0,9.31,9.31,0,0,0,4.74,1.28,9.47,9.47,0,0,0,1.28,4.74,9.31,9.31,0,0,0,0,9.52a9.31,9.31,0,0,0,1.28,4.78,9.47,9.47,0,0,0,3.46,3.46A9.31,9.31,0,0,0,9.52,19a9.31,9.31,0,0,0,4.78-1.28,9.47,9.47,0,0,0,3.46-3.46A9.32,9.32,0,0,0,19,9.52a9.32,9.32,0,0,0-1.28-4.78Zm-2.69,5.57a.8.8,0,0,1-.79.79H11.1v3.17a.8.8,0,0,1-.79.79H8.72a.8.8,0,0,1-.79-.79V11.1H4.76A.8.8,0,0,1,4,10.31V8.72a.8.8,0,0,1,.79-.79H7.93V4.76A.8.8,0,0,1,8.72,4h1.59a.8.8,0,0,1,.79.79V7.93h3.17a.8.8,0,0,1,.79.79Zm0,0"/></svg>