<svg id="Layer_1" data-name="Layer 1" xmlns="http://www.w3.org/2000/svg" viewBox="0 0 79.69 60.69"><defs><style>.cls-1{fill:#ecf8fb;}.cls-2{fill:#fff;}.cls-3{fill:#cfcfcf;}.cls-4{fill:#637aaa;}.cls-5{fill:#abdff5;}.cls-6{fill:#d5f2f8;}.cls-7{fill:#637aab;}.cls-8{fill:#e3e3e3;}.cls-9{fill:#99f7b8;}</style></defs><title>Artboard 14</title><path class="cls-1" d="M20.55,59.78c-1.69-.27-22-2.71-20.47-20.71S3.44,15.66,11.33,13.68s27-11.35,42.08-2.44,31.26,16.9,24.82,31.13-7.49,19-24.29,18.25S28.58,61.07,20.55,59.78Z"/><path class="cls-2" d="M10.14,32.46H32.47a1.4,1.4,0,0,1,1.4,1.4V37l1.71,1.71-1.71,1.71v8.09a1.4,1.4,0,0,1-1.4,1.4H10.14a1.4,1.4,0,0,1-1.4-1.4V33.86A1.4,1.4,0,0,1,10.14,32.46Z"/><path class="cls-3" d="M10.12,32.31H31.81a2.56,2.56,0,0,1,1.58.3,1.72,1.72,0,0,1,.67,1.53v2.72a1.22,1.22,0,0,0,0,.17c0-.05-.06-.06,0,0a13.32,13.32,0,0,1,1.29,1.29l.36.36a.11.11,0,0,1,0,.15l-.91.91-.59.59-.17.17c-.06.06,0,0,0,0a2.75,2.75,0,0,0,0,.66v1.43c0,2,0,4,0,6a1.57,1.57,0,0,1-1.65,1.57H12c-1.11,0-2.79.29-3.31-1a4,4,0,0,1-.11-1.46V34.87a8.15,8.15,0,0,1,0-1.28,1.56,1.56,0,0,1,1.51-1.27c.19,0,.39.28.13.29A1.3,1.3,0,0,0,8.93,33.9c0,.16,0,.31,0,.47v9.18c0,1.62,0,3.24,0,4.87a1.27,1.27,0,0,0,1.27,1.38H31.95a1.62,1.62,0,0,0,1.44-.47c.45-.54.29-1.52.29-2.17V40.86a1.3,1.3,0,0,1,0-.49c0-.09.18-.18.25-.25l.61-.61.85-.85v.15l-1-1c-.21-.21-.65-.49-.69-.81a12.11,12.11,0,0,1,0-1.64c0-.49,0-1,0-1.47a1.23,1.23,0,0,0-1.22-1.25H11.63c-.47,0-1,0-1.42,0h-.07C9.93,32.6,9.86,32.31,10.12,32.31Z"/><path class="cls-3" d="M10.24,42.56h21c.13,0,.41.2.15.2h-21c-.13,0-.41-.2-.15-.2Z"/><path class="cls-3" d="M10.33,44.74h21c.22,0,.3.28,0,.28h-21c-.22,0-.3-.28,0-.28Z"/><path class="cls-3" d="M19.58,47H31.32c.22,0,.3.28,0,.28H19.62c-.22,0-.3-.28,0-.28Z"/><path class="cls-3" d="M14.69,40.28H31.32c.22,0,.29.29,0,.29H14.72c-.22,0-.29-.29,0-.29Z"/><path class="cls-3" d="M16.42,36.41H31.17c.33,0,.44.44,0,.44H16.47c-.33,0-.44-.44,0-.44Z"/><path class="cls-2" d="M29.19.15H51.52a1.4,1.4,0,0,1,1.4,1.4V10.1l1.71,1.71-1.71,1.71v2.72a1.4,1.4,0,0,1-1.4,1.4H29.19a1.4,1.4,0,0,1-1.4-1.4V1.55A1.4,1.4,0,0,1,29.19.15Z"/><path class="cls-3" d="M29.17,0H51.5a1.63,1.63,0,0,1,1.62,1.45c.08,1,0,2,0,3V9.09a6.58,6.58,0,0,0,0,1c0-.08,0-.05,0,0a3.68,3.68,0,0,1,.3.3l.85.85.48.48a.11.11,0,0,1,0,.15c-.56.56-1.17,1.09-1.69,1.69-.05.06,0-.1,0,0a.89.89,0,0,0,0,.17v2.21a1.91,1.91,0,0,1-.3,1.22,1.6,1.6,0,0,1-1.29.62H29.59a2.23,2.23,0,0,1-1.24-.24,1.76,1.76,0,0,1-.76-1.67V2.28a4.16,4.16,0,0,1,.07-1.21A1.57,1.57,0,0,1,29.12,0c.19,0,.39.28.13.29A1.29,1.29,0,0,0,28,1.57c0,.12,0,.23,0,.35V15.18c0,.35,0,.71,0,1.06a1.26,1.26,0,0,0,1.36,1.25H49.83c.94,0,2.46.28,2.84-.88a3.85,3.85,0,0,0,.06-1.14V14c0-.21-.05-.45.08-.61a10.24,10.24,0,0,1,1-1l.69-.69v.15l-1.33-1.33c-.25-.25-.41-.34-.41-.67v-8c0-.61-.09-1.25-.75-1.51a1.84,1.84,0,0,0-.72-.09h-20c-.65,0-1.31,0-2,0H29.2C29,.29,28.91,0,29.17,0Z"/><path class="cls-3" d="M29.29,10.08h21c.13,0,.41.2.15.2h-21c-.13,0-.41-.2-.15-.2Z"/><path class="cls-3" d="M33.77,12.27H50.37c.22,0,.3.28,0,.28H33.8c-.22,0-.3-.28,0-.28Z"/><path class="cls-3" d="M38.63,14.53H50.37c.22,0,.3.28,0,.28H38.67c-.22,0-.3-.28,0-.28Z"/><path class="cls-3" d="M29.43,7.8H50.38c.22,0,.29.29,0,.29H29.46c-.22,0-.29-.29,0-.29Z"/><path class="cls-3" d="M35.47,4H50.36c.33,0,.44.44,0,.44H35.52c-.33,0-.44-.44,0-.44Z"/><path class="cls-4" d="M50.52,44a2,2,0,0,0-.8,1.66,1.43,1.43,0,0,0,.34,1c.14.11.46.2.61.07a.41.41,0,0,0,.12-.23.44.44,0,0,0-.09-.31l-.41-.08a.66.66,0,0,0-.2.15c-.57.59-.07,1.61.38,2.12a2.47,2.47,0,0,0,.91.66.6.6,0,0,0,.8-.16.36.36,0,0,0-.07-.49l.23.08a1.58,1.58,0,0,0-1.45,2.07,1.37,1.37,0,0,0,1.2,1,1.59,1.59,0,0,0,1.27-.64l.11.14c-.46-.19-.94.25-1.12.63a1.48,1.48,0,0,0,0,1.21c.26.62,1.78,2.28,2.18,1,.07-.21,0-.54-.3-.46a.64.64,0,0,0-.4.41,1.58,1.58,0,0,0,.41,1.38,2.78,2.78,0,0,0,2.22,1.08,1.6,1.6,0,0,0,1.13-.44c.27-.29.39-.89-.13-1a.78.78,0,0,0-.86.59,1.58,1.58,0,0,0,.27,1.3,2.19,2.19,0,0,0,2.16.88,1.9,1.9,0,0,0,1.06-.53.9.9,0,0,0,.26-.52c0-.27-.12-.67-.46-.51-.6.27-.39,1-.1,1.45a2.64,2.64,0,0,0,1.09.87,2.9,2.9,0,0,0,2.58-.15c.1-.05.45.09.31.17a3.49,3.49,0,0,1-3.46-.1,2.43,2.43,0,0,1-1.18-1.42.85.85,0,0,1,.8-1.07.79.79,0,0,1,.8.82c0,.64-.75,1-1.3,1.15a2.83,2.83,0,0,1-3-1.14,1.46,1.46,0,0,1,0-1.7,1.16,1.16,0,0,1,1.22-.23.73.73,0,0,1,.46,1.06,1.67,1.67,0,0,1-1.38.7,3.38,3.38,0,0,1-3.1-1.67c-.27-.5-.39-1.27.25-1.55a.79.79,0,0,1,1,.37c.17.57-.46,1-.94.92a2.61,2.61,0,0,1-1.76-1.24,1.7,1.7,0,0,1-.18-1.93,1.25,1.25,0,0,1,1.54-.46s.16.07.11.14a1.89,1.89,0,0,1-3.26-.7,1.66,1.66,0,0,1,.9-1.86c.37-.18,1.29-.4,1.27.29s-1,.58-1.49.38a3,3,0,0,1-1.51-1.55c-.27-.65-.18-1.75.75-1.72.5,0,1.16.67.57,1.07s-1.33-.2-1.53-.77a2.07,2.07,0,0,1,.73-2.27c.1-.07.45.08.36.14Z"/><path class="cls-5" d="M63.31,14.59a6.68,6.68,0,0,1,4.2,6.76c-.23,5.43-1.85,14.92-7.82,20.41-2.09,1.92-5,3.21-7.87,2.55-2.55-.58-4.27-2.61-3.54-5.3.37-1.36,1.36-3.51,3-3.6a18.33,18.33,0,0,1,4.82.62,4.91,4.91,0,0,0,1.09.16c1.93,0,3.23-2.45,3.88-4,.8-1.86,2.2-4.57,1.4-6.57-.69-1.73-3-2.35-4.39-3.43a3.55,3.55,0,0,1-.95-3.88c.32-1.2,1-3.13,2.07-3.81a3.2,3.2,0,0,1,1.73-.38A7,7,0,0,1,63.31,14.59Z"/><path class="cls-6" d="M63,14.46a6.21,6.21,0,0,1,3.78,6.49c-.32,5.28-2,14.53-7.69,20-2,1.91-4.72,3.22-7.39,2.63a3.9,3.9,0,0,1-3.19-5.08c.37-1.33,1.1-2.86,2.63-3a16.21,16.21,0,0,1,4.49.51,12.87,12.87,0,0,0,1.74.24c1.8-.05,3.31-3,3.94-4.5.78-1.82,2.08-4.79,1.37-6.72-.61-1.66-3.29-2.43-4.52-3.46a2.89,2.89,0,0,1-1-3.34c.32-1.17,1-3.06,2-3.75a3,3,0,0,1,1.63-.4A6.13,6.13,0,0,1,63,14.46Z"/><path class="cls-7" d="M63.39,14.51a6.9,6.9,0,0,1,4.32,6.66,36.6,36.6,0,0,1-1,7.58,30.56,30.56,0,0,1-3.14,8.35C62,39.81,59.86,42.45,57,43.78,54.41,45,50.73,45,48.78,42.65a4.11,4.11,0,0,1-.67-3.77A5.75,5.75,0,0,1,50,35.73a3,3,0,0,1,1.92-.44,16.4,16.4,0,0,1,2.75.34l1.44.3A3.22,3.22,0,0,0,57.6,36a3.46,3.46,0,0,0,1.74-1.2,14.26,14.26,0,0,0,2-3.66c.64-1.47,1.4-3.17,1.14-4.81-.5-3.11-5-2.84-5.63-5.85a7.08,7.08,0,0,1,.82-4.23,4.5,4.5,0,0,1,1.14-1.63,3.14,3.14,0,0,1,2.06-.58,7.58,7.58,0,0,1,2.51.46c.25.09,0,.23-.15.17a6.17,6.17,0,0,0-2.94-.36,2.55,2.55,0,0,0-1.78,1.21,8.08,8.08,0,0,0-.9,2,8.06,8.06,0,0,0-.45,2,3.33,3.33,0,0,0,.58,2.23A5.1,5.1,0,0,0,59.41,23a7.94,7.94,0,0,1,3,2.23,4.8,4.8,0,0,1,.11,4.05,26.49,26.49,0,0,1-1.65,3.92A6.3,6.3,0,0,1,58.49,36a2.8,2.8,0,0,1-1.81.27c-.91-.15-1.8-.4-2.71-.55a8.33,8.33,0,0,0-2.84-.15,2.67,2.67,0,0,0-1.52,1.09,6.33,6.33,0,0,0-1.3,3.69,3.87,3.87,0,0,0,1.88,3.2,6.38,6.38,0,0,0,4.75.64c3.13-.71,5.56-3.13,7.32-5.7a27.15,27.15,0,0,0,3.56-7.85,39.92,39.92,0,0,0,1.38-7.52,12.57,12.57,0,0,0,0-3.74,6.58,6.58,0,0,0-2.07-3.6,6.15,6.15,0,0,0-1.85-1.09C63,14.58,63.21,14.44,63.39,14.51Z"/><path class="cls-4" d="M72.61,11.41A16.9,16.9,0,0,1,69,14.27c-.12.07-.47-.1-.3-.2a16.63,16.63,0,0,0,3.53-2.81c.1-.11.47,0,.35.16Z"/><path class="cls-4" d="M73.75,16.36a17,17,0,0,1-4.53.72c-.14,0-.41-.21-.15-.22a16.65,16.65,0,0,0,4.45-.72c.12,0,.45.14.24.21Z"/><path class="cls-4" d="M66.4,12.32A18.91,18.91,0,0,0,68.2,7.6c0-.16.42-.06.38.1a19.15,19.15,0,0,1-1.83,4.77c-.07.14-.44,0-.35-.16Z"/><path class="cls-4" d="M63.77,11.93a16.72,16.72,0,0,0-.9-4.43c0-.1.34-.05.38.06a16.87,16.87,0,0,1,.9,4.48c0,.08-.38,0-.38-.1Z"/><path class="cls-8" d="M17.78,14.91H43.25a1.6,1.6,0,0,1,1.6,1.6V23l1.95,1.95-1.95,1.95v6.37a1.6,1.6,0,0,1-1.6,1.6H17.78a1.6,1.6,0,0,1-1.6-1.6V16.51A1.6,1.6,0,0,1,17.78,14.91Z"/><path class="cls-2" d="M18.65,14.13H44.11a1.6,1.6,0,0,1,1.6,1.6v6.49l1.95,1.95-1.95,1.95v6.37a1.6,1.6,0,0,1-1.6,1.6H18.65a1.6,1.6,0,0,1-1.6-1.6V15.72A1.6,1.6,0,0,1,18.65,14.13Z"/><path class="cls-7" d="M18.63,14H44a1.87,1.87,0,0,1,1.63.91,2.88,2.88,0,0,1,.23,1.51V22c0,.07,0,.14,0,.21s0,0,0,0a5.81,5.81,0,0,0,.58.58l.9.9.45.45a.11.11,0,0,1,0,.15l-.95.95a8.61,8.61,0,0,0-1,1s0-.1,0,0a1.54,1.54,0,0,0,0,.16v5.8a2.42,2.42,0,0,1-.17,1.11,1.78,1.78,0,0,1-1.61,1c-1.08,0-2.15,0-3.23,0H18.71a1.83,1.83,0,0,1-1.85-1.8c0-1.62,0-3.24,0-4.86V16.75a8.18,8.18,0,0,1,0-1.34A1.75,1.75,0,0,1,18.58,14c.19,0,.39.28.13.29a1.49,1.49,0,0,0-1.47,1.48c0,.15,0,.3,0,.45V31.94c0,.17,0,.34,0,.51a1.44,1.44,0,0,0,1.12,1.46,5.21,5.21,0,0,0,1,0H44.08a1.49,1.49,0,0,0,1.43-1.46c0-.81,0-1.63,0-2.44V26.56a1.23,1.23,0,0,1,0-.55A2.46,2.46,0,0,1,46,25.6l.66-.66.86-.86v.15l-1.33-1.33c-.24-.24-.65-.48-.66-.84,0-1.44,0-2.89,0-4.34V15.9a1.46,1.46,0,0,0-1.39-1.63c-.47,0-.94,0-1.41,0H20.65c-.63,0-1.27,0-1.9,0h-.09C18.44,14.27,18.37,14,18.63,14Z"/><path class="cls-7" d="M19.81,25.3H42.95c.13,0,.41.2.15.2H20c-.13,0-.41-.2-.15-.2Z"/><path class="cls-7" d="M22.7,27.71H43c.22,0,.3.28,0,.28H22.74c-.22,0-.3-.28,0-.28Z"/><path class="cls-7" d="M25.36,30.21H43c.22,0,.3.28,0,.28H25.39c-.22,0-.3-.28,0-.28Z"/><path class="cls-7" d="M19.93,22.85H43c.22,0,.29.29,0,.29H20c-.22,0-.29-.29,0-.29Z"/><rect class="cls-9" x="24.86" y="16.52" width="18.5" height="3.89" rx="1.95" ry="1.95" transform="translate(68.22 36.94) rotate(180)"/><path class="cls-2" d="M26.6,18.18h15c.45,0,.58.59.06.59h-15c-.45,0-.58-.59-.06-.59Z"/><path class="cls-7" d="M21.23,26.76a.17.17,0,0,1-.12.05q-.12,0-.17-.15a.58.58,0,0,0-.12-.21.28.28,0,0,0-.21-.07.28.28,0,0,0-.2.07.23.23,0,0,0-.08.18.2.2,0,0,0,0,.1l.06.08.12.11.15.14a.46.46,0,0,1,.13.33.17.17,0,0,1,0,.13.16.16,0,0,1-.11,0,.15.15,0,0,1-.16-.14l0-.09,0-.05,0-.06-.07-.07-.22-.2a.59.59,0,0,1-.11-.14.41.41,0,0,1,0-.2.47.47,0,0,1,.08-.26.54.54,0,0,1,.22-.19.76.76,0,0,1,.34-.07.73.73,0,0,1,.36.08.62.62,0,0,1,.23.21.47.47,0,0,1,.08.25A.16.16,0,0,1,21.23,26.76ZM20.51,28a.18.18,0,0,1-.06-.14.19.19,0,0,1,.19-.2.19.19,0,0,1,.14.06.19.19,0,0,1,.06.14.18.18,0,0,1-.06.15.21.21,0,0,1-.14.05A.2.2,0,0,1,20.51,28Z"/></svg>