<svg id="Layer_1" data-name="Layer 1" xmlns="http://www.w3.org/2000/svg" viewBox="0 0 68.93 66.64"><defs><style>.cls-1{fill:#abdff5;}.cls-2{fill:#dbdbdb;}.cls-3{fill:#637aaa;}.cls-4{fill:#eee;}.cls-5{fill:#f8f8f8;}.cls-6{fill:#fff;}.cls-7{fill:#88cdee;}</style></defs><title>Artboard 19</title><path class="cls-1" d="M5,64.94c-.94-.31-1.29-.67-.84-1.1C7.26,60.88,21.27,61,28.06,61c8.55,0,17.44-.06,25.14.67,3.22.3,10.53.59,11.79,1.59,3.31,2.64-20,3.35-23.73,3.38C35,66.68,10.38,66.7,5,64.94Z"/><path class="cls-2" d="M4.78,23.75l-2,30.77a1.9,1.9,0,0,0,1.9,2H59a2.22,2.22,0,0,0,2.21-2.08l2-30.72Z"/><path class="cls-3" d="M4.53,23.78l-.63,10-1,16.33-.27,4.24a2.09,2.09,0,0,0,1.14,2.16,2.76,2.76,0,0,0,1.2.2H57.59a5.31,5.31,0,0,0,2.67-.35c1.38-.79,1.26-2.34,1.34-3.7l.94-14.82.85-13.37,0-.74c0-.09-.08-.12-.16-.12H12c-2.35,0-4.72-.08-7.07,0h-.1c-.2,0-.53.3-.19.3H62.22a3.09,3.09,0,0,0,.78,0h.1l-.16-.12-.62,9.76-1,16.22L61,54.17a2.17,2.17,0,0,1-1.35,2.14,2.87,2.87,0,0,1-.93.09H6.3a4.6,4.6,0,0,1-2.41-.28c-1.18-.77-.75-2.55-.68-3.73l.94-14.83L5,24.42l0-.7C5,23.51,4.54,23.6,4.53,23.78Z"/><path class="cls-4" d="M4.78,23.55s-2,25.72,2.31,31c1.35,1.67,59.23,0,58.25-1-3.43-3.6-2.15-30-2.15-30Z"/><path class="cls-3" d="M4.53,23.58c-.26,3.37-.38,6.76-.43,10.14,0,2.91,0,5.82.13,8.73a48.65,48.65,0,0,0,.95,8,14.75,14.75,0,0,0,.92,2.92A3.13,3.13,0,0,0,7,54.77a5.8,5.8,0,0,0,2.27.38c3.57.29,7.17.28,10.74.28,5.19,0,10.38-.06,15.57-.17S46,55,51.19,54.78c3.77-.15,7.54-.3,11.3-.62a16,16,0,0,0,2.62-.32c.14,0,.48-.11.5-.3s-.23-.34-.3-.45a4.77,4.77,0,0,1-.45-.91A23.39,23.39,0,0,1,63.67,46c-.28-2.82-.38-5.66-.43-8.5-.08-4.41,0-8.83.17-13.25,0-.24,0-.49,0-.73,0-.09-.08-.13-.16-.13H12c-2.35,0-4.72-.07-7.07,0h-.1c-.21,0-.53.31-.19.31H62.22a3.06,3.06,0,0,0,.78,0h.1l-.16-.13c-.16,3.22-.22,6.44-.23,9.66a93.55,93.55,0,0,0,.86,16A17.64,17.64,0,0,0,64.22,52a6.78,6.78,0,0,0,.42,1c.07.14.3.66.47.69,0,0,.05-.12.05-.12s-.11,0-.21.05-.69.11-1,.15c-3.18.36-6.4.47-9.6.62-5,.23-9.93.39-14.89.51-5.24.13-10.48.23-15.72.25-4.06,0-8.14,0-12.2-.15a30.06,30.06,0,0,1-3.38-.27,2.41,2.41,0,0,1-.75-.19A4,4,0,0,1,6.49,53,24.14,24.14,0,0,1,5,46.25c-.32-2.91-.42-5.84-.45-8.76,0-4.42.1-8.84.39-13.25,0-.24,0-.48.05-.73S4.54,23.39,4.53,23.58Z"/><path class="cls-5" d="M4.78,23.55s.67,24,5,29.19c1.35,1.63,59.23,0,58.25-1-3.43-3.52-4.79-28.2-4.79-28.2Z"/><path class="cls-6" d="M8.59,23.55a1.7,1.7,0,0,0-1.7,1.78c.25,5.48,1.28,22,4.72,26.1,1.31,1.56,56.42.16,55.64-.95-2.56-3.67-3.91-26.93-3.91-26.93Z"/><path class="cls-5" d="M59.26,26.35c-1.43.23-1.85,1.45-2.93,2.2-.58-.47-2.44-1.83-2.44-1.83L50.1,29s-2-2.1-3.31-1.85a5.5,5.5,0,0,0-1.65.68,2.29,2.29,0,0,1-1,.43,4.63,4.63,0,0,1-1.7-.55,9.89,9.89,0,0,0-1.56-.59,4.15,4.15,0,0,0-3.06.53,9.27,9.27,0,0,0-2,2.09s-1.48-1.57-2.1-1.54a3.56,3.56,0,0,0-1.57.44c-.52.28-1.67,1.06-1.67,1.06s-1.57-.61-2.36-.87c-1-.32-1.89,1.07-2.82,1.35a17.16,17.16,0,0,1-2.45-1.52,7.12,7.12,0,0,0-2.42-1.05,4.43,4.43,0,0,0-2.55.71,13.2,13.2,0,0,0-2,1.6S13,27.47,12,27.28a4.14,4.14,0,0,0-2.41.52A4.79,4.79,0,0,1,6.25,28c-.51-.14-.8-.31-1.3-.48l-.21-2.79H63.16v3.53C62.08,27.47,60.85,26.08,59.26,26.35Z"/><path class="cls-3" d="M4.53,23.58c.09,3.33.32,6.65.61,10,.25,2.88.57,5.76,1,8.62a43.48,43.48,0,0,0,1.75,7.58,12.16,12.16,0,0,0,1.19,2.57c.21.33.37.61.75.73a10.75,10.75,0,0,0,2.52.33c3.6.25,7.22.24,10.82.24,5,0,10.07-.07,15.1-.17s10.15-.25,15.22-.45c3.74-.14,7.49-.29,11.22-.58a27.18,27.18,0,0,0,2.77-.3,1.38,1.38,0,0,0,.64-.2c.29-.26-.25-.65-.4-.89a18.23,18.23,0,0,1-1.79-5.62c-.56-2.67-.94-5.37-1.27-8.07-.53-4.35-.92-8.72-1.19-13.1,0-.25,0-.49,0-.74,0-.06-.11-.09-.16-.09H12c-2.35,0-4.72-.07-7.07,0h-.1c-.21,0-.53.32-.19.32H62.22a3.36,3.36,0,0,0,.78,0h.1l-.16-.09c.18,3.18.44,6.36.76,9.53.27,2.73.59,5.45,1,8.16a53.72,53.72,0,0,0,1.48,7.19,13.35,13.35,0,0,0,.92,2.4,4.54,4.54,0,0,0,.51.8c.13.15.17.19.19,0s0,0,0,0-.07,0-.1,0l-.33.06c-.4.06-.79.11-1.19.14-3.22.32-6.46.44-9.69.58-4.83.21-9.66.36-14.49.48q-7.64.19-15.28.24c-4,0-8.07,0-12.1-.13-1.18,0-2.37-.1-3.54-.24a4.9,4.9,0,0,1-.93-.17.39.39,0,0,1-.19-.08,4.3,4.3,0,0,1-.5-.71A20.4,20.4,0,0,1,7.36,45.7c-.59-2.72-1-5.48-1.31-8.25-.51-4.39-.82-8.81-1-13.22,0-.24,0-.47,0-.71S4.52,23.39,4.53,23.58Z"/><path class="cls-7" d="M26.79-12.85h1.14A13.26,13.26,0,0,1,41.19.4V32.3A13.26,13.26,0,0,1,27.93,45.55H26.79a0,0,0,0,1,0,0V-12.85A0,0,0,0,1,26.79-12.85Z" transform="translate(17.64 50.34) rotate(-90)"/><path class="cls-1" d="M37.27-12.66h0a4.12,4.12,0,0,1,4.12,4.12V40.08a4.12,4.12,0,0,1-4.12,4.12H28.15a0,0,0,0,1,0,0V-3.54a9.12,9.12,0,0,1,9.12-9.12Z" transform="translate(19 50.53) rotate(-90)"/><path class="cls-6" d="M59.26,25.3c-1.43.23-1.85,1.45-2.93,2.2-.58-.47-2.44-1.83-2.44-1.83L50.1,28s-2-2.1-3.31-1.85a5.5,5.5,0,0,0-1.65.68,2.29,2.29,0,0,1-1,.43,4.63,4.63,0,0,1-1.7-.55,9.89,9.89,0,0,0-1.56-.59,4.15,4.15,0,0,0-3.06.53,9.27,9.27,0,0,0-2,2.09s-1.48-1.57-2.1-1.54a3.56,3.56,0,0,0-1.57.44c-.52.28-1.67,1.06-1.67,1.06s-1.57-.61-2.36-.87c-1-.32-1.89,1.07-2.82,1.35a17.16,17.16,0,0,1-2.45-1.52,7.12,7.12,0,0,0-2.42-1.05,4.43,4.43,0,0,0-2.55.71,13.2,13.2,0,0,0-2,1.6S13,26.42,12,26.23a4.14,4.14,0,0,0-2.41.52,4.79,4.79,0,0,1-3.35.18c-.51-.14-1-.31-1.5-.48V23.66H63.16v3.53C62.08,26.43,60.85,25,59.26,25.3Z"/><path class="cls-3" d="M59.34,25.1a3.35,3.35,0,0,0-1.63.79,21.28,21.28,0,0,1-1.58,1.52l.46-.11c-.79-.64-1.62-1.23-2.44-1.83-.1-.07-.34,0-.43.08l-3.79,2.29.43-.08a8.5,8.5,0,0,0-1.77-1.42,2.76,2.76,0,0,0-2.79-.09,9.28,9.28,0,0,0-.89.46,1.49,1.49,0,0,1-1.5.09c-.66-.26-1.29-.6-2-.82a4.73,4.73,0,0,0-3.82.52,7.35,7.35,0,0,0-2,2.13l.49-.13c-.54-.57-1.37-1.56-2.22-1.56a6.79,6.79,0,0,0-3.54,1.59l.43-.08-1.44-.54a3.06,3.06,0,0,0-1.64-.35,4,4,0,0,0-1.57.88l-.52.37c-.13.09-.25.1-.09.11l-.09,0a3,3,0,0,1-.62-.35c-.66-.41-1.27-.89-1.93-1.28a7.86,7.86,0,0,0-1.63-.79,3.58,3.58,0,0,0-1.87,0,8.07,8.07,0,0,0-3.65,2.3l.46-.11c-.49-.42-1-.83-1.51-1.22a7.57,7.57,0,0,0-2.27-1.41c-1.33-.38-2.51.59-3.76.82a5.63,5.63,0,0,1-2.68-.32c-.21-.07-.8-.17-.89-.34a1.21,1.21,0,0,1,0-.4V23.48l-.42.17H62.23a3,3,0,0,1,.74,0H63c-.13-.09-.07.12-.07.2l.12,2,.08,1.3.49-.15c-1.27-.92-2.54-2.13-4.23-1.9-.12,0-.55.23-.22.19,1.56-.21,2.82,1,4,1.88.08.06.5,0,.49-.15l-.21-3.53s-.08,0-.09,0H12.11c-2.35,0-4.71-.06-7.07,0h-.1c-.08,0-.42,0-.42.17v2.81a7.94,7.94,0,0,0,3.8.65c1.24-.19,2.61-1.3,3.85-.74a15.74,15.74,0,0,1,3.48,2.51c.09.08.39,0,.46-.11,1.36-1.32,3.16-2.77,5.13-1.89A21.25,21.25,0,0,1,24,28.55c.34.22.79.62,1.23.57.89-.12,1.39-1.08,2.21-1.34.45-.14,1.06.2,1.48.35l1.07.41c.43.16.65,0,1-.22.83-.55,2.06-1.57,3.05-1a8.06,8.06,0,0,1,1.51,1.31c.08.09.43,0,.49-.13a6.31,6.31,0,0,1,2.34-2.25,4,4,0,0,1,3.44.2,6.37,6.37,0,0,0,1.95.7,2.7,2.7,0,0,0,1.55-.52,3.39,3.39,0,0,1,1.58-.61,2.28,2.28,0,0,1,.91.29,7.86,7.86,0,0,1,2,1.57c.08.08.36,0,.43-.08l3.79-2.29-.43.08c.82.6,1.65,1.2,2.44,1.83.1.08.38,0,.46-.11.9-.65,1.5-1.86,2.66-2.09C59.44,25.24,59.7,25,59.34,25.1Z"/><path class="cls-3" d="M4.53,10.6v13c0,.05.12,0,.15,0H55.92c2.35,0,4.72.1,7.07,0h.1c.09,0,.36-.05.36-.18V11.78c0-.92.19-2.12-.83-2.6A2.72,2.72,0,0,0,61.43,9H8.72C7.91,9,7.08,9,6.27,9A1.69,1.69,0,0,0,4.53,10.6c0,.1.5,0,.5-.13a1.17,1.17,0,0,1,1.1-1.2H58.38c1.07,0,2.14,0,3.21,0a1.41,1.41,0,0,1,1.35,1.6V23.62l.36-.18H5.76a4.64,4.64,0,0,0-.78,0h-.1l.15,0v-13C5,10.36,4.53,10.44,4.53,10.6Z"/><path class="cls-3" d="M24.17,9.14,31.28,2A3.73,3.73,0,0,1,33.52.68a3.59,3.59,0,0,1,2.91,1.18l3.82,3.81,3.55,3.54c.09.09.55-.1.48-.17L36.94,1.72A3.92,3.92,0,0,0,34.36.47a4.2,4.2,0,0,0-3.16,1.2C30,2.87,28.77,4.11,27.55,5.33L23.71,9.18c-.1.1.37,0,.46,0Z"/><circle class="cls-3" cx="34.04" cy="1.09" r="1.09" transform="translate(28.58 34.71) rotate(-82.62)"/><path class="cls-3" d="M37,47.13l-1.36-10q-2.49,2.28-3.45,2.33a1.21,1.21,0,0,1-.87-.33,1.31,1.31,0,0,1-.47-.83.9.9,0,0,1,.24-.84,6.94,6.94,0,0,1,1.14-.74,8.2,8.2,0,0,0,1.94-1.42,7.94,7.94,0,0,0,1.2-1.62A12.25,12.25,0,0,1,36,32.58a.89.89,0,0,1,.67-.23,1.23,1.23,0,0,1,1,.41A2.15,2.15,0,0,1,38.18,34l1.71,12.58q.3,2.21-1.2,2.28a1.5,1.5,0,0,1-1.13-.4A2.11,2.11,0,0,1,37,47.13Z"/><path class="cls-3" d="M39.84,17.15a8,8,0,0,1-5.59,2.05,8.55,8.55,0,0,1-5.59-2c-.21-.19-.82.27-.57.51A8.33,8.33,0,0,0,32,19.56a9.61,9.61,0,0,0,6.95-1.18,6.88,6.88,0,0,0,1.31-1c.37-.37-.13-.53-.41-.25Z"/><path id="_Path_" data-name="&lt;Path&gt;" class="cls-3" d="M39.13,13.7a1,1,0,0,0,.62,1.16.86.86,0,0,0,1-.69A1,1,0,0,0,40.17,13,.86.86,0,0,0,39.13,13.7Z"/><path id="_Path_2" data-name="&lt;Path&gt;" class="cls-3" d="M27.25,14a1,1,0,0,0,.62,1.16.86.86,0,0,0,1-.69,1,1,0,0,0-.62-1.16A.86.86,0,0,0,27.25,14Z"/><path class="cls-3" d="M64.22,30.7c2.58.52,4.63,2.73,4.13,5.46,0,.18.47.09.5-.07.52-2.86-1.63-5.11-4.32-5.65-.15,0-.59.2-.31.26Z"/><path class="cls-3" d="M4.23,30.21A11.85,11.85,0,0,0,1,33.76a6.05,6.05,0,0,0-.94,4.31c.74,3.07,4.5,3.79,7.16,3.73a30.3,30.3,0,0,0,5.11-.67c.32-.06.22-.41-.09-.34-2.69.53-5.68,1.09-8.36.24A5,5,0,0,1,.79,38.48a5,5,0,0,1,.45-4.14,11.15,11.15,0,0,1,3.31-3.91c.27-.2-.13-.38-.33-.23Z"/><path class="cls-3" d="M68.34,36.14c-.71,3.34-4.7,4.47-7.55,5.24-.31.08-.22.44.09.35,3.06-.83,7.21-2.06,8-5.62.05-.25-.46-.19-.51,0Z"/></svg>